<svg xmlns="http://www.w3.org/2000/svg" viewBox="0 0 59.5 59.5"><defs><style>.cls-1{fill:#f2f2f2;}.cls-2{fill:#969696;}</style></defs><g id="レイヤー_2" data-name="レイヤー 2"><g id="レイヤー_1-2" data-name="レイヤー 1"><rect class="cls-1" width="59.5" height="59.5" rx="10"/><path class="cls-2" d="M49.5,2a8,8,0,0,1,8,8V49.5a8,8,0,0,1-8,8H10a8,8,0,0,1-8-8V10a8,8,0,0,1,8-8H49.5m0-2H10A10,10,0,0,0,0,10V49.5a10,10,0,0,0,10,10H49.5a10,10,0,0,0,10-10V10a10,10,0,0,0-10-10Z"/><rect x="16.75" y="14.25" width="9.75" height="33"/><rect x="33" y="14.25" width="9.75" height="33"/></g></g></svg>