<svg xmlns="http://www.w3.org/2000/svg" xmlns:xlink="http://www.w3.org/1999/xlink" width="160" zoomAndPan="magnify" viewBox="0 0 120 50.999998" height="68" preserveAspectRatio="xMidYMid meet" version="1.0"><defs><g/><clipPath id="495d9e4774"><path d="M 7.5 0 L 112.5 0 C 116.640625 0 120 3.359375 120 7.5 L 120 43.5 C 120 47.640625 116.640625 51 112.5 51 L 7.5 51 C 3.359375 51 0 47.640625 0 43.5 L 0 7.5 C 0 3.359375 3.359375 0 7.5 0 Z M 7.5 0 " clip-rule="nonzero"/></clipPath><clipPath id="18090178b3"><path d="M 0 0 L 120 0 L 120 51 L 0 51 Z M 0 0 " clip-rule="nonzero"/></clipPath><clipPath id="5b4dfe601d"><path d="M 7.5 0 L 112.5 0 C 116.640625 0 120 3.359375 120 7.5 L 120 43.5 C 120 47.640625 116.640625 51 112.5 51 L 7.5 51 C 3.359375 51 0 47.640625 0 43.5 L 0 7.5 C 0 3.359375 3.359375 0 7.5 0 Z M 7.5 0 " clip-rule="nonzero"/></clipPath><clipPath id="6b6fda8ec6"><rect x="0" width="120" y="0" height="51"/></clipPath><clipPath id="a80192292e"><path d="M 6.148438 5.101562 L 57 5.101562 L 57 45.898438 L 6.148438 45.898438 Z M 6.148438 5.101562 " clip-rule="nonzero"/></clipPath><clipPath id="5fe1f3b797"><path d="M 8.398438 5.101562 L 54.75 5.101562 C 55.992188 5.101562 57 6.105469 57 7.351562 L 57 43.648438 C 57 44.894531 55.992188 45.898438 54.75 45.898438 L 8.398438 45.898438 C 7.15625 45.898438 6.148438 44.894531 6.148438 43.648438 L 6.148438 7.351562 C 6.148438 6.105469 7.15625 5.101562 8.398438 5.101562 Z M 8.398438 5.101562 " clip-rule="nonzero"/></clipPath><clipPath id="d2f374f4df"><path d="M 0.148438 0.101562 L 51 0.101562 L 51 40.898438 L 0.148438 40.898438 Z M 0.148438 0.101562 " clip-rule="nonzero"/></clipPath><clipPath id="e0f6394207"><path d="M 2.398438 0.101562 L 48.75 0.101562 C 49.992188 0.101562 51 1.105469 51 2.351562 L 51 38.648438 C 51 39.894531 49.992188 40.898438 48.75 40.898438 L 2.398438 40.898438 C 1.15625 40.898438 0.148438 39.894531 0.148438 38.648438 L 0.148438 2.351562 C 0.148438 1.105469 1.15625 0.101562 2.398438 0.101562 Z M 2.398438 0.101562 " clip-rule="nonzero"/></clipPath><clipPath id="c3605c4805"><rect x="0" width="51" y="0" height="41"/></clipPath></defs><g clip-path="url(#495d9e4774)"><g transform="matrix(1, 0, 0, 1, -0, 0)"><g clip-path="url(#6b6fda8ec6)"><g clip-path="url(#18090178b3)"><g clip-path="url(#5b4dfe601d)"><path fill="#ffffff" d="M 0 0 L 119.929688 0 L 119.929688 51 L 0 51 Z M 0 0 " fill-opacity="1" fill-rule="nonzero"/></g></g></g></g><path stroke-linecap="butt" transform="matrix(0.75, 0, 0, 0.75, 0.00000235294, 0.000000638366)" fill="none" stroke-linejoin="miter" d="M 9.999998 -0.000000851154 L 150.000009 -0.000000851154 C 155.520843 -0.000000851154 160.00001 4.479166 160.00001 10 L 160.00001 58.000004 C 160.00001 63.520838 155.520843 68.000005 150.000009 68.000005 L 9.999998 68.000005 C 4.479164 68.000005 -0.00000313726 63.520838 -0.00000313726 58.000004 L -0.00000313726 10 C -0.00000313726 4.479166 4.479164 -0.000000851154 9.999998 -0.000000851154 Z M 9.999998 -0.000000851154 " stroke="#9fdefd" stroke-width="8" stroke-opacity="1" stroke-miterlimit="4"/></g><g clip-path="url(#a80192292e)"><g clip-path="url(#5fe1f3b797)"><g transform="matrix(1, 0, 0, 1, 6, 5)"><g clip-path="url(#c3605c4805)"><g clip-path="url(#d2f374f4df)"><g clip-path="url(#e0f6394207)"><path fill="#ffde59" d="M 0.148438 0.101562 L 50.992188 0.101562 L 50.992188 40.898438 L 0.148438 40.898438 Z M 0.148438 0.101562 " fill-opacity="1" fill-rule="nonzero"/></g></g></g></g></g></g><path fill="#9fdefd" d="M 58.496094 45.894531 L 58.496094 42.894531 L 61.496094 42.894531 L 61.496094 45.894531 M 58.496094 39.894531 L 58.496094 36.894531 L 61.496094 36.894531 L 61.496094 39.894531 M 58.496094 33.894531 L 58.496094 30.894531 L 61.496094 30.894531 L 61.496094 33.894531 M 58.496094 27.894531 L 58.496094 24.894531 L 61.496094 24.894531 L 61.496094 27.894531 M 58.496094 21.894531 L 58.496094 18.898438 L 61.496094 18.898438 L 61.496094 21.894531 M 58.496094 15.898438 L 58.496094 12.898438 L 61.496094 12.898438 L 61.496094 15.898438 M 58.496094 9.898438 L 58.496094 6.898438 L 61.496094 6.898438 L 61.496094 9.898438 " fill-opacity="1" fill-rule="nonzero"/><g fill="#000000" fill-opacity="1"><g transform="translate(6.154689, 22.504314)"><g><path d="M 7.796875 -7.984375 C 7.890625 -7.859375 7.984375 -7.710938 8.078125 -7.546875 C 8.171875 -7.378906 8.265625 -7.210938 8.359375 -7.046875 C 8.453125 -6.878906 8.53125 -6.734375 8.59375 -6.609375 L 7.796875 -6.265625 C 7.679688 -6.460938 7.550781 -6.695312 7.40625 -6.96875 C 7.269531 -7.238281 7.140625 -7.46875 7.015625 -7.65625 Z M 8.984375 -8.4375 C 9.066406 -8.300781 9.160156 -8.148438 9.265625 -7.984375 C 9.367188 -7.816406 9.46875 -7.648438 9.5625 -7.484375 C 9.65625 -7.328125 9.734375 -7.1875 9.796875 -7.0625 L 8.984375 -6.71875 C 8.890625 -6.9375 8.765625 -7.171875 8.609375 -7.421875 C 8.460938 -7.679688 8.320312 -7.90625 8.1875 -8.09375 Z M 1.921875 -3.109375 C 2.148438 -3.671875 2.347656 -4.285156 2.515625 -4.953125 C 2.691406 -5.617188 2.8125 -6.269531 2.875 -6.90625 L 4.328125 -6.609375 C 4.285156 -6.460938 4.238281 -6.285156 4.1875 -6.078125 C 4.144531 -5.878906 4.113281 -5.722656 4.09375 -5.609375 C 4.039062 -5.378906 3.96875 -5.085938 3.875 -4.734375 C 3.789062 -4.378906 3.691406 -4.007812 3.578125 -3.625 C 3.460938 -3.25 3.347656 -2.90625 3.234375 -2.59375 C 3.117188 -2.28125 2.976562 -1.945312 2.8125 -1.59375 C 2.644531 -1.25 2.472656 -0.914062 2.296875 -0.59375 C 2.117188 -0.28125 1.941406 0.00390625 1.765625 0.265625 L 0.359375 -0.328125 C 0.671875 -0.742188 0.96875 -1.203125 1.25 -1.703125 C 1.53125 -2.203125 1.753906 -2.671875 1.921875 -3.109375 Z M 6.859375 -3.3125 C 6.734375 -3.664062 6.582031 -4.050781 6.40625 -4.46875 C 6.238281 -4.882812 6.066406 -5.28125 5.890625 -5.65625 C 5.710938 -6.039062 5.550781 -6.359375 5.40625 -6.609375 L 6.734375 -7.046875 C 6.835938 -6.847656 6.953125 -6.613281 7.078125 -6.34375 C 7.210938 -6.070312 7.347656 -5.78125 7.484375 -5.46875 C 7.628906 -5.164062 7.757812 -4.863281 7.875 -4.5625 C 8 -4.269531 8.109375 -4.003906 8.203125 -3.765625 C 8.296875 -3.535156 8.394531 -3.269531 8.5 -2.96875 C 8.601562 -2.675781 8.707031 -2.367188 8.8125 -2.046875 C 8.925781 -1.722656 9.03125 -1.40625 9.125 -1.09375 C 9.226562 -0.789062 9.3125 -0.515625 9.375 -0.265625 L 7.90625 0.203125 C 7.757812 -0.390625 7.597656 -0.988281 7.421875 -1.59375 C 7.242188 -2.207031 7.054688 -2.78125 6.859375 -3.3125 Z M 6.859375 -3.3125 "/></g></g></g><g fill="#000000" fill-opacity="1"><g transform="translate(16.150748, 22.504314)"><g><path d="M 0.921875 -3.0625 L 0.921875 -4.625 C 1.035156 -4.625 1.1875 -4.617188 1.375 -4.609375 C 1.5625 -4.597656 1.753906 -4.585938 1.953125 -4.578125 C 2.160156 -4.566406 2.351562 -4.5625 2.53125 -4.5625 L 7.90625 -4.5625 C 8.132812 -4.5625 8.351562 -4.570312 8.5625 -4.59375 C 8.769531 -4.613281 8.9375 -4.625 9.0625 -4.625 L 9.0625 -3.0625 C 8.945312 -3.0625 8.773438 -3.066406 8.546875 -3.078125 C 8.328125 -3.097656 8.113281 -3.109375 7.90625 -3.109375 L 2.53125 -3.109375 C 2.238281 -3.109375 1.941406 -3.101562 1.640625 -3.09375 C 1.347656 -3.082031 1.109375 -3.070312 0.921875 -3.0625 Z M 0.921875 -3.0625 "/></g></g></g><g fill="#000000" fill-opacity="1"><g transform="translate(25.946855, 22.504314)"><g><path d="M 7.296875 -7.6875 C 7.441406 -7.476562 7.601562 -7.222656 7.78125 -6.921875 C 7.957031 -6.628906 8.097656 -6.363281 8.203125 -6.125 L 7.34375 -5.765625 C 7.195312 -6.078125 7.054688 -6.351562 6.921875 -6.59375 C 6.796875 -6.832031 6.640625 -7.078125 6.453125 -7.328125 Z M 8.671875 -8.15625 C 8.828125 -7.957031 8.992188 -7.710938 9.171875 -7.421875 C 9.347656 -7.140625 9.492188 -6.890625 9.609375 -6.671875 L 8.765625 -6.296875 C 8.597656 -6.609375 8.441406 -6.875 8.296875 -7.09375 C 8.160156 -7.320312 8 -7.5625 7.8125 -7.8125 Z M 2.953125 -7.875 C 3.171875 -7.75 3.425781 -7.597656 3.71875 -7.421875 C 4.007812 -7.242188 4.289062 -7.066406 4.5625 -6.890625 C 4.832031 -6.710938 5.054688 -6.5625 5.234375 -6.4375 L 4.484375 -5.34375 C 4.296875 -5.476562 4.066406 -5.628906 3.796875 -5.796875 C 3.535156 -5.972656 3.265625 -6.148438 2.984375 -6.328125 C 2.703125 -6.503906 2.453125 -6.648438 2.234375 -6.765625 Z M 1.09375 -0.765625 C 1.65625 -0.859375 2.226562 -0.992188 2.8125 -1.171875 C 3.394531 -1.359375 3.957031 -1.601562 4.5 -1.90625 C 5.351562 -2.375 6.113281 -2.9375 6.78125 -3.59375 C 7.457031 -4.25 7.992188 -4.9375 8.390625 -5.65625 L 9.15625 -4.296875 C 8.695312 -3.597656 8.125 -2.941406 7.4375 -2.328125 C 6.75 -1.710938 6 -1.164062 5.1875 -0.6875 C 4.851562 -0.5 4.476562 -0.320312 4.0625 -0.15625 C 3.65625 0.0078125 3.257812 0.148438 2.875 0.265625 C 2.488281 0.390625 2.144531 0.484375 1.84375 0.546875 Z M 1.40625 -5.59375 C 1.632812 -5.46875 1.894531 -5.316406 2.1875 -5.140625 C 2.476562 -4.972656 2.757812 -4.800781 3.03125 -4.625 C 3.3125 -4.445312 3.535156 -4.300781 3.703125 -4.1875 L 2.96875 -3.0625 C 2.78125 -3.195312 2.550781 -3.351562 2.28125 -3.53125 C 2.007812 -3.707031 1.734375 -3.878906 1.453125 -4.046875 C 1.171875 -4.222656 0.914062 -4.367188 0.6875 -4.484375 Z M 1.40625 -5.59375 "/></g></g></g><g fill="#000000" fill-opacity="1"><g transform="translate(35.942914, 22.504314)"><g><path d="M 7.90625 -4.953125 L 7.90625 0.0625 C 7.90625 0.144531 7.90625 0.253906 7.90625 0.390625 C 7.914062 0.535156 7.921875 0.65625 7.921875 0.75 L 6.65625 0.75 C 6.664062 0.707031 6.671875 0.644531 6.671875 0.5625 C 6.671875 0.488281 6.671875 0.414062 6.671875 0.34375 L 2.875 0.34375 C 2.738281 0.34375 2.582031 0.347656 2.40625 0.359375 C 2.238281 0.367188 2.109375 0.375 2.015625 0.375 L 2.015625 -0.84375 C 2.109375 -0.84375 2.234375 -0.835938 2.390625 -0.828125 C 2.546875 -0.816406 2.710938 -0.8125 2.890625 -0.8125 L 6.671875 -0.8125 L 6.671875 -2.140625 L 3.484375 -2.140625 C 3.296875 -2.140625 3.09375 -2.132812 2.875 -2.125 C 2.664062 -2.125 2.503906 -2.125 2.390625 -2.125 L 2.390625 -3.296875 C 2.523438 -3.296875 2.691406 -3.289062 2.890625 -3.28125 C 3.097656 -3.269531 3.296875 -3.265625 3.484375 -3.265625 L 6.671875 -3.265625 L 6.671875 -4.484375 L 3.375 -4.484375 C 3.25 -4.484375 3.101562 -4.476562 2.9375 -4.46875 C 2.78125 -4.46875 2.625 -4.460938 2.46875 -4.453125 C 2.320312 -4.453125 2.207031 -4.445312 2.125 -4.4375 L 2.125 -5.65625 C 2.21875 -5.644531 2.335938 -5.632812 2.484375 -5.625 C 2.628906 -5.613281 2.78125 -5.601562 2.9375 -5.59375 C 3.101562 -5.59375 3.25 -5.59375 3.375 -5.59375 L 7.15625 -5.59375 C 7.269531 -5.59375 7.40625 -5.59375 7.5625 -5.59375 C 7.71875 -5.601562 7.835938 -5.613281 7.921875 -5.625 C 7.910156 -5.550781 7.90625 -5.445312 7.90625 -5.3125 C 7.90625 -5.175781 7.90625 -5.054688 7.90625 -4.953125 Z M 7.90625 -4.953125 "/></g></g></g><g fill="#000000" fill-opacity="1"><g transform="translate(45.938973, 22.504314)"><g><path d="M 2.40625 -7.59375 C 2.582031 -7.476562 2.785156 -7.332031 3.015625 -7.15625 C 3.253906 -6.976562 3.5 -6.789062 3.75 -6.59375 C 4 -6.394531 4.226562 -6.195312 4.4375 -6 C 4.65625 -5.8125 4.835938 -5.640625 4.984375 -5.484375 L 3.96875 -4.4375 C 3.84375 -4.582031 3.675781 -4.75 3.46875 -4.9375 C 3.257812 -5.132812 3.035156 -5.332031 2.796875 -5.53125 C 2.554688 -5.738281 2.316406 -5.9375 2.078125 -6.125 C 1.847656 -6.3125 1.644531 -6.46875 1.46875 -6.59375 Z M 1.15625 -0.9375 C 1.9375 -1.050781 2.648438 -1.222656 3.296875 -1.453125 C 3.941406 -1.691406 4.503906 -1.957031 4.984375 -2.25 C 5.554688 -2.59375 6.078125 -2.976562 6.546875 -3.40625 C 7.023438 -3.832031 7.4375 -4.28125 7.78125 -4.75 C 8.132812 -5.226562 8.414062 -5.691406 8.625 -6.140625 L 9.40625 -4.734375 C 9.03125 -4.054688 8.519531 -3.390625 7.875 -2.734375 C 7.238281 -2.085938 6.515625 -1.519531 5.703125 -1.03125 C 5.203125 -0.71875 4.632812 -0.429688 4 -0.171875 C 3.375 0.078125 2.707031 0.257812 2 0.375 Z M 1.15625 -0.9375 "/></g></g></g><g fill="#000000" fill-opacity="1"><g transform="translate(21.049219, 36.004313)"><g><path d="M 1.0625 -3.59375 L 0.203125 -3.890625 C 0.273438 -4.117188 0.335938 -4.382812 0.390625 -4.6875 C 0.441406 -4.988281 0.488281 -5.296875 0.53125 -5.609375 C 0.570312 -5.929688 0.597656 -6.226562 0.609375 -6.5 L 1.453125 -6.390625 C 1.441406 -6.117188 1.414062 -5.8125 1.375 -5.46875 C 1.34375 -5.132812 1.300781 -4.800781 1.25 -4.46875 C 1.195312 -4.144531 1.132812 -3.851562 1.0625 -3.59375 Z M 4.859375 -1.4375 L 7.84375 -1.4375 L 7.84375 -1.90625 L 4.859375 -1.90625 Z M 7.84375 -3.203125 L 4.859375 -3.203125 L 4.859375 -2.734375 L 7.84375 -2.734375 Z M 8.96875 -4.078125 L 8.96875 -0.265625 C 8.96875 -0.00390625 8.9375 0.195312 8.875 0.34375 C 8.8125 0.488281 8.691406 0.601562 8.515625 0.6875 C 8.335938 0.769531 8.117188 0.816406 7.859375 0.828125 C 7.609375 0.847656 7.3125 0.859375 6.96875 0.859375 C 6.945312 0.710938 6.90625 0.539062 6.84375 0.34375 C 6.789062 0.15625 6.726562 -0.0078125 6.65625 -0.15625 C 6.851562 -0.132812 7.050781 -0.125 7.25 -0.125 C 7.457031 -0.125 7.59375 -0.125 7.65625 -0.125 C 7.78125 -0.125 7.84375 -0.179688 7.84375 -0.296875 L 7.84375 -0.625 L 4.859375 -0.625 L 4.859375 0.875 L 3.765625 0.875 L 3.765625 -4.078125 Z M 6.921875 -5.3125 L 9.640625 -5.3125 L 9.640625 -4.453125 L 3.09375 -4.453125 L 3.09375 -5.3125 L 5.734375 -5.3125 L 5.734375 -5.734375 L 3.671875 -5.734375 L 3.6875 -5.6875 L 2.90625 -5.3125 C 2.875 -5.457031 2.820312 -5.628906 2.75 -5.828125 C 2.6875 -6.023438 2.617188 -6.21875 2.546875 -6.40625 L 2.546875 0.859375 L 1.46875 0.859375 L 1.46875 -8.46875 L 2.546875 -8.46875 L 2.546875 -6.875 L 3.109375 -7.109375 C 3.210938 -6.898438 3.316406 -6.664062 3.421875 -6.40625 C 3.523438 -6.15625 3.609375 -5.9375 3.671875 -5.75 L 3.671875 -6.546875 L 5.734375 -6.546875 L 5.734375 -6.9375 L 3.40625 -6.9375 L 3.40625 -7.796875 L 5.734375 -7.796875 L 5.734375 -8.46875 L 6.921875 -8.46875 L 6.921875 -7.796875 L 9.34375 -7.796875 L 9.34375 -6.9375 L 6.921875 -6.9375 L 6.921875 -6.546875 L 9.0625 -6.546875 L 9.0625 -5.734375 L 6.921875 -5.734375 Z M 6.921875 -5.3125 "/></g></g></g><g fill="#000000" fill-opacity="1"><g transform="translate(31.045278, 36.004313)"><g><path d="M 3.390625 -3.75 L 3.0625 -3.84375 C 3.125 -3.988281 3.1875 -4.160156 3.25 -4.359375 C 3.3125 -4.554688 3.367188 -4.738281 3.421875 -4.90625 L 1.90625 -4.90625 C 1.988281 -4.726562 2.0625 -4.539062 2.125 -4.34375 C 2.1875 -4.144531 2.226562 -3.976562 2.25 -3.84375 L 1.9375 -3.75 Z M 3.203125 -6.59375 L 3.203125 -5.90625 L 4.875 -5.90625 L 4.875 -4.90625 L 4.046875 -4.90625 L 4.4375 -4.8125 C 4.351562 -4.625 4.273438 -4.4375 4.203125 -4.25 C 4.128906 -4.070312 4.054688 -3.90625 3.984375 -3.75 L 4.734375 -3.75 L 4.734375 -2.75 L 3.203125 -2.75 L 3.203125 -1.984375 L 4.625 -1.984375 L 4.625 -0.984375 L 3.203125 -0.984375 L 3.203125 0.84375 L 2.109375 0.84375 L 2.109375 -0.984375 L 0.625 -0.984375 L 0.625 -1.984375 L 2.109375 -1.984375 L 2.109375 -2.75 L 0.546875 -2.75 L 0.546875 -3.75 L 1.296875 -3.75 C 1.265625 -3.90625 1.21875 -4.078125 1.15625 -4.265625 C 1.09375 -4.460938 1.023438 -4.644531 0.953125 -4.8125 L 1.3125 -4.90625 L 0.328125 -4.90625 L 0.328125 -5.90625 L 2.109375 -5.90625 L 2.109375 -6.59375 L 0.6875 -6.59375 L 0.6875 -7.578125 L 2.109375 -7.578125 L 2.109375 -8.453125 L 3.203125 -8.453125 L 3.203125 -7.578125 L 4.515625 -7.578125 L 4.515625 -6.59375 Z M 6.140625 -3.265625 L 6.140625 -0.09375 C 6.503906 -0.382812 6.820312 -0.722656 7.09375 -1.109375 C 6.90625 -1.429688 6.726562 -1.773438 6.5625 -2.140625 C 6.40625 -2.503906 6.265625 -2.878906 6.140625 -3.265625 Z M 8.21875 -3.6875 L 6.984375 -3.6875 C 7.160156 -3.132812 7.394531 -2.613281 7.6875 -2.125 C 7.925781 -2.601562 8.101562 -3.125 8.21875 -3.6875 Z M 8.75 -4.671875 L 9.453125 -4.421875 C 9.359375 -3.816406 9.222656 -3.238281 9.046875 -2.6875 C 8.878906 -2.132812 8.664062 -1.625 8.40625 -1.15625 C 8.613281 -0.925781 8.832031 -0.71875 9.0625 -0.53125 C 9.289062 -0.351562 9.535156 -0.195312 9.796875 -0.0625 C 9.671875 0.0390625 9.53125 0.1875 9.375 0.375 C 9.226562 0.5625 9.113281 0.726562 9.03125 0.875 C 8.800781 0.738281 8.582031 0.578125 8.375 0.390625 C 8.164062 0.210938 7.96875 0.0195312 7.78125 -0.1875 C 7.625 0.0195312 7.453125 0.210938 7.265625 0.390625 C 7.085938 0.566406 6.894531 0.734375 6.6875 0.890625 C 6.625 0.785156 6.539062 0.675781 6.4375 0.5625 C 6.34375 0.457031 6.242188 0.359375 6.140625 0.265625 L 6.140625 0.859375 L 5.0625 0.859375 L 5.0625 -8.046875 L 9.234375 -8.046875 L 9.234375 -6.171875 C 9.234375 -5.921875 9.195312 -5.71875 9.125 -5.5625 C 9.050781 -5.40625 8.921875 -5.285156 8.734375 -5.203125 C 8.546875 -5.128906 8.3125 -5.082031 8.03125 -5.0625 C 7.757812 -5.050781 7.441406 -5.046875 7.078125 -5.046875 C 7.054688 -5.203125 7.007812 -5.375 6.9375 -5.5625 C 6.875 -5.75 6.804688 -5.914062 6.734375 -6.0625 C 6.984375 -6.050781 7.222656 -6.046875 7.453125 -6.046875 C 7.691406 -6.046875 7.851562 -6.046875 7.9375 -6.046875 C 8.0625 -6.046875 8.125 -6.09375 8.125 -6.1875 L 8.125 -7.015625 L 6.140625 -7.015625 L 6.140625 -4.625 L 8.546875 -4.625 Z M 8.75 -4.671875 "/></g></g></g><g fill="#00a0e9" fill-opacity="1"><g transform="translate(63.505705, 32.58982)"><g><path d="M 1.71875 0 L 1.71875 -2.5 L 5.0625 -2.5 L 5.0625 -12.328125 L 2.25 -12.328125 L 2.25 -14.234375 C 3.03125 -14.390625 3.703125 -14.566406 4.265625 -14.765625 C 4.835938 -14.972656 5.367188 -15.234375 5.859375 -15.546875 L 8.140625 -15.546875 L 8.140625 -2.5 L 11.0625 -2.5 L 11.0625 0 Z M 1.71875 0 "/></g></g></g><g fill="#00a0e9" fill-opacity="1"><g transform="translate(75.867806, 32.58982)"><g><path d="M 3.40625 0.296875 C 2.851562 0.296875 2.394531 0.101562 2.03125 -0.28125 C 1.664062 -0.675781 1.484375 -1.15625 1.484375 -1.71875 C 1.484375 -2.289062 1.664062 -2.769531 2.03125 -3.15625 C 2.394531 -3.539062 2.851562 -3.734375 3.40625 -3.734375 C 3.957031 -3.734375 4.414062 -3.539062 4.78125 -3.15625 C 5.144531 -2.769531 5.328125 -2.289062 5.328125 -1.71875 C 5.328125 -1.15625 5.144531 -0.675781 4.78125 -0.28125 C 4.414062 0.101562 3.957031 0.296875 3.40625 0.296875 Z M 3.40625 0.296875 "/></g></g></g><g fill="#00a0e9" fill-opacity="1"><g transform="translate(82.688999, 32.58982)"><g><path d="M 6.1875 0.296875 C 4.613281 0.296875 3.34375 -0.390625 2.375 -1.765625 C 1.40625 -3.140625 0.921875 -5.160156 0.921875 -7.828125 C 0.921875 -10.515625 1.40625 -12.519531 2.375 -13.84375 C 3.34375 -15.164062 4.613281 -15.828125 6.1875 -15.828125 C 7.769531 -15.828125 9.039062 -15.160156 10 -13.828125 C 10.957031 -12.503906 11.4375 -10.503906 11.4375 -7.828125 C 11.4375 -5.160156 10.957031 -3.140625 10 -1.765625 C 9.039062 -0.390625 7.769531 0.296875 6.1875 0.296875 Z M 6.1875 -2.125 C 6.632812 -2.125 7.035156 -2.296875 7.390625 -2.640625 C 7.742188 -2.984375 8.019531 -3.570312 8.21875 -4.40625 C 8.425781 -5.238281 8.53125 -6.378906 8.53125 -7.828125 C 8.53125 -9.285156 8.425781 -10.421875 8.21875 -11.234375 C 8.019531 -12.046875 7.742188 -12.613281 7.390625 -12.9375 C 7.035156 -13.269531 6.632812 -13.4375 6.1875 -13.4375 C 5.738281 -13.4375 5.335938 -13.269531 4.984375 -12.9375 C 4.628906 -12.613281 4.347656 -12.046875 4.140625 -11.234375 C 3.941406 -10.421875 3.84375 -9.285156 3.84375 -7.828125 C 3.84375 -6.378906 3.941406 -5.238281 4.140625 -4.40625 C 4.347656 -3.570312 4.628906 -2.984375 4.984375 -2.640625 C 5.335938 -2.296875 5.738281 -2.125 6.1875 -2.125 Z M 6.1875 -2.125 "/></g></g></g><g fill="#00a0e9" fill-opacity="1"><g transform="translate(95.051101, 32.58982)"><g><path d="M 3.40625 0.296875 C 2.851562 0.296875 2.394531 0.101562 2.03125 -0.28125 C 1.664062 -0.675781 1.484375 -1.15625 1.484375 -1.71875 C 1.484375 -2.289062 1.664062 -2.769531 2.03125 -3.15625 C 2.394531 -3.539062 2.851562 -3.734375 3.40625 -3.734375 C 3.957031 -3.734375 4.414062 -3.539062 4.78125 -3.15625 C 5.144531 -2.769531 5.328125 -2.289062 5.328125 -1.71875 C 5.328125 -1.15625 5.144531 -0.675781 4.78125 -0.28125 C 4.414062 0.101562 3.957031 0.296875 3.40625 0.296875 Z M 3.40625 0.296875 "/></g></g></g><g fill="#00a0e9" fill-opacity="1"><g transform="translate(101.872294, 32.58982)"><g><path d="M 3.90625 0 C 3.976562 -1.34375 4.09375 -2.582031 4.25 -3.71875 C 4.414062 -4.863281 4.65625 -5.941406 4.96875 -6.953125 C 5.28125 -7.972656 5.6875 -8.972656 6.1875 -9.953125 C 6.6875 -10.929688 7.304688 -11.929688 8.046875 -12.953125 L 1.046875 -12.953125 L 1.046875 -15.546875 L 11.375 -15.546875 L 11.375 -13.671875 C 10.476562 -12.566406 9.753906 -11.515625 9.203125 -10.515625 C 8.648438 -9.523438 8.226562 -8.507812 7.9375 -7.46875 C 7.65625 -6.425781 7.453125 -5.300781 7.328125 -4.09375 C 7.203125 -2.882812 7.101562 -1.519531 7.03125 0 Z M 3.90625 0 "/></g></g></g></svg>