<svg xmlns="http://www.w3.org/2000/svg" xmlns:xlink="http://www.w3.org/1999/xlink" width="160" zoomAndPan="magnify" viewBox="0 0 120 50.999998" height="68" preserveAspectRatio="xMidYMid meet" version="1.0"><defs><g/><clipPath id="0d1b931598"><path d="M 7.5 0 L 112.5 0 C 116.640625 0 120 3.359375 120 7.5 L 120 43.5 C 120 47.640625 116.640625 51 112.5 51 L 7.5 51 C 3.359375 51 0 47.640625 0 43.5 L 0 7.5 C 0 3.359375 3.359375 0 7.5 0 Z M 7.5 0 " clip-rule="nonzero"/></clipPath><clipPath id="49646ecf3f"><path d="M 0 0 L 120 0 L 120 51 L 0 51 Z M 0 0 " clip-rule="nonzero"/></clipPath><clipPath id="06c34f6479"><path d="M 7.5 0 L 112.5 0 C 116.640625 0 120 3.359375 120 7.5 L 120 43.5 C 120 47.640625 116.640625 51 112.5 51 L 7.5 51 C 3.359375 51 0 47.640625 0 43.5 L 0 7.5 C 0 3.359375 3.359375 0 7.5 0 Z M 7.5 0 " clip-rule="nonzero"/></clipPath><clipPath id="fc415e472a"><rect x="0" width="120" y="0" height="51"/></clipPath></defs><g clip-path="url(#0d1b931598)"><g transform="matrix(1, 0, 0, 1, -0, 0)"><g clip-path="url(#fc415e472a)"><g clip-path="url(#49646ecf3f)"><g clip-path="url(#06c34f6479)"><path fill="#ffffff" d="M 0 0 L 119.929688 0 L 119.929688 51 L 0 51 Z M 0 0 " fill-opacity="1" fill-rule="nonzero"/></g></g></g></g></g><g fill="#00a0e9" fill-opacity="1"><g transform="translate(35.00625, 13.449993)"><g><path d="M 7.796875 -7.984375 C 7.890625 -7.859375 7.984375 -7.710938 8.078125 -7.546875 C 8.171875 -7.378906 8.265625 -7.210938 8.359375 -7.046875 C 8.453125 -6.878906 8.53125 -6.734375 8.59375 -6.609375 L 7.796875 -6.265625 C 7.679688 -6.460938 7.550781 -6.695312 7.40625 -6.96875 C 7.269531 -7.238281 7.140625 -7.46875 7.015625 -7.65625 Z M 8.984375 -8.4375 C 9.066406 -8.300781 9.160156 -8.148438 9.265625 -7.984375 C 9.367188 -7.816406 9.46875 -7.648438 9.5625 -7.484375 C 9.65625 -7.328125 9.734375 -7.1875 9.796875 -7.0625 L 8.984375 -6.71875 C 8.890625 -6.9375 8.765625 -7.171875 8.609375 -7.421875 C 8.460938 -7.679688 8.320312 -7.90625 8.1875 -8.09375 Z M 1.921875 -3.109375 C 2.148438 -3.671875 2.347656 -4.285156 2.515625 -4.953125 C 2.691406 -5.617188 2.8125 -6.269531 2.875 -6.90625 L 4.328125 -6.609375 C 4.285156 -6.460938 4.238281 -6.285156 4.1875 -6.078125 C 4.144531 -5.878906 4.113281 -5.722656 4.09375 -5.609375 C 4.039062 -5.378906 3.96875 -5.085938 3.875 -4.734375 C 3.789062 -4.378906 3.691406 -4.007812 3.578125 -3.625 C 3.460938 -3.25 3.347656 -2.90625 3.234375 -2.59375 C 3.117188 -2.28125 2.976562 -1.945312 2.8125 -1.59375 C 2.644531 -1.25 2.472656 -0.914062 2.296875 -0.59375 C 2.117188 -0.28125 1.941406 0.00390625 1.765625 0.265625 L 0.359375 -0.328125 C 0.671875 -0.742188 0.96875 -1.203125 1.25 -1.703125 C 1.53125 -2.203125 1.753906 -2.671875 1.921875 -3.109375 Z M 6.859375 -3.3125 C 6.734375 -3.664062 6.582031 -4.050781 6.40625 -4.46875 C 6.238281 -4.882812 6.066406 -5.28125 5.890625 -5.65625 C 5.710938 -6.039062 5.550781 -6.359375 5.40625 -6.609375 L 6.734375 -7.046875 C 6.835938 -6.847656 6.953125 -6.613281 7.078125 -6.34375 C 7.210938 -6.070312 7.347656 -5.78125 7.484375 -5.46875 C 7.628906 -5.164062 7.757812 -4.863281 7.875 -4.5625 C 8 -4.269531 8.109375 -4.003906 8.203125 -3.765625 C 8.296875 -3.535156 8.394531 -3.269531 8.5 -2.96875 C 8.601562 -2.675781 8.707031 -2.367188 8.8125 -2.046875 C 8.925781 -1.722656 9.03125 -1.40625 9.125 -1.09375 C 9.226562 -0.789062 9.3125 -0.515625 9.375 -0.265625 L 7.90625 0.203125 C 7.757812 -0.390625 7.597656 -0.988281 7.421875 -1.59375 C 7.242188 -2.207031 7.054688 -2.78125 6.859375 -3.3125 Z M 6.859375 -3.3125 "/></g></g></g><g fill="#00a0e9" fill-opacity="1"><g transform="translate(45.002308, 13.449993)"><g><path d="M 0.921875 -3.0625 L 0.921875 -4.625 C 1.035156 -4.625 1.1875 -4.617188 1.375 -4.609375 C 1.5625 -4.597656 1.753906 -4.585938 1.953125 -4.578125 C 2.160156 -4.566406 2.351562 -4.5625 2.53125 -4.5625 L 7.90625 -4.5625 C 8.132812 -4.5625 8.351562 -4.570312 8.5625 -4.59375 C 8.769531 -4.613281 8.9375 -4.625 9.0625 -4.625 L 9.0625 -3.0625 C 8.945312 -3.0625 8.773438 -3.066406 8.546875 -3.078125 C 8.328125 -3.097656 8.113281 -3.109375 7.90625 -3.109375 L 2.53125 -3.109375 C 2.238281 -3.109375 1.941406 -3.101562 1.640625 -3.09375 C 1.347656 -3.082031 1.109375 -3.070312 0.921875 -3.0625 Z M 0.921875 -3.0625 "/></g></g></g><g fill="#00a0e9" fill-opacity="1"><g transform="translate(54.798416, 13.449993)"><g><path d="M 7.296875 -7.6875 C 7.441406 -7.476562 7.601562 -7.222656 7.78125 -6.921875 C 7.957031 -6.628906 8.097656 -6.363281 8.203125 -6.125 L 7.34375 -5.765625 C 7.195312 -6.078125 7.054688 -6.351562 6.921875 -6.59375 C 6.796875 -6.832031 6.640625 -7.078125 6.453125 -7.328125 Z M 8.671875 -8.15625 C 8.828125 -7.957031 8.992188 -7.710938 9.171875 -7.421875 C 9.347656 -7.140625 9.492188 -6.890625 9.609375 -6.671875 L 8.765625 -6.296875 C 8.597656 -6.609375 8.441406 -6.875 8.296875 -7.09375 C 8.160156 -7.320312 8 -7.5625 7.8125 -7.8125 Z M 2.953125 -7.875 C 3.171875 -7.75 3.425781 -7.597656 3.71875 -7.421875 C 4.007812 -7.242188 4.289062 -7.066406 4.5625 -6.890625 C 4.832031 -6.710938 5.054688 -6.5625 5.234375 -6.4375 L 4.484375 -5.34375 C 4.296875 -5.476562 4.066406 -5.628906 3.796875 -5.796875 C 3.535156 -5.972656 3.265625 -6.148438 2.984375 -6.328125 C 2.703125 -6.503906 2.453125 -6.648438 2.234375 -6.765625 Z M 1.09375 -0.765625 C 1.65625 -0.859375 2.226562 -0.992188 2.8125 -1.171875 C 3.394531 -1.359375 3.957031 -1.601562 4.5 -1.90625 C 5.351562 -2.375 6.113281 -2.9375 6.78125 -3.59375 C 7.457031 -4.25 7.992188 -4.9375 8.390625 -5.65625 L 9.15625 -4.296875 C 8.695312 -3.597656 8.125 -2.941406 7.4375 -2.328125 C 6.75 -1.710938 6 -1.164062 5.1875 -0.6875 C 4.851562 -0.5 4.476562 -0.320312 4.0625 -0.15625 C 3.65625 0.0078125 3.257812 0.148438 2.875 0.265625 C 2.488281 0.390625 2.144531 0.484375 1.84375 0.546875 Z M 1.40625 -5.59375 C 1.632812 -5.46875 1.894531 -5.316406 2.1875 -5.140625 C 2.476562 -4.972656 2.757812 -4.800781 3.03125 -4.625 C 3.3125 -4.445312 3.535156 -4.300781 3.703125 -4.1875 L 2.96875 -3.0625 C 2.78125 -3.195312 2.550781 -3.351562 2.28125 -3.53125 C 2.007812 -3.707031 1.734375 -3.878906 1.453125 -4.046875 C 1.171875 -4.222656 0.914062 -4.367188 0.6875 -4.484375 Z M 1.40625 -5.59375 "/></g></g></g><g fill="#00a0e9" fill-opacity="1"><g transform="translate(64.794474, 13.449993)"><g><path d="M 7.90625 -4.953125 L 7.90625 0.0625 C 7.90625 0.144531 7.90625 0.253906 7.90625 0.390625 C 7.914062 0.535156 7.921875 0.65625 7.921875 0.75 L 6.65625 0.75 C 6.664062 0.707031 6.671875 0.644531 6.671875 0.5625 C 6.671875 0.488281 6.671875 0.414062 6.671875 0.34375 L 2.875 0.34375 C 2.738281 0.34375 2.582031 0.347656 2.40625 0.359375 C 2.238281 0.367188 2.109375 0.375 2.015625 0.375 L 2.015625 -0.84375 C 2.109375 -0.84375 2.234375 -0.835938 2.390625 -0.828125 C 2.546875 -0.816406 2.710938 -0.8125 2.890625 -0.8125 L 6.671875 -0.8125 L 6.671875 -2.140625 L 3.484375 -2.140625 C 3.296875 -2.140625 3.09375 -2.132812 2.875 -2.125 C 2.664062 -2.125 2.503906 -2.125 2.390625 -2.125 L 2.390625 -3.296875 C 2.523438 -3.296875 2.691406 -3.289062 2.890625 -3.28125 C 3.097656 -3.269531 3.296875 -3.265625 3.484375 -3.265625 L 6.671875 -3.265625 L 6.671875 -4.484375 L 3.375 -4.484375 C 3.25 -4.484375 3.101562 -4.476562 2.9375 -4.46875 C 2.78125 -4.46875 2.625 -4.460938 2.46875 -4.453125 C 2.320312 -4.453125 2.207031 -4.445312 2.125 -4.4375 L 2.125 -5.65625 C 2.21875 -5.644531 2.335938 -5.632812 2.484375 -5.625 C 2.628906 -5.613281 2.78125 -5.601562 2.9375 -5.59375 C 3.101562 -5.59375 3.25 -5.59375 3.375 -5.59375 L 7.15625 -5.59375 C 7.269531 -5.59375 7.40625 -5.59375 7.5625 -5.59375 C 7.71875 -5.601562 7.835938 -5.613281 7.921875 -5.625 C 7.910156 -5.550781 7.90625 -5.445312 7.90625 -5.3125 C 7.90625 -5.175781 7.90625 -5.054688 7.90625 -4.953125 Z M 7.90625 -4.953125 "/></g></g></g><g fill="#00a0e9" fill-opacity="1"><g transform="translate(74.790533, 13.449993)"><g><path d="M 2.40625 -7.59375 C 2.582031 -7.476562 2.785156 -7.332031 3.015625 -7.15625 C 3.253906 -6.976562 3.5 -6.789062 3.75 -6.59375 C 4 -6.394531 4.226562 -6.195312 4.4375 -6 C 4.65625 -5.8125 4.835938 -5.640625 4.984375 -5.484375 L 3.96875 -4.4375 C 3.84375 -4.582031 3.675781 -4.75 3.46875 -4.9375 C 3.257812 -5.132812 3.035156 -5.332031 2.796875 -5.53125 C 2.554688 -5.738281 2.316406 -5.9375 2.078125 -6.125 C 1.847656 -6.3125 1.644531 -6.46875 1.46875 -6.59375 Z M 1.15625 -0.9375 C 1.9375 -1.050781 2.648438 -1.222656 3.296875 -1.453125 C 3.941406 -1.691406 4.503906 -1.957031 4.984375 -2.25 C 5.554688 -2.59375 6.078125 -2.976562 6.546875 -3.40625 C 7.023438 -3.832031 7.4375 -4.28125 7.78125 -4.75 C 8.132812 -5.226562 8.414062 -5.691406 8.625 -6.140625 L 9.40625 -4.734375 C 9.03125 -4.054688 8.519531 -3.390625 7.875 -2.734375 C 7.238281 -2.085938 6.515625 -1.519531 5.703125 -1.03125 C 5.203125 -0.71875 4.632812 -0.429688 4 -0.171875 C 3.375 0.078125 2.707031 0.257812 2 0.375 Z M 1.15625 -0.9375 "/></g></g></g><g fill="#00a0e9" fill-opacity="1"><g transform="translate(30.904687, 41.19999)"><g><path d="M 1.96875 0 L 1.96875 -2.859375 L 5.78125 -2.859375 L 5.78125 -14.09375 L 2.5625 -14.09375 L 2.5625 -16.265625 C 3.457031 -16.441406 4.226562 -16.644531 4.875 -16.875 C 5.53125 -17.113281 6.140625 -17.410156 6.703125 -17.765625 L 9.3125 -17.765625 L 9.3125 -2.859375 L 12.640625 -2.859375 L 12.640625 0 Z M 1.96875 0 "/></g></g></g><g fill="#00a0e9" fill-opacity="1"><g transform="translate(45.033768, 41.19999)"><g><path d="M 3.890625 0.34375 C 3.265625 0.34375 2.742188 0.117188 2.328125 -0.328125 C 1.910156 -0.785156 1.703125 -1.332031 1.703125 -1.96875 C 1.703125 -2.625 1.910156 -3.171875 2.328125 -3.609375 C 2.742188 -4.046875 3.265625 -4.265625 3.890625 -4.265625 C 4.523438 -4.265625 5.050781 -4.046875 5.46875 -3.609375 C 5.882812 -3.171875 6.09375 -2.625 6.09375 -1.96875 C 6.09375 -1.332031 5.882812 -0.785156 5.46875 -0.328125 C 5.050781 0.117188 4.523438 0.34375 3.890625 0.34375 Z M 3.890625 0.34375 "/></g></g></g><g fill="#00a0e9" fill-opacity="1"><g transform="translate(52.829952, 41.19999)"><g><path d="M 7.078125 0.34375 C 5.273438 0.34375 3.820312 -0.441406 2.71875 -2.015625 C 1.613281 -3.585938 1.0625 -5.898438 1.0625 -8.953125 C 1.0625 -12.023438 1.613281 -14.316406 2.71875 -15.828125 C 3.820312 -17.335938 5.273438 -18.09375 7.078125 -18.09375 C 8.890625 -18.09375 10.34375 -17.332031 11.4375 -15.8125 C 12.53125 -14.289062 13.078125 -12.003906 13.078125 -8.953125 C 13.078125 -5.898438 12.53125 -3.585938 11.4375 -2.015625 C 10.34375 -0.441406 8.890625 0.34375 7.078125 0.34375 Z M 7.078125 -2.421875 C 7.585938 -2.421875 8.039062 -2.613281 8.4375 -3 C 8.84375 -3.394531 9.160156 -4.066406 9.390625 -5.015625 C 9.628906 -5.972656 9.75 -7.285156 9.75 -8.953125 C 9.75 -10.617188 9.628906 -11.914062 9.390625 -12.84375 C 9.160156 -13.769531 8.84375 -14.421875 8.4375 -14.796875 C 8.039062 -15.171875 7.585938 -15.359375 7.078125 -15.359375 C 6.566406 -15.359375 6.109375 -15.171875 5.703125 -14.796875 C 5.296875 -14.421875 4.972656 -13.769531 4.734375 -12.84375 C 4.503906 -11.914062 4.390625 -10.617188 4.390625 -8.953125 C 4.390625 -7.285156 4.503906 -5.972656 4.734375 -5.015625 C 4.972656 -4.066406 5.296875 -3.394531 5.703125 -3 C 6.109375 -2.613281 6.566406 -2.421875 7.078125 -2.421875 Z M 7.078125 -2.421875 "/></g></g></g><g fill="#00a0e9" fill-opacity="1"><g transform="translate(66.959033, 41.19999)"><g><path d="M 3.890625 0.34375 C 3.265625 0.34375 2.742188 0.117188 2.328125 -0.328125 C 1.910156 -0.785156 1.703125 -1.332031 1.703125 -1.96875 C 1.703125 -2.625 1.910156 -3.171875 2.328125 -3.609375 C 2.742188 -4.046875 3.265625 -4.265625 3.890625 -4.265625 C 4.523438 -4.265625 5.050781 -4.046875 5.46875 -3.609375 C 5.882812 -3.171875 6.09375 -2.625 6.09375 -1.96875 C 6.09375 -1.332031 5.882812 -0.785156 5.46875 -0.328125 C 5.050781 0.117188 4.523438 0.34375 3.890625 0.34375 Z M 3.890625 0.34375 "/></g></g></g><g fill="#00a0e9" fill-opacity="1"><g transform="translate(74.755217, 41.19999)"><g><path d="M 6.625 0.34375 C 5.21875 0.34375 4.03125 0.101562 3.0625 -0.375 C 2.09375 -0.863281 1.28125 -1.4375 0.625 -2.09375 L 2.25 -4.34375 C 2.769531 -3.84375 3.34375 -3.414062 3.96875 -3.0625 C 4.601562 -2.71875 5.335938 -2.546875 6.171875 -2.546875 C 7.097656 -2.546875 7.851562 -2.828125 8.4375 -3.390625 C 9.019531 -3.960938 9.3125 -4.769531 9.3125 -5.8125 C 9.3125 -6.851562 9.035156 -7.648438 8.484375 -8.203125 C 7.929688 -8.753906 7.207031 -9.03125 6.3125 -9.03125 C 5.78125 -9.03125 5.332031 -8.957031 4.96875 -8.8125 C 4.601562 -8.664062 4.160156 -8.425781 3.640625 -8.09375 L 2.046875 -9.140625 L 2.515625 -17.765625 L 12.03125 -17.765625 L 12.03125 -14.8125 L 5.5625 -14.8125 L 5.234375 -11.046875 C 5.585938 -11.210938 5.929688 -11.335938 6.265625 -11.421875 C 6.597656 -11.503906 6.96875 -11.546875 7.375 -11.546875 C 8.363281 -11.546875 9.273438 -11.34375 10.109375 -10.9375 C 10.941406 -10.539062 11.601562 -9.925781 12.09375 -9.09375 C 12.59375 -8.257812 12.84375 -7.195312 12.84375 -5.90625 C 12.84375 -4.59375 12.550781 -3.46875 11.96875 -2.53125 C 11.394531 -1.59375 10.632812 -0.878906 9.6875 -0.390625 C 8.75 0.0976562 7.726562 0.34375 6.625 0.34375 Z M 6.625 0.34375 "/></g></g></g></svg>