<?xml version="1.0" encoding="utf-8"?>
<!-- Generator: Adobe Illustrator 25.0.1, SVG Export Plug-In . SVG Version: 6.00 Build 0)  -->
<svg version="1.1" id="レイヤー_1" xmlns="http://www.w3.org/2000/svg" xmlns:xlink="http://www.w3.org/1999/xlink" x="0px"
	 y="0px" viewBox="0 0 176 68" style="enable-background:new 0 0 176 68;" xml:space="preserve">
<style type="text/css">
	.st0{fill:none;stroke:#000000;stroke-width:5;stroke-miterlimit:10;}
	.st1{fill:#969696;}
</style>
<g>
	<path d="M113.8,25.2h1.6V27h8.7v1.4h-8.7v1.1v0.9c0.3-0.1,1.2-0.2,2.4-0.2c1.6,0,3.9,0.2,5.4,1.8c0.9,1,1.3,2.3,1.3,3.4
		c0,3.9-3.7,4.7-4.5,4.9c-1,0.2-2,0.3-3.2,0.3l-0.4-1.4c2.6,0,6.6-0.3,6.6-3.9c0-1.4-0.7-3.1-3.6-3.7c-1.5,6-5,8-7.1,8
		c-2.4,0-3-2-3-3.3c0-2.5,1.7-4.5,4.5-5.5c0-0.2,0-0.4,0-0.7v-1.7h-4V27h4.1v-1.8H113.8z M113.9,32.4c-1.5,0.7-3.1,2.1-3.1,4
		c0,1.2,0.6,1.9,1.6,1.9s1.8-0.5,2.2-0.8C114.2,36,114.1,34.6,113.9,32.4z M118,31.6c-0.6,0-1.4,0-2.6,0.3c0,1.3,0.3,3.4,0.5,4.3
		C116.2,35.9,117.2,34.5,118,31.6z"/>
	<path d="M133.2,25.2c0,1.3-0.1,2.2-0.1,3.4c0,1.4,0.3,1.9,0.4,2.2c1.2-0.4,3.1-1,6.6-1.5l0.2,1.7c-2.8,0.3-5.4,0.8-7.5,1.6
		c-1.2,0.5-4.2,1.6-4.2,3.9c0,2.2,2.3,2.4,6.8,2.4c2.9,0,4.6-0.2,5.5-0.3v1.7c-1.1,0.1-1.8,0.2-4.4,0.2c-4.8,0-6-0.3-7.3-0.7
		c-1.5-0.6-2.2-1.7-2.2-3.1c0-2.7,2.6-4.4,5.1-5.4c-0.6-1-0.7-1.3-0.7-6.2L133.2,25.2L133.2,25.2z"/>
	<path d="M158.4,27.7c-0.6,0-1.1-0.1-1.9-0.1c-1,0-1.3,0.1-1.7,0.2c-3.4,1.1-6.7,4-6.7,7.1c0,2.3,1.8,3.4,4.9,3.8
		c1.6,0.2,2.9,0.2,3.7,0.2l-0.3,1.7c-3.8-0.1-5.9-0.5-7.6-1.5c-1.4-0.8-2.4-2.4-2.4-4c0-3.3,2.7-5.8,5.5-7.4
		c-3.5,0.2-5.3,0.3-9.1,0.6l-0.1-1.7c1.5,0,9.7-0.4,11.5-0.5c0.5,0,3.7-0.1,4-0.1L158.4,27.7z M155.3,33.1c-0.2-0.4-0.7-1.5-1.6-2.6
		l1.1-0.6c0.9,1.1,1.3,2,1.6,2.6L155.3,33.1z M157.5,32.1c-0.6-1.1-0.9-1.6-1.6-2.5L157,29c0.5,0.6,1.2,1.6,1.6,2.4L157.5,32.1z"/>
</g>
<g>
	<g>
		<path class="st0" d="M71.1,16.7c9.6,0,17.3,7.8,17.3,17.3s-7.8,17.3-17.3,17.3S53.7,43.6,53.7,34c0-3.7,1.2-7.2,3.2-10"/>
		<g>
			<polygon points="49,17.1 63,33.2 64,18.2 			"/>
		</g>
	</g>
</g>
<g>
	<path d="M2,27.6v12.8c3.5,0,6.4-2.9,6.4-6.4S5.5,27.6,2,27.6z"/>
	<circle cx="19.9" cy="34" r="6.4"/>
	<circle cx="37.9" cy="34" r="6.4"/>
</g>
<path class="st1" d="M166,2c4.4,0,8,3.6,8,8v48c0,4.4-3.6,8-8,8H10c-4.4,0-8-3.6-8-8V10c0-4.4,3.6-8,8-8H166 M166,0H10
	C4.5,0,0,4.5,0,10v48c0,5.5,4.5,10,10,10h156c5.5,0,10-4.5,10-10V10C176,4.5,171.5,0,166,0z"/>
</svg>
