<svg xmlns="http://www.w3.org/2000/svg" xmlns:xlink="http://www.w3.org/1999/xlink" width="160" zoomAndPan="magnify" viewBox="0 0 120 50.999998" height="68" preserveAspectRatio="xMidYMid meet" version="1.0"><defs><g/><clipPath id="6c8fecb254"><path d="M 7.5 0 L 112.5 0 C 116.640625 0 120 3.359375 120 7.5 L 120 43.5 C 120 47.640625 116.640625 51 112.5 51 L 7.5 51 C 3.359375 51 0 47.640625 0 43.5 L 0 7.5 C 0 3.359375 3.359375 0 7.5 0 Z M 7.5 0 " clip-rule="nonzero"/></clipPath><clipPath id="9807ee48b0"><path d="M 0 0 L 120 0 L 120 51 L 0 51 Z M 0 0 " clip-rule="nonzero"/></clipPath><clipPath id="3a1f79a58c"><path d="M 7.5 0 L 112.5 0 C 116.640625 0 120 3.359375 120 7.5 L 120 43.5 C 120 47.640625 116.640625 51 112.5 51 L 7.5 51 C 3.359375 51 0 47.640625 0 43.5 L 0 7.5 C 0 3.359375 3.359375 0 7.5 0 Z M 7.5 0 " clip-rule="nonzero"/></clipPath><clipPath id="a740599e83"><rect x="0" width="120" y="0" height="51"/></clipPath></defs><g clip-path="url(#6c8fecb254)"><g transform="matrix(1, 0, 0, 1, -0, 0)"><g clip-path="url(#a740599e83)"><g clip-path="url(#9807ee48b0)"><g clip-path="url(#3a1f79a58c)"><path fill="#ffffff" d="M 0 0 L 119.929688 0 L 119.929688 51 L 0 51 Z M 0 0 " fill-opacity="1" fill-rule="nonzero"/></g></g></g></g></g><g fill="#00a0e9" fill-opacity="1"><g transform="translate(34.30078, 14.600001)"><g><path d="M 3.296875 -5.671875 C 3.390625 -5.671875 3.484375 -5.648438 3.578125 -5.609375 C 3.828125 -5.492188 3.953125 -5.304688 3.953125 -5.046875 C 3.953125 -4.804688 3.804688 -4.398438 3.515625 -3.828125 C 3.109375 -3.054688 2.601562 -2.375 2 -1.78125 C 1.550781 -1.351562 1.222656 -1.140625 1.015625 -1.140625 C 0.890625 -1.140625 0.773438 -1.191406 0.671875 -1.296875 C 0.585938 -1.390625 0.546875 -1.492188 0.546875 -1.609375 C 0.546875 -1.742188 0.613281 -1.882812 0.75 -2.03125 C 1.550781 -2.894531 2.179688 -3.953125 2.640625 -5.203125 C 2.753906 -5.515625 2.972656 -5.671875 3.296875 -5.671875 Z M 6.453125 -5.875 C 6.617188 -5.875 6.804688 -5.773438 7.015625 -5.578125 C 7.523438 -5.078125 8.019531 -4.46875 8.5 -3.75 C 9.03125 -2.945312 9.296875 -2.390625 9.296875 -2.078125 C 9.296875 -1.835938 9.195312 -1.648438 9 -1.515625 C 8.863281 -1.429688 8.734375 -1.390625 8.609375 -1.390625 C 8.359375 -1.390625 8.171875 -1.503906 8.046875 -1.734375 C 8.023438 -1.753906 7.976562 -1.847656 7.90625 -2.015625 C 7.332031 -3.234375 6.726562 -4.25 6.09375 -5.0625 C 6 -5.175781 5.953125 -5.300781 5.953125 -5.4375 C 5.953125 -5.5625 6.003906 -5.664062 6.109375 -5.75 C 6.210938 -5.832031 6.328125 -5.875 6.453125 -5.875 Z M 7.5 -7.234375 C 7.675781 -7.234375 7.96875 -7.050781 8.375 -6.6875 C 8.707031 -6.375 8.875 -6.128906 8.875 -5.953125 C 8.875 -5.828125 8.820312 -5.71875 8.71875 -5.625 C 8.632812 -5.550781 8.535156 -5.515625 8.421875 -5.515625 C 8.273438 -5.515625 8.148438 -5.597656 8.046875 -5.765625 C 7.859375 -6.066406 7.625 -6.363281 7.34375 -6.65625 C 7.257812 -6.757812 7.21875 -6.859375 7.21875 -6.953125 C 7.21875 -7.140625 7.3125 -7.234375 7.5 -7.234375 Z M 8.359375 -8.015625 C 8.554688 -8.015625 8.835938 -7.859375 9.203125 -7.546875 C 9.546875 -7.265625 9.71875 -7.023438 9.71875 -6.828125 C 9.71875 -6.679688 9.664062 -6.566406 9.5625 -6.484375 C 9.476562 -6.429688 9.390625 -6.40625 9.296875 -6.40625 C 9.148438 -6.40625 9.023438 -6.484375 8.921875 -6.640625 C 8.742188 -6.910156 8.507812 -7.1875 8.21875 -7.46875 C 8.113281 -7.5625 8.0625 -7.65625 8.0625 -7.75 C 8.0625 -7.820312 8.085938 -7.882812 8.140625 -7.9375 C 8.191406 -7.988281 8.265625 -8.015625 8.359375 -8.015625 Z M 8.359375 -8.015625 "/></g></g></g><g fill="#00a0e9" fill-opacity="1"><g transform="translate(44.596868, 14.600001)"><g><path d="M 8.03125 -4.796875 C 8.226562 -4.796875 8.390625 -4.734375 8.515625 -4.609375 C 8.609375 -4.503906 8.65625 -4.363281 8.65625 -4.1875 C 8.65625 -3.863281 8.503906 -3.671875 8.203125 -3.609375 C 8.117188 -3.585938 7.019531 -3.53125 4.90625 -3.4375 C 3.925781 -3.394531 2.894531 -3.34375 1.8125 -3.28125 C 1.769531 -3.28125 1.734375 -3.28125 1.703125 -3.28125 C 1.515625 -3.28125 1.359375 -3.332031 1.234375 -3.4375 C 1.109375 -3.550781 1.046875 -3.703125 1.046875 -3.890625 C 1.046875 -4.160156 1.164062 -4.34375 1.40625 -4.4375 C 1.5 -4.476562 1.726562 -4.503906 2.09375 -4.515625 C 2.414062 -4.523438 3.234375 -4.566406 4.546875 -4.640625 C 5.097656 -4.660156 5.859375 -4.691406 6.828125 -4.734375 C 7.148438 -4.753906 7.410156 -4.769531 7.609375 -4.78125 C 7.835938 -4.789062 7.976562 -4.796875 8.03125 -4.796875 Z M 8.03125 -4.796875 "/></g></g></g><g fill="#00a0e9" fill-opacity="1"><g transform="translate(54.892957, 14.600001)"><g><path d="M 2.703125 -7.5 C 2.992188 -7.5 3.484375 -7.289062 4.171875 -6.875 C 4.378906 -6.75 4.535156 -6.644531 4.640625 -6.5625 C 4.828125 -6.40625 4.921875 -6.222656 4.921875 -6.015625 C 4.921875 -5.878906 4.867188 -5.75 4.765625 -5.625 C 4.617188 -5.445312 4.453125 -5.359375 4.265625 -5.359375 C 4.097656 -5.359375 3.925781 -5.453125 3.75 -5.640625 C 3.457031 -5.929688 3.03125 -6.28125 2.46875 -6.6875 C 2.300781 -6.8125 2.21875 -6.945312 2.21875 -7.09375 C 2.21875 -7.175781 2.238281 -7.253906 2.28125 -7.328125 C 2.363281 -7.441406 2.503906 -7.5 2.703125 -7.5 Z M 1.515625 -5.296875 C 1.710938 -5.296875 2.007812 -5.222656 2.40625 -5.078125 C 2.863281 -4.910156 3.242188 -4.71875 3.546875 -4.5 C 3.765625 -4.34375 3.875 -4.148438 3.875 -3.921875 C 3.875 -3.785156 3.820312 -3.648438 3.71875 -3.515625 C 3.59375 -3.347656 3.429688 -3.265625 3.234375 -3.265625 C 3.085938 -3.265625 2.921875 -3.335938 2.734375 -3.484375 C 2.359375 -3.796875 1.882812 -4.113281 1.3125 -4.4375 C 1.113281 -4.550781 1.015625 -4.691406 1.015625 -4.859375 C 1.015625 -4.929688 1.035156 -5.007812 1.078125 -5.09375 C 1.160156 -5.226562 1.304688 -5.296875 1.515625 -5.296875 Z M 8.453125 -5.609375 C 8.546875 -5.609375 8.640625 -5.582031 8.734375 -5.53125 C 8.890625 -5.4375 8.96875 -5.300781 8.96875 -5.125 C 8.96875 -4.9375 8.816406 -4.585938 8.515625 -4.078125 C 8.015625 -3.234375 7.328125 -2.460938 6.453125 -1.765625 C 5.410156 -0.921875 4.257812 -0.285156 3 0.140625 C 2.851562 0.191406 2.734375 0.21875 2.640625 0.21875 C 2.378906 0.21875 2.191406 0.101562 2.078125 -0.125 C 2.015625 -0.238281 1.984375 -0.351562 1.984375 -0.46875 C 1.984375 -0.707031 2.09375 -0.890625 2.3125 -1.015625 C 2.351562 -1.035156 2.566406 -1.113281 2.953125 -1.25 C 4.003906 -1.613281 4.988281 -2.160156 5.90625 -2.890625 C 6.789062 -3.585938 7.46875 -4.375 7.9375 -5.25 C 8.082031 -5.488281 8.253906 -5.609375 8.453125 -5.609375 Z M 7.234375 -7.78125 C 7.410156 -7.78125 7.695312 -7.597656 8.09375 -7.234375 C 8.4375 -6.921875 8.609375 -6.675781 8.609375 -6.5 C 8.609375 -6.375 8.554688 -6.265625 8.453125 -6.171875 C 8.359375 -6.097656 8.257812 -6.0625 8.15625 -6.0625 C 8.007812 -6.0625 7.882812 -6.144531 7.78125 -6.3125 C 7.582031 -6.625 7.347656 -6.925781 7.078125 -7.21875 C 6.984375 -7.3125 6.9375 -7.40625 6.9375 -7.5 C 6.9375 -7.6875 7.035156 -7.78125 7.234375 -7.78125 Z M 8.25 -8.515625 C 8.4375 -8.515625 8.71875 -8.363281 9.09375 -8.0625 C 9.425781 -7.769531 9.59375 -7.523438 9.59375 -7.328125 C 9.59375 -7.179688 9.539062 -7.070312 9.4375 -7 C 9.351562 -6.9375 9.265625 -6.90625 9.171875 -6.90625 C 9.035156 -6.90625 8.910156 -6.988281 8.796875 -7.15625 C 8.617188 -7.414062 8.390625 -7.6875 8.109375 -7.96875 C 8.003906 -8.0625 7.953125 -8.15625 7.953125 -8.25 C 7.953125 -8.320312 7.976562 -8.382812 8.03125 -8.4375 C 8.082031 -8.488281 8.15625 -8.515625 8.25 -8.515625 Z M 8.25 -8.515625 "/></g></g></g><g fill="#00a0e9" fill-opacity="1"><g transform="translate(65.189045, 14.600001)"><g><path d="M 6.171875 -3.484375 C 6.210938 -3.878906 6.234375 -4.132812 6.234375 -4.25 C 6.234375 -4.363281 6.179688 -4.421875 6.078125 -4.421875 C 6.046875 -4.421875 5.96875 -4.410156 5.84375 -4.390625 C 5.675781 -4.378906 4.773438 -4.304688 3.140625 -4.171875 C 3.078125 -4.160156 3.035156 -4.15625 3.015625 -4.15625 C 2.804688 -4.15625 2.664062 -4.242188 2.59375 -4.421875 C 2.550781 -4.503906 2.53125 -4.597656 2.53125 -4.703125 C 2.53125 -4.953125 2.65625 -5.109375 2.90625 -5.171875 C 2.9375 -5.171875 3.421875 -5.207031 4.359375 -5.28125 L 5.828125 -5.390625 C 6.316406 -5.429688 6.582031 -5.453125 6.625 -5.453125 C 6.9375 -5.453125 7.164062 -5.3125 7.3125 -5.03125 C 7.363281 -4.914062 7.390625 -4.789062 7.390625 -4.65625 C 7.390625 -4.613281 7.316406 -3.867188 7.171875 -2.421875 L 7.078125 -1.640625 L 7.0625 -1.4375 C 7.238281 -1.332031 7.328125 -1.179688 7.328125 -0.984375 C 7.328125 -0.710938 7.191406 -0.546875 6.921875 -0.484375 C 6.867188 -0.472656 5.972656 -0.414062 4.234375 -0.3125 C 3.335938 -0.257812 2.878906 -0.234375 2.859375 -0.234375 C 2.535156 -0.234375 2.375 -0.40625 2.375 -0.75 C 2.375 -1.007812 2.488281 -1.164062 2.71875 -1.21875 C 2.757812 -1.238281 3.144531 -1.269531 3.875 -1.3125 L 5.25 -1.390625 L 5.78125 -1.421875 L 5.984375 -1.4375 C 6.003906 -1.570312 6.03125 -1.789062 6.0625 -2.09375 L 6.078125 -2.390625 L 6.09375 -2.484375 C 5.695312 -2.472656 4.957031 -2.425781 3.875 -2.34375 C 3.382812 -2.3125 3.128906 -2.296875 3.109375 -2.296875 C 2.984375 -2.296875 2.875 -2.34375 2.78125 -2.4375 C 2.6875 -2.519531 2.640625 -2.640625 2.640625 -2.796875 C 2.640625 -3.035156 2.738281 -3.1875 2.9375 -3.25 C 2.988281 -3.28125 3.113281 -3.300781 3.3125 -3.3125 C 3.476562 -3.3125 3.820312 -3.332031 4.34375 -3.375 C 4.726562 -3.394531 5.269531 -3.429688 5.96875 -3.484375 Z M 6.171875 -3.484375 "/></g></g></g><g fill="#00a0e9" fill-opacity="1"><g transform="translate(75.485133, 14.600001)"><g><path d="M 2.25 -7.015625 C 2.382812 -7.015625 2.613281 -6.957031 2.9375 -6.84375 C 3.539062 -6.625 4.039062 -6.367188 4.4375 -6.078125 C 4.644531 -5.921875 4.75 -5.726562 4.75 -5.5 C 4.75 -5.375 4.710938 -5.25 4.640625 -5.125 C 4.515625 -4.9375 4.347656 -4.84375 4.140625 -4.84375 C 3.960938 -4.84375 3.765625 -4.925781 3.546875 -5.09375 C 3.003906 -5.519531 2.507812 -5.859375 2.0625 -6.109375 C 1.832031 -6.234375 1.71875 -6.382812 1.71875 -6.5625 C 1.71875 -6.863281 1.894531 -7.015625 2.25 -7.015625 Z M 8.53125 -5.453125 C 8.632812 -5.453125 8.738281 -5.414062 8.84375 -5.34375 C 8.976562 -5.238281 9.046875 -5.101562 9.046875 -4.9375 C 9.046875 -4.800781 8.988281 -4.65625 8.875 -4.5 C 8.132812 -3.375 7.148438 -2.40625 5.921875 -1.59375 C 4.898438 -0.90625 3.84375 -0.414062 2.75 -0.125 C 2.632812 -0.09375 2.535156 -0.078125 2.453125 -0.078125 C 2.179688 -0.078125 1.984375 -0.207031 1.859375 -0.46875 C 1.804688 -0.582031 1.78125 -0.691406 1.78125 -0.796875 C 1.78125 -1.023438 1.898438 -1.203125 2.140625 -1.328125 C 2.191406 -1.347656 2.410156 -1.414062 2.796875 -1.53125 C 4.191406 -1.9375 5.492188 -2.675781 6.703125 -3.75 C 7.160156 -4.15625 7.597656 -4.617188 8.015625 -5.140625 C 8.171875 -5.347656 8.34375 -5.453125 8.53125 -5.453125 Z M 8.53125 -5.453125 "/></g></g></g><g fill="#00a0e9" fill-opacity="1"><g transform="translate(24.035156, 46.099998)"><g><path d="M 8.734375 -19.953125 C 8.898438 -20.078125 9.113281 -20.179688 9.375 -20.265625 C 9.632812 -20.359375 9.894531 -20.40625 10.15625 -20.40625 C 10.550781 -20.40625 10.941406 -20.296875 11.328125 -20.078125 C 11.710938 -19.867188 11.90625 -19.488281 11.90625 -18.9375 L 11.90625 -1.640625 C 11.90625 -1.265625 11.800781 -0.960938 11.59375 -0.734375 C 11.382812 -0.515625 11.144531 -0.351562 10.875 -0.25 C 10.613281 -0.15625 10.363281 -0.109375 10.125 -0.109375 C 9.882812 -0.109375 9.617188 -0.15625 9.328125 -0.25 C 9.046875 -0.351562 8.800781 -0.515625 8.59375 -0.734375 C 8.394531 -0.960938 8.296875 -1.265625 8.296875 -1.640625 L 8.296875 -15.90625 L 6.109375 -14.46875 C 5.953125 -14.375 5.800781 -14.304688 5.65625 -14.265625 C 5.519531 -14.234375 5.390625 -14.21875 5.265625 -14.21875 C 4.960938 -14.21875 4.691406 -14.296875 4.453125 -14.453125 C 4.210938 -14.609375 4.035156 -14.769531 3.921875 -14.9375 C 3.710938 -15.195312 3.609375 -15.519531 3.609375 -15.90625 C 3.609375 -16.125 3.660156 -16.335938 3.765625 -16.546875 C 3.867188 -16.765625 4.046875 -16.960938 4.296875 -17.140625 Z M 8.734375 -19.953125 "/></g></g></g><g fill="#00a0e9" fill-opacity="1"><g transform="translate(42.07031, 46.099998)"><g><path d="M 2.375 -2.828125 C 2.375 -3.566406 2.632812 -4.191406 3.15625 -4.703125 C 3.675781 -5.222656 4.296875 -5.484375 5.015625 -5.484375 C 5.742188 -5.484375 6.367188 -5.222656 6.890625 -4.703125 C 7.410156 -4.191406 7.671875 -3.566406 7.671875 -2.828125 C 7.671875 -2.097656 7.410156 -1.472656 6.890625 -0.953125 C 6.367188 -0.441406 5.742188 -0.1875 5.015625 -0.1875 C 4.296875 -0.1875 3.675781 -0.441406 3.15625 -0.953125 C 2.632812 -1.472656 2.375 -2.097656 2.375 -2.828125 Z M 2.375 -2.828125 "/></g></g></g><g fill="#00a0e9" fill-opacity="1"><g transform="translate(51.031858, 46.099998)"><g><path d="M 1.78125 -10.359375 C 1.78125 -12.484375 2.113281 -14.3125 2.78125 -15.84375 C 3.445312 -17.375 4.363281 -18.546875 5.53125 -19.359375 C 6.707031 -20.171875 8.050781 -20.578125 9.5625 -20.578125 C 11.070312 -20.578125 12.410156 -20.171875 13.578125 -19.359375 C 14.742188 -18.546875 15.660156 -17.375 16.328125 -15.84375 C 17.003906 -14.3125 17.34375 -12.484375 17.34375 -10.359375 C 17.34375 -7.984375 16.984375 -6.023438 16.265625 -4.484375 C 15.554688 -2.953125 14.613281 -1.8125 13.4375 -1.0625 C 12.257812 -0.320312 10.96875 0.046875 9.5625 0.046875 C 8.15625 0.046875 6.863281 -0.320312 5.6875 -1.0625 C 4.507812 -1.8125 3.5625 -2.953125 2.84375 -4.484375 C 2.132812 -6.023438 1.78125 -7.984375 1.78125 -10.359375 Z M 13.625 -10.28125 C 13.625 -12.570312 13.242188 -14.347656 12.484375 -15.609375 C 11.734375 -16.878906 10.757812 -17.515625 9.5625 -17.515625 C 8.375 -17.515625 7.394531 -16.878906 6.625 -15.609375 C 5.863281 -14.347656 5.484375 -12.570312 5.484375 -10.28125 C 5.484375 -8.613281 5.675781 -7.25 6.0625 -6.1875 C 6.445312 -5.125 6.945312 -4.335938 7.5625 -3.828125 C 8.175781 -3.328125 8.84375 -3.078125 9.5625 -3.078125 C 10.28125 -3.078125 10.941406 -3.328125 11.546875 -3.828125 C 12.160156 -4.335938 12.660156 -5.125 13.046875 -6.1875 C 13.429688 -7.25 13.625 -8.613281 13.625 -10.28125 Z M 13.625 -10.28125 "/></g></g></g><g fill="#00a0e9" fill-opacity="1"><g transform="translate(69.059779, 46.099998)"><g><path d="M 2.375 -2.828125 C 2.375 -3.566406 2.632812 -4.191406 3.15625 -4.703125 C 3.675781 -5.222656 4.296875 -5.484375 5.015625 -5.484375 C 5.742188 -5.484375 6.367188 -5.222656 6.890625 -4.703125 C 7.410156 -4.191406 7.671875 -3.566406 7.671875 -2.828125 C 7.671875 -2.097656 7.410156 -1.472656 6.890625 -0.953125 C 6.367188 -0.441406 5.742188 -0.1875 5.015625 -0.1875 C 4.296875 -0.1875 3.675781 -0.441406 3.15625 -0.953125 C 2.632812 -1.472656 2.375 -2.097656 2.375 -2.828125 Z M 2.375 -2.828125 "/></g></g></g><g fill="#00a0e9" fill-opacity="1"><g transform="translate(78.021327, 46.099998)"><g><path d="M 5.71875 -20.125 L 14.578125 -20.125 C 15.046875 -20.125 15.367188 -19.9375 15.546875 -19.5625 C 15.734375 -19.195312 15.828125 -18.859375 15.828125 -18.546875 C 15.828125 -18.242188 15.734375 -17.90625 15.546875 -17.53125 C 15.367188 -17.164062 15.046875 -16.984375 14.578125 -16.984375 L 7.125 -16.984375 C 6.84375 -16.984375 6.644531 -16.9375 6.53125 -16.84375 C 6.425781 -16.757812 6.363281 -16.609375 6.34375 -16.390625 L 6.15625 -12.109375 C 6.65625 -12.554688 7.265625 -12.898438 7.984375 -13.140625 C 8.710938 -13.378906 9.460938 -13.5 10.234375 -13.5 C 11.429688 -13.5 12.519531 -13.226562 13.5 -12.6875 C 14.488281 -12.144531 15.273438 -11.382812 15.859375 -10.40625 C 16.453125 -9.425781 16.75 -8.28125 16.75 -6.96875 C 16.75 -5.488281 16.410156 -4.226562 15.734375 -3.1875 C 15.066406 -2.144531 14.175781 -1.335938 13.0625 -0.765625 C 11.945312 -0.203125 10.71875 0.078125 9.375 0.078125 C 8.21875 0.078125 7.09375 -0.117188 6 -0.515625 C 4.914062 -0.910156 4.066406 -1.457031 3.453125 -2.15625 C 3.054688 -2.601562 2.859375 -3.0625 2.859375 -3.53125 C 2.859375 -3.90625 3.003906 -4.257812 3.296875 -4.59375 C 3.617188 -4.9375 3.992188 -5.109375 4.421875 -5.109375 C 4.859375 -5.109375 5.226562 -4.941406 5.53125 -4.609375 C 6.03125 -4.054688 6.566406 -3.648438 7.140625 -3.390625 C 7.722656 -3.140625 8.441406 -3.015625 9.296875 -3.015625 C 9.972656 -3.015625 10.597656 -3.171875 11.171875 -3.484375 C 11.742188 -3.804688 12.210938 -4.265625 12.578125 -4.859375 C 12.941406 -5.453125 13.125 -6.171875 13.125 -7.015625 C 13.125 -8.265625 12.769531 -9.191406 12.0625 -9.796875 C 11.363281 -10.410156 10.492188 -10.71875 9.453125 -10.71875 C 8.765625 -10.71875 8.160156 -10.582031 7.640625 -10.3125 C 7.117188 -10.050781 6.648438 -9.691406 6.234375 -9.234375 C 5.816406 -8.785156 5.328125 -8.5625 4.765625 -8.5625 C 4.648438 -8.5625 4.523438 -8.566406 4.390625 -8.578125 C 4.265625 -8.597656 4.132812 -8.632812 4 -8.6875 C 3.269531 -8.945312 2.90625 -9.546875 2.90625 -10.484375 L 2.90625 -10.6875 L 3.21875 -17.875 C 3.269531 -19.375 4.101562 -20.125 5.71875 -20.125 Z M 5.71875 -20.125 "/></g></g></g></svg>