<?xml version="1.0" encoding="utf-8"?>
<!-- Generator: Adobe Illustrator 25.0.1, SVG Export Plug-In . SVG Version: 6.00 Build 0)  -->
<svg version="1.1" id="レイヤー_1" xmlns="http://www.w3.org/2000/svg" xmlns:xlink="http://www.w3.org/1999/xlink" x="0px"
	 y="0px" viewBox="0 0 160 68" style="enable-background:new 0 0 160 68;" xml:space="preserve">
<style type="text/css">
	.st0{fill:none;stroke:#000000;stroke-width:5;stroke-miterlimit:10;}
	.st1{fill:#969696;}
</style>
<g>
	<g>
		<path d="M75.6,25.3h1.6l-0.1,2.6h5.8v1.5H77l-0.2,3.4h2.1c2.7,0,3.5-0.5,3.9-0.8l0.6,1.4c-0.5,0.3-1.3,0.9-4.6,0.9h-2
			c0,4.1,0,5,3.8,5c2.1,0,2.8-0.3,3.3-0.7c0.8-0.5,1.4-1.5,1.4-2.8c0-0.4,0-1.7-1.1-3.5l1.4-0.7c0.4,0.6,1.4,2,1.4,4.1
			c0,5.1-4.7,5.1-6.3,5.1c-5.4,0-5.5-2-5.5-6.5h-3.4v-1.5h3.5l0.1-3.4h-3.3v-1.5h3.4L75.6,25.3z"/>
		<path d="M91.1,39.5c4.8,0,8.7-1,8.7-5.2c0-3.2-2-3.2-3.1-3.2c-1.7,0-5.4,0.6-7.4,1l-0.4-1.6c0.8-0.1,6.5-0.8,7.9-0.8
			c1.1,0,4.6,0,4.6,4.6c0,5.2-4.4,6.8-10,6.8L91.1,39.5z M99.4,28c-3.4-1.2-7.5-1.4-8.5-1.5l0.2-1.5c2.7,0.1,5.9,0.5,8.7,1.4
			L99.4,28z"/>
		<path d="M111,25.7v14.2h-1.7V27.3h-2.7v-1.6C106.6,25.7,111,25.7,111,25.7z"/>
		<path d="M119.3,41.4h-1.5V25.6h15.1v15.8h-1.5v-1.1h-12.1C119.3,40.3,119.3,41.4,119.3,41.4z M119.3,38.9h12.1V27h-12.1
			C119.3,27,119.3,38.9,119.3,38.9z M129.4,29.2v7.4h-8v-7.4C121.4,29.2,129.4,29.2,129.4,29.2z M122.7,30.6v4.8h5.2v-4.8
			C127.9,30.6,122.7,30.6,122.7,30.6z"/>
	</g>
	<g>
		<g>
			<path class="st0" d="M34.8,17.3c9.6,0,17.3,7.8,17.3,17.3s-7.8,17.3-17.3,17.3s-17.3-7.8-17.3-17.3c0-3.7,1.2-7.2,3.2-10"/>
			<g>
				<polygon points="12.8,17.8 26.7,33.8 27.8,18.8 				"/>
			</g>
		</g>
	</g>
	<path class="st1" d="M150,2c4.4,0,8,3.6,8,8v48c0,4.4-3.6,8-8,8H10c-4.4,0-8-3.6-8-8V10c0-4.4,3.6-8,8-8H150 M150,0H10
		C4.5,0,0,4.5,0,10v48c0,5.5,4.5,10,10,10h140c5.5,0,10-4.5,10-10V10C160,4.5,155.5,0,150,0z"/>
</g>
</svg>
