<svg xmlns="http://www.w3.org/2000/svg" xmlns:xlink="http://www.w3.org/1999/xlink" width="160" zoomAndPan="magnify" viewBox="0 0 120 50.999998" height="68" preserveAspectRatio="xMidYMid meet" version="1.0"><defs><g/><clipPath id="13942d2f06"><path d="M 7.5 0 L 112.5 0 C 116.640625 0 120 3.359375 120 7.5 L 120 43.5 C 120 47.640625 116.640625 51 112.5 51 L 7.5 51 C 3.359375 51 0 47.640625 0 43.5 L 0 7.5 C 0 3.359375 3.359375 0 7.5 0 Z M 7.5 0 " clip-rule="nonzero"/></clipPath><clipPath id="2f0918e1d4"><path d="M 0 0 L 120 0 L 120 51 L 0 51 Z M 0 0 " clip-rule="nonzero"/></clipPath><clipPath id="d0c1c8fb6e"><path d="M 7.5 0 L 112.5 0 C 116.640625 0 120 3.359375 120 7.5 L 120 43.5 C 120 47.640625 116.640625 51 112.5 51 L 7.5 51 C 3.359375 51 0 47.640625 0 43.5 L 0 7.5 C 0 3.359375 3.359375 0 7.5 0 Z M 7.5 0 " clip-rule="nonzero"/></clipPath><clipPath id="5511bd1a81"><rect x="0" width="120" y="0" height="51"/></clipPath></defs><g clip-path="url(#13942d2f06)"><g transform="matrix(1, 0, 0, 1, -0, 0)"><g clip-path="url(#5511bd1a81)"><g clip-path="url(#2f0918e1d4)"><g clip-path="url(#d0c1c8fb6e)"><path fill="#ffffff" d="M 0 0 L 119.929688 0 L 119.929688 51 L 0 51 Z M 0 0 " fill-opacity="1" fill-rule="nonzero"/></g></g></g></g></g><g fill="#00a0e9" fill-opacity="1"><g transform="translate(10.062501, 31.874997)"><g><path d="M 11.75 -7.359375 L 14.25 -7.90625 C 14.851562 -7.144531 15.289062 -6.425781 15.5625 -5.75 C 15.84375 -5.082031 15.984375 -4.375 15.984375 -3.625 C 15.984375 -2.726562 15.726562 -1.929688 15.21875 -1.234375 C 14.707031 -0.535156 13.976562 0.0078125 13.03125 0.40625 C 12.09375 0.8125 10.972656 1.015625 9.671875 1.015625 C 8.734375 1.015625 7.90625 0.867188 7.1875 0.578125 C 6.46875 0.285156 5.898438 -0.164062 5.484375 -0.78125 C 5.078125 -1.394531 4.875 -2.195312 4.875 -3.1875 C 4.875 -3.40625 4.882812 -3.664062 4.90625 -3.96875 C 4.9375 -4.269531 4.96875 -4.609375 5 -4.984375 C 4.351562 -5.046875 3.738281 -5.125 3.15625 -5.21875 C 2.582031 -5.320312 2.054688 -5.441406 1.578125 -5.578125 L 1.703125 -7.734375 C 2.285156 -7.546875 2.875 -7.394531 3.46875 -7.28125 C 4.0625 -7.175781 4.644531 -7.09375 5.21875 -7.03125 C 5.28125 -7.425781 5.332031 -7.828125 5.375 -8.234375 C 5.425781 -8.648438 5.476562 -9.0625 5.53125 -9.46875 C 4.90625 -9.53125 4.285156 -9.613281 3.671875 -9.71875 C 3.066406 -9.820312 2.503906 -9.945312 1.984375 -10.09375 L 2.109375 -12.171875 C 2.617188 -12.003906 3.191406 -11.863281 3.828125 -11.75 C 4.460938 -11.644531 5.109375 -11.5625 5.765625 -11.5 C 5.796875 -11.78125 5.820312 -12.039062 5.84375 -12.28125 C 5.875 -12.519531 5.894531 -12.734375 5.90625 -12.921875 C 5.925781 -13.160156 5.941406 -13.410156 5.953125 -13.671875 C 5.960938 -13.929688 5.957031 -14.210938 5.9375 -14.515625 L 8.4375 -14.359375 C 8.3125 -13.753906 8.210938 -13.226562 8.140625 -12.78125 C 8.109375 -12.625 8.078125 -12.429688 8.046875 -12.203125 C 8.023438 -11.972656 7.988281 -11.71875 7.9375 -11.4375 C 8.570312 -11.445312 9.171875 -11.46875 9.734375 -11.5 C 10.296875 -11.539062 10.789062 -11.585938 11.21875 -11.640625 L 11.140625 -9.515625 C 10.609375 -9.472656 10.078125 -9.4375 9.546875 -9.40625 C 9.015625 -9.375 8.390625 -9.359375 7.671875 -9.359375 C 7.617188 -8.960938 7.566406 -8.554688 7.515625 -8.140625 C 7.460938 -7.734375 7.410156 -7.332031 7.359375 -6.9375 L 7.484375 -6.9375 C 8.035156 -6.9375 8.625 -6.957031 9.25 -7 C 9.875 -7.039062 10.476562 -7.085938 11.0625 -7.140625 L 11.015625 -5.015625 C 10.515625 -4.972656 10 -4.9375 9.46875 -4.90625 C 8.945312 -4.875 8.410156 -4.859375 7.859375 -4.859375 C 7.742188 -4.859375 7.625 -4.859375 7.5 -4.859375 C 7.382812 -4.859375 7.265625 -4.859375 7.140625 -4.859375 C 7.128906 -4.597656 7.113281 -4.359375 7.09375 -4.140625 C 7.082031 -3.921875 7.078125 -3.726562 7.078125 -3.5625 C 7.078125 -2.832031 7.300781 -2.269531 7.75 -1.875 C 8.195312 -1.488281 8.859375 -1.296875 9.734375 -1.296875 C 10.984375 -1.296875 11.9375 -1.546875 12.59375 -2.046875 C 13.257812 -2.554688 13.59375 -3.175781 13.59375 -3.90625 C 13.59375 -4.507812 13.429688 -5.097656 13.109375 -5.671875 C 12.785156 -6.242188 12.332031 -6.804688 11.75 -7.359375 Z M 11.75 -7.359375 "/></g></g></g><g fill="#00a0e9" fill-opacity="1"><g transform="translate(27.522441, 31.874997)"><g><path d="M 12.28125 -5.921875 C 12.28125 -6.503906 12.0625 -7.003906 11.625 -7.421875 C 11.1875 -7.847656 10.546875 -8.054688 9.703125 -8.046875 C 9.054688 -8.046875 8.4375 -7.988281 7.84375 -7.875 C 7.25 -7.769531 6.710938 -7.648438 6.234375 -7.515625 C 5.765625 -7.390625 5.375 -7.28125 5.0625 -7.1875 C 4.789062 -7.101562 4.5 -7.003906 4.1875 -6.890625 C 3.875 -6.773438 3.585938 -6.664062 3.328125 -6.5625 L 2.65625 -9.109375 C 2.957031 -9.128906 3.285156 -9.171875 3.640625 -9.234375 C 3.992188 -9.296875 4.316406 -9.351562 4.609375 -9.40625 C 5.054688 -9.507812 5.5625 -9.625 6.125 -9.75 C 6.695312 -9.875 7.3125 -9.984375 7.96875 -10.078125 C 8.625 -10.171875 9.296875 -10.21875 9.984375 -10.21875 C 10.929688 -10.21875 11.765625 -10.046875 12.484375 -9.703125 C 13.210938 -9.367188 13.78125 -8.875 14.1875 -8.21875 C 14.59375 -7.5625 14.796875 -6.765625 14.796875 -5.828125 C 14.796875 -4.554688 14.429688 -3.445312 13.703125 -2.5 C 12.984375 -1.5625 11.984375 -0.789062 10.703125 -0.1875 C 9.429688 0.40625 7.96875 0.816406 6.3125 1.046875 L 5.015625 -1.1875 C 6.492188 -1.351562 7.773438 -1.628906 8.859375 -2.015625 C 9.953125 -2.410156 10.796875 -2.925781 11.390625 -3.5625 C 11.984375 -4.195312 12.28125 -4.984375 12.28125 -5.921875 Z M 5.296875 -14.484375 C 5.804688 -14.378906 6.414062 -14.273438 7.125 -14.171875 C 7.84375 -14.066406 8.585938 -13.976562 9.359375 -13.90625 C 10.128906 -13.84375 10.859375 -13.789062 11.546875 -13.75 C 12.242188 -13.707031 12.828125 -13.6875 13.296875 -13.6875 L 12.9375 -11.484375 C 12.425781 -11.515625 11.816406 -11.5625 11.109375 -11.625 C 10.410156 -11.6875 9.679688 -11.753906 8.921875 -11.828125 C 8.171875 -11.898438 7.445312 -11.976562 6.75 -12.0625 C 6.050781 -12.15625 5.445312 -12.242188 4.9375 -12.328125 Z M 5.296875 -14.484375 "/></g></g></g><g fill="#00a0e9" fill-opacity="1"><g transform="translate(45.522383, 31.874997)"><g><path d="M 1.46875 0 L 1.46875 -2.140625 L 4.34375 -2.140625 L 4.34375 -10.5625 L 1.921875 -10.5625 L 1.921875 -12.203125 C 2.597656 -12.335938 3.175781 -12.488281 3.65625 -12.65625 C 4.144531 -12.832031 4.597656 -13.050781 5.015625 -13.3125 L 6.984375 -13.3125 L 6.984375 -2.140625 L 9.484375 -2.140625 L 9.484375 0 Z M 1.46875 0 "/></g></g></g><g fill="#00a0e9" fill-opacity="1"><g transform="translate(56.124349, 31.874997)"><g><path d="M 10.453125 -5.34375 L 10.453125 -8.453125 L 7.296875 -8.453125 L 7.296875 -5.34375 Z M 5.28125 -10.328125 L 12.625 -10.328125 L 12.625 -3.484375 L 5.28125 -3.484375 Z M 3.546875 -1.40625 L 14.359375 -1.40625 L 14.359375 -12.453125 L 3.546875 -12.453125 Z M 1.3125 -14.65625 L 16.703125 -14.65625 L 16.703125 1.546875 L 14.359375 1.546875 L 14.359375 0.59375 L 3.546875 0.59375 L 3.546875 1.546875 L 1.3125 1.546875 Z M 1.3125 -14.65625 "/></g></g></g><g fill="#00a0e9" fill-opacity="1"><g transform="translate(74.12429, 31.874997)"><g><path d="M 10.015625 -4.515625 L 13.234375 -4.515625 L 13.234375 -5.96875 L 10.015625 -5.96875 Z M 4.75 -5.96875 L 4.75 -4.515625 L 7.859375 -4.515625 L 7.859375 -5.96875 Z M 7.859375 -9.203125 L 4.75 -9.203125 L 4.75 -7.796875 L 7.859375 -7.796875 Z M 13.234375 -9.203125 L 10.015625 -9.203125 L 10.015625 -7.796875 L 13.234375 -7.796875 Z M 17.421875 -4.515625 L 17.421875 -2.53125 L 15.375 -2.53125 L 15.375 -0.75 C 15.375 -0.21875 15.300781 0.195312 15.15625 0.5 C 15.019531 0.8125 14.757812 1.050781 14.375 1.21875 C 14.019531 1.382812 13.566406 1.484375 13.015625 1.515625 C 12.472656 1.554688 11.820312 1.578125 11.0625 1.578125 C 11.019531 1.296875 10.925781 0.957031 10.78125 0.5625 C 10.632812 0.164062 10.484375 -0.164062 10.328125 -0.4375 C 10.660156 -0.414062 10.992188 -0.398438 11.328125 -0.390625 C 11.671875 -0.390625 11.972656 -0.390625 12.234375 -0.390625 C 12.503906 -0.390625 12.691406 -0.390625 12.796875 -0.390625 C 12.960938 -0.390625 13.078125 -0.414062 13.140625 -0.46875 C 13.203125 -0.53125 13.234375 -0.640625 13.234375 -0.796875 L 13.234375 -2.53125 L 4.75 -2.53125 L 4.75 1.578125 L 2.625 1.578125 L 2.625 -2.53125 L 0.578125 -2.53125 L 0.578125 -4.515625 L 2.625 -4.515625 L 2.625 -11.125 L 7.859375 -11.125 L 7.859375 -12.3125 L 1.3125 -12.3125 L 1.3125 -14.28125 L 16.703125 -14.28125 L 16.703125 -12.3125 L 10.015625 -12.3125 L 10.015625 -11.125 L 15.375 -11.125 L 15.375 -4.515625 Z M 17.421875 -4.515625 "/></g></g></g><g fill="#00a0e9" fill-opacity="1"><g transform="translate(92.124232, 31.874997)"><g><path d="M 10.15625 -1.046875 L 17.140625 -1.046875 L 17.140625 1.0625 L 0.953125 1.0625 L 0.953125 -1.046875 L 7.90625 -1.046875 L 7.90625 -4.65625 L 3.03125 -4.65625 L 3.03125 -6.734375 L 7.90625 -6.734375 L 7.90625 -9.90625 L 4.171875 -9.90625 C 3.910156 -9.40625 3.640625 -8.929688 3.359375 -8.484375 C 3.085938 -8.035156 2.800781 -7.640625 2.5 -7.296875 C 2.351562 -7.410156 2.160156 -7.546875 1.921875 -7.703125 C 1.691406 -7.867188 1.453125 -8.03125 1.203125 -8.1875 C 0.960938 -8.34375 0.753906 -8.46875 0.578125 -8.5625 C 1.046875 -9.070312 1.484375 -9.671875 1.890625 -10.359375 C 2.296875 -11.046875 2.65625 -11.785156 2.96875 -12.578125 C 3.289062 -13.378906 3.554688 -14.191406 3.765625 -15.015625 L 5.96875 -14.53125 C 5.851562 -14.09375 5.722656 -13.664062 5.578125 -13.25 C 5.429688 -12.832031 5.28125 -12.410156 5.125 -11.984375 L 7.90625 -11.984375 L 7.90625 -15.234375 L 10.15625 -15.234375 L 10.15625 -11.984375 L 16.21875 -11.984375 L 16.21875 -9.90625 L 10.15625 -9.90625 L 10.15625 -6.734375 L 15.53125 -6.734375 L 15.53125 -4.65625 L 10.15625 -4.65625 Z M 10.15625 -1.046875 "/></g></g></g></svg>