<svg xmlns="http://www.w3.org/2000/svg" xmlns:xlink="http://www.w3.org/1999/xlink" width="180" zoomAndPan="magnify" viewBox="0 0 135 47.25" height="63" preserveAspectRatio="xMidYMid meet" version="1.0"><defs><g/><clipPath id="4363f8987c"><path d="M 1.054688 0 L 133.882812 0 L 133.882812 46.511719 L 1.054688 46.511719 Z M 1.054688 0 " clip-rule="nonzero"/></clipPath><clipPath id="f82f693556"><path d="M 8.4375 0 L 126.402344 0 C 128.359375 0 130.238281 0.777344 131.621094 2.164062 C 133.007812 3.546875 133.785156 5.425781 133.785156 7.382812 L 133.785156 47.023438 C 133.785156 48.980469 133.007812 50.859375 131.621094 52.242188 C 130.238281 53.628906 128.359375 54.40625 126.402344 54.40625 L 8.4375 54.40625 C 6.480469 54.40625 4.601562 53.628906 3.21875 52.242188 C 1.832031 50.859375 1.054688 48.980469 1.054688 47.023438 L 1.054688 7.382812 C 1.054688 5.425781 1.832031 3.546875 3.21875 2.164062 C 4.601562 0.777344 6.480469 0 8.4375 0 Z M 8.4375 0 " clip-rule="nonzero"/></clipPath><clipPath id="ab6ad15f4e"><path d="M 0.0546875 0 L 132.828125 0 L 132.828125 46.511719 L 0.0546875 46.511719 Z M 0.0546875 0 " clip-rule="nonzero"/></clipPath><clipPath id="c522471f4d"><path d="M 7.4375 0 L 125.402344 0 C 127.359375 0 129.238281 0.777344 130.621094 2.164062 C 132.007812 3.546875 132.785156 5.425781 132.785156 7.382812 L 132.785156 47.023438 C 132.785156 48.980469 132.007812 50.859375 130.621094 52.242188 C 129.238281 53.628906 127.359375 54.40625 125.402344 54.40625 L 7.4375 54.40625 C 5.480469 54.40625 3.601562 53.628906 2.21875 52.242188 C 0.832031 50.859375 0.0546875 48.980469 0.0546875 47.023438 L 0.0546875 7.382812 C 0.0546875 5.425781 0.832031 3.546875 2.21875 2.164062 C 3.601562 0.777344 5.480469 0 7.4375 0 Z M 7.4375 0 " clip-rule="nonzero"/></clipPath><clipPath id="5763b5240b"><rect x="0" width="133" y="0" height="47"/></clipPath></defs><g clip-path="url(#4363f8987c)"><g clip-path="url(#f82f693556)"><g transform="matrix(1, 0, 0, 1, 1, 0.000000000000000899)"><g clip-path="url(#5763b5240b)"><g clip-path="url(#ab6ad15f4e)"><g clip-path="url(#c522471f4d)"><path fill="#ffffff" d="M 0.0546875 0 L 132.882812 0 L 132.882812 54.40625 L 0.0546875 54.40625 Z M 0.0546875 0 " fill-opacity="1" fill-rule="nonzero"/></g></g></g></g></g></g><g fill="#00a0e9" fill-opacity="1"><g transform="translate(23.143262, 19.564453)"><g><path d="M 4.25 -2.8125 L 2.796875 -2.8125 L 2.796875 -1.71875 L 4.25 -1.71875 Z M 5.78125 -0.375 L 2.796875 -0.375 L 2.796875 0.4375 L 1.28125 0.4375 L 1.28125 -4.1875 L 5.78125 -4.1875 Z M 4.234375 -9.46875 L 4.234375 -10.53125 L 2.875 -10.53125 L 2.875 -9.46875 Z M 13.84375 -9.9375 L 13.84375 -7.75 C 13.84375 -7.320312 13.890625 -6.785156 13.984375 -6.140625 C 14.085938 -5.503906 14.265625 -4.832031 14.515625 -4.125 C 14.773438 -3.414062 15.128906 -2.726562 15.578125 -2.0625 C 16.035156 -1.394531 16.617188 -0.804688 17.328125 -0.296875 C 17.140625 -0.078125 16.921875 0.21875 16.671875 0.59375 C 16.421875 0.976562 16.222656 1.296875 16.078125 1.546875 C 15.566406 1.191406 15.117188 0.757812 14.734375 0.25 C 14.347656 -0.257812 14.023438 -0.796875 13.765625 -1.359375 C 13.503906 -1.921875 13.300781 -2.457031 13.15625 -2.96875 C 13.007812 -3.476562 12.90625 -3.910156 12.84375 -4.265625 C 12.78125 -3.890625 12.664062 -3.445312 12.5 -2.9375 C 12.34375 -2.425781 12.117188 -1.894531 11.828125 -1.34375 C 11.546875 -0.789062 11.203125 -0.265625 10.796875 0.234375 C 10.398438 0.742188 9.9375 1.1875 9.40625 1.5625 C 9.320312 1.375 9.191406 1.140625 9.015625 0.859375 C 8.847656 0.585938 8.679688 0.34375 8.515625 0.125 C 8.484375 0.382812 8.414062 0.597656 8.3125 0.765625 C 8.21875 0.941406 8.0625 1.085938 7.84375 1.203125 C 7.5625 1.347656 7.234375 1.429688 6.859375 1.453125 C 6.484375 1.484375 6.035156 1.5 5.515625 1.5 C 5.472656 1.238281 5.398438 0.945312 5.296875 0.625 C 5.191406 0.3125 5.082031 0.046875 4.96875 -0.171875 C 5.269531 -0.160156 5.5625 -0.15625 5.84375 -0.15625 C 6.125 -0.15625 6.304688 -0.160156 6.390625 -0.171875 C 6.503906 -0.179688 6.578125 -0.203125 6.609375 -0.234375 C 6.640625 -0.265625 6.65625 -0.320312 6.65625 -0.40625 L 6.65625 -4.90625 L 0.578125 -4.90625 L 0.578125 -6.625 L 9.765625 -6.625 L 9.765625 -4.90625 L 8.546875 -4.90625 L 8.546875 -0.4375 C 9.210938 -0.957031 9.753906 -1.546875 10.171875 -2.203125 C 10.597656 -2.867188 10.925781 -3.546875 11.15625 -4.234375 C 11.394531 -4.929688 11.554688 -5.582031 11.640625 -6.1875 C 11.734375 -6.800781 11.78125 -7.320312 11.78125 -7.75 L 11.78125 -9.9375 L 11.5 -9.9375 C 11.09375 -8.707031 10.617188 -7.671875 10.078125 -6.828125 C 9.929688 -6.972656 9.6875 -7.148438 9.34375 -7.359375 C 9.007812 -7.578125 8.710938 -7.753906 8.453125 -7.890625 C 8.367188 -7.566406 8.164062 -7.320312 7.84375 -7.15625 C 7.570312 -7.039062 7.25 -6.96875 6.875 -6.9375 C 6.507812 -6.914062 6.066406 -6.90625 5.546875 -6.90625 C 5.515625 -7.113281 5.457031 -7.328125 5.375 -7.546875 C 5.300781 -7.773438 5.21875 -7.988281 5.125 -8.1875 L 2.875 -8.1875 L 2.875 -7.640625 L 1.34375 -7.640625 L 1.34375 -11.78125 L 5.765625 -11.78125 L 5.765625 -8.4375 L 6.421875 -8.4375 C 6.578125 -8.4375 6.65625 -8.515625 6.65625 -8.671875 L 6.65625 -12.453125 L 0.78125 -12.453125 L 0.78125 -14.15625 L 9.609375 -14.15625 L 9.609375 -12.453125 L 8.515625 -12.453125 L 8.515625 -8.609375 C 8.515625 -8.535156 8.515625 -8.46875 8.515625 -8.40625 C 8.515625 -8.34375 8.507812 -8.28125 8.5 -8.21875 C 9.039062 -9.03125 9.472656 -10.03125 9.796875 -11.21875 C 10.117188 -12.414062 10.351562 -13.660156 10.5 -14.953125 L 12.546875 -14.671875 C 12.472656 -14.203125 12.390625 -13.726562 12.296875 -13.25 C 12.210938 -12.769531 12.125 -12.304688 12.03125 -11.859375 L 15.453125 -11.859375 L 15.765625 -11.90625 L 17.15625 -11.625 C 17.050781 -10.8125 16.921875 -9.972656 16.765625 -9.109375 C 16.609375 -8.253906 16.445312 -7.535156 16.28125 -6.953125 L 14.59375 -7.296875 C 14.664062 -7.640625 14.738281 -8.046875 14.8125 -8.515625 C 14.882812 -8.984375 14.953125 -9.457031 15.015625 -9.9375 Z M 13.84375 -9.9375 "/></g></g></g><g fill="#00a0e9" fill-opacity="1"><g transform="translate(40.85052, 19.564453)"><g><path d="M 6.6875 -14.453125 L 6.6875 -12.859375 L 1.46875 -12.859375 L 1.46875 -14.453125 Z M 4.96875 -3.078125 L 3.140625 -3.078125 L 3.140625 -1.046875 L 4.96875 -1.046875 Z M 6.75 -4.75 L 6.75 0.609375 L 3.140625 0.609375 L 3.140625 1.296875 L 1.359375 1.296875 L 1.359375 -4.75 Z M 1.421875 -5.609375 L 1.421875 -7.1875 L 6.734375 -7.1875 L 6.734375 -5.609375 Z M 6.734375 -9.625 L 6.734375 -8.015625 L 1.421875 -8.015625 L 1.421875 -9.625 Z M 0.578125 -10.421875 L 0.578125 -12.078125 L 7.234375 -12.078125 L 7.234375 -10.421875 Z M 11.390625 -6.34375 L 9.78125 -6.34375 L 9.78125 -4.109375 L 11.390625 -4.109375 Z M 13.234375 -2.34375 L 9.78125 -2.34375 L 9.78125 -1.421875 L 7.96875 -1.421875 L 7.96875 -8.109375 L 13.234375 -8.109375 Z M 13.625 -11.09375 L 13.625 -9.265625 L 7.71875 -9.265625 L 7.71875 -11.09375 Z M 16.546875 -14.265625 L 16.546875 -0.96875 C 16.546875 -0.40625 16.476562 0.0390625 16.34375 0.375 C 16.207031 0.707031 15.960938 0.960938 15.609375 1.140625 C 15.253906 1.316406 14.804688 1.425781 14.265625 1.46875 C 13.722656 1.519531 13.050781 1.546875 12.25 1.546875 C 12.207031 1.234375 12.117188 0.859375 11.984375 0.421875 C 11.847656 -0.00390625 11.703125 -0.363281 11.546875 -0.65625 C 12.066406 -0.625 12.570312 -0.601562 13.0625 -0.59375 C 13.550781 -0.582031 13.878906 -0.585938 14.046875 -0.609375 C 14.210938 -0.609375 14.328125 -0.632812 14.390625 -0.6875 C 14.460938 -0.75 14.5 -0.859375 14.5 -1.015625 L 14.5 -12.296875 L 7.671875 -12.296875 L 7.671875 -14.265625 Z M 16.546875 -14.265625 "/></g></g></g><g fill="#00a0e9" fill-opacity="1"><g transform="translate(58.557779, 19.564453)"><g><path d="M 13.921875 -11.15625 L 15.453125 -10.421875 C 15.429688 -10.265625 15.40625 -10.09375 15.375 -9.90625 C 15.34375 -9.71875 15.328125 -9.578125 15.328125 -9.484375 C 15.316406 -9.097656 15.296875 -8.609375 15.265625 -8.015625 C 15.234375 -7.429688 15.191406 -6.800781 15.140625 -6.125 C 15.097656 -5.445312 15.035156 -4.769531 14.953125 -4.09375 C 14.878906 -3.414062 14.785156 -2.789062 14.671875 -2.21875 C 14.566406 -1.644531 14.4375 -1.175781 14.28125 -0.8125 C 14.09375 -0.363281 13.816406 -0.0234375 13.453125 0.203125 C 13.097656 0.429688 12.613281 0.546875 12 0.546875 C 11.488281 0.546875 10.976562 0.53125 10.46875 0.5 C 9.957031 0.46875 9.484375 0.4375 9.046875 0.40625 L 8.78125 -1.96875 C 9.21875 -1.882812 9.65625 -1.820312 10.09375 -1.78125 C 10.53125 -1.738281 10.921875 -1.71875 11.265625 -1.71875 C 11.546875 -1.71875 11.757812 -1.765625 11.90625 -1.859375 C 12.0625 -1.960938 12.1875 -2.125 12.28125 -2.34375 C 12.40625 -2.625 12.515625 -3.03125 12.609375 -3.5625 C 12.703125 -4.09375 12.78125 -4.679688 12.84375 -5.328125 C 12.90625 -5.972656 12.945312 -6.613281 12.96875 -7.25 C 13 -7.882812 13.015625 -8.4375 13.015625 -8.90625 L 9.03125 -8.90625 C 8.820312 -7.351562 8.484375 -5.988281 8.015625 -4.8125 C 7.554688 -3.632812 6.957031 -2.59375 6.21875 -1.6875 C 5.488281 -0.789062 4.59375 0.0351562 3.53125 0.796875 L 1.46875 -0.875 C 1.84375 -1.070312 2.234375 -1.316406 2.640625 -1.609375 C 3.054688 -1.910156 3.441406 -2.242188 3.796875 -2.609375 C 4.617188 -3.421875 5.265625 -4.335938 5.734375 -5.359375 C 6.203125 -6.378906 6.53125 -7.5625 6.71875 -8.90625 L 4.375 -8.90625 C 4.082031 -8.90625 3.710938 -8.898438 3.265625 -8.890625 C 2.828125 -8.890625 2.414062 -8.875 2.03125 -8.84375 L 2.03125 -11.15625 C 2.414062 -11.125 2.816406 -11.09375 3.234375 -11.0625 C 3.660156 -11.039062 4.039062 -11.03125 4.375 -11.03125 L 6.90625 -11.03125 C 6.914062 -11.28125 6.925781 -11.535156 6.9375 -11.796875 C 6.945312 -12.054688 6.953125 -12.316406 6.953125 -12.578125 C 6.953125 -12.773438 6.9375 -13.039062 6.90625 -13.375 C 6.882812 -13.71875 6.859375 -13.992188 6.828125 -14.203125 L 9.421875 -14.203125 C 9.398438 -14.003906 9.378906 -13.742188 9.359375 -13.421875 C 9.347656 -13.109375 9.332031 -12.847656 9.3125 -12.640625 C 9.300781 -12.359375 9.289062 -12.082031 9.28125 -11.8125 C 9.28125 -11.550781 9.269531 -11.289062 9.25 -11.03125 L 12.578125 -11.03125 C 12.804688 -11.03125 13.03125 -11.039062 13.25 -11.0625 C 13.476562 -11.09375 13.703125 -11.125 13.921875 -11.15625 Z M 13.921875 -11.15625 "/></g></g></g><g fill="#00a0e9" fill-opacity="1"><g transform="translate(76.265037, 19.564453)"><g><path d="M 1.625 -5.421875 L 1.625 -8.203125 C 1.84375 -8.191406 2.113281 -8.175781 2.4375 -8.15625 C 2.769531 -8.144531 3.113281 -8.128906 3.46875 -8.109375 C 3.832031 -8.097656 4.171875 -8.09375 4.484375 -8.09375 L 14 -8.09375 C 14.414062 -8.09375 14.804688 -8.109375 15.171875 -8.140625 C 15.546875 -8.171875 15.847656 -8.191406 16.078125 -8.203125 L 16.078125 -5.421875 C 15.859375 -5.429688 15.550781 -5.445312 15.15625 -5.46875 C 14.757812 -5.5 14.375 -5.515625 14 -5.515625 L 4.484375 -5.515625 C 3.972656 -5.515625 3.453125 -5.503906 2.921875 -5.484375 C 2.390625 -5.460938 1.957031 -5.441406 1.625 -5.421875 Z M 1.625 -5.421875 "/></g></g></g><g fill="#00a0e9" fill-opacity="1"><g transform="translate(93.972296, 19.564453)"><g><path d="M 16.078125 -11.53125 L 14.578125 -10.8125 C 14.296875 -11.363281 14.035156 -11.832031 13.796875 -12.21875 C 13.554688 -12.613281 13.269531 -13.03125 12.9375 -13.46875 L 14.40625 -14.15625 C 14.664062 -13.800781 14.957031 -13.375 15.28125 -12.875 C 15.601562 -12.382812 15.867188 -11.9375 16.078125 -11.53125 Z M 13.703125 -10.5 L 12.15625 -9.8125 C 11.894531 -10.375 11.648438 -10.859375 11.421875 -11.265625 C 11.203125 -11.671875 10.925781 -12.097656 10.59375 -12.546875 L 12.078125 -13.1875 C 12.328125 -12.820312 12.609375 -12.382812 12.921875 -11.875 C 13.234375 -11.363281 13.492188 -10.90625 13.703125 -10.5 Z M 7.4375 -11.625 L 7.4375 -9.03125 C 8.03125 -8.851562 8.671875 -8.644531 9.359375 -8.40625 C 10.046875 -8.175781 10.726562 -7.929688 11.40625 -7.671875 C 12.09375 -7.421875 12.738281 -7.175781 13.34375 -6.9375 C 13.945312 -6.695312 14.445312 -6.472656 14.84375 -6.265625 L 13.859375 -3.8125 C 13.242188 -4.144531 12.5625 -4.46875 11.8125 -4.78125 C 11.0625 -5.101562 10.304688 -5.40625 9.546875 -5.6875 C 8.785156 -5.976562 8.082031 -6.234375 7.4375 -6.453125 L 7.4375 -1.4375 C 7.4375 -1.269531 7.445312 -1.035156 7.46875 -0.734375 C 7.488281 -0.441406 7.507812 -0.140625 7.53125 0.171875 C 7.5625 0.492188 7.59375 0.78125 7.625 1.03125 L 4.84375 1.03125 C 4.894531 0.6875 4.9375 0.273438 4.96875 -0.203125 C 5 -0.679688 5.015625 -1.09375 5.015625 -1.4375 L 5.015625 -11.625 C 5.015625 -11.945312 5 -12.304688 4.96875 -12.703125 C 4.9375 -13.097656 4.894531 -13.453125 4.84375 -13.765625 L 7.59375 -13.765625 C 7.5625 -13.460938 7.523438 -13.125 7.484375 -12.75 C 7.453125 -12.375 7.4375 -12 7.4375 -11.625 Z M 7.4375 -11.625 "/></g></g></g><g fill="#00a0e9" fill-opacity="1"><g transform="translate(23.408582, 38.759765)"><g><path d="M 10.421875 -9.046875 L 8.375 -9.046875 L 8.375 -8.09375 L 10.421875 -8.09375 Z M 14.390625 -8.09375 L 14.390625 -9.046875 L 12.296875 -9.046875 L 12.296875 -8.09375 Z M 12.296875 -5.640625 L 14.390625 -5.640625 L 14.390625 -6.625 L 12.296875 -6.625 Z M 8.375 -5.640625 L 10.421875 -5.640625 L 10.421875 -6.625 L 8.375 -6.625 Z M 8.375 -4.109375 L 8.375 -1.453125 L 6.390625 -1.453125 L 6.390625 -10.578125 L 10.359375 -10.578125 C 9.960938 -10.765625 9.5625 -10.941406 9.15625 -11.109375 C 8.75 -11.285156 8.359375 -11.445312 7.984375 -11.59375 L 9.359375 -12.71875 C 9.660156 -12.601562 9.988281 -12.476562 10.34375 -12.34375 C 10.707031 -12.207031 11.078125 -12.054688 11.453125 -11.890625 C 11.691406 -12.035156 11.929688 -12.1875 12.171875 -12.34375 C 12.410156 -12.507812 12.640625 -12.671875 12.859375 -12.828125 L 6.5625 -12.828125 L 6.5625 -14.421875 L 14.6875 -14.421875 L 15.09375 -14.53125 L 16.359375 -13.515625 C 15.921875 -13.109375 15.425781 -12.695312 14.875 -12.28125 C 14.332031 -11.863281 13.773438 -11.476562 13.203125 -11.125 C 13.398438 -11.03125 13.585938 -10.9375 13.765625 -10.84375 C 13.941406 -10.757812 14.109375 -10.671875 14.265625 -10.578125 L 16.40625 -10.578125 L 16.40625 -3.28125 C 16.40625 -2.851562 16.351562 -2.515625 16.25 -2.265625 C 16.15625 -2.023438 15.96875 -1.835938 15.6875 -1.703125 C 15.394531 -1.546875 15.054688 -1.457031 14.671875 -1.4375 C 14.285156 -1.414062 13.828125 -1.40625 13.296875 -1.40625 C 13.253906 -1.664062 13.1875 -1.945312 13.09375 -2.25 C 13 -2.5625 12.894531 -2.828125 12.78125 -3.046875 C 13.050781 -3.035156 13.320312 -3.03125 13.59375 -3.03125 C 13.863281 -3.03125 14.039062 -3.03125 14.125 -3.03125 C 14.300781 -3.039062 14.390625 -3.128906 14.390625 -3.296875 L 14.390625 -4.109375 L 12.296875 -4.109375 L 12.296875 -1.53125 L 10.421875 -1.53125 L 10.421875 -4.109375 Z M 5.421875 -11.90625 L 3.84375 -10.40625 C 3.664062 -10.6875 3.410156 -11 3.078125 -11.34375 C 2.753906 -11.6875 2.398438 -12.023438 2.015625 -12.359375 C 1.628906 -12.703125 1.253906 -13.015625 0.890625 -13.296875 L 2.34375 -14.640625 C 2.707031 -14.390625 3.082031 -14.101562 3.46875 -13.78125 C 3.863281 -13.46875 4.234375 -13.144531 4.578125 -12.8125 C 4.929688 -12.488281 5.210938 -12.1875 5.421875 -11.90625 Z M 4.890625 -8.140625 L 4.890625 -2.484375 C 5.234375 -1.890625 5.710938 -1.457031 6.328125 -1.1875 C 6.953125 -0.914062 7.710938 -0.757812 8.609375 -0.71875 C 9.140625 -0.695312 9.773438 -0.679688 10.515625 -0.671875 C 11.253906 -0.671875 12.035156 -0.675781 12.859375 -0.6875 C 13.679688 -0.707031 14.484375 -0.734375 15.265625 -0.765625 C 16.046875 -0.796875 16.738281 -0.835938 17.34375 -0.890625 C 17.226562 -0.640625 17.101562 -0.3125 16.96875 0.09375 C 16.832031 0.507812 16.738281 0.867188 16.6875 1.171875 C 16.144531 1.191406 15.519531 1.210938 14.8125 1.234375 C 14.113281 1.253906 13.382812 1.265625 12.625 1.265625 C 11.875 1.273438 11.148438 1.273438 10.453125 1.265625 C 9.753906 1.265625 9.132812 1.25 8.59375 1.21875 C 7.53125 1.175781 6.628906 1.007812 5.890625 0.71875 C 5.160156 0.425781 4.53125 -0.0625 4 -0.75 C 3.601562 -0.40625 3.1875 -0.0625 2.75 0.28125 C 2.320312 0.632812 1.859375 1 1.359375 1.375 L 0.390625 -0.71875 C 0.765625 -0.9375 1.171875 -1.1875 1.609375 -1.46875 C 2.046875 -1.75 2.46875 -2.039062 2.875 -2.34375 L 2.875 -6.203125 L 0.625 -6.203125 L 0.625 -8.140625 Z M 4.890625 -8.140625 "/></g></g></g><g fill="#00a0e9" fill-opacity="1"><g transform="translate(41.11584, 38.759765)"><g><path d="M 3.78125 -14.03125 L 6.609375 -14 C 6.546875 -13.632812 6.492188 -13.238281 6.453125 -12.8125 C 6.410156 -12.394531 6.382812 -12.007812 6.375 -11.65625 C 6.351562 -11.1875 6.328125 -10.609375 6.296875 -9.921875 C 6.273438 -9.242188 6.253906 -8.523438 6.234375 -7.765625 C 6.210938 -7.015625 6.195312 -6.28125 6.1875 -5.5625 C 6.175781 -4.84375 6.171875 -4.210938 6.171875 -3.671875 C 6.171875 -3.078125 6.273438 -2.609375 6.484375 -2.265625 C 6.691406 -1.921875 6.976562 -1.675781 7.34375 -1.53125 C 7.71875 -1.394531 8.128906 -1.328125 8.578125 -1.328125 C 9.546875 -1.328125 10.398438 -1.492188 11.140625 -1.828125 C 11.890625 -2.160156 12.546875 -2.597656 13.109375 -3.140625 C 13.679688 -3.679688 14.171875 -4.269531 14.578125 -4.90625 L 16.171875 -2.9375 C 15.890625 -2.53125 15.519531 -2.09375 15.0625 -1.625 C 14.613281 -1.15625 14.070312 -0.71875 13.4375 -0.3125 C 12.800781 0.09375 12.078125 0.421875 11.265625 0.671875 C 10.460938 0.929688 9.5625 1.0625 8.5625 1.0625 C 7.601562 1.0625 6.769531 0.910156 6.0625 0.609375 C 5.351562 0.316406 4.800781 -0.140625 4.40625 -0.765625 C 4.019531 -1.390625 3.828125 -2.195312 3.828125 -3.1875 C 3.828125 -3.65625 3.832031 -4.195312 3.84375 -4.8125 C 3.851562 -5.425781 3.867188 -6.070312 3.890625 -6.75 C 3.910156 -7.425781 3.925781 -8.078125 3.9375 -8.703125 C 3.957031 -9.335938 3.972656 -9.914062 3.984375 -10.4375 C 3.992188 -10.957031 4 -11.363281 4 -11.65625 C 4 -12.070312 3.976562 -12.484375 3.9375 -12.890625 C 3.90625 -13.304688 3.851562 -13.6875 3.78125 -14.03125 Z M 3.78125 -14.03125 "/></g></g></g><g fill="#00a0e9" fill-opacity="1"><g transform="translate(58.29176, 38.759765)"><g><path d="M 13.109375 -9.21875 C 13.328125 -8.894531 13.578125 -8.5 13.859375 -8.03125 C 14.140625 -7.5625 14.363281 -7.148438 14.53125 -6.796875 L 13.1875 -6.203125 C 12.957031 -6.679688 12.738281 -7.109375 12.53125 -7.484375 C 12.320312 -7.867188 12.078125 -8.265625 11.796875 -8.671875 Z M 15.09375 -10.03125 C 15.320312 -9.71875 15.578125 -9.332031 15.859375 -8.875 C 16.148438 -8.414062 16.390625 -8.015625 16.578125 -7.671875 L 15.25 -7.03125 C 15.019531 -7.519531 14.789062 -7.941406 14.5625 -8.296875 C 14.34375 -8.660156 14.085938 -9.035156 13.796875 -9.421875 Z M 1.296875 -12.125 C 1.648438 -12.132812 1.984375 -12.144531 2.296875 -12.15625 C 2.609375 -12.175781 2.847656 -12.191406 3.015625 -12.203125 C 3.503906 -12.253906 4.132812 -12.3125 4.90625 -12.375 C 5.6875 -12.4375 6.5625 -12.507812 7.53125 -12.59375 C 8.5 -12.6875 9.519531 -12.78125 10.59375 -12.875 C 11.5 -12.945312 12.398438 -13.007812 13.296875 -13.0625 C 14.191406 -13.113281 14.945312 -13.15625 15.5625 -13.1875 L 15.578125 -10.921875 C 15.265625 -10.921875 14.90625 -10.914062 14.5 -10.90625 C 14.09375 -10.894531 13.6875 -10.875 13.28125 -10.84375 C 12.875 -10.8125 12.507812 -10.757812 12.1875 -10.6875 C 11.476562 -10.5 10.847656 -10.144531 10.296875 -9.625 C 9.742188 -9.113281 9.300781 -8.519531 8.96875 -7.84375 C 8.644531 -7.164062 8.484375 -6.476562 8.484375 -5.78125 C 8.484375 -5.0625 8.632812 -4.445312 8.9375 -3.9375 C 9.25 -3.4375 9.671875 -3.023438 10.203125 -2.703125 C 10.734375 -2.390625 11.335938 -2.148438 12.015625 -1.984375 C 12.703125 -1.828125 13.414062 -1.734375 14.15625 -1.703125 L 13.34375 0.71875 C 12.414062 0.664062 11.523438 0.5 10.671875 0.21875 C 9.816406 -0.0507812 9.050781 -0.4375 8.375 -0.9375 C 7.707031 -1.445312 7.175781 -2.0625 6.78125 -2.78125 C 6.382812 -3.5 6.1875 -4.335938 6.1875 -5.296875 C 6.1875 -6.148438 6.316406 -6.925781 6.578125 -7.625 C 6.847656 -8.332031 7.179688 -8.945312 7.578125 -9.46875 C 7.984375 -10 8.378906 -10.410156 8.765625 -10.703125 C 8.390625 -10.671875 7.894531 -10.617188 7.28125 -10.546875 C 6.675781 -10.472656 6.023438 -10.394531 5.328125 -10.3125 C 4.628906 -10.226562 3.945312 -10.132812 3.28125 -10.03125 C 2.613281 -9.925781 2.03125 -9.816406 1.53125 -9.703125 Z M 1.296875 -12.125 "/></g></g></g><g fill="#00a0e9" fill-opacity="1"><g transform="translate(75.999019, 38.759765)"><g><path d="M 9.859375 -4.453125 L 13.015625 -4.453125 L 13.015625 -5.875 L 9.859375 -5.875 Z M 4.671875 -5.875 L 4.671875 -4.453125 L 7.75 -4.453125 L 7.75 -5.875 Z M 7.75 -9.046875 L 4.671875 -9.046875 L 4.671875 -7.671875 L 7.75 -7.671875 Z M 13.015625 -9.046875 L 9.859375 -9.046875 L 9.859375 -7.671875 L 13.015625 -7.671875 Z M 17.15625 -4.453125 L 17.15625 -2.5 L 15.125 -2.5 L 15.125 -0.75 C 15.125 -0.21875 15.054688 0.195312 14.921875 0.5 C 14.785156 0.800781 14.53125 1.035156 14.15625 1.203125 C 13.800781 1.367188 13.351562 1.46875 12.8125 1.5 C 12.28125 1.539062 11.640625 1.5625 10.890625 1.5625 C 10.847656 1.28125 10.753906 0.941406 10.609375 0.546875 C 10.472656 0.160156 10.328125 -0.160156 10.171875 -0.421875 C 10.503906 -0.410156 10.832031 -0.398438 11.15625 -0.390625 C 11.488281 -0.390625 11.785156 -0.390625 12.046875 -0.390625 C 12.304688 -0.390625 12.488281 -0.390625 12.59375 -0.390625 C 12.757812 -0.390625 12.867188 -0.414062 12.921875 -0.46875 C 12.984375 -0.519531 13.015625 -0.625 13.015625 -0.78125 L 13.015625 -2.5 L 4.671875 -2.5 L 4.671875 1.5625 L 2.59375 1.5625 L 2.59375 -2.5 L 0.5625 -2.5 L 0.5625 -4.453125 L 2.59375 -4.453125 L 2.59375 -10.953125 L 7.75 -10.953125 L 7.75 -12.125 L 1.296875 -12.125 L 1.296875 -14.046875 L 16.4375 -14.046875 L 16.4375 -12.125 L 9.859375 -12.125 L 9.859375 -10.953125 L 15.125 -10.953125 L 15.125 -4.453125 Z M 17.15625 -4.453125 "/></g></g></g><g fill="#00a0e9" fill-opacity="1"><g transform="translate(93.706277, 38.759765)"><g><path d="M 10 -1.03125 L 16.875 -1.03125 L 16.875 1.046875 L 0.9375 1.046875 L 0.9375 -1.03125 L 7.78125 -1.03125 L 7.78125 -4.59375 L 2.984375 -4.59375 L 2.984375 -6.625 L 7.78125 -6.625 L 7.78125 -9.75 L 4.109375 -9.75 C 3.847656 -9.257812 3.582031 -8.789062 3.3125 -8.34375 C 3.039062 -7.90625 2.757812 -7.515625 2.46875 -7.171875 C 2.320312 -7.296875 2.132812 -7.4375 1.90625 -7.59375 C 1.675781 -7.75 1.4375 -7.90625 1.1875 -8.0625 C 0.945312 -8.21875 0.738281 -8.34375 0.5625 -8.4375 C 1.03125 -8.925781 1.460938 -9.507812 1.859375 -10.1875 C 2.265625 -10.875 2.625 -11.609375 2.9375 -12.390625 C 3.25 -13.179688 3.503906 -13.976562 3.703125 -14.78125 L 5.875 -14.296875 C 5.757812 -13.867188 5.628906 -13.445312 5.484375 -13.03125 C 5.347656 -12.625 5.203125 -12.210938 5.046875 -11.796875 L 7.78125 -11.796875 L 7.78125 -14.984375 L 10 -14.984375 L 10 -11.796875 L 15.96875 -11.796875 L 15.96875 -9.75 L 10 -9.75 L 10 -6.625 L 15.296875 -6.625 L 15.296875 -4.59375 L 10 -4.59375 Z M 10 -1.03125 "/></g></g></g></svg>