<svg xmlns="http://www.w3.org/2000/svg" xmlns:xlink="http://www.w3.org/1999/xlink" width="500" zoomAndPan="magnify" viewBox="0 0 375 374.999991" height="500" preserveAspectRatio="xMidYMid meet" version="1.0"><defs><clipPath id="9430e5e040"><path d="M 0 37.5 L 0 337.5 C 0 358.210938 16.789062 375 37.5 375 L 337.5 375 C 358.210938 375 375 358.210938 375 337.5 L 375 37.5 C 375 16.789062 358.210938 0 337.5 0 L 37.5 0 C 16.789062 0 0 16.789062 0 37.5 Z M 0 37.5 " clip-rule="nonzero"/></clipPath><clipPath id="349736b4a0"><path d="M 92 98 L 318 98 L 318 296 L 92 296 Z M 92 98 " clip-rule="nonzero"/></clipPath><clipPath id="2fefdee162"><path d="M 0 37.5 L 0 337.5 C 0 358.210938 16.789062 375 37.5 375 L 337.5 375 C 358.210938 375 375 358.210938 375 337.5 L 375 37.5 C 375 16.789062 358.210938 0 337.5 0 L 37.5 0 C 16.789062 0 0 16.789062 0 37.5 Z M 0 37.5 " clip-rule="nonzero"/></clipPath><clipPath id="436b31f114"><path d="M 41 49 L 151 49 L 151 176 L 41 176 Z M 41 49 " clip-rule="nonzero"/></clipPath><clipPath id="52e39445db"><path d="M 0 37.5 L 0 337.5 C 0 358.210938 16.789062 375 37.5 375 L 337.5 375 C 358.210938 375 375 358.210938 375 337.5 L 375 37.5 C 375 16.789062 358.210938 0 337.5 0 L 37.5 0 C 16.789062 0 0 16.789062 0 37.5 Z M 0 37.5 " clip-rule="nonzero"/></clipPath><clipPath id="d7f6e05683"><path d="M 41.996094 41.996094 L 332.996094 41.996094 L 332.996094 332.996094 L 41.996094 332.996094 Z M 41.996094 41.996094 " clip-rule="nonzero"/></clipPath><clipPath id="d214c2eafa"><path d="M 41.996094 79.496094 L 41.996094 295.503906 C 41.996094 316.214844 58.785156 333.003906 79.496094 333.003906 L 295.503906 333.003906 C 316.214844 333.003906 333.003906 316.214844 333.003906 295.503906 L 333.003906 79.496094 C 333.003906 69.550781 329.050781 60.011719 322.019531 52.980469 C 314.988281 45.949219 305.449219 41.996094 295.503906 41.996094 L 79.496094 41.996094 C 58.785156 41.996094 41.996094 58.785156 41.996094 79.496094 Z M 41.996094 79.496094 " clip-rule="nonzero"/></clipPath><clipPath id="58cea2f20d"><path d="M 114 118 L 289 118 L 289 272 L 114 272 Z M 114 118 " clip-rule="nonzero"/></clipPath><clipPath id="3f686403db"><path d="M 41.996094 79.496094 L 41.996094 295.503906 C 41.996094 316.214844 58.785156 333.003906 79.496094 333.003906 L 295.503906 333.003906 C 316.214844 333.003906 333.003906 316.214844 333.003906 295.503906 L 333.003906 79.496094 C 333.003906 69.550781 329.050781 60.011719 322.019531 52.980469 C 314.988281 45.949219 305.449219 41.996094 295.503906 41.996094 L 79.496094 41.996094 C 58.785156 41.996094 41.996094 58.785156 41.996094 79.496094 Z M 41.996094 79.496094 " clip-rule="nonzero"/></clipPath><clipPath id="b02a62b1ac"><path d="M 74 80 L 159 80 L 159 179 L 74 179 Z M 74 80 " clip-rule="nonzero"/></clipPath><clipPath id="08e35a7adc"><path d="M 41.996094 79.496094 L 41.996094 295.503906 C 41.996094 316.214844 58.785156 333.003906 79.496094 333.003906 L 295.503906 333.003906 C 316.214844 333.003906 333.003906 316.214844 333.003906 295.503906 L 333.003906 79.496094 C 333.003906 69.550781 329.050781 60.011719 322.019531 52.980469 C 314.988281 45.949219 305.449219 41.996094 295.503906 41.996094 L 79.496094 41.996094 C 58.785156 41.996094 41.996094 58.785156 41.996094 79.496094 Z M 41.996094 79.496094 " clip-rule="nonzero"/></clipPath></defs><g clip-path="url(#9430e5e040)"><path fill="#ffffff" d="M 13.140625 0 L 856.890625 0 C 858.425781 0 859.957031 0.0742188 861.484375 0.226562 C 863.011719 0.375 864.527344 0.601562 866.035156 0.902344 C 867.539062 1.199219 869.027344 1.574219 870.496094 2.019531 C 871.964844 2.464844 873.410156 2.980469 874.828125 3.566406 C 876.246094 4.15625 877.632812 4.8125 878.984375 5.535156 C 880.339844 6.257812 881.65625 7.046875 882.929688 7.898438 C 884.207031 8.753906 885.4375 9.667969 886.625 10.640625 C 887.8125 11.613281 888.949219 12.644531 890.035156 13.730469 C 891.121094 14.816406 892.148438 15.949219 893.125 17.136719 C 894.097656 18.324219 895.011719 19.554688 895.863281 20.832031 C 896.714844 22.109375 897.503906 23.425781 898.230469 24.777344 C 898.953125 26.132812 899.609375 27.519531 900.195312 28.9375 C 900.78125 30.355469 901.300781 31.796875 901.746094 33.269531 C 902.191406 34.738281 902.5625 36.222656 902.863281 37.730469 C 903.164062 39.234375 903.386719 40.753906 903.539062 42.28125 C 903.6875 43.808594 903.765625 45.339844 903.765625 46.875 L 903.765625 328.125 C 903.765625 329.660156 903.6875 331.191406 903.539062 332.71875 C 903.386719 334.246094 903.164062 335.765625 902.863281 337.269531 C 902.5625 338.777344 902.191406 340.261719 901.746094 341.730469 C 901.300781 343.203125 900.78125 344.644531 900.195312 346.0625 C 899.609375 347.480469 898.953125 348.867188 898.230469 350.222656 C 897.503906 351.574219 896.714844 352.890625 895.863281 354.167969 C 895.011719 355.445312 894.097656 356.675781 893.125 357.863281 C 892.148438 359.050781 891.121094 360.183594 890.035156 361.269531 C 888.949219 362.355469 887.8125 363.386719 886.625 364.359375 C 885.4375 365.332031 884.207031 366.246094 882.929688 367.101562 C 881.65625 367.953125 880.339844 368.742188 878.984375 369.464844 C 877.632812 370.1875 876.246094 370.84375 874.828125 371.433594 C 873.410156 372.019531 871.964844 372.535156 870.496094 372.980469 C 869.027344 373.425781 867.539062 373.800781 866.035156 374.097656 C 864.527344 374.398438 863.011719 374.625 861.484375 374.773438 C 859.957031 374.925781 858.425781 375 856.890625 375 L 13.140625 375 C 11.605469 375 10.070312 374.925781 8.542969 374.773438 C 7.015625 374.625 5.5 374.398438 3.992188 374.097656 C 2.488281 373.800781 1 373.425781 -0.46875 372.980469 C -1.9375 372.535156 -3.382812 372.019531 -4.800781 371.433594 C -6.21875 370.84375 -7.605469 370.1875 -8.957031 369.464844 C -10.3125 368.742188 -11.628906 367.953125 -12.902344 367.101562 C -14.179688 366.246094 -15.410156 365.332031 -16.597656 364.359375 C -17.785156 363.386719 -18.921875 362.355469 -20.007812 361.269531 C -21.09375 360.183594 -22.121094 359.050781 -23.097656 357.863281 C -24.070312 356.675781 -24.984375 355.445312 -25.835938 354.167969 C -26.6875 352.890625 -27.476562 351.574219 -28.199219 350.222656 C -28.925781 348.867188 -29.582031 347.480469 -30.167969 346.0625 C -30.753906 344.644531 -31.273438 343.203125 -31.71875 341.730469 C -32.164062 340.261719 -32.535156 338.777344 -32.835938 337.269531 C -33.136719 335.765625 -33.359375 334.246094 -33.511719 332.71875 C -33.660156 331.191406 -33.734375 329.660156 -33.734375 328.125 L -33.734375 46.875 C -33.734375 45.339844 -33.660156 43.808594 -33.511719 42.28125 C -33.359375 40.753906 -33.136719 39.234375 -32.835938 37.730469 C -32.535156 36.222656 -32.164062 34.738281 -31.71875 33.269531 C -31.273438 31.796875 -30.753906 30.355469 -30.167969 28.9375 C -29.582031 27.519531 -28.925781 26.132812 -28.199219 24.777344 C -27.476562 23.425781 -26.6875 22.109375 -25.835938 20.832031 C -24.984375 19.554688 -24.070312 18.324219 -23.097656 17.136719 C -22.121094 15.949219 -21.09375 14.816406 -20.007812 13.730469 C -18.921875 12.644531 -17.785156 11.613281 -16.597656 10.640625 C -15.410156 9.667969 -14.179688 8.753906 -12.902344 7.898438 C -11.628906 7.046875 -10.3125 6.257812 -8.957031 5.535156 C -7.605469 4.8125 -6.21875 4.15625 -4.800781 3.566406 C -3.382812 2.980469 -1.9375 2.464844 -0.46875 2.019531 C 1 1.574219 2.488281 1.199219 3.992188 0.902344 C 5.5 0.601562 7.015625 0.375 8.542969 0.226562 C 10.070312 0.0742188 11.605469 0 13.140625 0 Z M 13.140625 0 " fill-opacity="1" fill-rule="nonzero"/></g><g clip-path="url(#349736b4a0)"><g clip-path="url(#2fefdee162)"><path stroke-linecap="round" transform="matrix(9.374999, 0, 0, 9.374999, -33.736099, 0)" fill="none" stroke-linejoin="round" d="M 17.690185 12.000001 L 25.500186 12.000001 C 31.300186 12.000001 36.000186 16.030001 36.000186 21.000001 C 36.000186 25.970002 31.300186 30.000002 25.500186 30.000002 L 15.000185 30.000002 " stroke="#00a0e9" stroke-width="3" stroke-opacity="1" stroke-miterlimit="4"/></g></g><g clip-path="url(#436b31f114)"><g clip-path="url(#52e39445db)"><path fill="#00a0e9" d="M 150.578125 175.59375 L 41.265625 112.5 L 150.578125 49.40625 Z M 150.578125 175.59375 " fill-opacity="1" fill-rule="nonzero"/></g></g><g clip-path="url(#d7f6e05683)"><g clip-path="url(#d214c2eafa)"><path fill="#ffffff" d="M 52.195312 41.996094 L 706.9375 41.996094 C 708.128906 41.996094 709.316406 42.054688 710.5 42.171875 C 711.6875 42.289062 712.863281 42.464844 714.03125 42.695312 C 715.199219 42.929688 716.355469 43.21875 717.496094 43.5625 C 718.636719 43.910156 719.753906 44.308594 720.855469 44.765625 C 721.957031 45.222656 723.03125 45.730469 724.082031 46.292969 C 725.132812 46.851562 726.152344 47.464844 727.144531 48.125 C 728.136719 48.789062 729.089844 49.496094 730.011719 50.253906 C 730.933594 51.007812 731.8125 51.808594 732.65625 52.652344 C 733.5 53.492188 734.296875 54.375 735.054688 55.296875 C 735.808594 56.214844 736.519531 57.171875 737.179688 58.164062 C 737.84375 59.152344 738.453125 60.175781 739.015625 61.222656 C 739.578125 62.273438 740.085938 63.351562 740.542969 64.453125 C 740.996094 65.550781 741.398438 66.671875 741.746094 67.8125 C 742.089844 68.953125 742.378906 70.105469 742.613281 71.273438 C 742.84375 72.445312 743.019531 73.621094 743.136719 74.804688 C 743.253906 75.992188 743.308594 77.179688 743.308594 78.371094 L 743.308594 296.621094 C 743.308594 297.8125 743.253906 299 743.136719 300.1875 C 743.019531 301.371094 742.84375 302.550781 742.613281 303.71875 C 742.378906 304.886719 742.089844 306.039062 741.742188 307.179688 C 741.398438 308.320312 740.996094 309.441406 740.542969 310.542969 C 740.085938 311.640625 739.578125 312.71875 739.015625 313.769531 C 738.453125 314.820312 737.84375 315.839844 737.179688 316.832031 C 736.519531 317.820312 735.808594 318.777344 735.054688 319.699219 C 734.296875 320.617188 733.5 321.5 732.65625 322.34375 C 731.8125 323.183594 730.933594 323.984375 730.011719 324.738281 C 729.089844 325.496094 728.136719 326.203125 727.144531 326.867188 C 726.152344 327.527344 725.132812 328.140625 724.082031 328.703125 C 723.03125 329.261719 721.957031 329.773438 720.855469 330.226562 C 719.753906 330.683594 718.636719 331.085938 717.496094 331.429688 C 716.355469 331.777344 715.199219 332.066406 714.03125 332.296875 C 712.863281 332.53125 711.6875 332.703125 710.5 332.820312 C 709.316406 332.9375 708.128906 332.996094 706.9375 332.996094 L 52.195312 332.996094 C 51.003906 332.996094 49.816406 332.9375 48.632812 332.820312 C 47.445312 332.703125 46.269531 332.53125 45.101562 332.296875 C 43.933594 332.066406 42.777344 331.777344 41.636719 331.429688 C 40.496094 331.085938 39.378906 330.683594 38.277344 330.226562 C 37.175781 329.773438 36.101562 329.261719 35.050781 328.703125 C 34 328.140625 32.980469 327.527344 31.988281 326.867188 C 30.996094 326.203125 30.042969 325.496094 29.121094 324.738281 C 28.199219 323.984375 27.320312 323.183594 26.476562 322.34375 C 25.632812 321.5 24.835938 320.617188 24.078125 319.699219 C 23.324219 318.777344 22.613281 317.820312 21.953125 316.832031 C 21.289062 315.839844 20.679688 314.820312 20.117188 313.769531 C 19.554688 312.71875 19.046875 311.640625 18.589844 310.542969 C 18.136719 309.441406 17.734375 308.320312 17.386719 307.179688 C 17.042969 306.039062 16.753906 304.886719 16.519531 303.71875 C 16.289062 302.550781 16.113281 301.371094 15.996094 300.1875 C 15.878906 299 15.820312 297.8125 15.820312 296.621094 L 15.820312 78.371094 C 15.820312 77.179688 15.878906 75.992188 15.996094 74.804688 C 16.113281 73.621094 16.289062 72.445312 16.519531 71.273438 C 16.753906 70.105469 17.042969 68.953125 17.386719 67.8125 C 17.734375 66.671875 18.136719 65.550781 18.589844 64.453125 C 19.046875 63.351562 19.554688 62.273438 20.117188 61.222656 C 20.679688 60.175781 21.289062 59.152344 21.953125 58.164062 C 22.613281 57.171875 23.324219 56.214844 24.078125 55.296875 C 24.835938 54.375 25.632812 53.492188 26.476562 52.652344 C 27.320312 51.808594 28.199219 51.007812 29.121094 50.253906 C 30.042969 49.496094 30.996094 48.789062 31.988281 48.125 C 32.980469 47.464844 34 46.851562 35.050781 46.292969 C 36.101562 45.730469 37.175781 45.222656 38.277344 44.765625 C 39.378906 44.308594 40.496094 43.910156 41.636719 43.5625 C 42.777344 43.21875 43.933594 42.929688 45.101562 42.695312 C 46.269531 42.464844 47.445312 42.289062 48.632812 42.171875 C 49.816406 42.054688 51.003906 41.996094 52.195312 41.996094 Z M 52.195312 41.996094 " fill-opacity="1" fill-rule="nonzero"/></g></g><g clip-path="url(#58cea2f20d)"><g clip-path="url(#3f686403db)"><path stroke-linecap="round" transform="matrix(7.274883, 0, 0, 7.275, 15.822246, 41.996618)" fill="none" stroke-linejoin="round" d="M 17.690096 12.000036 L 25.500037 12.000036 C 31.300174 12.000036 36.000099 16.029783 36.000099 21.000251 C 36.000099 25.970183 31.300174 29.99993 25.500037 29.99993 L 14.999976 29.99993 " stroke="#00a0e9" stroke-width="3" stroke-opacity="1" stroke-miterlimit="4"/></g></g><g clip-path="url(#b02a62b1ac)"><g clip-path="url(#08e35a7adc)"><path fill="#00a0e9" d="M 158.847656 178.257812 L 74.019531 129.296875 L 158.847656 80.335938 Z M 158.847656 178.257812 " fill-opacity="1" fill-rule="nonzero"/></g></g></svg>