<svg xmlns="http://www.w3.org/2000/svg" viewBox="0 0 60 60"><defs><style>.cls-1{fill:#f2f2f2;}.cls-2{fill:#969696;}</style></defs><title>control-back-btn</title><g id="レイヤー_2" data-name="レイヤー 2"><g id="レイヤー_3" data-name="レイヤー 3"><rect class="cls-1" width="60" height="60" rx="10"/><path class="cls-2" d="M50,1a9,9,0,0,1,9,9V50a9,9,0,0,1-9,9H10a9,9,0,0,1-9-9V10a9,9,0,0,1,9-9H50m0-1H10A10,10,0,0,0,0,10V50A10,10,0,0,0,10,60H50A10,10,0,0,0,60,50V10A10,10,0,0,0,50,0Z"/><path d="M32.27,17.83H24.61V14.21L14.18,20.84l10.43,6.59V23.55h7.66a8.34,8.34,0,0,1,0,16.68H22.15V46H32.27a14.06,14.06,0,0,0,0-28.12Z"/></g></g></svg>