<svg xmlns="http://www.w3.org/2000/svg" viewBox="0 0 68 68"><defs><style>.cls-1{fill:#f2f2f2;}.cls-2{fill:#969696;}</style></defs><g id="レイヤー_2" data-name="レイヤー 2"><g id="レイヤー_1-2" data-name="レイヤー 1"><rect class="cls-1" x="1" y="1" width="66" height="66" rx="9"/><path class="cls-2" d="M58,2a8,8,0,0,1,8,8V58a8,8,0,0,1-8,8H10a8,8,0,0,1-8-8V10a8,8,0,0,1,8-8H58m0-2H10A10,10,0,0,0,0,10V58A10,10,0,0,0,10,68H58A10,10,0,0,0,68,58V10A10,10,0,0,0,58,0Z"/><rect x="22.95" y="13.6" width="34" height="8.16"/><circle cx="14.79" cy="17.68" r="4.08"/><rect x="22.95" y="29.92" width="34" height="8.16"/><circle cx="14.79" cy="34" r="4.08"/><rect x="22.95" y="46.24" width="34" height="8.16"/><circle cx="14.79" cy="50.32" r="4.08"/></g></g></svg>