<svg xmlns="http://www.w3.org/2000/svg" xmlns:xlink="http://www.w3.org/1999/xlink" width="500" zoomAndPan="magnify" viewBox="0 0 375 374.999991" height="500" preserveAspectRatio="xMidYMid meet" version="1.0"><defs><g/><clipPath id="56e57027a7"><path d="M 37.5 37.5 L 337.5 37.5 L 337.5 337.5 L 37.5 337.5 Z M 37.5 37.5 " clip-rule="nonzero"/></clipPath><clipPath id="2fced4f1ef"><path d="M 0.5 0.5 L 300.5 0.5 L 300.5 300.5 L 0.5 300.5 Z M 0.5 0.5 " clip-rule="nonzero"/></clipPath><clipPath id="a4d4ec4cca"><rect x="0" width="301" y="0" height="301"/></clipPath><clipPath id="b084959fd3"><path d="M 201 116.726562 L 315.441406 116.726562 L 315.441406 258.476562 L 201 258.476562 Z M 201 116.726562 " clip-rule="nonzero"/></clipPath><clipPath id="6538211976"><path d="M 59.691406 116.726562 L 202 116.726562 L 202 258.476562 L 59.691406 258.476562 Z M 59.691406 116.726562 " clip-rule="nonzero"/></clipPath></defs><rect x="-37.5" width="450" fill="#ffffff" y="-37.499999" height="449.999989" fill-opacity="1"/><rect x="-37.5" width="450" fill="#ffffff" y="-37.499999" height="449.999989" fill-opacity="1"/><path fill="#f2f2f2" d="M 55.148438 5.515625 L 319.851562 5.515625 C 321.476562 5.515625 323.101562 5.59375 324.71875 5.753906 C 326.335938 5.914062 327.941406 6.152344 329.535156 6.46875 C 331.128906 6.785156 332.703125 7.179688 334.261719 7.652344 C 335.816406 8.125 337.34375 8.671875 338.847656 9.292969 C 340.347656 9.914062 341.816406 10.609375 343.25 11.375 C 344.683594 12.140625 346.074219 12.976562 347.425781 13.878906 C 348.777344 14.78125 350.082031 15.75 351.339844 16.78125 C 352.597656 17.8125 353.800781 18.902344 354.949219 20.050781 C 356.097656 21.199219 357.1875 22.402344 358.21875 23.660156 C 359.25 24.917969 360.21875 26.222656 361.121094 27.574219 C 362.023438 28.925781 362.859375 30.316406 363.625 31.75 C 364.390625 33.183594 365.085938 34.652344 365.707031 36.152344 C 366.328125 37.65625 366.875 39.183594 367.347656 40.738281 C 367.820312 42.296875 368.214844 43.871094 368.53125 45.464844 C 368.847656 47.058594 369.085938 48.664062 369.246094 50.28125 C 369.40625 51.898438 369.484375 53.523438 369.484375 55.148438 L 369.484375 319.851562 C 369.484375 321.476562 369.40625 323.101562 369.246094 324.71875 C 369.085938 326.335938 368.847656 327.941406 368.53125 329.535156 C 368.214844 331.128906 367.820312 332.703125 367.347656 334.261719 C 366.875 335.816406 366.328125 337.34375 365.707031 338.847656 C 365.085938 340.347656 364.390625 341.816406 363.625 343.25 C 362.859375 344.683594 362.023438 346.074219 361.121094 347.425781 C 360.21875 348.777344 359.25 350.082031 358.21875 351.339844 C 357.1875 352.597656 356.097656 353.800781 354.949219 354.949219 C 353.800781 356.097656 352.597656 357.1875 351.339844 358.21875 C 350.082031 359.25 348.777344 360.21875 347.425781 361.121094 C 346.074219 362.023438 344.683594 362.859375 343.25 363.625 C 341.816406 364.390625 340.347656 365.085938 338.847656 365.707031 C 337.34375 366.328125 335.816406 366.875 334.261719 367.347656 C 332.703125 367.820312 331.128906 368.214844 329.535156 368.53125 C 327.941406 368.847656 326.335938 369.085938 324.71875 369.246094 C 323.101562 369.40625 321.476562 369.484375 319.851562 369.484375 L 55.148438 369.484375 C 53.523438 369.484375 51.898438 369.40625 50.28125 369.246094 C 48.664062 369.085938 47.058594 368.847656 45.464844 368.53125 C 43.871094 368.214844 42.296875 367.820312 40.738281 367.347656 C 39.183594 366.875 37.65625 366.328125 36.152344 365.707031 C 34.652344 365.085938 33.183594 364.390625 31.75 363.625 C 30.316406 362.859375 28.925781 362.023438 27.574219 361.121094 C 26.222656 360.21875 24.917969 359.25 23.660156 358.21875 C 22.402344 357.1875 21.199219 356.097656 20.050781 354.949219 C 18.902344 353.800781 17.8125 352.597656 16.78125 351.339844 C 15.75 350.082031 14.78125 348.777344 13.878906 347.425781 C 12.976562 346.074219 12.140625 344.683594 11.375 343.25 C 10.609375 341.816406 9.914062 340.347656 9.292969 338.847656 C 8.671875 337.34375 8.125 335.816406 7.652344 334.261719 C 7.179688 332.703125 6.785156 331.128906 6.46875 329.535156 C 6.152344 327.941406 5.914062 326.335938 5.753906 324.71875 C 5.59375 323.101562 5.515625 321.476562 5.515625 319.851562 L 5.515625 55.148438 C 5.515625 53.523438 5.59375 51.898438 5.753906 50.28125 C 5.914062 48.664062 6.152344 47.058594 6.46875 45.464844 C 6.785156 43.871094 7.179688 42.296875 7.652344 40.738281 C 8.125 39.183594 8.671875 37.65625 9.292969 36.152344 C 9.914062 34.652344 10.609375 33.183594 11.375 31.75 C 12.140625 30.316406 12.976562 28.925781 13.878906 27.574219 C 14.78125 26.222656 15.75 24.917969 16.78125 23.660156 C 17.8125 22.402344 18.902344 21.199219 20.050781 20.050781 C 21.199219 18.902344 22.402344 17.8125 23.660156 16.78125 C 24.917969 15.75 26.222656 14.78125 27.574219 13.878906 C 28.925781 12.976562 30.316406 12.140625 31.75 11.375 C 33.183594 10.609375 34.652344 9.914062 36.152344 9.292969 C 37.65625 8.671875 39.183594 8.125 40.738281 7.652344 C 42.296875 7.179688 43.871094 6.785156 45.464844 6.46875 C 47.058594 6.152344 48.664062 5.914062 50.28125 5.753906 C 51.898438 5.59375 53.523438 5.515625 55.148438 5.515625 Z M 55.148438 5.515625 " fill-opacity="1" fill-rule="nonzero"/><path fill="#969696" d="M 319.851562 11.03125 C 321.296875 11.03125 322.738281 11.101562 324.175781 11.242188 C 325.613281 11.382812 327.042969 11.59375 328.460938 11.878906 C 329.878906 12.160156 331.277344 12.507812 332.660156 12.929688 C 334.042969 13.347656 335.402344 13.835938 336.734375 14.386719 C 338.070312 14.941406 339.375 15.558594 340.648438 16.238281 C 341.925781 16.917969 343.160156 17.660156 344.363281 18.464844 C 345.566406 19.265625 346.722656 20.128906 347.839844 21.042969 C 348.957031 21.960938 350.027344 22.929688 351.046875 23.949219 C 352.070312 24.972656 353.039062 26.042969 353.957031 27.160156 C 354.871094 28.277344 355.734375 29.433594 356.535156 30.636719 C 357.339844 31.839844 358.078125 33.074219 358.761719 34.351562 C 359.441406 35.625 360.058594 36.929688 360.613281 38.265625 C 361.164062 39.597656 361.652344 40.957031 362.070312 42.339844 C 362.492188 43.722656 362.839844 45.121094 363.121094 46.539062 C 363.40625 47.957031 363.617188 49.386719 363.757812 50.824219 C 363.898438 52.261719 363.96875 53.703125 363.96875 55.148438 L 363.96875 319.851562 C 363.96875 321.296875 363.898438 322.738281 363.757812 324.175781 C 363.617188 325.613281 363.40625 327.042969 363.121094 328.460938 C 362.839844 329.878906 362.492188 331.277344 362.070312 332.660156 C 361.652344 334.042969 361.164062 335.402344 360.613281 336.734375 C 360.058594 338.070312 359.441406 339.375 358.761719 340.648438 C 358.078125 341.925781 357.339844 343.160156 356.535156 344.363281 C 355.734375 345.566406 354.871094 346.722656 353.957031 347.839844 C 353.039062 348.957031 352.070312 350.027344 351.046875 351.046875 C 350.027344 352.070312 348.957031 353.039062 347.839844 353.957031 C 346.722656 354.871094 345.566406 355.734375 344.363281 356.535156 C 343.160156 357.339844 341.925781 358.078125 340.648438 358.761719 C 339.375 359.441406 338.070312 360.058594 336.734375 360.613281 C 335.402344 361.164062 334.042969 361.652344 332.660156 362.070312 C 331.277344 362.492188 329.878906 362.839844 328.460938 363.121094 C 327.042969 363.40625 325.613281 363.617188 324.175781 363.757812 C 322.738281 363.898438 321.296875 363.96875 319.851562 363.96875 L 55.148438 363.96875 C 53.703125 363.96875 52.261719 363.898438 50.824219 363.757812 C 49.386719 363.617188 47.957031 363.40625 46.539062 363.121094 C 45.121094 362.839844 43.722656 362.492188 42.339844 362.070312 C 40.957031 361.652344 39.597656 361.164062 38.265625 360.613281 C 36.929688 360.058594 35.625 359.441406 34.351562 358.761719 C 33.074219 358.078125 31.839844 357.339844 30.636719 356.535156 C 29.433594 355.734375 28.277344 354.871094 27.160156 353.957031 C 26.042969 353.039062 24.972656 352.070312 23.953125 351.046875 C 22.929688 350.027344 21.960938 348.957031 21.042969 347.839844 C 20.128906 346.722656 19.265625 345.566406 18.464844 344.363281 C 17.660156 343.160156 16.917969 341.925781 16.238281 340.648438 C 15.558594 339.375 14.941406 338.070312 14.386719 336.734375 C 13.835938 335.402344 13.347656 334.042969 12.929688 332.660156 C 12.507812 331.277344 12.160156 329.878906 11.878906 328.460938 C 11.59375 327.042969 11.382812 325.613281 11.242188 324.175781 C 11.101562 322.738281 11.03125 321.296875 11.03125 319.851562 L 11.03125 55.148438 C 11.03125 53.703125 11.101562 52.261719 11.242188 50.824219 C 11.382812 49.386719 11.59375 47.957031 11.878906 46.539062 C 12.160156 45.121094 12.507812 43.722656 12.929688 42.339844 C 13.347656 40.957031 13.835938 39.597656 14.386719 38.265625 C 14.941406 36.929688 15.558594 35.625 16.238281 34.351562 C 16.917969 33.074219 17.660156 31.839844 18.464844 30.636719 C 19.265625 29.433594 20.128906 28.277344 21.042969 27.160156 C 21.960938 26.042969 22.929688 24.972656 23.953125 23.949219 C 24.972656 22.929688 26.042969 21.960938 27.160156 21.042969 C 28.277344 20.128906 29.433594 19.265625 30.636719 18.464844 C 31.839844 17.660156 33.074219 16.917969 34.351562 16.238281 C 35.625 15.558594 36.929688 14.941406 38.265625 14.386719 C 39.597656 13.835938 40.957031 13.347656 42.339844 12.929688 C 43.722656 12.507812 45.121094 12.160156 46.539062 11.878906 C 47.957031 11.59375 49.386719 11.382812 50.824219 11.242188 C 52.261719 11.101562 53.703125 11.03125 55.148438 11.03125 L 319.851562 11.03125 M 319.851562 0 L 55.148438 0 C 53.339844 0 51.539062 0.0898438 49.742188 0.265625 C 47.945312 0.441406 46.160156 0.707031 44.386719 1.058594 C 42.617188 1.410156 40.867188 1.851562 39.140625 2.375 C 37.410156 2.898438 35.710938 3.507812 34.042969 4.199219 C 32.375 4.890625 30.742188 5.660156 29.152344 6.511719 C 27.558594 7.363281 26.011719 8.289062 24.507812 9.292969 C 23.007812 10.296875 21.558594 11.371094 20.164062 12.519531 C 18.765625 13.664062 17.429688 14.875 16.152344 16.152344 C 14.875 17.429688 13.664062 18.765625 12.519531 20.164062 C 11.371094 21.558594 10.296875 23.007812 9.292969 24.507812 C 8.289062 26.011719 7.363281 27.558594 6.511719 29.152344 C 5.660156 30.742188 4.890625 32.375 4.199219 34.042969 C 3.507812 35.710938 2.898438 37.410156 2.375 39.140625 C 1.851562 40.867188 1.410156 42.617188 1.058594 44.386719 C 0.707031 46.160156 0.441406 47.945312 0.265625 49.742188 C 0.0898438 51.539062 0 53.339844 0 55.148438 L 0 319.851562 C 0 321.660156 0.0898438 323.460938 0.265625 325.257812 C 0.441406 327.054688 0.707031 328.839844 1.058594 330.613281 C 1.410156 332.382812 1.851562 334.132812 2.375 335.859375 C 2.898438 337.589844 3.507812 339.289062 4.199219 340.957031 C 4.890625 342.625 5.660156 344.257812 6.511719 345.847656 C 7.363281 347.441406 8.289062 348.988281 9.292969 350.492188 C 10.296875 351.992188 11.371094 353.441406 12.519531 354.835938 C 13.664062 356.234375 14.875 357.570312 16.152344 358.847656 C 17.429688 360.125 18.765625 361.335938 20.164062 362.480469 C 21.558594 363.628906 23.007812 364.703125 24.507812 365.707031 C 26.011719 366.710938 27.558594 367.636719 29.152344 368.488281 C 30.742188 369.339844 32.375 370.109375 34.042969 370.800781 C 35.710938 371.492188 37.410156 372.101562 39.140625 372.625 C 40.867188 373.148438 42.617188 373.589844 44.386719 373.941406 C 46.160156 374.292969 47.945312 374.558594 49.742188 374.734375 C 51.539062 374.910156 53.339844 375 55.148438 375 L 319.851562 375 C 321.660156 375 323.460938 374.910156 325.257812 374.734375 C 327.054688 374.558594 328.839844 374.292969 330.613281 373.941406 C 332.382812 373.589844 334.132812 373.148438 335.859375 372.625 C 337.589844 372.101562 339.289062 371.492188 340.957031 370.800781 C 342.625 370.109375 344.257812 369.339844 345.847656 368.488281 C 347.441406 367.636719 348.988281 366.710938 350.492188 365.707031 C 351.992188 364.703125 353.441406 363.628906 354.835938 362.480469 C 356.234375 361.335938 357.570312 360.125 358.847656 358.847656 C 360.125 357.570312 361.335938 356.234375 362.480469 354.835938 C 363.628906 353.441406 364.703125 351.992188 365.707031 350.492188 C 366.710938 348.988281 367.636719 347.441406 368.488281 345.847656 C 369.339844 344.257812 370.109375 342.625 370.800781 340.957031 C 371.492188 339.289062 372.101562 337.589844 372.625 335.859375 C 373.148438 334.132812 373.589844 332.382812 373.941406 330.613281 C 374.292969 328.839844 374.558594 327.054688 374.734375 325.257812 C 374.910156 323.460938 375 321.660156 375 319.851562 L 375 55.148438 C 375 53.339844 374.910156 51.539062 374.734375 49.742188 C 374.558594 47.945312 374.292969 46.160156 373.941406 44.386719 C 373.589844 42.617188 373.148438 40.867188 372.625 39.140625 C 372.101562 37.410156 371.492188 35.710938 370.800781 34.042969 C 370.109375 32.375 369.339844 30.742188 368.488281 29.152344 C 367.636719 27.558594 366.710938 26.011719 365.707031 24.507812 C 364.703125 23.007812 363.628906 21.558594 362.480469 20.164062 C 361.335938 18.765625 360.125 17.429688 358.847656 16.152344 C 357.570312 14.875 356.234375 13.664062 354.835938 12.519531 C 353.441406 11.371094 351.992188 10.296875 350.492188 9.292969 C 348.988281 8.289062 347.441406 7.363281 345.847656 6.511719 C 344.257812 5.660156 342.625 4.890625 340.957031 4.199219 C 339.289062 3.507812 337.589844 2.898438 335.859375 2.375 C 334.132812 1.851562 332.382812 1.410156 330.613281 1.058594 C 328.839844 0.707031 327.054688 0.441406 325.257812 0.265625 C 323.460938 0.0898438 321.660156 0 319.851562 0 Z M 319.851562 0 " fill-opacity="1" fill-rule="nonzero"/><path fill="#000000" d="M 126.5625 75 L 314.0625 75 L 314.0625 120 L 126.5625 120 Z M 126.5625 75 " fill-opacity="1" fill-rule="nonzero"/><path fill="#000000" d="M 104.0625 97.5 C 104.0625 98.238281 104.027344 98.972656 103.953125 99.707031 C 103.882812 100.4375 103.773438 101.167969 103.628906 101.890625 C 103.488281 102.613281 103.308594 103.328125 103.09375 104.03125 C 102.878906 104.738281 102.632812 105.429688 102.351562 106.109375 C 102.066406 106.792969 101.753906 107.457031 101.40625 108.105469 C 101.058594 108.757812 100.679688 109.386719 100.269531 110 C 99.859375 110.613281 99.421875 111.203125 98.957031 111.773438 C 98.488281 112.34375 97.992188 112.890625 97.472656 113.410156 C 96.953125 113.929688 96.40625 114.425781 95.835938 114.894531 C 95.265625 115.359375 94.675781 115.796875 94.0625 116.207031 C 93.449219 116.617188 92.820312 116.996094 92.167969 117.34375 C 91.519531 117.691406 90.855469 118.003906 90.171875 118.289062 C 89.492188 118.570312 88.800781 118.816406 88.09375 119.03125 C 87.390625 119.246094 86.675781 119.425781 85.953125 119.566406 C 85.230469 119.710938 84.5 119.820312 83.769531 119.890625 C 83.035156 119.964844 82.300781 120 81.5625 120 C 80.824219 120 80.089844 119.964844 79.355469 119.890625 C 78.625 119.820312 77.894531 119.710938 77.171875 119.566406 C 76.449219 119.425781 75.734375 119.246094 75.03125 119.03125 C 74.324219 118.816406 73.632812 118.570312 72.953125 118.289062 C 72.269531 118.003906 71.605469 117.691406 70.957031 117.34375 C 70.304688 116.996094 69.675781 116.617188 69.0625 116.207031 C 68.449219 115.796875 67.859375 115.359375 67.289062 114.894531 C 66.71875 114.425781 66.171875 113.929688 65.652344 113.410156 C 65.132812 112.890625 64.636719 112.34375 64.167969 111.773438 C 63.703125 111.203125 63.265625 110.613281 62.855469 110 C 62.445312 109.386719 62.066406 108.757812 61.71875 108.105469 C 61.371094 107.457031 61.058594 106.792969 60.773438 106.109375 C 60.492188 105.429688 60.246094 104.738281 60.03125 104.03125 C 59.816406 103.328125 59.636719 102.613281 59.496094 101.890625 C 59.351562 101.167969 59.242188 100.4375 59.171875 99.707031 C 59.097656 98.972656 59.0625 98.238281 59.0625 97.5 C 59.0625 96.761719 59.097656 96.027344 59.171875 95.292969 C 59.242188 94.5625 59.351562 93.832031 59.496094 93.109375 C 59.636719 92.386719 59.816406 91.671875 60.03125 90.96875 C 60.246094 90.261719 60.492188 89.570312 60.773438 88.890625 C 61.058594 88.207031 61.371094 87.542969 61.71875 86.894531 C 62.066406 86.242188 62.445312 85.613281 62.855469 85 C 63.265625 84.386719 63.703125 83.796875 64.167969 83.226562 C 64.636719 82.65625 65.132812 82.109375 65.652344 81.589844 C 66.171875 81.070312 66.71875 80.574219 67.289062 80.105469 C 67.859375 79.640625 68.449219 79.203125 69.0625 78.792969 C 69.675781 78.382812 70.304688 78.003906 70.957031 77.65625 C 71.605469 77.308594 72.269531 76.996094 72.953125 76.710938 C 73.632812 76.429688 74.324219 76.183594 75.03125 75.96875 C 75.734375 75.753906 76.449219 75.574219 77.171875 75.433594 C 77.894531 75.289062 78.625 75.179688 79.355469 75.109375 C 80.089844 75.035156 80.824219 75 81.5625 75 C 82.300781 75 83.035156 75.035156 83.769531 75.109375 C 84.5 75.179688 85.230469 75.289062 85.953125 75.433594 C 86.675781 75.574219 87.390625 75.753906 88.09375 75.96875 C 88.800781 76.183594 89.492188 76.429688 90.171875 76.710938 C 90.855469 76.996094 91.519531 77.308594 92.167969 77.65625 C 92.820312 78.003906 93.449219 78.382812 94.0625 78.792969 C 94.675781 79.203125 95.265625 79.640625 95.835938 80.105469 C 96.40625 80.574219 96.953125 81.070312 97.472656 81.589844 C 97.992188 82.109375 98.488281 82.65625 98.957031 83.226562 C 99.421875 83.796875 99.859375 84.386719 100.269531 85 C 100.679688 85.613281 101.058594 86.242188 101.40625 86.894531 C 101.753906 87.542969 102.066406 88.207031 102.351562 88.890625 C 102.632812 89.570312 102.878906 90.261719 103.09375 90.96875 C 103.308594 91.671875 103.488281 92.386719 103.628906 93.109375 C 103.773438 93.832031 103.882812 94.5625 103.953125 95.292969 C 104.027344 96.027344 104.0625 96.761719 104.0625 97.5 Z M 104.0625 97.5 " fill-opacity="1" fill-rule="nonzero"/><path fill="#000000" d="M 126.5625 165 L 314.0625 165 L 314.0625 210 L 126.5625 210 Z M 126.5625 165 " fill-opacity="1" fill-rule="nonzero"/><path fill="#000000" d="M 104.0625 187.5 C 104.0625 188.238281 104.027344 188.972656 103.953125 189.707031 C 103.882812 190.4375 103.773438 191.167969 103.628906 191.890625 C 103.488281 192.613281 103.308594 193.328125 103.09375 194.03125 C 102.878906 194.738281 102.632812 195.429688 102.351562 196.109375 C 102.066406 196.792969 101.753906 197.457031 101.40625 198.105469 C 101.058594 198.757812 100.679688 199.386719 100.269531 200 C 99.859375 200.613281 99.421875 201.203125 98.957031 201.773438 C 98.488281 202.34375 97.992188 202.890625 97.472656 203.410156 C 96.953125 203.929688 96.40625 204.425781 95.835938 204.894531 C 95.265625 205.359375 94.675781 205.796875 94.0625 206.207031 C 93.449219 206.617188 92.820312 206.996094 92.167969 207.34375 C 91.519531 207.691406 90.855469 208.003906 90.171875 208.289062 C 89.492188 208.570312 88.800781 208.816406 88.09375 209.03125 C 87.390625 209.246094 86.675781 209.425781 85.953125 209.566406 C 85.230469 209.710938 84.5 209.820312 83.769531 209.890625 C 83.035156 209.964844 82.300781 210 81.5625 210 C 80.824219 210 80.089844 209.964844 79.355469 209.890625 C 78.625 209.820312 77.894531 209.710938 77.171875 209.566406 C 76.449219 209.425781 75.734375 209.246094 75.03125 209.03125 C 74.324219 208.816406 73.632812 208.570312 72.953125 208.289062 C 72.269531 208.003906 71.605469 207.691406 70.957031 207.34375 C 70.304688 206.996094 69.675781 206.617188 69.0625 206.207031 C 68.449219 205.796875 67.859375 205.359375 67.289062 204.894531 C 66.71875 204.425781 66.171875 203.929688 65.652344 203.410156 C 65.132812 202.890625 64.636719 202.34375 64.167969 201.773438 C 63.703125 201.203125 63.265625 200.613281 62.855469 200 C 62.445312 199.386719 62.066406 198.757812 61.71875 198.105469 C 61.371094 197.457031 61.058594 196.792969 60.773438 196.109375 C 60.492188 195.429688 60.246094 194.738281 60.03125 194.03125 C 59.816406 193.328125 59.636719 192.613281 59.496094 191.890625 C 59.351562 191.167969 59.242188 190.4375 59.171875 189.707031 C 59.097656 188.972656 59.0625 188.238281 59.0625 187.5 C 59.0625 186.761719 59.097656 186.027344 59.171875 185.292969 C 59.242188 184.5625 59.351562 183.832031 59.496094 183.109375 C 59.636719 182.386719 59.816406 181.671875 60.03125 180.96875 C 60.246094 180.261719 60.492188 179.570312 60.773438 178.890625 C 61.058594 178.207031 61.371094 177.542969 61.71875 176.894531 C 62.066406 176.242188 62.445312 175.613281 62.855469 175 C 63.265625 174.386719 63.703125 173.796875 64.167969 173.226562 C 64.636719 172.65625 65.132812 172.109375 65.652344 171.589844 C 66.171875 171.070312 66.71875 170.574219 67.289062 170.105469 C 67.859375 169.640625 68.449219 169.203125 69.0625 168.792969 C 69.675781 168.382812 70.304688 168.003906 70.957031 167.65625 C 71.605469 167.308594 72.269531 166.996094 72.953125 166.710938 C 73.632812 166.429688 74.324219 166.183594 75.03125 165.96875 C 75.734375 165.753906 76.449219 165.574219 77.171875 165.433594 C 77.894531 165.289062 78.625 165.179688 79.355469 165.109375 C 80.089844 165.035156 80.824219 165 81.5625 165 C 82.300781 165 83.035156 165.035156 83.769531 165.109375 C 84.5 165.179688 85.230469 165.289062 85.953125 165.433594 C 86.675781 165.574219 87.390625 165.753906 88.09375 165.96875 C 88.800781 166.183594 89.492188 166.429688 90.171875 166.710938 C 90.855469 166.996094 91.519531 167.308594 92.167969 167.65625 C 92.820312 168.003906 93.449219 168.382812 94.0625 168.792969 C 94.675781 169.203125 95.265625 169.640625 95.835938 170.105469 C 96.40625 170.574219 96.953125 171.070312 97.472656 171.589844 C 97.992188 172.109375 98.488281 172.65625 98.957031 173.226562 C 99.421875 173.796875 99.859375 174.386719 100.269531 175 C 100.679688 175.613281 101.058594 176.242188 101.40625 176.894531 C 101.753906 177.542969 102.066406 178.207031 102.351562 178.890625 C 102.632812 179.570312 102.878906 180.261719 103.09375 180.96875 C 103.308594 181.671875 103.488281 182.386719 103.628906 183.109375 C 103.773438 183.832031 103.882812 184.5625 103.953125 185.292969 C 104.027344 186.027344 104.0625 186.761719 104.0625 187.5 Z M 104.0625 187.5 " fill-opacity="1" fill-rule="nonzero"/><path fill="#000000" d="M 126.5625 255 L 314.0625 255 L 314.0625 300 L 126.5625 300 Z M 126.5625 255 " fill-opacity="1" fill-rule="nonzero"/><path fill="#000000" d="M 104.0625 277.5 C 104.0625 278.238281 104.027344 278.972656 103.953125 279.707031 C 103.882812 280.4375 103.773438 281.167969 103.628906 281.890625 C 103.488281 282.613281 103.308594 283.328125 103.09375 284.03125 C 102.878906 284.738281 102.632812 285.429688 102.351562 286.109375 C 102.066406 286.792969 101.753906 287.457031 101.40625 288.105469 C 101.058594 288.757812 100.679688 289.386719 100.269531 290 C 99.859375 290.613281 99.421875 291.203125 98.957031 291.773438 C 98.488281 292.34375 97.992188 292.890625 97.472656 293.410156 C 96.953125 293.929688 96.40625 294.425781 95.835938 294.894531 C 95.265625 295.359375 94.675781 295.796875 94.0625 296.207031 C 93.449219 296.617188 92.820312 296.996094 92.167969 297.34375 C 91.519531 297.691406 90.855469 298.003906 90.171875 298.289062 C 89.492188 298.570312 88.800781 298.816406 88.09375 299.03125 C 87.390625 299.246094 86.675781 299.425781 85.953125 299.566406 C 85.230469 299.710938 84.5 299.820312 83.769531 299.890625 C 83.035156 299.964844 82.300781 300 81.5625 300 C 80.824219 300 80.089844 299.964844 79.355469 299.890625 C 78.625 299.820312 77.894531 299.710938 77.171875 299.566406 C 76.449219 299.425781 75.734375 299.246094 75.03125 299.03125 C 74.324219 298.816406 73.632812 298.570312 72.953125 298.289062 C 72.269531 298.003906 71.605469 297.691406 70.957031 297.34375 C 70.304688 296.996094 69.675781 296.617188 69.0625 296.207031 C 68.449219 295.796875 67.859375 295.359375 67.289062 294.894531 C 66.71875 294.425781 66.171875 293.929688 65.652344 293.410156 C 65.132812 292.890625 64.636719 292.34375 64.167969 291.773438 C 63.703125 291.203125 63.265625 290.613281 62.855469 290 C 62.445312 289.386719 62.066406 288.757812 61.71875 288.105469 C 61.371094 287.457031 61.058594 286.792969 60.773438 286.109375 C 60.492188 285.429688 60.246094 284.738281 60.03125 284.03125 C 59.816406 283.328125 59.636719 282.613281 59.496094 281.890625 C 59.351562 281.167969 59.242188 280.4375 59.171875 279.707031 C 59.097656 278.972656 59.0625 278.238281 59.0625 277.5 C 59.0625 276.761719 59.097656 276.027344 59.171875 275.292969 C 59.242188 274.5625 59.351562 273.832031 59.496094 273.109375 C 59.636719 272.386719 59.816406 271.671875 60.03125 270.96875 C 60.246094 270.261719 60.492188 269.570312 60.773438 268.890625 C 61.058594 268.207031 61.371094 267.542969 61.71875 266.894531 C 62.066406 266.242188 62.445312 265.613281 62.855469 265 C 63.265625 264.386719 63.703125 263.796875 64.167969 263.226562 C 64.636719 262.65625 65.132812 262.109375 65.652344 261.589844 C 66.171875 261.070312 66.71875 260.574219 67.289062 260.105469 C 67.859375 259.640625 68.449219 259.203125 69.0625 258.792969 C 69.675781 258.382812 70.304688 258.003906 70.957031 257.65625 C 71.605469 257.308594 72.269531 256.996094 72.953125 256.710938 C 73.632812 256.429688 74.324219 256.183594 75.03125 255.96875 C 75.734375 255.753906 76.449219 255.574219 77.171875 255.433594 C 77.894531 255.289062 78.625 255.179688 79.355469 255.109375 C 80.089844 255.035156 80.824219 255 81.5625 255 C 82.300781 255 83.035156 255.035156 83.769531 255.109375 C 84.5 255.179688 85.230469 255.289062 85.953125 255.433594 C 86.675781 255.574219 87.390625 255.753906 88.09375 255.96875 C 88.800781 256.183594 89.492188 256.429688 90.171875 256.710938 C 90.855469 256.996094 91.519531 257.308594 92.167969 257.65625 C 92.820312 258.003906 93.449219 258.382812 94.0625 258.792969 C 94.675781 259.203125 95.265625 259.640625 95.835938 260.105469 C 96.40625 260.574219 96.953125 261.070312 97.472656 261.589844 C 97.992188 262.109375 98.488281 262.65625 98.957031 263.226562 C 99.421875 263.796875 99.859375 264.386719 100.269531 265 C 100.679688 265.613281 101.058594 266.242188 101.40625 266.894531 C 101.753906 267.542969 102.066406 268.207031 102.351562 268.890625 C 102.632812 269.570312 102.878906 270.261719 103.09375 270.96875 C 103.308594 271.671875 103.488281 272.386719 103.628906 273.109375 C 103.773438 273.832031 103.882812 274.5625 103.953125 275.292969 C 104.027344 276.027344 104.0625 276.761719 104.0625 277.5 Z M 104.0625 277.5 " fill-opacity="1" fill-rule="nonzero"/><g clip-path="url(#56e57027a7)"><g transform="matrix(1, 0, 0, 1, 37, 37)"><g clip-path="url(#a4d4ec4cca)"><g clip-path="url(#2fced4f1ef)"><path fill="#f2f2f2" d="M 0.5 0.5 L 300.5 0.5 L 300.5 300.5 L 0.5 300.5 Z M 0.5 0.5 " fill-opacity="1" fill-rule="nonzero"/></g></g></g></g><g clip-path="url(#b084959fd3)"><path fill="#000000" d="M 201.597656 187.617188 L 315.210938 258.457031 L 315.210938 116.757812 Z M 201.597656 187.617188 " fill-opacity="1" fill-rule="nonzero"/></g><g clip-path="url(#6538211976)"><path fill="#000000" d="M 88.035156 187.601562 L 88.035156 116.726562 L 59.917969 116.726562 L 59.917969 258.207031 L 88.035156 258.207031 L 88.035156 187.617188 L 201.597656 258.472656 L 201.597656 116.726562 Z M 88.035156 187.601562 " fill-opacity="1" fill-rule="nonzero"/></g><g fill="#000000" fill-opacity="1"><g transform="translate(41.151422, 87.894944)"><g><path d="M 4.265625 0 L 4.265625 -3.265625 L 12.140625 -3.265625 L 12.140625 -30.1875 L 5.953125 -30.1875 L 5.953125 -32.734375 C 8.898438 -33.242188 11.269531 -34.046875 13.0625 -35.140625 L 16.03125 -35.140625 L 16.03125 -3.265625 L 23.1875 -3.265625 L 23.1875 0 Z M 4.265625 0 "/></g></g></g><g fill="#000000" fill-opacity="1"><g transform="translate(67.503376, 87.894944)"><g><path d="M 13.203125 0.625 C 9.898438 0.625 7.273438 -0.894531 5.328125 -3.9375 C 3.378906 -6.976562 2.40625 -11.570312 2.40625 -17.71875 C 2.40625 -23.820312 3.378906 -28.351562 5.328125 -31.3125 C 7.273438 -34.28125 9.898438 -35.765625 13.203125 -35.765625 C 16.492188 -35.765625 19.097656 -34.273438 21.015625 -31.296875 C 22.941406 -28.316406 23.90625 -23.789062 23.90625 -17.71875 C 23.90625 -11.570312 22.941406 -6.976562 21.015625 -3.9375 C 19.097656 -0.894531 16.492188 0.625 13.203125 0.625 Z M 13.203125 -2.546875 C 15.273438 -2.546875 16.941406 -3.769531 18.203125 -6.21875 C 19.472656 -8.664062 20.109375 -12.5 20.109375 -17.71875 C 20.109375 -22.863281 19.472656 -26.628906 18.203125 -29.015625 C 16.941406 -31.398438 15.273438 -32.59375 13.203125 -32.59375 C 11.117188 -32.59375 9.425781 -31.398438 8.125 -29.015625 C 6.832031 -26.628906 6.1875 -22.863281 6.1875 -17.71875 C 6.1875 -12.5 6.832031 -8.664062 8.125 -6.21875 C 9.425781 -3.769531 11.117188 -2.546875 13.203125 -2.546875 Z M 13.203125 -2.546875 "/></g></g></g><g fill="#000000" fill-opacity="1"><g transform="translate(93.85533, 87.894944)"><g><path d="M 34.515625 -40.078125 L 34.515625 -14.78125 C 34.515625 -13.914062 34.394531 -13.226562 34.15625 -12.71875 C 33.914062 -12.207031 33.472656 -11.820312 32.828125 -11.5625 C 32.253906 -11.3125 31.476562 -11.144531 30.5 -11.0625 C 29.53125 -10.976562 28.210938 -10.9375 26.546875 -10.9375 C 26.484375 -11.382812 26.347656 -11.90625 26.140625 -12.5 C 25.929688 -13.09375 25.695312 -13.582031 25.4375 -13.96875 C 26.625 -13.9375 27.679688 -13.921875 28.609375 -13.921875 C 29.535156 -13.921875 30.160156 -13.9375 30.484375 -13.96875 C 31.054688 -14 31.34375 -14.285156 31.34375 -14.828125 L 31.34375 -40.078125 Z M 24.1875 -32.109375 L 27.265625 -31.625 C 26.660156 -28.75 25.875 -25.972656 24.90625 -23.296875 C 23.945312 -20.628906 22.859375 -18.351562 21.640625 -16.46875 C 21.328125 -16.6875 20.894531 -16.957031 20.34375 -17.28125 C 19.800781 -17.601562 19.320312 -17.84375 18.90625 -18 C 20.15625 -19.757812 21.21875 -21.894531 22.09375 -24.40625 C 22.976562 -26.914062 23.675781 -29.484375 24.1875 -32.109375 Z M 20.203125 -13.78125 L 18.28125 -11.28125 C 18.03125 -11.726562 17.628906 -12.300781 17.078125 -13 C 16.535156 -13.707031 15.960938 -14.453125 15.359375 -15.234375 C 14.753906 -16.023438 14.160156 -16.753906 13.578125 -17.421875 L 13.578125 3.5 L 10.5625 3.5 L 10.5625 -18.484375 C 9.570312 -15.953125 8.4375 -13.5 7.15625 -11.125 C 5.875 -8.757812 4.578125 -6.828125 3.265625 -5.328125 C 3.109375 -5.773438 2.859375 -6.269531 2.515625 -6.8125 C 2.179688 -7.351562 1.882812 -7.800781 1.625 -8.15625 C 2.65625 -9.3125 3.695312 -10.734375 4.75 -12.421875 C 5.8125 -14.117188 6.804688 -15.941406 7.734375 -17.890625 C 8.660156 -19.847656 9.441406 -21.769531 10.078125 -23.65625 L 2.546875 -23.65625 L 2.546875 -26.640625 L 10.5625 -26.640625 L 10.5625 -34.3125 C 9.34375 -34.09375 8.117188 -33.867188 6.890625 -33.640625 C 5.660156 -33.421875 4.46875 -33.21875 3.3125 -33.03125 C 3.21875 -33.375 3.070312 -33.785156 2.875 -34.265625 C 2.6875 -34.742188 2.492188 -35.160156 2.296875 -35.515625 C 4.085938 -35.835938 5.9375 -36.191406 7.84375 -36.578125 C 9.75 -36.960938 11.554688 -37.394531 13.265625 -37.875 C 14.984375 -38.351562 16.414062 -38.847656 17.5625 -39.359375 L 19.828125 -36.90625 C 18.929688 -36.5625 17.953125 -36.226562 16.890625 -35.90625 C 15.835938 -35.582031 14.734375 -35.273438 13.578125 -34.984375 L 13.578125 -26.640625 L 19.828125 -26.640625 L 19.828125 -23.65625 L 13.578125 -23.65625 L 13.578125 -20.5 C 13.929688 -20.175781 14.425781 -19.703125 15.0625 -19.078125 C 15.707031 -18.453125 16.378906 -17.785156 17.078125 -17.078125 C 17.785156 -16.378906 18.425781 -15.722656 19 -15.109375 C 19.582031 -14.503906 19.984375 -14.0625 20.203125 -13.78125 Z M 40.03125 -16.65625 L 43.109375 -15.84375 C 41.535156 -10.625 38.929688 -6.460938 35.296875 -3.359375 C 31.671875 -0.253906 26.753906 2.046875 20.546875 3.546875 C 20.421875 3.097656 20.179688 2.601562 19.828125 2.0625 C 19.472656 1.519531 19.117188 1.070312 18.765625 0.71875 C 24.679688 -0.5 29.351562 -2.515625 32.78125 -5.328125 C 36.207031 -8.140625 38.625 -11.914062 40.03125 -16.65625 Z M 37.828125 -31.53125 L 40.515625 -32.40625 C 41.410156 -30.957031 42.238281 -29.410156 43 -27.765625 C 43.769531 -26.117188 44.441406 -24.492188 45.015625 -22.890625 C 45.597656 -21.296875 46.015625 -19.859375 46.265625 -18.578125 L 43.34375 -17.609375 C 43.082031 -18.890625 42.671875 -20.332031 42.109375 -21.9375 C 41.554688 -23.539062 40.910156 -25.179688 40.171875 -26.859375 C 39.441406 -28.535156 38.660156 -30.09375 37.828125 -31.53125 Z M 37.828125 -31.53125 "/></g></g></g><g fill="#000000" fill-opacity="1"><g transform="translate(141.855246, 87.894944)"><g><path d="M 19.34375 -23.953125 L 29.28125 -23.953125 C 28.769531 -24.816406 28.28125 -25.703125 27.8125 -26.609375 C 27.351562 -27.523438 26.914062 -28.460938 26.5 -29.421875 L 21.9375 -29.421875 C 21.226562 -27.566406 20.363281 -25.742188 19.34375 -23.953125 Z M 45.171875 -21.125 L 34.890625 -21.125 C 36.492188 -19.300781 38.25 -17.679688 40.15625 -16.265625 C 42.0625 -14.859375 44.082031 -13.738281 46.21875 -12.90625 C 45.875 -12.59375 45.492188 -12.175781 45.078125 -11.65625 C 44.660156 -11.144531 44.320312 -10.679688 44.0625 -10.265625 C 41.53125 -11.421875 39.175781 -12.925781 37 -14.78125 C 34.832031 -16.632812 32.882812 -18.75 31.15625 -21.125 L 17.5625 -21.125 C 17.050781 -20.382812 16.5 -19.65625 15.90625 -18.9375 C 15.320312 -18.21875 14.707031 -17.503906 14.0625 -16.796875 L 33.3125 -16.796875 L 33.3125 -6.234375 L 14.875 -6.234375 L 14.875 -1.15625 C 14.875 -0.675781 14.984375 -0.316406 15.203125 -0.078125 C 15.429688 0.160156 15.878906 0.328125 16.546875 0.421875 C 17.222656 0.523438 18.203125 0.578125 19.484375 0.578125 L 33.03125 0.578125 C 34.144531 0.578125 34.972656 0.441406 35.515625 0.171875 C 36.066406 -0.0976562 36.441406 -0.671875 36.640625 -1.546875 C 36.847656 -2.429688 37.003906 -3.753906 37.109375 -5.515625 C 37.492188 -5.265625 37.976562 -5.023438 38.5625 -4.796875 C 39.15625 -4.578125 39.660156 -4.414062 40.078125 -4.3125 C 39.921875 -2.207031 39.632812 -0.597656 39.21875 0.515625 C 38.800781 1.640625 38.128906 2.410156 37.203125 2.828125 C 36.273438 3.242188 34.945312 3.453125 33.21875 3.453125 L 19.484375 3.453125 C 17.472656 3.453125 15.90625 3.332031 14.78125 3.09375 C 13.664062 2.851562 12.875 2.40625 12.40625 1.75 C 11.945312 1.09375 11.71875 0.140625 11.71875 -1.109375 L 11.71875 -8.875 L 30.140625 -8.875 L 30.140625 -14.15625 L 12.90625 -14.15625 L 12.90625 -15.59375 C 11.625 -14.351562 10.238281 -13.1875 8.75 -12.09375 C 7.269531 -11.007812 5.664062 -10.003906 3.9375 -9.078125 C 3.707031 -9.453125 3.375 -9.878906 2.9375 -10.359375 C 2.507812 -10.847656 2.125 -11.203125 1.78125 -11.421875 C 4.300781 -12.703125 6.550781 -14.164062 8.53125 -15.8125 C 10.519531 -17.457031 12.253906 -19.226562 13.734375 -21.125 L 2.78125 -21.125 L 2.78125 -23.953125 L 15.75 -23.953125 C 16.894531 -25.742188 17.851562 -27.566406 18.625 -29.421875 L 5.859375 -29.421875 L 5.859375 -32.15625 L 12.859375 -32.15625 C 12.472656 -33.082031 11.9375 -34.125 11.25 -35.28125 C 10.5625 -36.4375 9.851562 -37.460938 9.125 -38.359375 L 11.859375 -39.3125 C 12.691406 -38.320312 13.488281 -37.207031 14.25 -35.96875 C 15.019531 -34.738281 15.566406 -33.675781 15.890625 -32.78125 L 14.359375 -32.15625 L 19.6875 -32.15625 C 20.132812 -33.5 20.507812 -34.84375 20.8125 -36.1875 C 21.113281 -37.53125 21.328125 -38.84375 21.453125 -40.125 L 24.671875 -39.796875 C 24.316406 -37.203125 23.738281 -34.65625 22.9375 -32.15625 L 31.15625 -32.15625 C 31.820312 -33.1875 32.539062 -34.394531 33.3125 -35.78125 C 34.082031 -37.175781 34.707031 -38.429688 35.1875 -39.546875 L 38.453125 -38.5 C 37.804688 -37.40625 37.128906 -36.304688 36.421875 -35.203125 C 35.722656 -34.097656 35.054688 -33.082031 34.421875 -32.15625 L 42.140625 -32.15625 L 42.140625 -29.421875 L 29.609375 -29.421875 C 30.054688 -28.460938 30.535156 -27.523438 31.046875 -26.609375 C 31.566406 -25.703125 32.128906 -24.816406 32.734375 -23.953125 L 45.171875 -23.953125 Z M 45.171875 -21.125 "/></g></g></g><g fill="#000000" fill-opacity="1"><g transform="translate(189.855163, 87.894944)"><g><path d="M 10.3125 -12.765625 L 13.625 -12.4375 C 13.3125 -11.695312 13.039062 -10.863281 12.8125 -9.9375 C 12.59375 -9.007812 12.484375 -8.222656 12.484375 -7.578125 C 12.484375 -5.691406 13.273438 -4.195312 14.859375 -3.09375 C 16.441406 -1.988281 18.960938 -1.4375 22.421875 -1.4375 C 24.304688 -1.4375 26.28125 -1.523438 28.34375 -1.703125 C 30.40625 -1.878906 32.269531 -2.144531 33.9375 -2.5 L 33.84375 0.953125 C 32.363281 1.210938 30.578125 1.421875 28.484375 1.578125 C 26.390625 1.742188 24.414062 1.828125 22.5625 1.828125 C 18.332031 1.828125 15.050781 1.109375 12.71875 -0.328125 C 10.382812 -1.773438 9.21875 -3.953125 9.21875 -6.859375 C 9.21875 -7.890625 9.328125 -8.914062 9.546875 -9.9375 C 9.773438 -10.957031 10.03125 -11.898438 10.3125 -12.765625 Z M 40.375 -25.625 L 41.046875 -22.515625 C 39.984375 -22.160156 38.765625 -21.804688 37.390625 -21.453125 C 36.015625 -21.097656 34.492188 -20.765625 32.828125 -20.453125 C 33.535156 -18.910156 34.269531 -17.351562 35.03125 -15.78125 C 35.800781 -14.21875 36.507812 -12.8125 37.15625 -11.5625 L 35.46875 -9.5 C 34.289062 -9.695312 32.859375 -9.90625 31.171875 -10.125 C 29.492188 -10.351562 27.90625 -10.5625 26.40625 -10.75 L 26.6875 -13.4375 C 27.90625 -13.28125 29.054688 -13.132812 30.140625 -13 C 31.234375 -12.875 32.160156 -12.78125 32.921875 -12.71875 C 32.472656 -13.675781 31.960938 -14.785156 31.390625 -16.046875 C 30.816406 -17.316406 30.222656 -18.609375 29.609375 -19.921875 C 26.546875 -19.503906 23.15625 -19.265625 19.4375 -19.203125 C 15.726562 -19.140625 12.015625 -19.21875 8.296875 -19.4375 L 8.203125 -22.609375 C 11.816406 -22.285156 15.359375 -22.140625 18.828125 -22.171875 C 22.304688 -22.203125 25.488281 -22.394531 28.375 -22.75 C 28.019531 -23.582031 27.679688 -24.359375 27.359375 -25.078125 C 27.035156 -25.796875 26.75 -26.445312 26.5 -27.03125 C 26.332031 -27.4375 26.160156 -27.832031 25.984375 -28.21875 C 25.816406 -28.601562 25.648438 -28.988281 25.484375 -29.375 C 23.054688 -29.15625 20.394531 -29.046875 17.5 -29.046875 C 14.601562 -29.046875 11.664062 -29.1875 8.6875 -29.46875 L 8.453125 -32.640625 C 11.296875 -32.316406 14.046875 -32.125 16.703125 -32.0625 C 19.359375 -32 21.851562 -32.078125 24.1875 -32.296875 C 24.0625 -32.585938 23.941406 -32.875 23.828125 -33.15625 C 23.710938 -33.445312 23.59375 -33.707031 23.46875 -33.9375 C 23.144531 -34.675781 22.863281 -35.273438 22.625 -35.734375 C 22.382812 -36.203125 22.109375 -36.691406 21.796875 -37.203125 L 25.6875 -38.015625 C 25.90625 -37.210938 26.171875 -36.351562 26.484375 -35.4375 C 26.804688 -34.53125 27.144531 -33.613281 27.5 -32.6875 C 29.195312 -32.945312 30.867188 -33.257812 32.515625 -33.625 C 34.160156 -33.988281 35.675781 -34.425781 37.0625 -34.9375 L 37.6875 -31.828125 C 36.4375 -31.441406 35.039062 -31.070312 33.5 -30.71875 C 31.96875 -30.363281 30.367188 -30.0625 28.703125 -29.8125 L 29.515625 -27.84375 C 29.742188 -27.332031 30.03125 -26.679688 30.375 -25.890625 C 30.726562 -25.109375 31.113281 -24.222656 31.53125 -23.234375 C 33.425781 -23.585938 35.109375 -23.972656 36.578125 -24.390625 C 38.046875 -24.804688 39.3125 -25.21875 40.375 -25.625 Z M 40.375 -25.625 "/></g></g></g><g fill="#000000" fill-opacity="1"><g transform="translate(237.855068, 87.894944)"><g><path d="M 44.25 -37.390625 L 44.25 -34.46875 L 3.984375 -34.46875 L 3.984375 -37.390625 Z M 10.171875 -13.78125 L 23.953125 -13.78125 C 24.109375 -14.707031 24.242188 -15.65625 24.359375 -16.625 C 24.472656 -17.601562 24.5625 -18.640625 24.625 -19.734375 L 10.515625 -19.734375 C 10.484375 -18.804688 10.441406 -17.835938 10.390625 -16.828125 C 10.335938 -15.816406 10.265625 -14.800781 10.171875 -13.78125 Z M 38.546875 -28.171875 L 10.515625 -28.171875 L 10.515625 -22.3125 L 38.546875 -22.3125 Z M 44.546875 -10.9375 L 28.703125 -10.9375 C 30.015625 -7.582031 32.117188 -4.953125 35.015625 -3.046875 C 37.910156 -1.140625 41.628906 0.144531 46.171875 0.8125 C 45.816406 1.132812 45.457031 1.570312 45.09375 2.125 C 44.726562 2.6875 44.429688 3.191406 44.203125 3.640625 C 39.628906 2.785156 35.867188 1.316406 32.921875 -0.765625 C 29.984375 -2.847656 27.742188 -5.695312 26.203125 -9.3125 C 25.503906 -7.164062 24.5 -5.253906 23.1875 -3.578125 C 21.875 -1.898438 20.101562 -0.460938 17.875 0.734375 C 15.65625 1.941406 12.832031 2.945312 9.40625 3.75 C 9.25 3.394531 9 2.941406 8.65625 2.390625 C 8.320312 1.847656 8 1.421875 7.6875 1.109375 C 11.007812 0.398438 13.707031 -0.503906 15.78125 -1.609375 C 17.863281 -2.710938 19.5 -4.039062 20.6875 -5.59375 C 21.875 -7.144531 22.753906 -8.925781 23.328125 -10.9375 L 9.796875 -10.9375 C 9.378906 -8.507812 8.742188 -6.109375 7.890625 -3.734375 C 7.046875 -1.367188 5.851562 0.800781 4.3125 2.78125 C 4.0625 2.5 3.644531 2.164062 3.0625 1.78125 C 2.488281 1.394531 2.007812 1.117188 1.625 0.953125 C 2.90625 -0.640625 3.929688 -2.363281 4.703125 -4.21875 C 5.472656 -6.082031 6.039062 -7.988281 6.40625 -9.9375 C 6.769531 -11.882812 7.015625 -13.800781 7.140625 -15.6875 C 7.273438 -17.582031 7.34375 -19.34375 7.34375 -20.96875 L 7.34375 -30.765625 L 41.609375 -30.765625 L 41.609375 -19.734375 L 27.890625 -19.734375 C 27.796875 -18.671875 27.695312 -17.644531 27.59375 -16.65625 C 27.5 -15.664062 27.375 -14.707031 27.21875 -13.78125 L 44.546875 -13.78125 Z M 44.546875 -10.9375 "/></g></g></g><g fill="#000000" fill-opacity="1"><g transform="translate(285.854974, 87.894944)"><g><path d="M 11.8125 -37.15625 L 16.125 -37.109375 C 16 -36.398438 15.910156 -35.660156 15.859375 -34.890625 C 15.816406 -34.128906 15.765625 -33.378906 15.703125 -32.640625 C 15.660156 -31.296875 15.597656 -29.628906 15.515625 -27.640625 C 15.441406 -25.660156 15.378906 -23.550781 15.328125 -21.3125 C 15.285156 -19.070312 15.238281 -16.835938 15.1875 -14.609375 C 15.144531 -12.390625 15.125 -10.367188 15.125 -8.546875 C 15.125 -6.785156 15.472656 -5.382812 16.171875 -4.34375 C 16.878906 -3.300781 17.835938 -2.546875 19.046875 -2.078125 C 20.265625 -1.617188 21.628906 -1.390625 23.140625 -1.390625 C 26.109375 -1.390625 28.664062 -1.867188 30.8125 -2.828125 C 32.957031 -3.785156 34.796875 -5.023438 36.328125 -6.546875 C 37.867188 -8.066406 39.195312 -9.644531 40.3125 -11.28125 L 42.71875 -8.296875 C 41.914062 -7.179688 40.921875 -6.023438 39.734375 -4.828125 C 38.554688 -3.628906 37.160156 -2.507812 35.546875 -1.46875 C 33.929688 -0.425781 32.085938 0.421875 30.015625 1.078125 C 27.953125 1.734375 25.628906 2.0625 23.046875 2.0625 C 20.835938 2.0625 18.875 1.722656 17.15625 1.046875 C 15.445312 0.378906 14.113281 -0.710938 13.15625 -2.234375 C 12.195312 -3.753906 11.71875 -5.796875 11.71875 -8.359375 C 11.71875 -10.148438 11.738281 -12.171875 11.78125 -14.421875 C 11.832031 -16.679688 11.890625 -18.960938 11.953125 -21.265625 C 12.015625 -23.566406 12.066406 -25.71875 12.109375 -27.71875 C 12.160156 -29.71875 12.1875 -31.359375 12.1875 -32.640625 C 12.1875 -33.472656 12.160156 -34.269531 12.109375 -35.03125 C 12.066406 -35.800781 11.96875 -36.507812 11.8125 -37.15625 Z M 11.8125 -37.15625 "/></g></g></g></svg>