<svg xmlns="http://www.w3.org/2000/svg" xmlns:xlink="http://www.w3.org/1999/xlink" width="500" zoomAndPan="magnify" viewBox="0 0 375 374.999991" height="500" preserveAspectRatio="xMidYMid meet" version="1.0"><defs><g/><clipPath id="79605c64d7"><path d="M 37.5 241.78125 L 337.5 241.78125 L 337.5 354.28125 L 37.5 354.28125 Z M 37.5 241.78125 " clip-rule="nonzero"/></clipPath><clipPath id="c77e81b6a7"><path d="M 0.5 0.78125 L 300.5 0.78125 L 300.5 113.28125 L 0.5 113.28125 Z M 0.5 0.78125 " clip-rule="nonzero"/></clipPath><clipPath id="8845a1145d"><rect x="0" width="301" y="0" height="114"/></clipPath><clipPath id="06f1112ec7"><rect x="0" width="260" y="0" height="155"/></clipPath></defs><path fill="#ffffff" d="M 50 0 L 325 0 C 326.636719 0 328.269531 0.0820312 329.902344 0.242188 C 331.53125 0.402344 333.148438 0.640625 334.753906 0.960938 C 336.359375 1.28125 337.945312 1.675781 339.515625 2.152344 C 341.082031 2.628906 342.621094 3.179688 344.132812 3.804688 C 345.648438 4.433594 347.125 5.132812 348.570312 5.902344 C 350.015625 6.675781 351.417969 7.515625 352.777344 8.425781 C 354.140625 9.335938 355.453125 10.3125 356.71875 11.347656 C 357.984375 12.386719 359.199219 13.488281 360.355469 14.644531 C 361.511719 15.800781 362.613281 17.015625 363.652344 18.28125 C 364.6875 19.546875 365.664062 20.859375 366.574219 22.222656 C 367.484375 23.582031 368.324219 24.984375 369.097656 26.429688 C 369.867188 27.875 370.566406 29.351562 371.195312 30.867188 C 371.820312 32.378906 372.371094 33.917969 372.847656 35.484375 C 373.324219 37.054688 373.71875 38.640625 374.039062 40.246094 C 374.359375 41.851562 374.597656 43.46875 374.757812 45.097656 C 374.917969 46.730469 375 48.363281 375 50 L 375 325 C 375 326.636719 374.917969 328.269531 374.757812 329.902344 C 374.597656 331.53125 374.359375 333.148438 374.039062 334.753906 C 373.71875 336.359375 373.324219 337.945312 372.847656 339.515625 C 372.371094 341.082031 371.820312 342.621094 371.195312 344.132812 C 370.566406 345.648438 369.867188 347.125 369.097656 348.570312 C 368.324219 350.015625 367.484375 351.417969 366.574219 352.777344 C 365.664062 354.140625 364.6875 355.453125 363.652344 356.71875 C 362.613281 357.984375 361.511719 359.199219 360.355469 360.355469 C 359.199219 361.511719 357.984375 362.613281 356.71875 363.652344 C 355.453125 364.6875 354.140625 365.664062 352.777344 366.574219 C 351.417969 367.484375 350.015625 368.324219 348.570312 369.097656 C 347.125 369.867188 345.648438 370.566406 344.132812 371.195312 C 342.621094 371.820312 341.082031 372.371094 339.515625 372.847656 C 337.945312 373.324219 336.359375 373.71875 334.753906 374.039062 C 333.148438 374.359375 331.53125 374.597656 329.902344 374.757812 C 328.269531 374.917969 326.636719 375 325 375 L 50 375 C 48.363281 375 46.730469 374.917969 45.097656 374.757812 C 43.46875 374.597656 41.851562 374.359375 40.246094 374.039062 C 38.640625 373.71875 37.054688 373.324219 35.484375 372.847656 C 33.917969 372.371094 32.378906 371.820312 30.867188 371.195312 C 29.351562 370.566406 27.875 369.867188 26.429688 369.097656 C 24.984375 368.324219 23.582031 367.484375 22.222656 366.574219 C 20.859375 365.664062 19.546875 364.6875 18.28125 363.652344 C 17.015625 362.613281 15.800781 361.511719 14.644531 360.355469 C 13.488281 359.199219 12.386719 357.984375 11.347656 356.71875 C 10.3125 355.453125 9.335938 354.140625 8.425781 352.777344 C 7.515625 351.417969 6.675781 350.015625 5.902344 348.570312 C 5.132812 347.125 4.433594 345.648438 3.804688 344.132812 C 3.179688 342.621094 2.628906 341.082031 2.152344 339.515625 C 1.675781 337.945312 1.28125 336.359375 0.960938 334.753906 C 0.640625 333.148438 0.402344 331.53125 0.242188 329.902344 C 0.0820312 328.269531 0 326.636719 0 325 L 0 50 C 0 48.363281 0.0820312 46.730469 0.242188 45.097656 C 0.402344 43.46875 0.640625 41.851562 0.960938 40.246094 C 1.28125 38.640625 1.675781 37.054688 2.152344 35.484375 C 2.628906 33.917969 3.179688 32.378906 3.804688 30.867188 C 4.433594 29.351562 5.132812 27.875 5.902344 26.429688 C 6.675781 24.984375 7.515625 23.582031 8.425781 22.222656 C 9.335938 20.859375 10.3125 19.546875 11.347656 18.28125 C 12.386719 17.015625 13.488281 15.800781 14.644531 14.644531 C 15.800781 13.488281 17.015625 12.386719 18.28125 11.347656 C 19.546875 10.3125 20.859375 9.335938 22.222656 8.425781 C 23.582031 7.515625 24.984375 6.675781 26.429688 5.902344 C 27.875 5.132812 29.351562 4.433594 30.867188 3.804688 C 32.378906 3.179688 33.917969 2.628906 35.484375 2.152344 C 37.054688 1.675781 38.640625 1.28125 40.246094 0.960938 C 41.851562 0.640625 43.46875 0.402344 45.097656 0.242188 C 46.730469 0.0820312 48.363281 0 50 0 Z M 50 0 " fill-opacity="1" fill-rule="nonzero"/><path fill="#00a0e9" d="M 82.75 308.6875 C 77.875 314.625 70.5625 320.875 63.75 325.25 C 61.1875 323 59.1875 319.75 58.0625 316.3125 C 65.0625 312.125 72.125 306.25 77.5 300 Z M 82.0625 318.25 C 85.75 319.625 88.875 320.25 92.5625 320.25 C 97 320.25 99.8125 317.9375 99.8125 314.125 C 99.8125 311.125 98 307.5625 92.75 303 C 88.5625 299.4375 86.4375 294.875 86.4375 290.5625 C 86.4375 286.8125 87.375 282.25 89.75 278.125 C 92.75 278.125 96.25 279.0625 98.9375 281.125 C 97.25 284.4375 96.5625 287.4375 96.5625 290.0625 C 96.5625 292.9375 97.875 294.875 101.75 297.9375 C 108.5 303.1875 110.75 309.0625 110.75 314.125 C 110.75 324.1875 104.625 330.3125 93.6875 330.3125 C 89.5625 330.3125 85.8125 329.875 82.6875 328.9375 Z M 86.5625 257.8125 C 94.6875 259.0625 106 263 113.875 268.0625 C 113.1875 271.375 111.1875 275 109.25 277.4375 C 101.875 272.875 90.75 268.5 82.625 266.6875 C 83.25 263.875 84.625 260.5625 86.5625 257.8125 Z M 124.1875 295.5 C 129.4375 301.25 134.4375 310.1875 137.125 318.5 C 134.875 320.6875 131.375 322.4375 127.5625 323.125 C 124.9375 314.625 120.5625 305.5 115.75 299.375 C 118.3125 297.5625 121.4375 296.0625 124.125 295.4375 Z M 124.1875 295.5 " fill-opacity="1" fill-rule="nonzero"/><path fill="#00a0e9" d="M 173.3125 313.5 C 200.125 310.375 208.25 303.0625 208.25 291 C 208.25 283.9375 203.0625 278.8125 192.125 278.8125 C 184.0625 278.8125 172.625 280.9375 151.5625 287.3125 C 149.75 284.3125 148.4375 280.0625 148.4375 276.1875 C 171.125 270.25 182.75 268.6875 192.1875 268.6875 C 210.8125 268.6875 219.4375 278.8125 219.4375 291 C 219.4375 308.9375 206.75 320.6875 178.0625 324 Z M 173.3125 313.5 " fill-opacity="1" fill-rule="nonzero"/><path fill="#00a0e9" d="M 261.625 323.5 C 279.25 317.4375 285.875 308.125 285.875 296.8125 C 285.875 291.125 282.1875 287.875 274.125 287.875 C 267.125 287.875 255.9375 290.0625 245.4375 294 C 243.9375 291.3125 242.75 287.25 242.75 283.5625 C 253.4375 280 265.25 278.0625 273.9375 278.0625 C 290.6875 278.0625 296.8125 286 296.8125 296.6875 C 296.8125 312.375 287.375 325.25 268.25 332.6875 L 261.6875 323.5 Z M 290.875 260.5625 L 290.875 261.0625 C 290.875 264.375 290.0625 268.0625 289.125 270.8125 C 277.9375 269.875 264.1875 267.5625 254.5625 264.9375 C 254.75 261.8125 256.0625 257.6875 257.5625 255.0625 C 266.5 257.625 279.125 259.6875 290.9375 260.5625 Z M 290.875 260.5625 " fill-opacity="1" fill-rule="nonzero"/><path fill="#00a0e9" d="M 128.875 62.5 L 50.75 62.5 L 128.875 140.625 L 50.75 218.75 L 128.875 218.75 L 207.0625 140.625 Z M 128.875 62.5 " fill-opacity="1" fill-rule="nonzero"/><path fill="#00a0e9" d="M 246.125 62.5 L 167.9375 62.5 L 246.125 140.625 L 167.9375 218.75 L 246.125 218.75 L 324.25 140.625 Z M 246.125 62.5 " fill-opacity="1" fill-rule="nonzero"/><g clip-path="url(#79605c64d7)"><g transform="matrix(1, 0, 0, 1, 37, 241)"><g clip-path="url(#8845a1145d)"><g clip-path="url(#c77e81b6a7)"><path fill="#ffffff" d="M 0.5 0.78125 L 300.644531 0.78125 L 300.644531 113.28125 L 0.5 113.28125 Z M 0.5 0.78125 " fill-opacity="1" fill-rule="nonzero"/></g></g></g></g><g transform="matrix(1, 0, 0, 1, 58, 220)"><g clip-path="url(#06f1112ec7)"><g fill="#00a0e9" fill-opacity="1"><g transform="translate(59.151737, 68.609641)"><g><path d="M 5.296875 0 L 5.296875 -7.6875 L 15.5625 -7.6875 L 15.5625 -37.921875 L 6.90625 -37.921875 L 6.90625 -43.796875 C 9.320312 -44.265625 11.398438 -44.8125 13.140625 -45.4375 C 14.890625 -46.0625 16.515625 -46.847656 18.015625 -47.796875 L 25.0625 -47.796875 L 25.0625 -7.6875 L 34.046875 -7.6875 L 34.046875 0 Z M 5.296875 0 "/></g></g></g><g fill="#00a0e9" fill-opacity="1"><g transform="translate(97.194613, 68.609641)"><g><path d="M 19.0625 0.90625 C 14.1875 0.90625 10.265625 -1.203125 7.296875 -5.421875 C 4.328125 -9.640625 2.84375 -15.863281 2.84375 -24.09375 C 2.84375 -32.363281 4.328125 -38.53125 7.296875 -42.59375 C 10.265625 -46.664062 14.1875 -48.703125 19.0625 -48.703125 C 23.925781 -48.703125 27.832031 -46.65625 30.78125 -42.5625 C 33.726562 -38.476562 35.203125 -32.320312 35.203125 -24.09375 C 35.203125 -15.863281 33.726562 -9.640625 30.78125 -5.421875 C 27.832031 -1.203125 23.925781 0.90625 19.0625 0.90625 Z M 19.0625 -6.53125 C 20.4375 -6.53125 21.660156 -7.054688 22.734375 -8.109375 C 23.816406 -9.160156 24.664062 -10.96875 25.28125 -13.53125 C 25.90625 -16.09375 26.21875 -19.613281 26.21875 -24.09375 C 26.21875 -28.570312 25.90625 -32.054688 25.28125 -34.546875 C 24.664062 -37.046875 23.816406 -38.800781 22.734375 -39.8125 C 21.660156 -40.832031 20.4375 -41.34375 19.0625 -41.34375 C 17.675781 -41.34375 16.429688 -40.832031 15.328125 -39.8125 C 14.234375 -38.800781 13.375 -37.046875 12.75 -34.546875 C 12.132812 -32.054688 11.828125 -28.570312 11.828125 -24.09375 C 11.828125 -19.613281 12.132812 -16.09375 12.75 -13.53125 C 13.375 -10.96875 14.234375 -9.160156 15.328125 -8.109375 C 16.429688 -7.054688 17.675781 -6.53125 19.0625 -6.53125 Z M 19.0625 -6.53125 "/></g></g></g><g fill="#00a0e9" fill-opacity="1"><g transform="translate(135.237489, 68.609641)"><g><path d="M 63.109375 -25.90625 L 56 -23.453125 C 55.789062 -25.171875 55.382812 -27.101562 54.78125 -29.25 C 54.175781 -31.40625 53.460938 -33.613281 52.640625 -35.875 C 51.828125 -38.132812 50.925781 -40.210938 49.9375 -42.109375 L 56.515625 -44.3125 C 57.546875 -42.414062 58.503906 -40.359375 59.390625 -38.140625 C 60.273438 -35.921875 61.039062 -33.753906 61.6875 -31.640625 C 62.332031 -29.535156 62.804688 -27.625 63.109375 -25.90625 Z M 48.3125 -54.640625 L 48.3125 -21.515625 C 48.3125 -19.742188 48.117188 -18.304688 47.734375 -17.203125 C 47.347656 -16.109375 46.59375 -15.238281 45.46875 -14.59375 C 44.394531 -13.988281 43.132812 -13.585938 41.6875 -13.390625 C 40.25 -13.203125 38.519531 -13.109375 36.5 -13.109375 C 36.363281 -14.234375 36.054688 -15.515625 35.578125 -16.953125 C 35.109375 -18.398438 34.617188 -19.640625 34.109375 -20.671875 C 35.222656 -20.628906 36.304688 -20.609375 37.359375 -20.609375 C 38.421875 -20.609375 39.164062 -20.609375 39.59375 -20.609375 C 40.28125 -20.609375 40.625 -20.929688 40.625 -21.578125 L 40.625 -54.640625 Z M 31 -43.59375 L 38.375 -42.375 C 37.675781 -38.363281 36.691406 -34.484375 35.421875 -30.734375 C 34.160156 -26.992188 32.707031 -23.875 31.0625 -21.375 C 30.59375 -21.71875 29.945312 -22.113281 29.125 -22.5625 C 28.3125 -23.019531 27.492188 -23.472656 26.671875 -23.921875 C 25.859375 -24.378906 25.128906 -24.738281 24.484375 -25 C 26.160156 -27.195312 27.535156 -29.960938 28.609375 -33.296875 C 29.691406 -36.628906 30.488281 -40.0625 31 -43.59375 Z M 27.78125 -19.125 L 23.390625 -13.109375 C 22.992188 -13.972656 22.441406 -14.984375 21.734375 -16.140625 C 21.023438 -17.304688 20.28125 -18.472656 19.5 -19.640625 L 19.5 5.5625 L 12.078125 5.5625 L 12.078125 -17.640625 C 11.046875 -15.140625 9.925781 -12.789062 8.71875 -10.59375 C 7.507812 -8.394531 6.28125 -6.476562 5.03125 -4.84375 C 4.6875 -5.96875 4.160156 -7.226562 3.453125 -8.625 C 2.742188 -10.019531 2.085938 -11.191406 1.484375 -12.140625 C 3.296875 -14.253906 5.039062 -16.878906 6.71875 -20.015625 C 8.394531 -23.160156 9.835938 -26.304688 11.046875 -29.453125 L 2.84375 -29.453125 L 2.84375 -36.625 L 12.078125 -36.625 L 12.078125 -44.125 C 10.742188 -43.863281 9.410156 -43.625 8.078125 -43.40625 C 6.742188 -43.1875 5.453125 -42.992188 4.203125 -42.828125 C 4.023438 -43.691406 3.734375 -44.691406 3.328125 -45.828125 C 2.921875 -46.972656 2.5 -47.929688 2.0625 -48.703125 C 4.4375 -49.128906 6.847656 -49.613281 9.296875 -50.15625 C 11.753906 -50.695312 14.09375 -51.300781 16.3125 -51.96875 C 18.53125 -52.632812 20.457031 -53.332031 22.09375 -54.0625 L 27.1875 -48.1875 C 26.03125 -47.757812 24.804688 -47.328125 23.515625 -46.890625 C 22.222656 -46.460938 20.882812 -46.078125 19.5 -45.734375 L 19.5 -36.625 L 26.421875 -36.625 L 26.421875 -29.453125 L 19.5 -29.453125 L 19.5 -27.578125 C 19.9375 -27.234375 20.550781 -26.671875 21.34375 -25.890625 C 22.144531 -25.117188 22.972656 -24.269531 23.828125 -23.34375 C 24.691406 -22.425781 25.488281 -21.578125 26.21875 -20.796875 C 26.957031 -20.023438 27.476562 -19.46875 27.78125 -19.125 Z M 52.453125 -22.796875 L 59.9375 -21 C 58.394531 -15.875 56.273438 -11.585938 53.578125 -8.140625 C 50.890625 -4.691406 47.53125 -1.882812 43.5 0.28125 C 39.476562 2.457031 34.6875 4.238281 29.125 5.625 C 28.78125 4.457031 28.207031 3.207031 27.40625 1.875 C 26.613281 0.539062 25.8125 -0.597656 25 -1.546875 C 29.945312 -2.410156 34.226562 -3.679688 37.84375 -5.359375 C 41.46875 -7.035156 44.472656 -9.285156 46.859375 -12.109375 C 49.253906 -14.929688 51.117188 -18.492188 52.453125 -22.796875 Z M 52.453125 -22.796875 "/></g></g></g><g fill="#00a0e9" fill-opacity="1"><g transform="translate(0.33117, 136.276714)"><g><path d="M 21.828125 -23.0625 L 43.59375 -23.0625 C 43.039062 -23.75 42.503906 -24.457031 41.984375 -25.1875 C 41.460938 -25.925781 40.96875 -26.679688 40.5 -27.453125 L 25.0625 -27.453125 C 24.539062 -26.722656 24.019531 -25.988281 23.5 -25.25 C 22.988281 -24.519531 22.429688 -23.789062 21.828125 -23.0625 Z M 35.015625 -38.6875 L 30.75 -38.6875 C 30.445312 -37.875 30.125 -37.078125 29.78125 -36.296875 C 29.4375 -35.523438 29.09375 -34.75 28.75 -33.96875 L 36.953125 -33.96875 C 36.609375 -34.75 36.273438 -35.523438 35.953125 -36.296875 C 35.628906 -37.078125 35.316406 -37.875 35.015625 -38.6875 Z M 61.046875 -27.453125 L 49.796875 -27.453125 C 51.566406 -25.554688 53.515625 -23.84375 55.640625 -22.3125 C 57.773438 -20.789062 60.070312 -19.53125 62.53125 -18.53125 C 61.707031 -17.757812 60.800781 -16.738281 59.8125 -15.46875 C 58.820312 -14.195312 58.023438 -13.066406 57.421875 -12.078125 C 52.816406 -14.273438 48.832031 -17.222656 45.46875 -20.921875 L 45.46875 -6.90625 L 22.40625 -6.90625 L 22.40625 -3.875 C 22.40625 -3.226562 22.554688 -2.734375 22.859375 -2.390625 C 23.160156 -2.046875 23.742188 -1.816406 24.609375 -1.703125 C 25.472656 -1.597656 26.765625 -1.546875 28.484375 -1.546875 L 43.671875 -1.546875 C 45.085938 -1.546875 46.148438 -1.707031 46.859375 -2.03125 C 47.566406 -2.351562 48.0625 -3.03125 48.34375 -4.0625 C 48.625 -5.101562 48.832031 -6.675781 48.96875 -8.78125 C 49.820312 -8.175781 50.957031 -7.625 52.375 -7.125 C 53.800781 -6.632812 55.03125 -6.285156 56.0625 -6.078125 C 55.71875 -3.015625 55.144531 -0.65625 54.34375 1 C 53.550781 2.65625 52.359375 3.785156 50.765625 4.390625 C 49.171875 4.992188 46.957031 5.296875 44.125 5.296875 L 28.09375 5.296875 C 24.65625 5.296875 21.96875 5.035156 20.03125 4.515625 C 18.09375 4.003906 16.734375 3.09375 15.953125 1.78125 C 15.179688 0.46875 14.796875 -1.351562 14.796875 -3.6875 L 14.796875 -12.859375 L 37.78125 -12.859375 L 37.78125 -17.125 L 17.375 -17.125 L 17.375 -18.34375 C 15.863281 -16.925781 14.210938 -15.554688 12.421875 -14.234375 C 10.640625 -12.921875 8.738281 -11.707031 6.71875 -10.59375 C 6.238281 -11.582031 5.492188 -12.664062 4.484375 -13.84375 C 3.472656 -15.03125 2.515625 -15.90625 1.609375 -16.46875 C 4.535156 -17.976562 7.171875 -19.65625 9.515625 -21.5 C 11.867188 -23.351562 13.953125 -25.335938 15.765625 -27.453125 L 3.421875 -27.453125 L 3.421875 -33.96875 L 20.28125 -33.96875 C 21.144531 -35.4375 21.941406 -37.007812 22.671875 -38.6875 L 7.421875 -38.6875 L 7.421875 -45.09375 L 14.203125 -45.09375 C 13.773438 -46.164062 13.25 -47.316406 12.625 -48.546875 C 12 -49.773438 11.34375 -50.882812 10.65625 -51.875 L 17.3125 -54.125 C 18.257812 -52.875 19.160156 -51.472656 20.015625 -49.921875 C 20.878906 -48.378906 21.460938 -47.023438 21.765625 -45.859375 L 19.703125 -45.09375 L 24.875 -45.09375 C 25.34375 -46.675781 25.71875 -48.273438 26 -49.890625 C 26.28125 -51.515625 26.503906 -53.125 26.671875 -54.71875 L 34.5625 -54.0625 C 34.34375 -52.550781 34.082031 -51.050781 33.78125 -49.5625 C 33.476562 -48.082031 33.132812 -46.59375 32.75 -45.09375 L 41.46875 -45.09375 C 42.113281 -46.46875 42.8125 -48.003906 43.5625 -49.703125 C 44.320312 -51.398438 44.914062 -52.941406 45.34375 -54.328125 L 53.421875 -52.125 C 51.867188 -49.539062 50.445312 -47.195312 49.15625 -45.09375 L 57.296875 -45.09375 L 57.296875 -38.6875 L 42.4375 -38.6875 C 43.164062 -37.050781 43.984375 -35.476562 44.890625 -33.96875 L 61.046875 -33.96875 Z M 61.046875 -27.453125 "/></g></g></g><g fill="#00a0e9" fill-opacity="1"><g transform="translate(64.920086, 136.276714)"><g><path d="M 12.34375 -18.15625 L 20.28125 -17.4375 C 19.851562 -16.488281 19.488281 -15.410156 19.1875 -14.203125 C 18.882812 -13.003906 18.734375 -12.015625 18.734375 -11.234375 C 18.734375 -9.253906 19.550781 -7.640625 21.1875 -6.390625 C 22.820312 -5.140625 25.726562 -4.515625 29.90625 -4.515625 C 32.96875 -4.515625 35.992188 -4.644531 38.984375 -4.90625 C 41.972656 -5.164062 44.585938 -5.507812 46.828125 -5.9375 L 46.578125 2.265625 C 44.804688 2.566406 42.410156 2.84375 39.390625 3.09375 C 36.378906 3.351562 33.28125 3.484375 30.09375 3.484375 C 24.113281 3.484375 19.398438 2.4375 15.953125 0.34375 C 12.503906 -1.738281 10.78125 -5 10.78125 -9.4375 C 10.78125 -10.894531 10.953125 -12.410156 11.296875 -13.984375 C 11.648438 -15.554688 12 -16.945312 12.34375 -18.15625 Z M 54.578125 -36.6875 L 56.125 -29.453125 C 54.789062 -28.984375 53.285156 -28.53125 51.609375 -28.09375 C 49.929688 -27.664062 48.144531 -27.257812 46.25 -26.875 C 47.0625 -25.144531 47.910156 -23.375 48.796875 -21.5625 C 49.679688 -19.757812 50.597656 -17.976562 51.546875 -16.21875 L 47.734375 -11.375 C 46.566406 -11.582031 45.164062 -11.816406 43.53125 -12.078125 C 41.894531 -12.335938 40.21875 -12.59375 38.5 -12.84375 C 36.78125 -13.101562 35.207031 -13.320312 33.78125 -13.5 L 34.5 -19.640625 C 35.738281 -19.460938 36.960938 -19.320312 38.171875 -19.21875 C 39.378906 -19.113281 40.414062 -19.015625 41.28125 -18.921875 L 38.375 -25.578125 C 34.363281 -25.148438 29.890625 -24.890625 24.953125 -24.796875 C 20.023438 -24.710938 15.128906 -24.84375 10.265625 -25.1875 L 9.953125 -32.5625 C 14.734375 -32.125 19.273438 -31.894531 23.578125 -31.875 C 27.878906 -31.851562 31.84375 -32.035156 35.46875 -32.421875 L 34.359375 -34.9375 L 32.8125 -38.5625 C 29.664062 -38.300781 26.175781 -38.179688 22.34375 -38.203125 C 18.507812 -38.222656 14.65625 -38.429688 10.78125 -38.828125 L 10.40625 -46.125 C 14.0625 -45.726562 17.492188 -45.46875 20.703125 -45.34375 C 23.910156 -45.21875 26.9375 -45.238281 29.78125 -45.40625 L 29.78125 -45.46875 C 29.21875 -46.632812 28.695312 -47.625 28.21875 -48.4375 C 27.75 -49.257812 27.234375 -50.101562 26.671875 -50.96875 L 35.78125 -52.703125 C 36 -51.753906 36.28125 -50.734375 36.625 -49.640625 C 36.96875 -48.546875 37.351562 -47.4375 37.78125 -46.3125 C 39.9375 -46.65625 42.046875 -47.070312 44.109375 -47.5625 C 46.179688 -48.0625 48.164062 -48.632812 50.0625 -49.28125 L 51.421875 -42.109375 C 49.785156 -41.640625 48.070312 -41.175781 46.28125 -40.71875 C 44.488281 -40.269531 42.539062 -39.875 40.4375 -39.53125 L 41.65625 -36.75 L 43.15625 -33.53125 C 45.601562 -34 47.765625 -34.5 49.640625 -35.03125 C 51.515625 -35.570312 53.160156 -36.125 54.578125 -36.6875 Z M 54.578125 -36.6875 "/></g></g></g><g fill="#00a0e9" fill-opacity="1"><g transform="translate(129.509002, 136.276714)"><g><path d="M 61.5625 -23.453125 L 46.0625 -23.453125 C 47.476562 -20.429688 49.488281 -17.863281 52.09375 -15.75 C 54.695312 -13.644531 57.914062 -12.097656 61.75 -11.109375 C 60.9375 -10.378906 60.054688 -9.367188 59.109375 -8.078125 C 58.160156 -6.785156 57.425781 -5.644531 56.90625 -4.65625 C 53.25 -5.90625 50.148438 -7.644531 47.609375 -9.875 C 45.066406 -12.113281 42.976562 -14.804688 41.34375 -17.953125 C 40.050781 -15.546875 38.164062 -13.203125 35.6875 -10.921875 C 33.207031 -8.640625 29.859375 -6.59375 25.640625 -4.78125 C 25.171875 -5.59375 24.414062 -6.554688 23.375 -7.671875 C 22.34375 -8.796875 21.398438 -9.679688 20.546875 -10.328125 C 23.816406 -11.535156 26.460938 -12.859375 28.484375 -14.296875 C 30.503906 -15.742188 32.0625 -17.242188 33.15625 -18.796875 C 34.257812 -20.347656 35.050781 -21.898438 35.53125 -23.453125 L 20.546875 -23.453125 L 20.546875 -30.359375 L 36.359375 -30.359375 L 36.359375 -36.5625 L 22.734375 -36.5625 L 22.734375 -43.34375 L 29.203125 -43.34375 C 28.679688 -44.632812 28 -46.054688 27.15625 -47.609375 C 26.320312 -49.160156 25.410156 -50.601562 24.421875 -51.9375 L 30.9375 -54.640625 C 32.144531 -53.179688 33.273438 -51.535156 34.328125 -49.703125 C 35.390625 -47.867188 36.132812 -46.242188 36.5625 -44.828125 L 33.140625 -43.34375 L 47.546875 -43.34375 L 44.25 -44.5 C 45.195312 -45.925781 46.175781 -47.597656 47.1875 -49.515625 C 48.195312 -51.429688 49.003906 -53.164062 49.609375 -54.71875 L 57.484375 -52.328125 C 56.453125 -50.679688 55.40625 -49.082031 54.34375 -47.53125 C 53.289062 -45.988281 52.296875 -44.59375 51.359375 -43.34375 L 59.421875 -43.34375 L 59.421875 -36.5625 L 44.046875 -36.5625 L 44.046875 -30.359375 L 61.5625 -30.359375 Z M 19.578125 -43.46875 L 13.5 -38.375 C 12.851562 -39.40625 11.945312 -40.53125 10.78125 -41.75 C 9.625 -42.976562 8.375 -44.1875 7.03125 -45.375 C 5.695312 -46.5625 4.382812 -47.628906 3.09375 -48.578125 L 8.78125 -53.21875 C 10.070312 -52.320312 11.40625 -51.3125 12.78125 -50.1875 C 14.164062 -49.070312 15.457031 -47.929688 16.65625 -46.765625 C 17.863281 -45.597656 18.835938 -44.5 19.578125 -43.46875 Z M 17.953125 -29.65625 L 17.953125 -9.359375 C 19.285156 -7.210938 21.144531 -5.65625 23.53125 -4.6875 C 25.925781 -3.71875 28.804688 -3.164062 32.171875 -3.03125 C 34.066406 -2.945312 36.316406 -2.894531 38.921875 -2.875 C 41.523438 -2.851562 44.257812 -2.863281 47.125 -2.90625 C 49.988281 -2.945312 52.785156 -3.019531 55.515625 -3.125 C 58.253906 -3.238281 60.695312 -3.378906 62.84375 -3.546875 C 62.59375 -2.941406 62.304688 -2.175781 61.984375 -1.25 C 61.660156 -0.332031 61.359375 0.617188 61.078125 1.609375 C 60.796875 2.597656 60.585938 3.460938 60.453125 4.203125 C 58.515625 4.285156 56.316406 4.359375 53.859375 4.421875 C 51.410156 4.484375 48.875 4.523438 46.25 4.546875 C 43.625 4.578125 41.082031 4.578125 38.625 4.546875 C 36.164062 4.523438 33.96875 4.472656 32.03125 4.390625 C 28.070312 4.222656 24.703125 3.609375 21.921875 2.546875 C 19.148438 1.492188 16.707031 -0.28125 14.59375 -2.78125 C 13.175781 -1.53125 11.722656 -0.269531 10.234375 1 C 8.753906 2.269531 7.128906 3.59375 5.359375 4.96875 L 1.609375 -3.03125 C 2.992188 -3.851562 4.457031 -4.78125 6 -5.8125 C 7.550781 -6.84375 9.039062 -7.898438 10.46875 -8.984375 L 10.46875 -22.609375 L 3.03125 -22.609375 L 3.03125 -29.65625 Z M 17.953125 -29.65625 "/></g></g></g><g fill="#00a0e9" fill-opacity="1"><g transform="translate(194.097918, 136.276714)"><g><path d="M 14.65625 -52.0625 L 23.453125 -51.671875 C 23.148438 -50.640625 22.828125 -49.304688 22.484375 -47.671875 C 22.140625 -46.035156 21.816406 -44.382812 21.515625 -42.71875 C 21.210938 -41.0625 20.992188 -39.632812 20.859375 -38.4375 C 21.890625 -40.070312 23.171875 -41.6875 24.703125 -43.28125 C 26.234375 -44.875 28.007812 -46.1875 30.03125 -47.21875 C 32.0625 -48.25 34.28125 -48.765625 36.6875 -48.765625 C 39.65625 -48.765625 42.332031 -47.835938 44.71875 -45.984375 C 47.113281 -44.140625 49.007812 -41.515625 50.40625 -38.109375 C 51.8125 -34.703125 52.515625 -30.65625 52.515625 -25.96875 C 52.515625 -19.9375 51.347656 -14.894531 49.015625 -10.84375 C 46.691406 -6.800781 43.429688 -3.59375 39.234375 -1.21875 C 35.035156 1.144531 30.117188 2.84375 24.484375 3.875 L 19.640625 -3.546875 C 23.210938 -4.109375 26.472656 -4.863281 29.421875 -5.8125 C 32.367188 -6.757812 34.90625 -8.0625 37.03125 -9.71875 C 39.164062 -11.375 40.828125 -13.515625 42.015625 -16.140625 C 43.203125 -18.773438 43.796875 -22.03125 43.796875 -25.90625 C 43.796875 -30.851562 43.03125 -34.648438 41.5 -37.296875 C 39.96875 -39.953125 37.867188 -41.28125 35.203125 -41.28125 C 33.304688 -41.28125 31.507812 -40.65625 29.8125 -39.40625 C 28.113281 -38.15625 26.59375 -36.523438 25.25 -34.515625 C 23.914062 -32.515625 22.847656 -30.375 22.046875 -28.09375 C 21.253906 -25.8125 20.816406 -23.617188 20.734375 -21.515625 C 20.691406 -20.648438 20.691406 -19.675781 20.734375 -18.59375 C 20.773438 -17.519531 20.882812 -16.234375 21.0625 -14.734375 L 13.109375 -14.203125 C 12.941406 -15.453125 12.769531 -17.015625 12.59375 -18.890625 C 12.425781 -20.765625 12.34375 -22.757812 12.34375 -24.875 C 12.34375 -27.84375 12.523438 -31.175781 12.890625 -34.875 C 13.253906 -38.582031 13.671875 -42.070312 14.140625 -45.34375 C 14.316406 -46.507812 14.4375 -47.691406 14.5 -48.890625 C 14.5625 -50.097656 14.613281 -51.15625 14.65625 -52.0625 Z M 14.65625 -52.0625 "/></g></g></g></g></g></svg>