<svg xmlns="http://www.w3.org/2000/svg" xmlns:xlink="http://www.w3.org/1999/xlink" width="500" zoomAndPan="magnify" viewBox="0 0 375 374.999991" height="500" preserveAspectRatio="xMidYMid meet" version="1.0"><defs><g/><clipPath id="f923abeb77"><path d="M 37.5 37.5 L 337.5 37.5 L 337.5 337.5 L 37.5 337.5 Z M 37.5 37.5 " clip-rule="nonzero"/></clipPath><clipPath id="7c06e3689e"><path d="M 0.5 0.5 L 300.5 0.5 L 300.5 300.5 L 0.5 300.5 Z M 0.5 0.5 " clip-rule="nonzero"/></clipPath><clipPath id="626f6a25e7"><rect x="0" width="301" y="0" height="301"/></clipPath><clipPath id="00b66efedf"><path d="M 59.691406 116.726562 L 315.441406 116.726562 L 315.441406 258.476562 L 59.691406 258.476562 Z M 59.691406 116.726562 " clip-rule="nonzero"/></clipPath><clipPath id="a72f042ec2"><path d="M 0.691406 0.726562 L 115 0.726562 L 115 142.476562 L 0.691406 142.476562 Z M 0.691406 0.726562 " clip-rule="nonzero"/></clipPath><clipPath id="27157492ba"><path d="M 114 0.726562 L 256.300781 0.726562 L 256.300781 142.476562 L 114 142.476562 Z M 114 0.726562 " clip-rule="nonzero"/></clipPath><clipPath id="9ea7fe668f"><rect x="0" width="257" y="0" height="143"/></clipPath></defs><rect x="-37.5" width="450" fill="#ffffff" y="-37.499999" height="449.999989" fill-opacity="1"/><rect x="-37.5" width="450" fill="#ffffff" y="-37.499999" height="449.999989" fill-opacity="1"/><path fill="#f2f2f2" d="M 55.148438 5.515625 L 319.851562 5.515625 C 321.476562 5.515625 323.101562 5.59375 324.71875 5.753906 C 326.335938 5.914062 327.941406 6.152344 329.535156 6.46875 C 331.128906 6.785156 332.703125 7.179688 334.261719 7.652344 C 335.816406 8.125 337.34375 8.671875 338.847656 9.292969 C 340.347656 9.914062 341.816406 10.609375 343.25 11.375 C 344.683594 12.140625 346.074219 12.976562 347.425781 13.878906 C 348.777344 14.78125 350.082031 15.75 351.339844 16.78125 C 352.597656 17.8125 353.800781 18.902344 354.949219 20.050781 C 356.097656 21.199219 357.1875 22.402344 358.21875 23.660156 C 359.25 24.917969 360.21875 26.222656 361.121094 27.574219 C 362.023438 28.925781 362.859375 30.316406 363.625 31.75 C 364.390625 33.183594 365.085938 34.652344 365.707031 36.152344 C 366.328125 37.65625 366.875 39.183594 367.347656 40.738281 C 367.820312 42.296875 368.214844 43.871094 368.53125 45.464844 C 368.847656 47.058594 369.085938 48.664062 369.246094 50.28125 C 369.40625 51.898438 369.484375 53.523438 369.484375 55.148438 L 369.484375 319.851562 C 369.484375 321.476562 369.40625 323.101562 369.246094 324.71875 C 369.085938 326.335938 368.847656 327.941406 368.53125 329.535156 C 368.214844 331.128906 367.820312 332.703125 367.347656 334.261719 C 366.875 335.816406 366.328125 337.34375 365.707031 338.847656 C 365.085938 340.347656 364.390625 341.816406 363.625 343.25 C 362.859375 344.683594 362.023438 346.074219 361.121094 347.425781 C 360.21875 348.777344 359.25 350.082031 358.21875 351.339844 C 357.1875 352.597656 356.097656 353.800781 354.949219 354.949219 C 353.800781 356.097656 352.597656 357.1875 351.339844 358.21875 C 350.082031 359.25 348.777344 360.21875 347.425781 361.121094 C 346.074219 362.023438 344.683594 362.859375 343.25 363.625 C 341.816406 364.390625 340.347656 365.085938 338.847656 365.707031 C 337.34375 366.328125 335.816406 366.875 334.261719 367.347656 C 332.703125 367.820312 331.128906 368.214844 329.535156 368.53125 C 327.941406 368.847656 326.335938 369.085938 324.71875 369.246094 C 323.101562 369.40625 321.476562 369.484375 319.851562 369.484375 L 55.148438 369.484375 C 53.523438 369.484375 51.898438 369.40625 50.28125 369.246094 C 48.664062 369.085938 47.058594 368.847656 45.464844 368.53125 C 43.871094 368.214844 42.296875 367.820312 40.738281 367.347656 C 39.183594 366.875 37.65625 366.328125 36.152344 365.707031 C 34.652344 365.085938 33.183594 364.390625 31.75 363.625 C 30.316406 362.859375 28.925781 362.023438 27.574219 361.121094 C 26.222656 360.21875 24.917969 359.25 23.660156 358.21875 C 22.402344 357.1875 21.199219 356.097656 20.050781 354.949219 C 18.902344 353.800781 17.8125 352.597656 16.78125 351.339844 C 15.75 350.082031 14.78125 348.777344 13.878906 347.425781 C 12.976562 346.074219 12.140625 344.683594 11.375 343.25 C 10.609375 341.816406 9.914062 340.347656 9.292969 338.847656 C 8.671875 337.34375 8.125 335.816406 7.652344 334.261719 C 7.179688 332.703125 6.785156 331.128906 6.46875 329.535156 C 6.152344 327.941406 5.914062 326.335938 5.753906 324.71875 C 5.59375 323.101562 5.515625 321.476562 5.515625 319.851562 L 5.515625 55.148438 C 5.515625 53.523438 5.59375 51.898438 5.753906 50.28125 C 5.914062 48.664062 6.152344 47.058594 6.46875 45.464844 C 6.785156 43.871094 7.179688 42.296875 7.652344 40.738281 C 8.125 39.183594 8.671875 37.65625 9.292969 36.152344 C 9.914062 34.652344 10.609375 33.183594 11.375 31.75 C 12.140625 30.316406 12.976562 28.925781 13.878906 27.574219 C 14.78125 26.222656 15.75 24.917969 16.78125 23.660156 C 17.8125 22.402344 18.902344 21.199219 20.050781 20.050781 C 21.199219 18.902344 22.402344 17.8125 23.660156 16.78125 C 24.917969 15.75 26.222656 14.78125 27.574219 13.878906 C 28.925781 12.976562 30.316406 12.140625 31.75 11.375 C 33.183594 10.609375 34.652344 9.914062 36.152344 9.292969 C 37.65625 8.671875 39.183594 8.125 40.738281 7.652344 C 42.296875 7.179688 43.871094 6.785156 45.464844 6.46875 C 47.058594 6.152344 48.664062 5.914062 50.28125 5.753906 C 51.898438 5.59375 53.523438 5.515625 55.148438 5.515625 Z M 55.148438 5.515625 " fill-opacity="1" fill-rule="nonzero"/><path fill="#969696" d="M 319.851562 11.03125 C 321.296875 11.03125 322.738281 11.101562 324.175781 11.242188 C 325.613281 11.382812 327.042969 11.59375 328.460938 11.878906 C 329.878906 12.160156 331.277344 12.507812 332.660156 12.929688 C 334.042969 13.347656 335.402344 13.835938 336.734375 14.386719 C 338.070312 14.941406 339.375 15.558594 340.648438 16.238281 C 341.925781 16.917969 343.160156 17.660156 344.363281 18.464844 C 345.566406 19.265625 346.722656 20.128906 347.839844 21.042969 C 348.957031 21.960938 350.027344 22.929688 351.046875 23.949219 C 352.070312 24.972656 353.039062 26.042969 353.957031 27.160156 C 354.871094 28.277344 355.734375 29.433594 356.535156 30.636719 C 357.339844 31.839844 358.078125 33.074219 358.761719 34.351562 C 359.441406 35.625 360.058594 36.929688 360.613281 38.265625 C 361.164062 39.597656 361.652344 40.957031 362.070312 42.339844 C 362.492188 43.722656 362.839844 45.121094 363.121094 46.539062 C 363.40625 47.957031 363.617188 49.386719 363.757812 50.824219 C 363.898438 52.261719 363.96875 53.703125 363.96875 55.148438 L 363.96875 319.851562 C 363.96875 321.296875 363.898438 322.738281 363.757812 324.175781 C 363.617188 325.613281 363.40625 327.042969 363.121094 328.460938 C 362.839844 329.878906 362.492188 331.277344 362.070312 332.660156 C 361.652344 334.042969 361.164062 335.402344 360.613281 336.734375 C 360.058594 338.070312 359.441406 339.375 358.761719 340.648438 C 358.078125 341.925781 357.339844 343.160156 356.535156 344.363281 C 355.734375 345.566406 354.871094 346.722656 353.957031 347.839844 C 353.039062 348.957031 352.070312 350.027344 351.046875 351.046875 C 350.027344 352.070312 348.957031 353.039062 347.839844 353.957031 C 346.722656 354.871094 345.566406 355.734375 344.363281 356.535156 C 343.160156 357.339844 341.925781 358.078125 340.648438 358.761719 C 339.375 359.441406 338.070312 360.058594 336.734375 360.613281 C 335.402344 361.164062 334.042969 361.652344 332.660156 362.070312 C 331.277344 362.492188 329.878906 362.839844 328.460938 363.121094 C 327.042969 363.40625 325.613281 363.617188 324.175781 363.757812 C 322.738281 363.898438 321.296875 363.96875 319.851562 363.96875 L 55.148438 363.96875 C 53.703125 363.96875 52.261719 363.898438 50.824219 363.757812 C 49.386719 363.617188 47.957031 363.40625 46.539062 363.121094 C 45.121094 362.839844 43.722656 362.492188 42.339844 362.070312 C 40.957031 361.652344 39.597656 361.164062 38.265625 360.613281 C 36.929688 360.058594 35.625 359.441406 34.351562 358.761719 C 33.074219 358.078125 31.839844 357.339844 30.636719 356.535156 C 29.433594 355.734375 28.277344 354.871094 27.160156 353.957031 C 26.042969 353.039062 24.972656 352.070312 23.953125 351.046875 C 22.929688 350.027344 21.960938 348.957031 21.042969 347.839844 C 20.128906 346.722656 19.265625 345.566406 18.464844 344.363281 C 17.660156 343.160156 16.917969 341.925781 16.238281 340.648438 C 15.558594 339.375 14.941406 338.070312 14.386719 336.734375 C 13.835938 335.402344 13.347656 334.042969 12.929688 332.660156 C 12.507812 331.277344 12.160156 329.878906 11.878906 328.460938 C 11.59375 327.042969 11.382812 325.613281 11.242188 324.175781 C 11.101562 322.738281 11.03125 321.296875 11.03125 319.851562 L 11.03125 55.148438 C 11.03125 53.703125 11.101562 52.261719 11.242188 50.824219 C 11.382812 49.386719 11.59375 47.957031 11.878906 46.539062 C 12.160156 45.121094 12.507812 43.722656 12.929688 42.339844 C 13.347656 40.957031 13.835938 39.597656 14.386719 38.265625 C 14.941406 36.929688 15.558594 35.625 16.238281 34.351562 C 16.917969 33.074219 17.660156 31.839844 18.464844 30.636719 C 19.265625 29.433594 20.128906 28.277344 21.042969 27.160156 C 21.960938 26.042969 22.929688 24.972656 23.953125 23.949219 C 24.972656 22.929688 26.042969 21.960938 27.160156 21.042969 C 28.277344 20.128906 29.433594 19.265625 30.636719 18.464844 C 31.839844 17.660156 33.074219 16.917969 34.351562 16.238281 C 35.625 15.558594 36.929688 14.941406 38.265625 14.386719 C 39.597656 13.835938 40.957031 13.347656 42.339844 12.929688 C 43.722656 12.507812 45.121094 12.160156 46.539062 11.878906 C 47.957031 11.59375 49.386719 11.382812 50.824219 11.242188 C 52.261719 11.101562 53.703125 11.03125 55.148438 11.03125 L 319.851562 11.03125 M 319.851562 0 L 55.148438 0 C 53.339844 0 51.539062 0.0898438 49.742188 0.265625 C 47.945312 0.441406 46.160156 0.707031 44.386719 1.058594 C 42.617188 1.410156 40.867188 1.851562 39.140625 2.375 C 37.410156 2.898438 35.710938 3.507812 34.042969 4.199219 C 32.375 4.890625 30.742188 5.660156 29.152344 6.511719 C 27.558594 7.363281 26.011719 8.289062 24.507812 9.292969 C 23.007812 10.296875 21.558594 11.371094 20.164062 12.519531 C 18.765625 13.664062 17.429688 14.875 16.152344 16.152344 C 14.875 17.429688 13.664062 18.765625 12.519531 20.164062 C 11.371094 21.558594 10.296875 23.007812 9.292969 24.507812 C 8.289062 26.011719 7.363281 27.558594 6.511719 29.152344 C 5.660156 30.742188 4.890625 32.375 4.199219 34.042969 C 3.507812 35.710938 2.898438 37.410156 2.375 39.140625 C 1.851562 40.867188 1.410156 42.617188 1.058594 44.386719 C 0.707031 46.160156 0.441406 47.945312 0.265625 49.742188 C 0.0898438 51.539062 0 53.339844 0 55.148438 L 0 319.851562 C 0 321.660156 0.0898438 323.460938 0.265625 325.257812 C 0.441406 327.054688 0.707031 328.839844 1.058594 330.613281 C 1.410156 332.382812 1.851562 334.132812 2.375 335.859375 C 2.898438 337.589844 3.507812 339.289062 4.199219 340.957031 C 4.890625 342.625 5.660156 344.257812 6.511719 345.847656 C 7.363281 347.441406 8.289062 348.988281 9.292969 350.492188 C 10.296875 351.992188 11.371094 353.441406 12.519531 354.835938 C 13.664062 356.234375 14.875 357.570312 16.152344 358.847656 C 17.429688 360.125 18.765625 361.335938 20.164062 362.480469 C 21.558594 363.628906 23.007812 364.703125 24.507812 365.707031 C 26.011719 366.710938 27.558594 367.636719 29.152344 368.488281 C 30.742188 369.339844 32.375 370.109375 34.042969 370.800781 C 35.710938 371.492188 37.410156 372.101562 39.140625 372.625 C 40.867188 373.148438 42.617188 373.589844 44.386719 373.941406 C 46.160156 374.292969 47.945312 374.558594 49.742188 374.734375 C 51.539062 374.910156 53.339844 375 55.148438 375 L 319.851562 375 C 321.660156 375 323.460938 374.910156 325.257812 374.734375 C 327.054688 374.558594 328.839844 374.292969 330.613281 373.941406 C 332.382812 373.589844 334.132812 373.148438 335.859375 372.625 C 337.589844 372.101562 339.289062 371.492188 340.957031 370.800781 C 342.625 370.109375 344.257812 369.339844 345.847656 368.488281 C 347.441406 367.636719 348.988281 366.710938 350.492188 365.707031 C 351.992188 364.703125 353.441406 363.628906 354.835938 362.480469 C 356.234375 361.335938 357.570312 360.125 358.847656 358.847656 C 360.125 357.570312 361.335938 356.234375 362.480469 354.835938 C 363.628906 353.441406 364.703125 351.992188 365.707031 350.492188 C 366.710938 348.988281 367.636719 347.441406 368.488281 345.847656 C 369.339844 344.257812 370.109375 342.625 370.800781 340.957031 C 371.492188 339.289062 372.101562 337.589844 372.625 335.859375 C 373.148438 334.132812 373.589844 332.382812 373.941406 330.613281 C 374.292969 328.839844 374.558594 327.054688 374.734375 325.257812 C 374.910156 323.460938 375 321.660156 375 319.851562 L 375 55.148438 C 375 53.339844 374.910156 51.539062 374.734375 49.742188 C 374.558594 47.945312 374.292969 46.160156 373.941406 44.386719 C 373.589844 42.617188 373.148438 40.867188 372.625 39.140625 C 372.101562 37.410156 371.492188 35.710938 370.800781 34.042969 C 370.109375 32.375 369.339844 30.742188 368.488281 29.152344 C 367.636719 27.558594 366.710938 26.011719 365.707031 24.507812 C 364.703125 23.007812 363.628906 21.558594 362.480469 20.164062 C 361.335938 18.765625 360.125 17.429688 358.847656 16.152344 C 357.570312 14.875 356.234375 13.664062 354.835938 12.519531 C 353.441406 11.371094 351.992188 10.296875 350.492188 9.292969 C 348.988281 8.289062 347.441406 7.363281 345.847656 6.511719 C 344.257812 5.660156 342.625 4.890625 340.957031 4.199219 C 339.289062 3.507812 337.589844 2.898438 335.859375 2.375 C 334.132812 1.851562 332.382812 1.410156 330.613281 1.058594 C 328.839844 0.707031 327.054688 0.441406 325.257812 0.265625 C 323.460938 0.0898438 321.660156 0 319.851562 0 Z M 319.851562 0 " fill-opacity="1" fill-rule="nonzero"/><path fill="#000000" d="M 126.5625 75 L 314.0625 75 L 314.0625 120 L 126.5625 120 Z M 126.5625 75 " fill-opacity="1" fill-rule="nonzero"/><path fill="#000000" d="M 104.0625 97.5 C 104.0625 98.238281 104.027344 98.972656 103.953125 99.707031 C 103.882812 100.4375 103.773438 101.167969 103.628906 101.890625 C 103.488281 102.613281 103.308594 103.328125 103.09375 104.03125 C 102.878906 104.738281 102.632812 105.429688 102.351562 106.109375 C 102.066406 106.792969 101.753906 107.457031 101.40625 108.105469 C 101.058594 108.757812 100.679688 109.386719 100.269531 110 C 99.859375 110.613281 99.421875 111.203125 98.957031 111.773438 C 98.488281 112.34375 97.992188 112.890625 97.472656 113.410156 C 96.953125 113.929688 96.40625 114.425781 95.835938 114.894531 C 95.265625 115.359375 94.675781 115.796875 94.0625 116.207031 C 93.449219 116.617188 92.820312 116.996094 92.167969 117.34375 C 91.519531 117.691406 90.855469 118.003906 90.171875 118.289062 C 89.492188 118.570312 88.800781 118.816406 88.09375 119.03125 C 87.390625 119.246094 86.675781 119.425781 85.953125 119.566406 C 85.230469 119.710938 84.5 119.820312 83.769531 119.890625 C 83.035156 119.964844 82.300781 120 81.5625 120 C 80.824219 120 80.089844 119.964844 79.355469 119.890625 C 78.625 119.820312 77.894531 119.710938 77.171875 119.566406 C 76.449219 119.425781 75.734375 119.246094 75.03125 119.03125 C 74.324219 118.816406 73.632812 118.570312 72.953125 118.289062 C 72.269531 118.003906 71.605469 117.691406 70.957031 117.34375 C 70.304688 116.996094 69.675781 116.617188 69.0625 116.207031 C 68.449219 115.796875 67.859375 115.359375 67.289062 114.894531 C 66.71875 114.425781 66.171875 113.929688 65.652344 113.410156 C 65.132812 112.890625 64.636719 112.34375 64.167969 111.773438 C 63.703125 111.203125 63.265625 110.613281 62.855469 110 C 62.445312 109.386719 62.066406 108.757812 61.71875 108.105469 C 61.371094 107.457031 61.058594 106.792969 60.773438 106.109375 C 60.492188 105.429688 60.246094 104.738281 60.03125 104.03125 C 59.816406 103.328125 59.636719 102.613281 59.496094 101.890625 C 59.351562 101.167969 59.242188 100.4375 59.171875 99.707031 C 59.097656 98.972656 59.0625 98.238281 59.0625 97.5 C 59.0625 96.761719 59.097656 96.027344 59.171875 95.292969 C 59.242188 94.5625 59.351562 93.832031 59.496094 93.109375 C 59.636719 92.386719 59.816406 91.671875 60.03125 90.96875 C 60.246094 90.261719 60.492188 89.570312 60.773438 88.890625 C 61.058594 88.207031 61.371094 87.542969 61.71875 86.894531 C 62.066406 86.242188 62.445312 85.613281 62.855469 85 C 63.265625 84.386719 63.703125 83.796875 64.167969 83.226562 C 64.636719 82.65625 65.132812 82.109375 65.652344 81.589844 C 66.171875 81.070312 66.71875 80.574219 67.289062 80.105469 C 67.859375 79.640625 68.449219 79.203125 69.0625 78.792969 C 69.675781 78.382812 70.304688 78.003906 70.957031 77.65625 C 71.605469 77.308594 72.269531 76.996094 72.953125 76.710938 C 73.632812 76.429688 74.324219 76.183594 75.03125 75.96875 C 75.734375 75.753906 76.449219 75.574219 77.171875 75.433594 C 77.894531 75.289062 78.625 75.179688 79.355469 75.109375 C 80.089844 75.035156 80.824219 75 81.5625 75 C 82.300781 75 83.035156 75.035156 83.769531 75.109375 C 84.5 75.179688 85.230469 75.289062 85.953125 75.433594 C 86.675781 75.574219 87.390625 75.753906 88.09375 75.96875 C 88.800781 76.183594 89.492188 76.429688 90.171875 76.710938 C 90.855469 76.996094 91.519531 77.308594 92.167969 77.65625 C 92.820312 78.003906 93.449219 78.382812 94.0625 78.792969 C 94.675781 79.203125 95.265625 79.640625 95.835938 80.105469 C 96.40625 80.574219 96.953125 81.070312 97.472656 81.589844 C 97.992188 82.109375 98.488281 82.65625 98.957031 83.226562 C 99.421875 83.796875 99.859375 84.386719 100.269531 85 C 100.679688 85.613281 101.058594 86.242188 101.40625 86.894531 C 101.753906 87.542969 102.066406 88.207031 102.351562 88.890625 C 102.632812 89.570312 102.878906 90.261719 103.09375 90.96875 C 103.308594 91.671875 103.488281 92.386719 103.628906 93.109375 C 103.773438 93.832031 103.882812 94.5625 103.953125 95.292969 C 104.027344 96.027344 104.0625 96.761719 104.0625 97.5 Z M 104.0625 97.5 " fill-opacity="1" fill-rule="nonzero"/><path fill="#000000" d="M 126.5625 165 L 314.0625 165 L 314.0625 210 L 126.5625 210 Z M 126.5625 165 " fill-opacity="1" fill-rule="nonzero"/><path fill="#000000" d="M 104.0625 187.5 C 104.0625 188.238281 104.027344 188.972656 103.953125 189.707031 C 103.882812 190.4375 103.773438 191.167969 103.628906 191.890625 C 103.488281 192.613281 103.308594 193.328125 103.09375 194.03125 C 102.878906 194.738281 102.632812 195.429688 102.351562 196.109375 C 102.066406 196.792969 101.753906 197.457031 101.40625 198.105469 C 101.058594 198.757812 100.679688 199.386719 100.269531 200 C 99.859375 200.613281 99.421875 201.203125 98.957031 201.773438 C 98.488281 202.34375 97.992188 202.890625 97.472656 203.410156 C 96.953125 203.929688 96.40625 204.425781 95.835938 204.894531 C 95.265625 205.359375 94.675781 205.796875 94.0625 206.207031 C 93.449219 206.617188 92.820312 206.996094 92.167969 207.34375 C 91.519531 207.691406 90.855469 208.003906 90.171875 208.289062 C 89.492188 208.570312 88.800781 208.816406 88.09375 209.03125 C 87.390625 209.246094 86.675781 209.425781 85.953125 209.566406 C 85.230469 209.710938 84.5 209.820312 83.769531 209.890625 C 83.035156 209.964844 82.300781 210 81.5625 210 C 80.824219 210 80.089844 209.964844 79.355469 209.890625 C 78.625 209.820312 77.894531 209.710938 77.171875 209.566406 C 76.449219 209.425781 75.734375 209.246094 75.03125 209.03125 C 74.324219 208.816406 73.632812 208.570312 72.953125 208.289062 C 72.269531 208.003906 71.605469 207.691406 70.957031 207.34375 C 70.304688 206.996094 69.675781 206.617188 69.0625 206.207031 C 68.449219 205.796875 67.859375 205.359375 67.289062 204.894531 C 66.71875 204.425781 66.171875 203.929688 65.652344 203.410156 C 65.132812 202.890625 64.636719 202.34375 64.167969 201.773438 C 63.703125 201.203125 63.265625 200.613281 62.855469 200 C 62.445312 199.386719 62.066406 198.757812 61.71875 198.105469 C 61.371094 197.457031 61.058594 196.792969 60.773438 196.109375 C 60.492188 195.429688 60.246094 194.738281 60.03125 194.03125 C 59.816406 193.328125 59.636719 192.613281 59.496094 191.890625 C 59.351562 191.167969 59.242188 190.4375 59.171875 189.707031 C 59.097656 188.972656 59.0625 188.238281 59.0625 187.5 C 59.0625 186.761719 59.097656 186.027344 59.171875 185.292969 C 59.242188 184.5625 59.351562 183.832031 59.496094 183.109375 C 59.636719 182.386719 59.816406 181.671875 60.03125 180.96875 C 60.246094 180.261719 60.492188 179.570312 60.773438 178.890625 C 61.058594 178.207031 61.371094 177.542969 61.71875 176.894531 C 62.066406 176.242188 62.445312 175.613281 62.855469 175 C 63.265625 174.386719 63.703125 173.796875 64.167969 173.226562 C 64.636719 172.65625 65.132812 172.109375 65.652344 171.589844 C 66.171875 171.070312 66.71875 170.574219 67.289062 170.105469 C 67.859375 169.640625 68.449219 169.203125 69.0625 168.792969 C 69.675781 168.382812 70.304688 168.003906 70.957031 167.65625 C 71.605469 167.308594 72.269531 166.996094 72.953125 166.710938 C 73.632812 166.429688 74.324219 166.183594 75.03125 165.96875 C 75.734375 165.753906 76.449219 165.574219 77.171875 165.433594 C 77.894531 165.289062 78.625 165.179688 79.355469 165.109375 C 80.089844 165.035156 80.824219 165 81.5625 165 C 82.300781 165 83.035156 165.035156 83.769531 165.109375 C 84.5 165.179688 85.230469 165.289062 85.953125 165.433594 C 86.675781 165.574219 87.390625 165.753906 88.09375 165.96875 C 88.800781 166.183594 89.492188 166.429688 90.171875 166.710938 C 90.855469 166.996094 91.519531 167.308594 92.167969 167.65625 C 92.820312 168.003906 93.449219 168.382812 94.0625 168.792969 C 94.675781 169.203125 95.265625 169.640625 95.835938 170.105469 C 96.40625 170.574219 96.953125 171.070312 97.472656 171.589844 C 97.992188 172.109375 98.488281 172.65625 98.957031 173.226562 C 99.421875 173.796875 99.859375 174.386719 100.269531 175 C 100.679688 175.613281 101.058594 176.242188 101.40625 176.894531 C 101.753906 177.542969 102.066406 178.207031 102.351562 178.890625 C 102.632812 179.570312 102.878906 180.261719 103.09375 180.96875 C 103.308594 181.671875 103.488281 182.386719 103.628906 183.109375 C 103.773438 183.832031 103.882812 184.5625 103.953125 185.292969 C 104.027344 186.027344 104.0625 186.761719 104.0625 187.5 Z M 104.0625 187.5 " fill-opacity="1" fill-rule="nonzero"/><path fill="#000000" d="M 126.5625 255 L 314.0625 255 L 314.0625 300 L 126.5625 300 Z M 126.5625 255 " fill-opacity="1" fill-rule="nonzero"/><path fill="#000000" d="M 104.0625 277.5 C 104.0625 278.238281 104.027344 278.972656 103.953125 279.707031 C 103.882812 280.4375 103.773438 281.167969 103.628906 281.890625 C 103.488281 282.613281 103.308594 283.328125 103.09375 284.03125 C 102.878906 284.738281 102.632812 285.429688 102.351562 286.109375 C 102.066406 286.792969 101.753906 287.457031 101.40625 288.105469 C 101.058594 288.757812 100.679688 289.386719 100.269531 290 C 99.859375 290.613281 99.421875 291.203125 98.957031 291.773438 C 98.488281 292.34375 97.992188 292.890625 97.472656 293.410156 C 96.953125 293.929688 96.40625 294.425781 95.835938 294.894531 C 95.265625 295.359375 94.675781 295.796875 94.0625 296.207031 C 93.449219 296.617188 92.820312 296.996094 92.167969 297.34375 C 91.519531 297.691406 90.855469 298.003906 90.171875 298.289062 C 89.492188 298.570312 88.800781 298.816406 88.09375 299.03125 C 87.390625 299.246094 86.675781 299.425781 85.953125 299.566406 C 85.230469 299.710938 84.5 299.820312 83.769531 299.890625 C 83.035156 299.964844 82.300781 300 81.5625 300 C 80.824219 300 80.089844 299.964844 79.355469 299.890625 C 78.625 299.820312 77.894531 299.710938 77.171875 299.566406 C 76.449219 299.425781 75.734375 299.246094 75.03125 299.03125 C 74.324219 298.816406 73.632812 298.570312 72.953125 298.289062 C 72.269531 298.003906 71.605469 297.691406 70.957031 297.34375 C 70.304688 296.996094 69.675781 296.617188 69.0625 296.207031 C 68.449219 295.796875 67.859375 295.359375 67.289062 294.894531 C 66.71875 294.425781 66.171875 293.929688 65.652344 293.410156 C 65.132812 292.890625 64.636719 292.34375 64.167969 291.773438 C 63.703125 291.203125 63.265625 290.613281 62.855469 290 C 62.445312 289.386719 62.066406 288.757812 61.71875 288.105469 C 61.371094 287.457031 61.058594 286.792969 60.773438 286.109375 C 60.492188 285.429688 60.246094 284.738281 60.03125 284.03125 C 59.816406 283.328125 59.636719 282.613281 59.496094 281.890625 C 59.351562 281.167969 59.242188 280.4375 59.171875 279.707031 C 59.097656 278.972656 59.0625 278.238281 59.0625 277.5 C 59.0625 276.761719 59.097656 276.027344 59.171875 275.292969 C 59.242188 274.5625 59.351562 273.832031 59.496094 273.109375 C 59.636719 272.386719 59.816406 271.671875 60.03125 270.96875 C 60.246094 270.261719 60.492188 269.570312 60.773438 268.890625 C 61.058594 268.207031 61.371094 267.542969 61.71875 266.894531 C 62.066406 266.242188 62.445312 265.613281 62.855469 265 C 63.265625 264.386719 63.703125 263.796875 64.167969 263.226562 C 64.636719 262.65625 65.132812 262.109375 65.652344 261.589844 C 66.171875 261.070312 66.71875 260.574219 67.289062 260.105469 C 67.859375 259.640625 68.449219 259.203125 69.0625 258.792969 C 69.675781 258.382812 70.304688 258.003906 70.957031 257.65625 C 71.605469 257.308594 72.269531 256.996094 72.953125 256.710938 C 73.632812 256.429688 74.324219 256.183594 75.03125 255.96875 C 75.734375 255.753906 76.449219 255.574219 77.171875 255.433594 C 77.894531 255.289062 78.625 255.179688 79.355469 255.109375 C 80.089844 255.035156 80.824219 255 81.5625 255 C 82.300781 255 83.035156 255.035156 83.769531 255.109375 C 84.5 255.179688 85.230469 255.289062 85.953125 255.433594 C 86.675781 255.574219 87.390625 255.753906 88.09375 255.96875 C 88.800781 256.183594 89.492188 256.429688 90.171875 256.710938 C 90.855469 256.996094 91.519531 257.308594 92.167969 257.65625 C 92.820312 258.003906 93.449219 258.382812 94.0625 258.792969 C 94.675781 259.203125 95.265625 259.640625 95.835938 260.105469 C 96.40625 260.574219 96.953125 261.070312 97.472656 261.589844 C 97.992188 262.109375 98.488281 262.65625 98.957031 263.226562 C 99.421875 263.796875 99.859375 264.386719 100.269531 265 C 100.679688 265.613281 101.058594 266.242188 101.40625 266.894531 C 101.753906 267.542969 102.066406 268.207031 102.351562 268.890625 C 102.632812 269.570312 102.878906 270.261719 103.09375 270.96875 C 103.308594 271.671875 103.488281 272.386719 103.628906 273.109375 C 103.773438 273.832031 103.882812 274.5625 103.953125 275.292969 C 104.027344 276.027344 104.0625 276.761719 104.0625 277.5 Z M 104.0625 277.5 " fill-opacity="1" fill-rule="nonzero"/><g clip-path="url(#f923abeb77)"><g transform="matrix(1, 0, 0, 1, 37, 37)"><g clip-path="url(#626f6a25e7)"><g clip-path="url(#7c06e3689e)"><path fill="#f2f2f2" d="M 0.5 0.5 L 300.5 0.5 L 300.5 300.5 L 0.5 300.5 Z M 0.5 0.5 " fill-opacity="1" fill-rule="nonzero"/></g></g></g></g><g clip-path="url(#00b66efedf)"><g transform="matrix(1, 0, 0, 1, 59, 116)"><g clip-path="url(#9ea7fe668f)"><g clip-path="url(#a72f042ec2)"><path fill="#000000" d="M 114.390625 71.617188 L 0.777344 142.457031 L 0.777344 0.757812 Z M 114.390625 71.617188 " fill-opacity="1" fill-rule="nonzero"/></g><g clip-path="url(#27157492ba)"><path fill="#000000" d="M 227.953125 71.601562 L 227.953125 0.726562 L 256.070312 0.726562 L 256.070312 142.207031 L 227.953125 142.207031 L 227.953125 71.617188 L 114.390625 142.472656 L 114.390625 0.726562 Z M 227.953125 71.601562 " fill-opacity="1" fill-rule="nonzero"/></g></g></g></g><g fill="#000000" fill-opacity="1"><g transform="translate(89.147643, 87.894926)"><g><path d="M 4.265625 0 L 4.265625 -3.265625 L 12.140625 -3.265625 L 12.140625 -30.1875 L 5.953125 -30.1875 L 5.953125 -32.734375 C 8.898438 -33.242188 11.269531 -34.046875 13.0625 -35.140625 L 16.03125 -35.140625 L 16.03125 -3.265625 L 23.1875 -3.265625 L 23.1875 0 Z M 4.265625 0 "/></g></g></g><g fill="#000000" fill-opacity="1"><g transform="translate(115.499597, 87.894926)"><g><path d="M 13.203125 0.625 C 9.898438 0.625 7.273438 -0.894531 5.328125 -3.9375 C 3.378906 -6.976562 2.40625 -11.570312 2.40625 -17.71875 C 2.40625 -23.820312 3.378906 -28.351562 5.328125 -31.3125 C 7.273438 -34.28125 9.898438 -35.765625 13.203125 -35.765625 C 16.492188 -35.765625 19.097656 -34.273438 21.015625 -31.296875 C 22.941406 -28.316406 23.90625 -23.789062 23.90625 -17.71875 C 23.90625 -11.570312 22.941406 -6.976562 21.015625 -3.9375 C 19.097656 -0.894531 16.492188 0.625 13.203125 0.625 Z M 13.203125 -2.546875 C 15.273438 -2.546875 16.941406 -3.769531 18.203125 -6.21875 C 19.472656 -8.664062 20.109375 -12.5 20.109375 -17.71875 C 20.109375 -22.863281 19.472656 -26.628906 18.203125 -29.015625 C 16.941406 -31.398438 15.273438 -32.59375 13.203125 -32.59375 C 11.117188 -32.59375 9.425781 -31.398438 8.125 -29.015625 C 6.832031 -26.628906 6.1875 -22.863281 6.1875 -17.71875 C 6.1875 -12.5 6.832031 -8.664062 8.125 -6.21875 C 9.425781 -3.769531 11.117188 -2.546875 13.203125 -2.546875 Z M 13.203125 -2.546875 "/></g></g></g><g fill="#000000" fill-opacity="1"><g transform="translate(141.851551, 87.894926)"><g><path d="M 34.515625 -40.078125 L 34.515625 -14.78125 C 34.515625 -13.914062 34.394531 -13.226562 34.15625 -12.71875 C 33.914062 -12.207031 33.472656 -11.820312 32.828125 -11.5625 C 32.253906 -11.3125 31.476562 -11.144531 30.5 -11.0625 C 29.53125 -10.976562 28.210938 -10.9375 26.546875 -10.9375 C 26.484375 -11.382812 26.347656 -11.90625 26.140625 -12.5 C 25.929688 -13.09375 25.695312 -13.582031 25.4375 -13.96875 C 26.625 -13.9375 27.679688 -13.921875 28.609375 -13.921875 C 29.535156 -13.921875 30.160156 -13.9375 30.484375 -13.96875 C 31.054688 -14 31.34375 -14.285156 31.34375 -14.828125 L 31.34375 -40.078125 Z M 24.1875 -32.109375 L 27.265625 -31.625 C 26.660156 -28.75 25.875 -25.972656 24.90625 -23.296875 C 23.945312 -20.628906 22.859375 -18.351562 21.640625 -16.46875 C 21.328125 -16.6875 20.894531 -16.957031 20.34375 -17.28125 C 19.800781 -17.601562 19.320312 -17.84375 18.90625 -18 C 20.15625 -19.757812 21.21875 -21.894531 22.09375 -24.40625 C 22.976562 -26.914062 23.675781 -29.484375 24.1875 -32.109375 Z M 20.203125 -13.78125 L 18.28125 -11.28125 C 18.03125 -11.726562 17.628906 -12.300781 17.078125 -13 C 16.535156 -13.707031 15.960938 -14.453125 15.359375 -15.234375 C 14.753906 -16.023438 14.160156 -16.753906 13.578125 -17.421875 L 13.578125 3.5 L 10.5625 3.5 L 10.5625 -18.484375 C 9.570312 -15.953125 8.4375 -13.5 7.15625 -11.125 C 5.875 -8.757812 4.578125 -6.828125 3.265625 -5.328125 C 3.109375 -5.773438 2.859375 -6.269531 2.515625 -6.8125 C 2.179688 -7.351562 1.882812 -7.800781 1.625 -8.15625 C 2.65625 -9.3125 3.695312 -10.734375 4.75 -12.421875 C 5.8125 -14.117188 6.804688 -15.941406 7.734375 -17.890625 C 8.660156 -19.847656 9.441406 -21.769531 10.078125 -23.65625 L 2.546875 -23.65625 L 2.546875 -26.640625 L 10.5625 -26.640625 L 10.5625 -34.3125 C 9.34375 -34.09375 8.117188 -33.867188 6.890625 -33.640625 C 5.660156 -33.421875 4.46875 -33.21875 3.3125 -33.03125 C 3.21875 -33.375 3.070312 -33.785156 2.875 -34.265625 C 2.6875 -34.742188 2.492188 -35.160156 2.296875 -35.515625 C 4.085938 -35.835938 5.9375 -36.191406 7.84375 -36.578125 C 9.75 -36.960938 11.554688 -37.394531 13.265625 -37.875 C 14.984375 -38.351562 16.414062 -38.847656 17.5625 -39.359375 L 19.828125 -36.90625 C 18.929688 -36.5625 17.953125 -36.226562 16.890625 -35.90625 C 15.835938 -35.582031 14.734375 -35.273438 13.578125 -34.984375 L 13.578125 -26.640625 L 19.828125 -26.640625 L 19.828125 -23.65625 L 13.578125 -23.65625 L 13.578125 -20.5 C 13.929688 -20.175781 14.425781 -19.703125 15.0625 -19.078125 C 15.707031 -18.453125 16.378906 -17.785156 17.078125 -17.078125 C 17.785156 -16.378906 18.425781 -15.722656 19 -15.109375 C 19.582031 -14.503906 19.984375 -14.0625 20.203125 -13.78125 Z M 40.03125 -16.65625 L 43.109375 -15.84375 C 41.535156 -10.625 38.929688 -6.460938 35.296875 -3.359375 C 31.671875 -0.253906 26.753906 2.046875 20.546875 3.546875 C 20.421875 3.097656 20.179688 2.601562 19.828125 2.0625 C 19.472656 1.519531 19.117188 1.070312 18.765625 0.71875 C 24.679688 -0.5 29.351562 -2.515625 32.78125 -5.328125 C 36.207031 -8.140625 38.625 -11.914062 40.03125 -16.65625 Z M 37.828125 -31.53125 L 40.515625 -32.40625 C 41.410156 -30.957031 42.238281 -29.410156 43 -27.765625 C 43.769531 -26.117188 44.441406 -24.492188 45.015625 -22.890625 C 45.597656 -21.296875 46.015625 -19.859375 46.265625 -18.578125 L 43.34375 -17.609375 C 43.082031 -18.890625 42.671875 -20.332031 42.109375 -21.9375 C 41.554688 -23.539062 40.910156 -25.179688 40.171875 -26.859375 C 39.441406 -28.535156 38.660156 -30.09375 37.828125 -31.53125 Z M 37.828125 -31.53125 "/></g></g></g><g fill="#000000" fill-opacity="1"><g transform="translate(189.851468, 87.894926)"><g><path d="M 37.921875 -40.078125 L 41.140625 -39.03125 C 40.335938 -37.644531 39.472656 -36.21875 38.546875 -34.75 C 37.617188 -33.28125 36.753906 -32.035156 35.953125 -31.015625 L 33.359375 -32.015625 C 33.867188 -32.753906 34.410156 -33.59375 34.984375 -34.53125 C 35.566406 -35.476562 36.117188 -36.4375 36.640625 -37.40625 C 37.171875 -38.382812 37.597656 -39.273438 37.921875 -40.078125 Z M 18.859375 -38.828125 L 21.546875 -39.9375 C 22.503906 -38.75 23.398438 -37.441406 24.234375 -36.015625 C 25.066406 -34.597656 25.644531 -33.328125 25.96875 -32.203125 L 23.140625 -30.90625 C 22.847656 -32 22.289062 -33.296875 21.46875 -34.796875 C 20.65625 -36.304688 19.785156 -37.648438 18.859375 -38.828125 Z M 45.359375 -18.09375 L 32.828125 -18.09375 C 33.859375 -14.957031 35.40625 -12.34375 37.46875 -10.25 C 39.53125 -8.15625 42.191406 -6.625 45.453125 -5.65625 C 45.097656 -5.34375 44.726562 -4.9375 44.34375 -4.4375 C 43.96875 -3.945312 43.664062 -3.476562 43.4375 -3.03125 C 40.238281 -4.144531 37.59375 -5.773438 35.5 -7.921875 C 33.40625 -10.066406 31.78125 -12.738281 30.625 -15.9375 C 30.175781 -14.46875 29.460938 -12.976562 28.484375 -11.46875 C 27.515625 -9.96875 26.171875 -8.519531 24.453125 -7.125 C 22.742188 -5.738281 20.5625 -4.4375 17.90625 -3.21875 C 17.675781 -3.570312 17.34375 -3.976562 16.90625 -4.4375 C 16.476562 -4.90625 16.09375 -5.28125 15.75 -5.5625 C 18.59375 -6.75 20.851562 -8.035156 22.53125 -9.421875 C 24.21875 -10.816406 25.46875 -12.257812 26.28125 -13.75 C 27.09375 -15.238281 27.644531 -16.6875 27.9375 -18.09375 L 15.359375 -18.09375 L 15.359375 -20.96875 L 28.265625 -20.96875 C 28.296875 -21.257812 28.3125 -21.539062 28.3125 -21.8125 C 28.3125 -22.082031 28.3125 -22.347656 28.3125 -22.609375 L 28.3125 -28.03125 L 16.890625 -28.03125 L 16.890625 -30.90625 L 43.96875 -30.90625 L 43.96875 -28.03125 L 31.484375 -28.03125 L 31.484375 -22.609375 C 31.484375 -22.347656 31.484375 -22.082031 31.484375 -21.8125 C 31.484375 -21.539062 31.46875 -21.257812 31.4375 -20.96875 L 45.359375 -20.96875 Z M 13.875 -31.484375 L 11.375 -29.375 C 10.863281 -30.175781 10.160156 -31.03125 9.265625 -31.9375 C 8.367188 -32.851562 7.382812 -33.75 6.3125 -34.625 C 5.238281 -35.507812 4.175781 -36.304688 3.125 -37.015625 L 5.46875 -38.921875 C 6.53125 -38.253906 7.601562 -37.488281 8.6875 -36.625 C 9.769531 -35.757812 10.773438 -34.878906 11.703125 -33.984375 C 12.640625 -33.085938 13.363281 -32.253906 13.875 -31.484375 Z M 12.484375 -21.265625 L 12.484375 -5.90625 C 13.660156 -4.082031 15.296875 -2.726562 17.390625 -1.84375 C 19.492188 -0.96875 21.953125 -0.484375 24.765625 -0.390625 C 26.046875 -0.316406 27.601562 -0.269531 29.4375 -0.25 C 31.28125 -0.238281 33.21875 -0.25 35.25 -0.28125 C 37.28125 -0.320312 39.25 -0.375 41.15625 -0.4375 C 43.0625 -0.5 44.703125 -0.578125 46.078125 -0.671875 C 45.890625 -0.285156 45.679688 0.222656 45.453125 0.859375 C 45.234375 1.503906 45.09375 2.066406 45.03125 2.546875 C 43.75 2.609375 42.21875 2.65625 40.4375 2.6875 C 38.664062 2.71875 36.828125 2.738281 34.921875 2.75 C 33.015625 2.769531 31.171875 2.769531 29.390625 2.75 C 27.617188 2.738281 26.09375 2.71875 24.8125 2.6875 C 21.644531 2.5625 18.941406 2.039062 16.703125 1.125 C 14.460938 0.21875 12.578125 -1.179688 11.046875 -3.078125 C 9.890625 -2.046875 8.703125 -1.003906 7.484375 0.046875 C 6.265625 1.097656 5.003906 2.140625 3.703125 3.171875 L 1.96875 0 C 3.082031 -0.738281 4.300781 -1.625 5.625 -2.65625 C 6.957031 -3.695312 8.21875 -4.734375 9.40625 -5.765625 L 9.40625 -18.234375 L 2.546875 -18.234375 L 2.546875 -21.265625 Z M 12.484375 -21.265625 "/></g></g></g><g fill="#000000" fill-opacity="1"><g transform="translate(237.851385, 87.894926)"><g><path d="M 12.390625 -37.734375 L 16.171875 -37.578125 C 15.921875 -36.648438 15.675781 -35.578125 15.4375 -34.359375 C 15.195312 -33.148438 14.972656 -31.894531 14.765625 -30.59375 C 14.554688 -29.300781 14.378906 -28.0625 14.234375 -26.875 C 14.085938 -25.695312 13.984375 -24.675781 13.921875 -23.8125 C 14.367188 -25.09375 15.015625 -26.394531 15.859375 -27.71875 C 16.710938 -29.050781 17.707031 -30.285156 18.84375 -31.421875 C 19.976562 -32.554688 21.234375 -33.46875 22.609375 -34.15625 C 23.984375 -34.84375 25.4375 -35.1875 26.96875 -35.1875 C 29.082031 -35.1875 30.945312 -34.519531 32.5625 -33.1875 C 34.175781 -31.863281 35.441406 -29.984375 36.359375 -27.546875 C 37.273438 -25.117188 37.734375 -22.253906 37.734375 -18.953125 C 37.734375 -15.660156 37.242188 -12.8125 36.265625 -10.40625 C 35.285156 -8.007812 33.898438 -5.988281 32.109375 -4.34375 C 30.316406 -2.695312 28.203125 -1.359375 25.765625 -0.328125 C 23.335938 0.691406 20.671875 1.472656 17.765625 2.015625 L 15.75 -1.0625 C 18.300781 -1.4375 20.6875 -2.015625 22.90625 -2.796875 C 25.132812 -3.585938 27.097656 -4.671875 28.796875 -6.046875 C 30.492188 -7.421875 31.8125 -9.15625 32.75 -11.25 C 33.695312 -13.351562 34.171875 -15.890625 34.171875 -18.859375 C 34.171875 -21.390625 33.890625 -23.644531 33.328125 -25.625 C 32.773438 -27.613281 31.929688 -29.179688 30.796875 -30.328125 C 29.660156 -31.484375 28.210938 -32.0625 26.453125 -32.0625 C 24.972656 -32.0625 23.535156 -31.585938 22.140625 -30.640625 C 20.753906 -29.703125 19.492188 -28.476562 18.359375 -26.96875 C 17.222656 -25.46875 16.296875 -23.851562 15.578125 -22.125 C 14.859375 -20.394531 14.414062 -18.75 14.25 -17.1875 C 14.125 -16.226562 14.066406 -15.289062 14.078125 -14.375 C 14.097656 -13.46875 14.191406 -12.421875 14.359375 -11.234375 L 10.984375 -10.9375 C 10.859375 -11.832031 10.75 -12.921875 10.65625 -14.203125 C 10.5625 -15.484375 10.515625 -16.894531 10.515625 -18.4375 C 10.515625 -19.550781 10.5625 -20.800781 10.65625 -22.1875 C 10.75 -23.582031 10.875 -24.992188 11.03125 -26.421875 C 11.195312 -27.847656 11.367188 -29.207031 11.546875 -30.5 C 11.722656 -31.800781 11.875 -32.898438 12 -33.796875 C 12.09375 -34.523438 12.171875 -35.222656 12.234375 -35.890625 C 12.304688 -36.566406 12.359375 -37.179688 12.390625 -37.734375 Z M 12.390625 -37.734375 "/></g></g></g></svg>