<svg xmlns="http://www.w3.org/2000/svg" viewBox="0 0 68 68"><defs><style>.cls-1{fill:#f2f2f2;}.cls-2{fill:#969696;}</style></defs><g id="レイヤー_2" data-name="レイヤー 2"><g id="レイヤー_5" data-name="レイヤー 5"><rect class="cls-1" width="68" height="68" rx="10"/><path class="cls-2" d="M58,2a8,8,0,0,1,8,8V58a8,8,0,0,1-8,8H10a8,8,0,0,1-8-8V10a8,8,0,0,1,8-8H58m0-2H10A10,10,0,0,0,0,10V58A10,10,0,0,0,10,68H58A10,10,0,0,0,68,58V10A10,10,0,0,0,58,0Z"/><polyline class="cls-1" points="39.75 49.05 24.47 33.77 39.75 18.5"/><polygon points="37.98 50.82 20.94 33.77 37.98 16.73 41.52 20.26 28.01 33.77 41.52 47.28 37.98 50.82"/></g></g></svg>