<svg xmlns="http://www.w3.org/2000/svg" xmlns:xlink="http://www.w3.org/1999/xlink" width="180" zoomAndPan="magnify" viewBox="0 0 135 47.25" height="63" preserveAspectRatio="xMidYMid meet" version="1.0"><defs><g/><clipPath id="6285e3a0d3"><path d="M 1.214844 0.503906 L 133.945312 0.503906 L 133.945312 46.511719 L 1.214844 46.511719 Z M 1.214844 0.503906 " clip-rule="nonzero"/></clipPath><clipPath id="113b206930"><path d="M 8.597656 0.503906 L 126.5625 0.503906 C 128.519531 0.503906 130.398438 1.28125 131.78125 2.664062 C 133.167969 4.050781 133.945312 5.925781 133.945312 7.886719 L 133.945312 40.007812 C 133.945312 41.96875 133.167969 43.84375 131.78125 45.230469 C 130.398438 46.613281 128.519531 47.390625 126.5625 47.390625 L 8.597656 47.390625 C 6.640625 47.390625 4.761719 46.613281 3.378906 45.230469 C 1.992188 43.84375 1.214844 41.96875 1.214844 40.007812 L 1.214844 7.886719 C 1.214844 5.925781 1.992188 4.050781 3.378906 2.664062 C 4.761719 1.28125 6.640625 0.503906 8.597656 0.503906 Z M 8.597656 0.503906 " clip-rule="nonzero"/></clipPath><clipPath id="7bbdfe1472"><path d="M 0.214844 0.503906 L 132.945312 0.503906 L 132.945312 46.511719 L 0.214844 46.511719 Z M 0.214844 0.503906 " clip-rule="nonzero"/></clipPath><clipPath id="c33b211b2f"><path d="M 7.597656 0.503906 L 125.5625 0.503906 C 127.519531 0.503906 129.398438 1.28125 130.78125 2.664062 C 132.167969 4.050781 132.945312 5.925781 132.945312 7.886719 L 132.945312 40.007812 C 132.945312 41.96875 132.167969 43.84375 130.78125 45.230469 C 129.398438 46.613281 127.519531 47.390625 125.5625 47.390625 L 7.597656 47.390625 C 5.640625 47.390625 3.761719 46.613281 2.378906 45.230469 C 0.992188 43.84375 0.214844 41.96875 0.214844 40.007812 L 0.214844 7.886719 C 0.214844 5.925781 0.992188 4.050781 2.378906 2.664062 C 3.761719 1.28125 5.640625 0.503906 7.597656 0.503906 Z M 7.597656 0.503906 " clip-rule="nonzero"/></clipPath><clipPath id="db19efda1f"><rect x="0" width="133" y="0" height="47"/></clipPath></defs><g clip-path="url(#6285e3a0d3)"><g clip-path="url(#113b206930)"><g transform="matrix(1, 0, 0, 1, 1, 0.000000000000000888)"><g clip-path="url(#db19efda1f)"><g clip-path="url(#7bbdfe1472)"><g clip-path="url(#c33b211b2f)"><path fill="#ffffff" d="M 0.214844 0.503906 L 133.011719 0.503906 L 133.011719 47.390625 L 0.214844 47.390625 Z M 0.214844 0.503906 " fill-opacity="1" fill-rule="nonzero"/></g></g></g></g></g></g><g fill="#00a0e9" fill-opacity="1"><g transform="translate(29.660773, 25.111501)"><g><path d="M 15.21875 -1.59375 L 15.21875 -11.5625 L 17.40625 -11.5625 L 17.40625 1.625 L 15.21875 1.625 L 15.21875 0.53125 L 3.765625 0.53125 L 3.765625 1.65625 L 1.578125 1.65625 L 1.578125 -11.5625 L 3.765625 -11.5625 L 3.765625 -1.59375 Z M 12.03125 -7.859375 L 12.03125 -9.453125 L 10.390625 -9.453125 L 10.390625 -7.859375 Z M 12.03125 -4.546875 L 12.03125 -6.15625 L 10.390625 -6.15625 L 10.390625 -4.546875 Z M 6.796875 -6.15625 L 6.796875 -4.546875 L 8.453125 -4.546875 L 8.453125 -6.15625 Z M 6.796875 -9.453125 L 6.796875 -7.859375 L 8.453125 -7.859375 L 8.453125 -9.453125 Z M 1 -14.921875 L 17.96875 -14.921875 L 17.96875 -12.8125 L 10.53125 -12.8125 L 10.53125 -11.296875 L 13.984375 -11.296875 L 13.984375 -2.703125 L 4.96875 -2.703125 L 4.96875 -11.296875 L 8.28125 -11.296875 L 8.28125 -12.8125 L 1 -12.8125 Z M 1 -14.921875 "/></g></g></g><g fill="#00a0e9" fill-opacity="1"><g transform="translate(48.613903, 25.111501)"><g><path d="M 4.015625 -16.03125 L 6.109375 -15.40625 C 5.898438 -14.800781 5.675781 -14.1875 5.4375 -13.5625 C 5.195312 -12.945312 4.9375 -12.335938 4.65625 -11.734375 L 4.65625 1.625 L 2.515625 1.625 L 2.515625 -7.84375 C 2.128906 -7.25 1.738281 -6.734375 1.34375 -6.296875 C 1.289062 -6.472656 1.203125 -6.710938 1.078125 -7.015625 C 0.953125 -7.328125 0.816406 -7.640625 0.671875 -7.953125 C 0.523438 -8.273438 0.390625 -8.53125 0.265625 -8.71875 C 0.785156 -9.3125 1.273438 -10 1.734375 -10.78125 C 2.191406 -11.5625 2.613281 -12.398438 3 -13.296875 C 3.394531 -14.203125 3.734375 -15.113281 4.015625 -16.03125 Z M 8.359375 -10.734375 L 8.359375 -9.28125 L 10.796875 -9.28125 L 10.796875 -10.734375 Z M 12.15625 -13.265625 L 9.28125 -13.265625 C 9.15625 -13.097656 9.023438 -12.929688 8.890625 -12.765625 C 8.753906 -12.597656 8.613281 -12.429688 8.46875 -12.265625 L 11.40625 -12.265625 C 11.65625 -12.566406 11.90625 -12.898438 12.15625 -13.265625 Z M 15.515625 -9.28125 L 15.515625 -10.734375 L 12.8125 -10.734375 L 12.8125 -9.28125 Z M 11.0625 -0.5625 C 11.34375 -0.832031 11.5 -1.300781 11.53125 -1.96875 C 11.125 -1.675781 10.695312 -1.378906 10.25 -1.078125 C 9.800781 -0.785156 9.34375 -0.515625 8.875 -0.265625 C 9.125 -0.242188 9.351562 -0.222656 9.5625 -0.203125 C 9.78125 -0.191406 9.972656 -0.1875 10.140625 -0.1875 C 10.328125 -0.1875 10.492188 -0.210938 10.640625 -0.265625 C 10.796875 -0.316406 10.9375 -0.414062 11.0625 -0.5625 Z M 16.8125 -7.390625 L 18.328125 -6.046875 C 17.921875 -5.691406 17.484375 -5.332031 17.015625 -4.96875 C 16.546875 -4.613281 16.113281 -4.300781 15.71875 -4.03125 C 16.082031 -3.363281 16.5 -2.757812 16.96875 -2.21875 C 17.4375 -1.675781 17.972656 -1.226562 18.578125 -0.875 C 18.335938 -0.664062 18.078125 -0.390625 17.796875 -0.046875 C 17.515625 0.296875 17.296875 0.609375 17.140625 0.890625 C 15.867188 0.0351562 14.867188 -1.140625 14.140625 -2.640625 C 13.421875 -4.148438 12.859375 -5.859375 12.453125 -7.765625 L 12.078125 -7.765625 C 11.734375 -7.492188 11.378906 -7.238281 11.015625 -7 C 11.773438 -6.351562 12.351562 -5.640625 12.75 -4.859375 C 13.144531 -4.085938 13.382812 -3.316406 13.46875 -2.546875 C 13.5625 -1.785156 13.523438 -1.097656 13.359375 -0.484375 C 13.191406 0.117188 12.925781 0.578125 12.5625 0.890625 C 12.269531 1.171875 11.96875 1.363281 11.65625 1.46875 C 11.34375 1.570312 10.976562 1.640625 10.5625 1.671875 C 10.15625 1.671875 9.710938 1.648438 9.234375 1.609375 C 9.222656 1.359375 9.175781 1.0625 9.09375 0.71875 C 9.019531 0.375 8.90625 0.0664062 8.75 -0.203125 C 8.332031 0.0351562 7.921875 0.25 7.515625 0.4375 C 7.109375 0.632812 6.707031 0.816406 6.3125 0.984375 C 6.1875 0.742188 6.007812 0.46875 5.78125 0.15625 C 5.550781 -0.144531 5.332031 -0.398438 5.125 -0.609375 C 5.800781 -0.804688 6.503906 -1.078125 7.234375 -1.421875 C 7.972656 -1.765625 8.679688 -2.140625 9.359375 -2.546875 C 10.046875 -2.960938 10.640625 -3.382812 11.140625 -3.8125 C 11.085938 -3.925781 11.035156 -4.035156 10.984375 -4.140625 C 10.941406 -4.242188 10.890625 -4.351562 10.828125 -4.46875 C 10.171875 -4.019531 9.453125 -3.585938 8.671875 -3.171875 C 7.890625 -2.753906 7.15625 -2.40625 6.46875 -2.125 C 6.351562 -2.332031 6.195312 -2.570312 6 -2.84375 C 5.800781 -3.125 5.613281 -3.351562 5.4375 -3.53125 C 5.914062 -3.664062 6.421875 -3.84375 6.953125 -4.0625 C 7.492188 -4.28125 8.023438 -4.523438 8.546875 -4.796875 C 9.066406 -5.078125 9.535156 -5.351562 9.953125 -5.625 C 9.828125 -5.78125 9.675781 -5.929688 9.5 -6.078125 C 9.019531 -5.804688 8.53125 -5.554688 8.03125 -5.328125 C 7.53125 -5.109375 7.039062 -4.910156 6.5625 -4.734375 C 6.414062 -4.910156 6.21875 -5.15625 5.96875 -5.46875 C 5.71875 -5.789062 5.5 -6.035156 5.3125 -6.203125 C 5.976562 -6.390625 6.644531 -6.613281 7.3125 -6.875 C 7.988281 -7.144531 8.625 -7.441406 9.21875 -7.765625 L 6.328125 -7.765625 L 6.328125 -10.703125 C 6.128906 -10.898438 5.898438 -11.09375 5.640625 -11.28125 C 5.390625 -11.46875 5.160156 -11.613281 4.953125 -11.71875 C 5.847656 -12.34375 6.609375 -13.039062 7.234375 -13.8125 C 7.867188 -14.59375 8.363281 -15.332031 8.71875 -16.03125 L 10.84375 -15.65625 C 10.695312 -15.382812 10.550781 -15.128906 10.40625 -14.890625 L 13.328125 -14.890625 L 13.71875 -15.03125 L 15.046875 -14.078125 C 14.867188 -13.785156 14.671875 -13.484375 14.453125 -13.171875 C 14.242188 -12.859375 14.023438 -12.554688 13.796875 -12.265625 L 17.6875 -12.265625 L 17.6875 -7.765625 L 14.359375 -7.765625 C 14.453125 -7.410156 14.546875 -7.054688 14.640625 -6.703125 C 14.734375 -6.347656 14.84375 -6.007812 14.96875 -5.6875 C 15.300781 -5.96875 15.628906 -6.257812 15.953125 -6.5625 C 16.285156 -6.863281 16.570312 -7.140625 16.8125 -7.390625 Z M 16.8125 -7.390625 "/></g></g></g><g fill="#00a0e9" fill-opacity="1"><g transform="translate(67.567034, 25.111501)"><g><path d="M 15.921875 -6.875 L 17.796875 -5.484375 C 17.203125 -5.046875 16.578125 -4.617188 15.921875 -4.203125 C 15.265625 -3.796875 14.640625 -3.429688 14.046875 -3.109375 C 14.597656 -2.484375 15.242188 -1.941406 15.984375 -1.484375 C 16.722656 -1.035156 17.5625 -0.679688 18.5 -0.421875 C 18.257812 -0.179688 17.992188 0.132812 17.703125 0.53125 C 17.421875 0.925781 17.195312 1.28125 17.03125 1.59375 C 15.707031 1.132812 14.570312 0.515625 13.625 -0.265625 C 12.6875 -1.054688 11.898438 -2 11.265625 -3.09375 C 10.640625 -4.195312 10.117188 -5.453125 9.703125 -6.859375 C 9.347656 -6.515625 8.957031 -6.179688 8.53125 -5.859375 C 8.113281 -5.535156 7.675781 -5.234375 7.21875 -4.953125 L 7.21875 -1.421875 C 7.882812 -1.554688 8.566406 -1.695312 9.265625 -1.84375 C 9.972656 -2 10.671875 -2.15625 11.359375 -2.3125 L 11.5625 -0.265625 C 10.570312 -0.0351562 9.570312 0.191406 8.5625 0.421875 C 7.550781 0.648438 6.570312 0.859375 5.625 1.046875 C 4.6875 1.242188 3.828125 1.429688 3.046875 1.609375 L 2.390625 -0.46875 C 3.128906 -0.613281 3.988281 -0.78125 4.96875 -0.96875 L 4.96875 -3.671875 C 4.445312 -3.421875 3.921875 -3.191406 3.390625 -2.984375 C 2.859375 -2.773438 2.332031 -2.585938 1.8125 -2.421875 C 1.65625 -2.679688 1.4375 -2.992188 1.15625 -3.359375 C 0.875 -3.722656 0.613281 -4.019531 0.375 -4.25 C 1.5 -4.539062 2.632812 -4.941406 3.78125 -5.453125 C 4.9375 -5.960938 5.957031 -6.523438 6.84375 -7.140625 L 1.078125 -7.140625 L 1.078125 -9.0625 L 8.296875 -9.0625 L 8.296875 -10.125 L 2.671875 -10.125 L 2.671875 -11.921875 L 8.296875 -11.921875 L 8.296875 -12.890625 L 1.78125 -12.890625 L 1.78125 -14.796875 L 8.296875 -14.796875 L 8.296875 -16.046875 L 10.5625 -16.046875 L 10.5625 -14.796875 L 17.234375 -14.796875 L 17.234375 -12.890625 L 10.5625 -12.890625 L 10.5625 -11.921875 L 16.484375 -11.921875 L 16.484375 -10.125 L 10.5625 -10.125 L 10.5625 -9.0625 L 17.828125 -9.0625 L 17.828125 -7.140625 L 11.8125 -7.140625 C 11.957031 -6.671875 12.117188 -6.226562 12.296875 -5.8125 C 12.484375 -5.394531 12.695312 -4.992188 12.9375 -4.609375 C 13.46875 -4.960938 14 -5.335938 14.53125 -5.734375 C 15.0625 -6.140625 15.523438 -6.519531 15.921875 -6.875 Z M 15.921875 -6.875 "/></g></g></g><g fill="#00a0e9" fill-opacity="1"><g transform="translate(86.520165, 25.111501)"><g><path d="M 16.140625 -14.84375 L 16.140625 -12.609375 L 2.78125 -12.609375 L 2.78125 -14.84375 Z M 3.75 -6.65625 L 6.140625 -6.03125 C 5.859375 -5.289062 5.519531 -4.554688 5.125 -3.828125 C 4.738281 -3.097656 4.320312 -2.410156 3.875 -1.765625 C 3.4375 -1.128906 2.992188 -0.570312 2.546875 -0.09375 C 2.390625 -0.226562 2.179688 -0.378906 1.921875 -0.546875 C 1.671875 -0.722656 1.414062 -0.894531 1.15625 -1.0625 C 0.894531 -1.226562 0.660156 -1.351562 0.453125 -1.4375 C 1.140625 -2.070312 1.78125 -2.851562 2.375 -3.78125 C 2.96875 -4.71875 3.425781 -5.675781 3.75 -6.65625 Z M 17.90625 -8.03125 L 10.765625 -8.03125 L 10.765625 -1 C 10.765625 -0.375 10.679688 0.109375 10.515625 0.453125 C 10.347656 0.804688 10.046875 1.070312 9.609375 1.25 C 9.179688 1.425781 8.648438 1.535156 8.015625 1.578125 C 7.378906 1.628906 6.65625 1.65625 5.84375 1.65625 C 5.789062 1.300781 5.6875 0.894531 5.53125 0.4375 C 5.382812 -0.0195312 5.222656 -0.421875 5.046875 -0.765625 C 5.410156 -0.742188 5.78125 -0.726562 6.15625 -0.71875 C 6.539062 -0.707031 6.882812 -0.703125 7.1875 -0.703125 C 7.488281 -0.703125 7.695312 -0.703125 7.8125 -0.703125 C 8.132812 -0.703125 8.296875 -0.820312 8.296875 -1.0625 L 8.296875 -8.03125 L 1.0625 -8.03125 L 1.0625 -10.296875 L 17.90625 -10.296875 Z M 12.703125 -5.84375 L 14.828125 -6.734375 C 15.242188 -6.148438 15.660156 -5.519531 16.078125 -4.84375 C 16.492188 -4.175781 16.867188 -3.515625 17.203125 -2.859375 C 17.535156 -2.210938 17.789062 -1.617188 17.96875 -1.078125 L 15.625 -0.03125 C 15.476562 -0.550781 15.253906 -1.148438 14.953125 -1.828125 C 14.648438 -2.503906 14.300781 -3.191406 13.90625 -3.890625 C 13.507812 -4.597656 13.109375 -5.25 12.703125 -5.84375 Z M 12.703125 -5.84375 "/></g></g></g><g fill="#00a0e9" fill-opacity="1"><g transform="translate(34.955633, 39.138844)"><g><path d="M 11.234375 -8.8125 C 11.429688 -8.8125 11.601562 -8.882812 11.75 -9.03125 C 11.90625 -9.1875 11.984375 -9.363281 11.984375 -9.5625 C 11.984375 -9.769531 11.90625 -9.945312 11.75 -10.09375 C 11.601562 -10.238281 11.429688 -10.3125 11.234375 -10.3125 C 11.023438 -10.3125 10.847656 -10.238281 10.703125 -10.09375 C 10.554688 -9.945312 10.484375 -9.769531 10.484375 -9.5625 C 10.484375 -9.363281 10.554688 -9.1875 10.703125 -9.03125 C 10.847656 -8.882812 11.023438 -8.8125 11.234375 -8.8125 Z M 2.90625 -9.265625 L 8.953125 -9.265625 C 9.046875 -9.265625 9.15625 -9.269531 9.28125 -9.28125 C 9.414062 -9.289062 9.550781 -9.300781 9.6875 -9.3125 C 9.6875 -9.351562 9.679688 -9.394531 9.671875 -9.4375 C 9.671875 -9.476562 9.671875 -9.519531 9.671875 -9.5625 C 9.671875 -9.851562 9.738281 -10.117188 9.875 -10.359375 C 10.019531 -10.597656 10.207031 -10.785156 10.4375 -10.921875 C 10.675781 -11.054688 10.941406 -11.125 11.234375 -11.125 C 11.515625 -11.125 11.773438 -11.054688 12.015625 -10.921875 C 12.253906 -10.785156 12.441406 -10.597656 12.578125 -10.359375 C 12.710938 -10.117188 12.78125 -9.851562 12.78125 -9.5625 C 12.78125 -9.28125 12.710938 -9.019531 12.578125 -8.78125 C 12.441406 -8.539062 12.253906 -8.351562 12.015625 -8.21875 C 11.773438 -8.082031 11.515625 -8.015625 11.234375 -8.015625 C 11.203125 -8.015625 11.171875 -8.015625 11.140625 -8.015625 C 11.117188 -8.015625 11.09375 -8.019531 11.0625 -8.03125 L 10.953125 -7.625 C 10.859375 -7.207031 10.726562 -6.71875 10.5625 -6.15625 C 10.394531 -5.601562 10.179688 -5.039062 9.921875 -4.46875 C 9.671875 -3.894531 9.363281 -3.367188 9 -2.890625 C 8.414062 -2.097656 7.6875 -1.390625 6.8125 -0.765625 C 5.9375 -0.148438 4.914062 0.34375 3.75 0.71875 L 2.328125 -0.828125 C 3.203125 -1.035156 3.953125 -1.296875 4.578125 -1.609375 C 5.210938 -1.921875 5.757812 -2.269531 6.21875 -2.65625 C 6.6875 -3.039062 7.097656 -3.457031 7.453125 -3.90625 C 7.734375 -4.269531 7.976562 -4.664062 8.1875 -5.09375 C 8.394531 -5.519531 8.5625 -5.945312 8.6875 -6.375 C 8.820312 -6.800781 8.921875 -7.203125 8.984375 -7.578125 L 2.90625 -7.578125 C 2.613281 -7.578125 2.328125 -7.570312 2.046875 -7.5625 C 1.765625 -7.550781 1.535156 -7.539062 1.359375 -7.53125 L 1.359375 -9.375 C 1.546875 -9.34375 1.796875 -9.316406 2.109375 -9.296875 C 2.421875 -9.273438 2.6875 -9.265625 2.90625 -9.265625 Z M 2.90625 -9.265625 "/></g></g></g><g fill="#00a0e9" fill-opacity="1"><g transform="translate(48.002412, 39.138844)"><g><path d="M 2.546875 -10 L 4.46875 -10 C 4.457031 -9.863281 4.445312 -9.71875 4.4375 -9.5625 C 4.425781 -9.40625 4.421875 -9.222656 4.421875 -9.015625 L 4.421875 -4.609375 C 4.421875 -4.441406 4.425781 -4.242188 4.4375 -4.015625 C 4.445312 -3.796875 4.457031 -3.613281 4.46875 -3.46875 L 2.53125 -3.46875 C 2.539062 -3.59375 2.550781 -3.765625 2.5625 -3.984375 C 2.582031 -4.210938 2.59375 -4.425781 2.59375 -4.625 L 2.59375 -9.015625 C 2.59375 -9.140625 2.585938 -9.300781 2.578125 -9.5 C 2.566406 -9.695312 2.554688 -9.863281 2.546875 -10 Z M 8.546875 -10.125 L 10.484375 -10.125 C 10.472656 -9.9375 10.457031 -9.738281 10.4375 -9.53125 C 10.425781 -9.320312 10.421875 -9.082031 10.421875 -8.8125 L 10.421875 -6.234375 C 10.421875 -5.304688 10.363281 -4.53125 10.25 -3.90625 C 10.132812 -3.28125 9.960938 -2.753906 9.734375 -2.328125 C 9.503906 -1.910156 9.226562 -1.519531 8.90625 -1.15625 C 8.625 -0.84375 8.296875 -0.5625 7.921875 -0.3125 C 7.546875 -0.0703125 7.164062 0.132812 6.78125 0.3125 C 6.40625 0.488281 6.054688 0.628906 5.734375 0.734375 L 4.375 -0.703125 C 5.019531 -0.847656 5.613281 -1.050781 6.15625 -1.3125 C 6.695312 -1.570312 7.164062 -1.914062 7.5625 -2.34375 C 7.863281 -2.675781 8.085938 -3.019531 8.234375 -3.375 C 8.390625 -3.726562 8.492188 -4.140625 8.546875 -4.609375 C 8.597656 -5.085938 8.625 -5.664062 8.625 -6.34375 L 8.625 -8.8125 C 8.625 -9.320312 8.597656 -9.757812 8.546875 -10.125 Z M 8.546875 -10.125 "/></g></g></g><g fill="#00a0e9" fill-opacity="1"><g transform="translate(61.049192, 39.138844)"><g><path d="M 8.765625 -2.96875 L 7.328125 -3.8125 C 7.617188 -4.070312 7.898438 -4.363281 8.171875 -4.6875 C 8.441406 -5.007812 8.6875 -5.328125 8.90625 -5.640625 C 9.125 -5.953125 9.296875 -6.21875 9.421875 -6.4375 C 9.285156 -6.414062 9.015625 -6.363281 8.609375 -6.28125 C 8.210938 -6.207031 7.734375 -6.113281 7.171875 -6 C 6.609375 -5.882812 6.019531 -5.769531 5.40625 -5.65625 L 5.40625 -2.1875 C 5.40625 -1.914062 5.441406 -1.703125 5.515625 -1.546875 C 5.597656 -1.390625 5.757812 -1.273438 6 -1.203125 C 6.238281 -1.128906 6.59375 -1.09375 7.0625 -1.09375 C 7.757812 -1.09375 8.457031 -1.132812 9.15625 -1.21875 C 9.863281 -1.300781 10.539062 -1.40625 11.1875 -1.53125 L 11.125 0.234375 C 10.582031 0.316406 9.945312 0.382812 9.21875 0.4375 C 8.488281 0.488281 7.773438 0.515625 7.078125 0.515625 C 6.335938 0.515625 5.742188 0.46875 5.296875 0.375 C 4.847656 0.289062 4.503906 0.15625 4.265625 -0.03125 C 4.035156 -0.21875 3.878906 -0.453125 3.796875 -0.734375 C 3.710938 -1.015625 3.671875 -1.347656 3.671875 -1.734375 L 3.671875 -5.296875 C 3.097656 -5.179688 2.566406 -5.070312 2.078125 -4.96875 C 1.597656 -4.875 1.21875 -4.789062 0.9375 -4.71875 L 0.625 -6.4375 C 0.925781 -6.476562 1.347656 -6.539062 1.890625 -6.625 C 2.441406 -6.71875 3.035156 -6.820312 3.671875 -6.9375 L 3.671875 -8.8125 C 3.671875 -9.03125 3.660156 -9.28125 3.640625 -9.5625 C 3.628906 -9.851562 3.609375 -10.097656 3.578125 -10.296875 L 5.515625 -10.296875 C 5.484375 -10.097656 5.457031 -9.851562 5.4375 -9.5625 C 5.414062 -9.28125 5.40625 -9.03125 5.40625 -8.8125 L 5.40625 -7.265625 C 6.039062 -7.390625 6.648438 -7.503906 7.234375 -7.609375 C 7.816406 -7.722656 8.328125 -7.828125 8.765625 -7.921875 C 9.210938 -8.015625 9.53125 -8.082031 9.71875 -8.125 C 9.90625 -8.164062 10.078125 -8.210938 10.234375 -8.265625 C 10.390625 -8.316406 10.523438 -8.375 10.640625 -8.4375 L 11.90625 -7.46875 C 11.84375 -7.375 11.769531 -7.257812 11.6875 -7.125 C 11.601562 -7 11.53125 -6.878906 11.46875 -6.765625 C 11.332031 -6.492188 11.15625 -6.1875 10.9375 -5.84375 C 10.726562 -5.5 10.5 -5.148438 10.25 -4.796875 C 10.007812 -4.441406 9.757812 -4.101562 9.5 -3.78125 C 9.25 -3.457031 9.003906 -3.1875 8.765625 -2.96875 Z M 8.765625 -2.96875 "/></g></g></g><g fill="#00a0e9" fill-opacity="1"><g transform="translate(74.095971, 39.138844)"><g><path d="M 6.59375 -7.765625 C 6.65625 -7.617188 6.734375 -7.414062 6.828125 -7.15625 C 6.929688 -6.90625 7.035156 -6.632812 7.140625 -6.34375 C 7.253906 -6.050781 7.359375 -5.773438 7.453125 -5.515625 C 7.546875 -5.253906 7.613281 -5.050781 7.65625 -4.90625 L 6.09375 -4.359375 C 6.0625 -4.515625 6 -4.71875 5.90625 -4.96875 C 5.820312 -5.226562 5.726562 -5.5 5.625 -5.78125 C 5.519531 -6.070312 5.414062 -6.347656 5.3125 -6.609375 C 5.207031 -6.867188 5.113281 -7.082031 5.03125 -7.25 Z M 9.5625 -7.390625 L 11.40625 -6.8125 C 11.320312 -6.601562 11.257812 -6.421875 11.21875 -6.265625 C 11.175781 -6.117188 11.132812 -5.984375 11.09375 -5.859375 C 10.925781 -5.191406 10.695312 -4.53125 10.40625 -3.875 C 10.125 -3.21875 9.757812 -2.601562 9.3125 -2.03125 C 8.707031 -1.25 8.019531 -0.585938 7.25 -0.046875 C 6.476562 0.492188 5.707031 0.910156 4.9375 1.203125 L 3.578125 -0.203125 C 4.054688 -0.328125 4.5625 -0.515625 5.09375 -0.765625 C 5.625 -1.015625 6.132812 -1.320312 6.625 -1.6875 C 7.125 -2.0625 7.550781 -2.472656 7.90625 -2.921875 C 8.195312 -3.296875 8.457031 -3.722656 8.6875 -4.203125 C 8.925781 -4.691406 9.117188 -5.210938 9.265625 -5.765625 C 9.421875 -6.316406 9.519531 -6.859375 9.5625 -7.390625 Z M 3.5625 -7.078125 C 3.632812 -6.910156 3.726562 -6.695312 3.84375 -6.4375 C 3.957031 -6.175781 4.070312 -5.898438 4.1875 -5.609375 C 4.3125 -5.316406 4.425781 -5.035156 4.53125 -4.765625 C 4.632812 -4.503906 4.71875 -4.28125 4.78125 -4.09375 L 3.1875 -3.5 C 3.132812 -3.664062 3.054688 -3.890625 2.953125 -4.171875 C 2.859375 -4.453125 2.75 -4.742188 2.625 -5.046875 C 2.507812 -5.347656 2.394531 -5.628906 2.28125 -5.890625 C 2.164062 -6.160156 2.070312 -6.367188 2 -6.515625 Z M 3.5625 -7.078125 "/></g></g></g><g fill="#00a0e9" fill-opacity="1"><g transform="translate(87.14275, 39.138844)"><g><path d="M 11.34375 -4.796875 L 10.59375 -3 C 10.144531 -3.238281 9.644531 -3.476562 9.09375 -3.71875 C 8.539062 -3.957031 7.984375 -4.179688 7.421875 -4.390625 C 6.867188 -4.597656 6.359375 -4.78125 5.890625 -4.9375 L 5.890625 -1.25 C 5.890625 -1.125 5.894531 -0.953125 5.90625 -0.734375 C 5.914062 -0.515625 5.925781 -0.285156 5.9375 -0.046875 C 5.957031 0.179688 5.976562 0.382812 6 0.5625 L 3.96875 0.5625 C 4.007812 0.3125 4.039062 0.015625 4.0625 -0.328125 C 4.082031 -0.679688 4.09375 -0.988281 4.09375 -1.25 L 4.09375 -8.734375 C 4.09375 -8.972656 4.082031 -9.238281 4.0625 -9.53125 C 4.039062 -9.832031 4.007812 -10.09375 3.96875 -10.3125 L 6 -10.3125 C 5.976562 -10.09375 5.953125 -9.84375 5.921875 -9.5625 C 5.898438 -9.289062 5.890625 -9.015625 5.890625 -8.734375 L 5.890625 -6.828125 C 6.316406 -6.691406 6.785156 -6.539062 7.296875 -6.375 C 7.804688 -6.207031 8.3125 -6.03125 8.8125 -5.84375 C 9.320312 -5.65625 9.796875 -5.46875 10.234375 -5.28125 C 10.671875 -5.101562 11.039062 -4.941406 11.34375 -4.796875 Z M 11.34375 -4.796875 "/></g></g></g></svg>