<svg xmlns="http://www.w3.org/2000/svg" xmlns:xlink="http://www.w3.org/1999/xlink" width="180" zoomAndPan="magnify" viewBox="0 0 135 47.25" height="63" preserveAspectRatio="xMidYMid meet" version="1.0"><defs><g/><clipPath id="c0b8b96807"><path d="M 1.214844 0.503906 L 133.945312 0.503906 L 133.945312 46.007812 L 1.214844 46.007812 Z M 1.214844 0.503906 " clip-rule="nonzero"/></clipPath><clipPath id="ca6914fcae"><path d="M 8.597656 0.503906 L 126.5625 0.503906 C 128.519531 0.503906 130.398438 1.28125 131.78125 2.664062 C 133.167969 4.050781 133.945312 5.925781 133.945312 7.886719 L 133.945312 38.625 C 133.945312 40.585938 133.167969 42.460938 131.78125 43.847656 C 130.398438 45.230469 128.519531 46.007812 126.5625 46.007812 L 8.597656 46.007812 C 6.640625 46.007812 4.761719 45.230469 3.378906 43.847656 C 1.992188 42.460938 1.214844 40.585938 1.214844 38.625 L 1.214844 7.886719 C 1.214844 5.925781 1.992188 4.050781 3.378906 2.664062 C 4.761719 1.28125 6.640625 0.503906 8.597656 0.503906 Z M 8.597656 0.503906 " clip-rule="nonzero"/></clipPath><clipPath id="9420fb48dc"><path d="M 0.214844 0.503906 L 132.945312 0.503906 L 132.945312 46.007812 L 0.214844 46.007812 Z M 0.214844 0.503906 " clip-rule="nonzero"/></clipPath><clipPath id="cf11e41221"><path d="M 7.597656 0.503906 L 125.5625 0.503906 C 127.519531 0.503906 129.398438 1.28125 130.78125 2.664062 C 132.167969 4.050781 132.945312 5.925781 132.945312 7.886719 L 132.945312 38.625 C 132.945312 40.585938 132.167969 42.460938 130.78125 43.847656 C 129.398438 45.230469 127.519531 46.007812 125.5625 46.007812 L 7.597656 46.007812 C 5.640625 46.007812 3.761719 45.230469 2.378906 43.847656 C 0.992188 42.460938 0.214844 40.585938 0.214844 38.625 L 0.214844 7.886719 C 0.214844 5.925781 0.992188 4.050781 2.378906 2.664062 C 3.761719 1.28125 5.640625 0.503906 7.597656 0.503906 Z M 7.597656 0.503906 " clip-rule="nonzero"/></clipPath><clipPath id="8e9e777359"><rect x="0" width="133" y="0" height="47"/></clipPath><clipPath id="31a63a7ce8"><rect x="0" width="99" y="0" height="40"/></clipPath></defs><g clip-path="url(#c0b8b96807)"><g clip-path="url(#ca6914fcae)"><g transform="matrix(1, 0, 0, 1, 1, 0.000000000000000888)"><g clip-path="url(#8e9e777359)"><g clip-path="url(#9420fb48dc)"><g clip-path="url(#cf11e41221)"><path fill="#ffffff" d="M 0.214844 0.503906 L 133.003906 0.503906 L 133.003906 46.007812 L 0.214844 46.007812 Z M 0.214844 0.503906 " fill-opacity="1" fill-rule="nonzero"/></g></g></g></g></g></g><g transform="matrix(1, 0, 0, 1, 18, 3)"><g clip-path="url(#31a63a7ce8)"><g fill="#00a0e9" fill-opacity="1"><g transform="translate(11.651128, 21.248162)"><g><path d="M 13.265625 -5.203125 L 5.9375 -5.203125 L 5.9375 -3.90625 L 13.265625 -3.90625 Z M 5.9375 -0.859375 L 13.265625 -0.859375 L 13.265625 -2.203125 L 5.9375 -2.203125 Z M 3.6875 1.625 L 3.6875 -7.0625 L 15.625 -7.0625 L 15.625 1.609375 L 13.265625 1.609375 L 13.265625 1 L 5.9375 1 L 5.9375 1.625 Z M 12.296875 -12.53125 L 6.84375 -12.53125 C 7.050781 -12.175781 7.234375 -11.800781 7.390625 -11.40625 C 7.546875 -11.007812 7.648438 -10.660156 7.703125 -10.359375 L 7.125 -10.21875 L 11.953125 -10.21875 L 11.46875 -10.34375 C 11.613281 -10.644531 11.765625 -10.992188 11.921875 -11.390625 C 12.078125 -11.796875 12.203125 -12.175781 12.296875 -12.53125 Z M 13.859375 -10.21875 L 17.984375 -10.21875 L 17.984375 -8.21875 L 1 -8.21875 L 1 -10.21875 L 5.265625 -10.21875 C 5.191406 -10.550781 5.082031 -10.914062 4.9375 -11.3125 C 4.789062 -11.707031 4.628906 -12.066406 4.453125 -12.390625 L 5.234375 -12.53125 L 2.046875 -12.53125 L 2.046875 -14.53125 L 8.25 -14.53125 L 8.25 -16.0625 L 10.625 -16.0625 L 10.625 -14.53125 L 17.109375 -14.53125 L 17.109375 -12.53125 L 14.09375 -12.53125 L 14.90625 -12.375 C 14.71875 -11.976562 14.535156 -11.59375 14.359375 -11.21875 C 14.191406 -10.84375 14.023438 -10.507812 13.859375 -10.21875 Z M 13.859375 -10.21875 "/></g></g></g><g fill="#00a0e9" fill-opacity="1"><g transform="translate(30.612434, 21.248162)"><g><path d="M 5.921875 -14.09375 L 4.578125 -12.296875 C 4.359375 -12.503906 4.078125 -12.734375 3.734375 -12.984375 C 3.390625 -13.234375 3.019531 -13.472656 2.625 -13.703125 C 2.226562 -13.941406 1.847656 -14.140625 1.484375 -14.296875 L 2.75 -15.96875 C 3.113281 -15.820312 3.492188 -15.640625 3.890625 -15.421875 C 4.296875 -15.203125 4.675781 -14.976562 5.03125 -14.75 C 5.394531 -14.53125 5.691406 -14.3125 5.921875 -14.09375 Z M 4.984375 -9.09375 L 3.640625 -7.28125 C 3.441406 -7.5 3.164062 -7.722656 2.8125 -7.953125 C 2.46875 -8.179688 2.101562 -8.40625 1.71875 -8.625 C 1.332031 -8.851562 0.957031 -9.050781 0.59375 -9.21875 L 1.828125 -10.875 C 2.191406 -10.726562 2.570312 -10.550781 2.96875 -10.34375 C 3.375 -10.144531 3.753906 -9.9375 4.109375 -9.71875 C 4.460938 -9.507812 4.753906 -9.300781 4.984375 -9.09375 Z M 3.46875 -5.921875 L 5.3125 -4.6875 C 4.957031 -3.675781 4.566406 -2.640625 4.140625 -1.578125 C 3.722656 -0.523438 3.304688 0.46875 2.890625 1.40625 L 0.8125 0.1875 C 1.082031 -0.300781 1.367188 -0.878906 1.671875 -1.546875 C 1.984375 -2.222656 2.296875 -2.9375 2.609375 -3.6875 C 2.921875 -4.4375 3.207031 -5.179688 3.46875 -5.921875 Z M 9.46875 -3.890625 L 11.453125 -3.421875 C 11.203125 -2.640625 10.875 -1.882812 10.46875 -1.15625 C 10.0625 -0.425781 9.640625 0.191406 9.203125 0.703125 C 8.992188 0.523438 8.710938 0.320312 8.359375 0.09375 C 8.003906 -0.132812 7.703125 -0.316406 7.453125 -0.453125 C 7.898438 -0.867188 8.296875 -1.390625 8.640625 -2.015625 C 8.984375 -2.640625 9.257812 -3.265625 9.46875 -3.890625 Z M 11.140625 -7.296875 L 11.140625 -6.265625 L 15.515625 -6.265625 L 15.515625 -7.296875 Z M 11.140625 -9.859375 L 11.140625 -8.828125 L 15.515625 -8.828125 L 15.515625 -9.859375 Z M 17.609375 -4.640625 L 14.28125 -4.640625 L 14.28125 -0.5 C 14.28125 -0.0078125 14.226562 0.375 14.125 0.65625 C 14.03125 0.9375 13.816406 1.15625 13.484375 1.3125 C 13.160156 1.457031 12.773438 1.550781 12.328125 1.59375 C 11.890625 1.632812 11.375 1.644531 10.78125 1.625 C 10.726562 1.332031 10.644531 1.003906 10.53125 0.640625 C 10.425781 0.285156 10.316406 -0.0234375 10.203125 -0.296875 C 10.535156 -0.285156 10.863281 -0.28125 11.1875 -0.28125 C 11.519531 -0.28125 11.742188 -0.28125 11.859375 -0.28125 C 12.054688 -0.28125 12.15625 -0.367188 12.15625 -0.546875 L 12.15625 -4.640625 L 9.140625 -4.640625 L 9.140625 -11.46875 L 11.9375 -11.46875 C 11.96875 -11.726562 12.003906 -11.992188 12.046875 -12.265625 C 12.097656 -12.546875 12.132812 -12.804688 12.15625 -13.046875 L 8.484375 -13.046875 L 8.484375 -9.84375 C 8.484375 -9.007812 8.453125 -8.09375 8.390625 -7.09375 C 8.328125 -6.09375 8.207031 -5.066406 8.03125 -4.015625 C 7.851562 -2.972656 7.59375 -1.960938 7.25 -0.984375 C 6.90625 -0.015625 6.445312 0.863281 5.875 1.65625 C 5.75 1.519531 5.566406 1.375 5.328125 1.21875 C 5.097656 1.070312 4.863281 0.925781 4.625 0.78125 C 4.382812 0.632812 4.171875 0.523438 3.984375 0.453125 C 4.515625 -0.273438 4.929688 -1.078125 5.234375 -1.953125 C 5.546875 -2.828125 5.78125 -3.722656 5.9375 -4.640625 C 6.09375 -5.566406 6.191406 -6.472656 6.234375 -7.359375 C 6.273438 -8.242188 6.296875 -9.070312 6.296875 -9.84375 L 6.296875 -15.078125 L 18.140625 -15.078125 L 18.140625 -13.046875 L 14.65625 -13.046875 C 14.570312 -12.773438 14.488281 -12.507812 14.40625 -12.25 C 14.320312 -11.988281 14.242188 -11.726562 14.171875 -11.46875 L 17.609375 -11.46875 Z M 14.8125 -3.34375 L 16.75 -4.109375 C 17 -3.734375 17.242188 -3.320312 17.484375 -2.875 C 17.722656 -2.4375 17.941406 -2 18.140625 -1.5625 C 18.347656 -1.132812 18.503906 -0.753906 18.609375 -0.421875 L 16.5625 0.46875 C 16.46875 0.132812 16.328125 -0.25 16.140625 -0.6875 C 15.960938 -1.132812 15.753906 -1.585938 15.515625 -2.046875 C 15.285156 -2.515625 15.050781 -2.945312 14.8125 -3.34375 Z M 14.8125 -3.34375 "/></g></g></g><g fill="#00a0e9" fill-opacity="1"><g transform="translate(49.573741, 21.248162)"><g><path d="M 5.171875 -3.421875 C 5.566406 -3.421875 5.953125 -3.722656 6.328125 -4.328125 C 6.710938 -4.929688 7.09375 -5.863281 7.46875 -7.125 C 7.6875 -7.820312 7.878906 -8.5625 8.046875 -9.34375 C 8.222656 -10.132812 8.367188 -10.914062 8.484375 -11.6875 C 7.710938 -11.519531 7.023438 -11.242188 6.421875 -10.859375 C 5.828125 -10.472656 5.328125 -10.015625 4.921875 -9.484375 C 4.523438 -8.960938 4.222656 -8.421875 4.015625 -7.859375 C 3.816406 -7.296875 3.71875 -6.753906 3.71875 -6.234375 C 3.71875 -5.285156 3.867188 -4.578125 4.171875 -4.109375 C 4.484375 -3.648438 4.816406 -3.421875 5.171875 -3.421875 Z M 10.34375 0.78125 L 8.9375 -1.4375 C 9.300781 -1.488281 9.617188 -1.539062 9.890625 -1.59375 C 10.171875 -1.644531 10.429688 -1.695312 10.671875 -1.75 C 11.484375 -1.9375 12.207031 -2.25 12.84375 -2.6875 C 13.488281 -3.132812 14 -3.695312 14.375 -4.375 C 14.757812 -5.0625 14.953125 -5.859375 14.953125 -6.765625 C 14.953125 -8.066406 14.613281 -9.164062 13.9375 -10.0625 C 13.257812 -10.96875 12.285156 -11.523438 11.015625 -11.734375 C 10.890625 -10.941406 10.738281 -10.113281 10.5625 -9.25 C 10.382812 -8.394531 10.164062 -7.523438 9.90625 -6.640625 C 9.34375 -4.742188 8.65625 -3.25 7.84375 -2.15625 C 7.039062 -1.070312 6.128906 -0.53125 5.109375 -0.53125 C 4.421875 -0.53125 3.785156 -0.765625 3.203125 -1.234375 C 2.617188 -1.703125 2.148438 -2.347656 1.796875 -3.171875 C 1.441406 -3.992188 1.265625 -4.9375 1.265625 -6 C 1.265625 -7.082031 1.484375 -8.109375 1.921875 -9.078125 C 2.359375 -10.046875 2.972656 -10.898438 3.765625 -11.640625 C 4.554688 -12.378906 5.472656 -12.960938 6.515625 -13.390625 C 7.566406 -13.816406 8.703125 -14.03125 9.921875 -14.03125 C 11.085938 -14.03125 12.132812 -13.84375 13.0625 -13.46875 C 14 -13.09375 14.796875 -12.570312 15.453125 -11.90625 C 16.117188 -11.238281 16.628906 -10.457031 16.984375 -9.5625 C 17.335938 -8.675781 17.515625 -7.722656 17.515625 -6.703125 C 17.515625 -4.722656 16.910156 -3.070312 15.703125 -1.75 C 14.503906 -0.425781 12.71875 0.414062 10.34375 0.78125 Z M 10.34375 0.78125 "/></g></g></g><g fill="#00a0e9" fill-opacity="1"><g transform="translate(68.535047, 21.248162)"><g><path d="M 4.953125 -3.625 C 5.191406 -3.976562 5.441406 -4.421875 5.703125 -4.953125 C 5.960938 -5.492188 6.222656 -6.054688 6.484375 -6.640625 C 5.785156 -6.535156 5.195312 -6.335938 4.71875 -6.046875 C 4.238281 -5.753906 3.875 -5.414062 3.625 -5.03125 C 3.382812 -4.644531 3.265625 -4.257812 3.265625 -3.875 C 3.265625 -3.601562 3.332031 -3.382812 3.46875 -3.21875 C 3.613281 -3.0625 3.78125 -2.984375 3.96875 -2.984375 C 4.15625 -2.984375 4.320312 -3.03125 4.46875 -3.125 C 4.625 -3.21875 4.785156 -3.382812 4.953125 -3.625 Z M 18.109375 -5.125 L 17.03125 -2.515625 C 16.789062 -2.734375 16.535156 -2.957031 16.265625 -3.1875 C 15.992188 -3.414062 15.710938 -3.628906 15.421875 -3.828125 C 15.003906 -2.765625 14.414062 -1.816406 13.65625 -0.984375 C 12.90625 -0.148438 11.90625 0.59375 10.65625 1.25 L 8.65625 -0.375 C 9.601562 -0.78125 10.390625 -1.242188 11.015625 -1.765625 C 11.648438 -2.285156 12.160156 -2.828125 12.546875 -3.390625 C 12.929688 -3.960938 13.226562 -4.535156 13.4375 -5.109375 C 12.769531 -5.472656 12.066406 -5.785156 11.328125 -6.046875 C 10.585938 -6.316406 9.820312 -6.507812 9.03125 -6.625 C 8.800781 -6.09375 8.554688 -5.539062 8.296875 -4.96875 C 8.046875 -4.394531 7.796875 -3.863281 7.546875 -3.375 C 7.304688 -2.882812 7.070312 -2.460938 6.84375 -2.109375 C 6.476562 -1.535156 6.0625 -1.113281 5.59375 -0.84375 C 5.125 -0.582031 4.566406 -0.453125 3.921875 -0.453125 C 3.097656 -0.453125 2.410156 -0.71875 1.859375 -1.25 C 1.316406 -1.789062 1.046875 -2.535156 1.046875 -3.484375 C 1.046875 -4.460938 1.316406 -5.335938 1.859375 -6.109375 C 2.398438 -6.890625 3.15625 -7.519531 4.125 -8 C 5.09375 -8.476562 6.203125 -8.742188 7.453125 -8.796875 C 7.722656 -9.410156 7.984375 -10.015625 8.234375 -10.609375 C 8.492188 -11.210938 8.734375 -11.734375 8.953125 -12.171875 C 8.710938 -12.171875 8.390625 -12.160156 7.984375 -12.140625 C 7.585938 -12.128906 7.1875 -12.113281 6.78125 -12.09375 C 6.382812 -12.082031 6.039062 -12.066406 5.75 -12.046875 C 5.539062 -12.035156 5.289062 -12.015625 5 -11.984375 C 4.71875 -11.953125 4.457031 -11.914062 4.21875 -11.875 L 4.109375 -14.296875 C 4.367188 -14.273438 4.644531 -14.257812 4.9375 -14.25 C 5.226562 -14.238281 5.472656 -14.234375 5.671875 -14.234375 C 6.023438 -14.234375 6.453125 -14.238281 6.953125 -14.25 C 7.460938 -14.257812 7.960938 -14.273438 8.453125 -14.296875 C 8.941406 -14.328125 9.332031 -14.351562 9.625 -14.375 C 10.101562 -14.414062 10.523438 -14.507812 10.890625 -14.65625 L 12.390625 -13.484375 C 12.265625 -13.347656 12.144531 -13.21875 12.03125 -13.09375 C 11.925781 -12.96875 11.835938 -12.832031 11.765625 -12.6875 C 11.523438 -12.300781 11.238281 -11.734375 10.90625 -10.984375 C 10.570312 -10.234375 10.242188 -9.460938 9.921875 -8.671875 C 10.648438 -8.554688 11.351562 -8.390625 12.03125 -8.171875 C 12.707031 -7.960938 13.351562 -7.722656 13.96875 -7.453125 C 13.976562 -7.566406 13.984375 -7.675781 13.984375 -7.78125 C 13.992188 -7.894531 14.003906 -8 14.015625 -8.09375 C 14.046875 -8.46875 14.0625 -8.828125 14.0625 -9.171875 C 14.0625 -9.515625 14.039062 -9.835938 14 -10.140625 L 16.46875 -9.859375 C 16.425781 -9.242188 16.378906 -8.640625 16.328125 -8.046875 C 16.273438 -7.460938 16.203125 -6.90625 16.109375 -6.375 C 16.492188 -6.15625 16.851562 -5.9375 17.1875 -5.71875 C 17.53125 -5.5 17.835938 -5.300781 18.109375 -5.125 Z M 18.109375 -5.125 "/></g></g></g><g fill="#00a0e9" fill-opacity="1"><g transform="translate(1.281656, 34.521086)"><g><path d="M 3.25 2.8125 C 2.601562 1.738281 2.097656 0.617188 1.734375 -0.546875 C 1.367188 -1.710938 1.1875 -2.992188 1.1875 -4.390625 C 1.1875 -5.773438 1.367188 -7.050781 1.734375 -8.21875 C 2.097656 -9.394531 2.601562 -10.515625 3.25 -11.578125 L 4.53125 -11.046875 C 3.945312 -10.035156 3.519531 -8.957031 3.25 -7.8125 C 2.976562 -6.664062 2.84375 -5.523438 2.84375 -4.390625 C 2.84375 -3.242188 2.976562 -2.101562 3.25 -0.96875 C 3.519531 0.164062 3.945312 1.242188 4.53125 2.265625 Z M 3.25 2.8125 "/></g></g></g><g fill="#00a0e9" fill-opacity="1"><g transform="translate(6.534022, 34.521086)"><g><path d="M 4.34375 0.1875 C 3.65625 0.1875 2.976562 0.0625 2.3125 -0.1875 C 1.65625 -0.445312 1.078125 -0.820312 0.578125 -1.3125 L 1.765625 -2.71875 C 2.140625 -2.382812 2.554688 -2.109375 3.015625 -1.890625 C 3.472656 -1.679688 3.925781 -1.578125 4.375 -1.578125 C 4.914062 -1.578125 5.320312 -1.679688 5.59375 -1.890625 C 5.875 -2.109375 6.015625 -2.398438 6.015625 -2.765625 C 6.015625 -3.023438 5.945312 -3.226562 5.8125 -3.375 C 5.6875 -3.53125 5.507812 -3.664062 5.28125 -3.78125 C 5.050781 -3.90625 4.785156 -4.03125 4.484375 -4.15625 L 3.09375 -4.734375 C 2.757812 -4.890625 2.429688 -5.082031 2.109375 -5.3125 C 1.785156 -5.550781 1.519531 -5.851562 1.3125 -6.21875 C 1.113281 -6.582031 1.015625 -7.015625 1.015625 -7.515625 C 1.015625 -8.078125 1.164062 -8.578125 1.46875 -9.015625 C 1.78125 -9.460938 2.203125 -9.816406 2.734375 -10.078125 C 3.265625 -10.347656 3.878906 -10.484375 4.578125 -10.484375 C 5.179688 -10.484375 5.765625 -10.367188 6.328125 -10.140625 C 6.890625 -9.910156 7.378906 -9.585938 7.796875 -9.171875 L 6.765625 -7.875 C 6.429688 -8.144531 6.085938 -8.351562 5.734375 -8.5 C 5.390625 -8.644531 5.003906 -8.71875 4.578125 -8.71875 C 4.117188 -8.71875 3.753906 -8.625 3.484375 -8.4375 C 3.222656 -8.25 3.09375 -7.984375 3.09375 -7.640625 C 3.09375 -7.390625 3.164062 -7.1875 3.3125 -7.03125 C 3.457031 -6.875 3.648438 -6.738281 3.890625 -6.625 C 4.140625 -6.519531 4.410156 -6.40625 4.703125 -6.28125 L 6.046875 -5.71875 C 6.679688 -5.457031 7.1875 -5.109375 7.5625 -4.671875 C 7.9375 -4.242188 8.125 -3.660156 8.125 -2.921875 C 8.125 -2.359375 7.972656 -1.84375 7.671875 -1.375 C 7.367188 -0.90625 6.9375 -0.523438 6.375 -0.234375 C 5.8125 0.046875 5.132812 0.1875 4.34375 0.1875 Z M 4.34375 0.1875 "/></g></g></g><g fill="#00a0e9" fill-opacity="1"><g transform="translate(15.204596, 34.521086)"><g><path d="M 4.359375 0.1875 C 3.703125 0.1875 3.085938 0.03125 2.515625 -0.28125 C 1.953125 -0.601562 1.492188 -1.066406 1.140625 -1.671875 C 0.785156 -2.285156 0.609375 -3.019531 0.609375 -3.875 C 0.609375 -4.75 0.785156 -5.488281 1.140625 -6.09375 C 1.492188 -6.707031 1.953125 -7.175781 2.515625 -7.5 C 3.085938 -7.820312 3.703125 -7.984375 4.359375 -7.984375 C 5.003906 -7.984375 5.609375 -7.820312 6.171875 -7.5 C 6.742188 -7.175781 7.207031 -6.707031 7.5625 -6.09375 C 7.914062 -5.488281 8.09375 -4.75 8.09375 -3.875 C 8.09375 -3.019531 7.914062 -2.285156 7.5625 -1.671875 C 7.207031 -1.066406 6.742188 -0.601562 6.171875 -0.28125 C 5.609375 0.03125 5.003906 0.1875 4.359375 0.1875 Z M 4.359375 -1.46875 C 4.878906 -1.46875 5.28125 -1.6875 5.5625 -2.125 C 5.851562 -2.5625 6 -3.144531 6 -3.875 C 6 -4.625 5.851562 -5.21875 5.5625 -5.65625 C 5.28125 -6.09375 4.878906 -6.3125 4.359375 -6.3125 C 3.828125 -6.3125 3.414062 -6.09375 3.125 -5.65625 C 2.84375 -5.21875 2.703125 -4.625 2.703125 -3.875 C 2.703125 -3.144531 2.84375 -2.5625 3.125 -2.125 C 3.414062 -1.6875 3.828125 -1.46875 4.359375 -1.46875 Z M 4.359375 -1.46875 "/></g></g></g><g fill="#00a0e9" fill-opacity="1"><g transform="translate(23.90296, 34.521086)"><g><path d="M 1.09375 0 L 1.09375 -7.78125 L 2.765625 -7.78125 L 2.90625 -6.765625 L 2.96875 -6.765625 C 3.300781 -7.097656 3.671875 -7.382812 4.078125 -7.625 C 4.492188 -7.863281 4.96875 -7.984375 5.5 -7.984375 C 6.34375 -7.984375 6.953125 -7.707031 7.328125 -7.15625 C 7.710938 -6.601562 7.90625 -5.835938 7.90625 -4.859375 L 7.90625 0 L 5.859375 0 L 5.859375 -4.609375 C 5.859375 -5.203125 5.769531 -5.617188 5.59375 -5.859375 C 5.414062 -6.109375 5.132812 -6.234375 4.75 -6.234375 C 4.4375 -6.234375 4.160156 -6.15625 3.921875 -6 C 3.691406 -5.851562 3.425781 -5.640625 3.125 -5.359375 L 3.125 0 Z M 1.09375 0 "/></g></g></g><g fill="#00a0e9" fill-opacity="1"><g transform="translate(32.809755, 34.521086)"><g><path d="M 3.40625 0.1875 C 2.570312 0.1875 1.960938 -0.0820312 1.578125 -0.625 C 1.203125 -1.175781 1.015625 -1.941406 1.015625 -2.921875 L 1.015625 -7.78125 L 3.0625 -7.78125 L 3.0625 -3.1875 C 3.0625 -2.582031 3.148438 -2.160156 3.328125 -1.921875 C 3.503906 -1.679688 3.773438 -1.5625 4.140625 -1.5625 C 4.460938 -1.5625 4.742188 -1.632812 4.984375 -1.78125 C 5.222656 -1.9375 5.472656 -2.1875 5.734375 -2.53125 L 5.734375 -7.78125 L 7.78125 -7.78125 L 7.78125 0 L 6.109375 0 L 5.953125 -1.109375 L 5.890625 -1.109375 C 5.554688 -0.710938 5.191406 -0.394531 4.796875 -0.15625 C 4.410156 0.0703125 3.945312 0.1875 3.40625 0.1875 Z M 3.40625 0.1875 "/></g></g></g><g fill="#00a0e9" fill-opacity="1"><g transform="translate(41.660956, 34.521086)"><g><path d="M 3.84375 0.1875 C 3.195312 0.1875 2.632812 0.0234375 2.15625 -0.296875 C 1.6875 -0.617188 1.316406 -1.082031 1.046875 -1.6875 C 0.785156 -2.300781 0.65625 -3.03125 0.65625 -3.875 C 0.65625 -4.726562 0.804688 -5.460938 1.109375 -6.078125 C 1.421875 -6.691406 1.828125 -7.160156 2.328125 -7.484375 C 2.835938 -7.816406 3.367188 -7.984375 3.921875 -7.984375 C 4.359375 -7.984375 4.726562 -7.90625 5.03125 -7.75 C 5.332031 -7.59375 5.617188 -7.390625 5.890625 -7.140625 L 5.8125 -8.359375 L 5.8125 -11.09375 L 7.859375 -11.09375 L 7.859375 0 L 6.203125 0 L 6.03125 -0.8125 L 6 -0.8125 C 5.707031 -0.53125 5.375 -0.289062 5 -0.09375 C 4.632812 0.09375 4.25 0.1875 3.84375 0.1875 Z M 4.359375 -1.484375 C 4.628906 -1.484375 4.882812 -1.546875 5.125 -1.671875 C 5.363281 -1.796875 5.59375 -2.003906 5.8125 -2.296875 L 5.8125 -5.71875 C 5.582031 -5.925781 5.34375 -6.070312 5.09375 -6.15625 C 4.851562 -6.25 4.609375 -6.296875 4.359375 -6.296875 C 3.929688 -6.296875 3.554688 -6.09375 3.234375 -5.6875 C 2.910156 -5.28125 2.75 -4.6875 2.75 -3.90625 C 2.75 -3.101562 2.890625 -2.5 3.171875 -2.09375 C 3.460938 -1.6875 3.859375 -1.484375 4.359375 -1.484375 Z M 4.359375 -1.484375 "/></g></g></g><g fill="#00a0e9" fill-opacity="1"><g transform="translate(50.609429, 34.521086)"><g><path d="M 3.328125 0.1875 C 2.804688 0.1875 2.273438 0.0820312 1.734375 -0.125 C 1.203125 -0.332031 0.742188 -0.59375 0.359375 -0.90625 L 1.296875 -2.1875 C 1.648438 -1.914062 1.992188 -1.703125 2.328125 -1.546875 C 2.671875 -1.398438 3.019531 -1.328125 3.375 -1.328125 C 3.769531 -1.328125 4.054688 -1.40625 4.234375 -1.5625 C 4.410156 -1.71875 4.5 -1.914062 4.5 -2.15625 C 4.5 -2.351562 4.421875 -2.515625 4.265625 -2.640625 C 4.109375 -2.773438 3.90625 -2.894531 3.65625 -3 C 3.414062 -3.113281 3.15625 -3.222656 2.875 -3.328125 C 2.550781 -3.453125 2.222656 -3.609375 1.890625 -3.796875 C 1.566406 -3.984375 1.296875 -4.222656 1.078125 -4.515625 C 0.859375 -4.804688 0.75 -5.164062 0.75 -5.59375 C 0.75 -6.0625 0.867188 -6.472656 1.109375 -6.828125 C 1.347656 -7.191406 1.679688 -7.472656 2.109375 -7.671875 C 2.546875 -7.878906 3.054688 -7.984375 3.640625 -7.984375 C 4.210938 -7.984375 4.71875 -7.882812 5.15625 -7.6875 C 5.59375 -7.488281 5.972656 -7.265625 6.296875 -7.015625 L 5.375 -5.78125 C 5.101562 -5.976562 4.828125 -6.140625 4.546875 -6.265625 C 4.273438 -6.390625 3.992188 -6.453125 3.703125 -6.453125 C 3.359375 -6.453125 3.097656 -6.378906 2.921875 -6.234375 C 2.753906 -6.097656 2.671875 -5.921875 2.671875 -5.703125 C 2.671875 -5.515625 2.742188 -5.359375 2.890625 -5.234375 C 3.035156 -5.109375 3.234375 -5 3.484375 -4.90625 C 3.734375 -4.8125 3.988281 -4.710938 4.25 -4.609375 C 4.59375 -4.484375 4.929688 -4.328125 5.265625 -4.140625 C 5.597656 -3.960938 5.875 -3.722656 6.09375 -3.421875 C 6.3125 -3.128906 6.421875 -2.742188 6.421875 -2.265625 C 6.421875 -1.804688 6.300781 -1.390625 6.0625 -1.015625 C 5.832031 -0.648438 5.488281 -0.359375 5.03125 -0.140625 C 4.570312 0.078125 4.003906 0.1875 3.328125 0.1875 Z M 3.328125 0.1875 "/></g></g></g><g fill="#00a0e9" fill-opacity="1"><g transform="translate(57.487522, 34.521086)"><g/></g></g><g fill="#00a0e9" fill-opacity="1"><g transform="translate(60.64172, 34.521086)"><g><path d="M 5.359375 0.1875 C 4.441406 0.1875 3.640625 -0.0234375 2.953125 -0.453125 C 2.265625 -0.890625 1.722656 -1.507812 1.328125 -2.3125 C 0.941406 -3.113281 0.75 -4.070312 0.75 -5.1875 C 0.75 -6.3125 0.941406 -7.265625 1.328125 -8.046875 C 1.722656 -8.835938 2.265625 -9.441406 2.953125 -9.859375 C 3.640625 -10.273438 4.441406 -10.484375 5.359375 -10.484375 C 6.265625 -10.484375 7.0625 -10.273438 7.75 -9.859375 C 8.4375 -9.441406 8.972656 -8.835938 9.359375 -8.046875 C 9.753906 -7.253906 9.953125 -6.300781 9.953125 -5.1875 C 9.953125 -4.070312 9.753906 -3.113281 9.359375 -2.3125 C 8.972656 -1.507812 8.4375 -0.890625 7.75 -0.453125 C 7.0625 -0.0234375 6.265625 0.1875 5.359375 0.1875 Z M 5.359375 -1.578125 C 6.128906 -1.578125 6.738281 -1.90625 7.1875 -2.5625 C 7.632812 -3.21875 7.859375 -4.09375 7.859375 -5.1875 C 7.859375 -6.289062 7.632812 -7.15625 7.1875 -7.78125 C 6.738281 -8.40625 6.128906 -8.71875 5.359375 -8.71875 C 4.597656 -8.71875 3.988281 -8.40625 3.53125 -7.78125 C 3.070312 -7.15625 2.84375 -6.289062 2.84375 -5.1875 C 2.84375 -4.09375 3.070312 -3.21875 3.53125 -2.5625 C 3.988281 -1.90625 4.597656 -1.578125 5.359375 -1.578125 Z M 5.359375 -1.578125 "/></g></g></g><g fill="#00a0e9" fill-opacity="1"><g transform="translate(71.340981, 34.521086)"><g><path d="M 1.09375 0 L 1.09375 -7.78125 L 2.765625 -7.78125 L 2.90625 -6.765625 L 2.96875 -6.765625 C 3.300781 -7.097656 3.671875 -7.382812 4.078125 -7.625 C 4.492188 -7.863281 4.96875 -7.984375 5.5 -7.984375 C 6.34375 -7.984375 6.953125 -7.707031 7.328125 -7.15625 C 7.710938 -6.601562 7.90625 -5.835938 7.90625 -4.859375 L 7.90625 0 L 5.859375 0 L 5.859375 -4.609375 C 5.859375 -5.203125 5.769531 -5.617188 5.59375 -5.859375 C 5.414062 -6.109375 5.132812 -6.234375 4.75 -6.234375 C 4.4375 -6.234375 4.160156 -6.15625 3.921875 -6 C 3.691406 -5.851562 3.425781 -5.640625 3.125 -5.359375 L 3.125 0 Z M 1.09375 0 "/></g></g></g><g fill="#00a0e9" fill-opacity="1"><g transform="translate(80.247776, 34.521086)"><g><path d="M 3.015625 0.1875 C 2.304688 0.1875 1.804688 -0.0234375 1.515625 -0.453125 C 1.234375 -0.878906 1.09375 -1.457031 1.09375 -2.1875 L 1.09375 -11.09375 L 3.125 -11.09375 L 3.125 -2.078125 C 3.125 -1.847656 3.171875 -1.6875 3.265625 -1.59375 C 3.359375 -1.507812 3.453125 -1.46875 3.546875 -1.46875 C 3.585938 -1.46875 3.628906 -1.46875 3.671875 -1.46875 C 3.710938 -1.476562 3.765625 -1.488281 3.828125 -1.5 L 4.078125 0.015625 C 3.953125 0.0546875 3.800781 0.09375 3.625 0.125 C 3.457031 0.164062 3.253906 0.1875 3.015625 0.1875 Z M 3.015625 0.1875 "/></g></g></g><g fill="#00a0e9" fill-opacity="1"><g transform="translate(84.62474, 34.521086)"><g><path d="M 1.78125 3.125 C 1.550781 3.125 1.351562 3.109375 1.1875 3.078125 C 1.03125 3.054688 0.867188 3.019531 0.703125 2.96875 L 1.078125 1.40625 C 1.160156 1.425781 1.25 1.445312 1.34375 1.46875 C 1.4375 1.488281 1.53125 1.5 1.625 1.5 C 2.019531 1.5 2.332031 1.382812 2.5625 1.15625 C 2.800781 0.9375 2.976562 0.65625 3.09375 0.3125 L 3.21875 -0.140625 L 0.1875 -7.78125 L 2.25 -7.78125 L 3.484375 -4.171875 C 3.609375 -3.828125 3.722656 -3.46875 3.828125 -3.09375 C 3.929688 -2.726562 4.035156 -2.351562 4.140625 -1.96875 L 4.21875 -1.96875 C 4.3125 -2.332031 4.398438 -2.695312 4.484375 -3.0625 C 4.578125 -3.4375 4.671875 -3.804688 4.765625 -4.171875 L 5.84375 -7.78125 L 7.796875 -7.78125 L 5.03125 0.234375 C 4.8125 0.847656 4.5625 1.367188 4.28125 1.796875 C 4 2.234375 3.65625 2.5625 3.25 2.78125 C 2.851562 3.007812 2.363281 3.125 1.78125 3.125 Z M 1.78125 3.125 "/></g></g></g><g fill="#00a0e9" fill-opacity="1"><g transform="translate(92.600554, 34.521086)"><g><path d="M 1.984375 2.8125 L 0.71875 2.265625 C 1.300781 1.242188 1.726562 0.164062 2 -0.96875 C 2.28125 -2.101562 2.421875 -3.242188 2.421875 -4.390625 C 2.421875 -5.523438 2.28125 -6.664062 2 -7.8125 C 1.726562 -8.957031 1.300781 -10.035156 0.71875 -11.046875 L 1.984375 -11.578125 C 2.640625 -10.515625 3.148438 -9.394531 3.515625 -8.21875 C 3.890625 -7.050781 4.078125 -5.773438 4.078125 -4.390625 C 4.078125 -2.992188 3.890625 -1.710938 3.515625 -0.546875 C 3.148438 0.617188 2.640625 1.738281 1.984375 2.8125 Z M 1.984375 2.8125 "/></g></g></g></g></g></svg>