<svg xmlns="http://www.w3.org/2000/svg" xmlns:xlink="http://www.w3.org/1999/xlink" width="74" zoomAndPan="magnify" viewBox="0 0 55.5 39.749999" height="53" preserveAspectRatio="xMidYMid meet" version="1.0"><defs><g/><clipPath id="e57f7d64a5"><path d="M 0 0.0546875 L 55.003906 0.0546875 L 55.003906 39.449219 L 0 39.449219 Z M 0 0.0546875 " clip-rule="nonzero"/></clipPath><clipPath id="5b54ac827e"><path d="M 0 0.0546875 L 55.003906 0.0546875 L 55.003906 38.984375 L 0 38.984375 Z M 0 0.0546875 " clip-rule="nonzero"/></clipPath><clipPath id="9430a1672f"><path d="M 7.433594 0.0546875 L 47.570312 0.0546875 C 51.675781 0.0546875 55.003906 3.382812 55.003906 7.488281 L 55.003906 31.550781 C 55.003906 35.65625 51.675781 38.984375 47.570312 38.984375 L 7.433594 38.984375 C 3.328125 38.984375 0 35.65625 0 31.550781 L 0 7.488281 C 0 3.382812 3.328125 0.0546875 7.433594 0.0546875 Z M 7.433594 0.0546875 " clip-rule="nonzero"/></clipPath><clipPath id="9dfb38e4a0"><path d="M 0 0.0546875 L 55.003906 0.0546875 L 55.003906 38.984375 L 0 38.984375 Z M 0 0.0546875 " clip-rule="nonzero"/></clipPath><clipPath id="49e9f1cc5b"><path d="M 7.433594 0.0546875 L 47.570312 0.0546875 C 51.675781 0.0546875 55.003906 3.382812 55.003906 7.488281 L 55.003906 31.550781 C 55.003906 35.65625 51.675781 38.984375 47.570312 38.984375 L 7.433594 38.984375 C 3.328125 38.984375 0 35.65625 0 31.550781 L 0 7.488281 C 0 3.382812 3.328125 0.0546875 7.433594 0.0546875 Z M 7.433594 0.0546875 " clip-rule="nonzero"/></clipPath><clipPath id="64c985c882"><rect x="0" width="56" y="0" height="39"/></clipPath><clipPath id="f74beb4d38"><rect x="0" width="51" y="0" height="28"/></clipPath><clipPath id="324cada2f3"><rect x="0" width="56" y="0" height="40"/></clipPath></defs><g clip-path="url(#e57f7d64a5)"><g transform="matrix(1, 0, 0, 1, 0, 0.00000000000000084)"><g clip-path="url(#324cada2f3)"><g clip-path="url(#5b54ac827e)"><g clip-path="url(#9430a1672f)"><g transform="matrix(1, 0, 0, 1, 0, 0.00000000000000084)"><g clip-path="url(#64c985c882)"><g clip-path="url(#9dfb38e4a0)"><g clip-path="url(#49e9f1cc5b)"><path fill="#ffffff" d="M 0 0.0546875 L 55.050781 0.0546875 L 55.050781 38.984375 L 0 38.984375 Z M 0 0.0546875 " fill-opacity="1" fill-rule="nonzero"/></g></g></g></g></g></g><g transform="matrix(1, 0, 0, 1, 2, 6)"><g clip-path="url(#f74beb4d38)"><g fill="#00a0e9" fill-opacity="1"><g transform="translate(1.137068, 20.412405)"><g><path d="M 16.15625 -2.390625 L 14.75 -1 L 9.75 -6 L 4.75 -1 L 3.34375 -2.390625 L 8.359375 -7.390625 L 3.34375 -12.40625 L 4.75 -13.796875 L 9.75 -8.796875 L 14.75 -13.796875 L 16.15625 -12.40625 L 11.15625 -7.390625 Z M 16.15625 -2.390625 "/></g></g></g><g fill="#00a0e9" fill-opacity="1"><g transform="translate(20.601992, 20.412405)"><g><path d="M 5.75 0.265625 C 4.28125 0.265625 3.097656 -0.367188 2.203125 -1.640625 C 1.304688 -2.910156 0.859375 -4.785156 0.859375 -7.265625 C 0.859375 -9.753906 1.304688 -11.609375 2.203125 -12.828125 C 3.097656 -14.054688 4.28125 -14.671875 5.75 -14.671875 C 7.207031 -14.671875 8.378906 -14.054688 9.265625 -12.828125 C 10.160156 -11.597656 10.609375 -9.742188 10.609375 -7.265625 C 10.609375 -4.785156 10.160156 -2.910156 9.265625 -1.640625 C 8.378906 -0.367188 7.207031 0.265625 5.75 0.265625 Z M 5.75 -1.96875 C 6.15625 -1.96875 6.519531 -2.125 6.84375 -2.4375 C 7.175781 -2.757812 7.4375 -3.304688 7.625 -4.078125 C 7.8125 -4.847656 7.90625 -5.910156 7.90625 -7.265625 C 7.90625 -8.609375 7.8125 -9.65625 7.625 -10.40625 C 7.4375 -11.164062 7.175781 -11.695312 6.84375 -12 C 6.519531 -12.300781 6.15625 -12.453125 5.75 -12.453125 C 5.332031 -12.453125 4.957031 -12.300781 4.625 -12 C 4.289062 -11.695312 4.03125 -11.164062 3.84375 -10.40625 C 3.65625 -9.65625 3.5625 -8.609375 3.5625 -7.265625 C 3.5625 -5.910156 3.65625 -4.847656 3.84375 -4.078125 C 4.03125 -3.304688 4.289062 -2.757812 4.625 -2.4375 C 4.957031 -2.125 5.332031 -1.96875 5.75 -1.96875 Z M 5.75 -1.96875 "/></g></g></g><g fill="#00a0e9" fill-opacity="1"><g transform="translate(32.066833, 20.412405)"><g><path d="M 3.15625 0.265625 C 2.644531 0.265625 2.21875 0.0859375 1.875 -0.265625 C 1.539062 -0.628906 1.375 -1.070312 1.375 -1.59375 C 1.375 -2.125 1.539062 -2.566406 1.875 -2.921875 C 2.21875 -3.285156 2.644531 -3.46875 3.15625 -3.46875 C 3.675781 -3.46875 4.101562 -3.285156 4.4375 -2.921875 C 4.769531 -2.566406 4.9375 -2.125 4.9375 -1.59375 C 4.9375 -1.070312 4.769531 -0.628906 4.4375 -0.265625 C 4.101562 0.0859375 3.675781 0.265625 3.15625 0.265625 Z M 3.15625 0.265625 "/></g></g></g><g fill="#00a0e9" fill-opacity="1"><g transform="translate(38.392931, 20.412405)"><g><path d="M 5.71875 0.265625 C 4.8125 0.265625 3.992188 0.101562 3.265625 -0.21875 C 2.546875 -0.550781 1.972656 -1.003906 1.546875 -1.578125 C 1.128906 -2.160156 0.921875 -2.828125 0.921875 -3.578125 C 0.921875 -4.503906 1.160156 -5.269531 1.640625 -5.875 C 2.128906 -6.488281 2.710938 -6.976562 3.390625 -7.34375 L 3.390625 -7.4375 C 2.828125 -7.84375 2.367188 -8.320312 2.015625 -8.875 C 1.660156 -9.4375 1.484375 -10.097656 1.484375 -10.859375 C 1.484375 -11.640625 1.671875 -12.3125 2.046875 -12.875 C 2.421875 -13.4375 2.9375 -13.875 3.59375 -14.1875 C 4.25 -14.5 4.992188 -14.65625 5.828125 -14.65625 C 6.679688 -14.65625 7.414062 -14.492188 8.03125 -14.171875 C 8.65625 -13.859375 9.140625 -13.410156 9.484375 -12.828125 C 9.828125 -12.253906 10 -11.585938 10 -10.828125 C 10 -10.109375 9.8125 -9.460938 9.4375 -8.890625 C 9.0625 -8.328125 8.632812 -7.875 8.15625 -7.53125 L 8.15625 -7.4375 C 8.820312 -7.070312 9.390625 -6.582031 9.859375 -5.96875 C 10.335938 -5.363281 10.578125 -4.566406 10.578125 -3.578125 C 10.578125 -2.847656 10.375 -2.191406 9.96875 -1.609375 C 9.5625 -1.023438 8.992188 -0.566406 8.265625 -0.234375 C 7.546875 0.0976562 6.695312 0.265625 5.71875 0.265625 Z M 6.640625 -8.234375 C 7.328125 -8.960938 7.671875 -9.769531 7.671875 -10.65625 C 7.671875 -11.238281 7.503906 -11.71875 7.171875 -12.09375 C 6.835938 -12.46875 6.367188 -12.65625 5.765625 -12.65625 C 5.285156 -12.65625 4.875 -12.5 4.53125 -12.1875 C 4.1875 -11.875 4.015625 -11.429688 4.015625 -10.859375 C 4.015625 -10.179688 4.265625 -9.648438 4.765625 -9.265625 C 5.265625 -8.878906 5.890625 -8.535156 6.640625 -8.234375 Z M 5.796875 -1.75 C 6.410156 -1.75 6.914062 -1.914062 7.3125 -2.25 C 7.707031 -2.582031 7.90625 -3.054688 7.90625 -3.671875 C 7.90625 -4.179688 7.769531 -4.601562 7.5 -4.9375 C 7.226562 -5.269531 6.847656 -5.5625 6.359375 -5.8125 C 5.878906 -6.0625 5.332031 -6.3125 4.71875 -6.5625 C 4.320312 -6.25 4 -5.859375 3.75 -5.390625 C 3.507812 -4.921875 3.390625 -4.421875 3.390625 -3.890625 C 3.390625 -3.242188 3.625 -2.722656 4.09375 -2.328125 C 4.5625 -1.941406 5.128906 -1.75 5.796875 -1.75 Z M 5.796875 -1.75 "/></g></g></g></g></g></g></g></g></svg>