<svg xmlns="http://www.w3.org/2000/svg" xmlns:xlink="http://www.w3.org/1999/xlink" width="160" zoomAndPan="magnify" viewBox="0 0 120 50.999998" height="68" preserveAspectRatio="xMidYMid meet" version="1.0"><defs><g/><clipPath id="6756c87296"><path d="M 7.5 0 L 112.5 0 C 116.640625 0 120 3.359375 120 7.5 L 120 43.5 C 120 47.640625 116.640625 51 112.5 51 L 7.5 51 C 3.359375 51 0 47.640625 0 43.5 L 0 7.5 C 0 3.359375 3.359375 0 7.5 0 Z M 7.5 0 " clip-rule="nonzero"/></clipPath><clipPath id="5281fc2ab4"><path d="M 0 0 L 120 0 L 120 51 L 0 51 Z M 0 0 " clip-rule="nonzero"/></clipPath><clipPath id="ad49805245"><path d="M 7.5 0 L 112.5 0 C 116.640625 0 120 3.359375 120 7.5 L 120 43.5 C 120 47.640625 116.640625 51 112.5 51 L 7.5 51 C 3.359375 51 0 47.640625 0 43.5 L 0 7.5 C 0 3.359375 3.359375 0 7.5 0 Z M 7.5 0 " clip-rule="nonzero"/></clipPath><clipPath id="08ce365683"><rect x="0" width="120" y="0" height="51"/></clipPath></defs><g clip-path="url(#6756c87296)"><g transform="matrix(1, 0, 0, 1, -0, 0)"><g clip-path="url(#08ce365683)"><g clip-path="url(#5281fc2ab4)"><g clip-path="url(#ad49805245)"><path fill="#ffffff" d="M 0 0 L 119.929688 0 L 119.929688 51 L 0 51 Z M 0 0 " fill-opacity="1" fill-rule="nonzero"/></g></g></g></g></g><g fill="#00a0e9" fill-opacity="1"><g transform="translate(16.109376, 33.374996)"><g><path d="M 12.234375 -5.515625 L 16.171875 -5.515625 L 16.171875 -7.296875 L 12.234375 -7.296875 Z M 5.8125 -7.296875 L 5.8125 -5.515625 L 9.609375 -5.515625 L 9.609375 -7.296875 Z M 9.609375 -11.234375 L 5.8125 -11.234375 L 5.8125 -9.53125 L 9.609375 -9.53125 Z M 16.171875 -11.234375 L 12.234375 -11.234375 L 12.234375 -9.53125 L 16.171875 -9.53125 Z M 21.296875 -5.515625 L 21.296875 -3.109375 L 18.78125 -3.109375 L 18.78125 -0.921875 C 18.78125 -0.265625 18.695312 0.25 18.53125 0.625 C 18.363281 1 18.046875 1.289062 17.578125 1.5 C 17.140625 1.695312 16.585938 1.816406 15.921875 1.859375 C 15.253906 1.910156 14.457031 1.9375 13.53125 1.9375 C 13.46875 1.582031 13.347656 1.160156 13.171875 0.671875 C 12.992188 0.191406 12.8125 -0.207031 12.625 -0.53125 C 13.039062 -0.507812 13.453125 -0.492188 13.859375 -0.484375 C 14.265625 -0.484375 14.628906 -0.484375 14.953125 -0.484375 C 15.273438 -0.484375 15.503906 -0.484375 15.640625 -0.484375 C 15.847656 -0.484375 15.988281 -0.515625 16.0625 -0.578125 C 16.132812 -0.648438 16.171875 -0.78125 16.171875 -0.96875 L 16.171875 -3.109375 L 5.8125 -3.109375 L 5.8125 1.9375 L 3.21875 1.9375 L 3.21875 -3.109375 L 0.703125 -3.109375 L 0.703125 -5.515625 L 3.21875 -5.515625 L 3.21875 -13.59375 L 9.609375 -13.59375 L 9.609375 -15.046875 L 1.609375 -15.046875 L 1.609375 -17.453125 L 20.421875 -17.453125 L 20.421875 -15.046875 L 12.234375 -15.046875 L 12.234375 -13.59375 L 18.78125 -13.59375 L 18.78125 -5.515625 Z M 21.296875 -5.515625 "/></g></g></g><g fill="#00a0e9" fill-opacity="1"><g transform="translate(38.105456, 33.374996)"><g><path d="M 12.40625 -1.28125 L 20.9375 -1.28125 L 20.9375 1.296875 L 1.171875 1.296875 L 1.171875 -1.28125 L 9.65625 -1.28125 L 9.65625 -5.703125 L 3.703125 -5.703125 L 3.703125 -8.234375 L 9.65625 -8.234375 L 9.65625 -12.09375 L 5.109375 -12.09375 C 4.785156 -11.5 4.453125 -10.925781 4.109375 -10.375 C 3.773438 -9.820312 3.425781 -9.332031 3.0625 -8.90625 C 2.882812 -9.050781 2.648438 -9.222656 2.359375 -9.421875 C 2.078125 -9.617188 1.785156 -9.8125 1.484375 -10 C 1.179688 -10.195312 0.921875 -10.351562 0.703125 -10.46875 C 1.273438 -11.082031 1.8125 -11.8125 2.3125 -12.65625 C 2.8125 -13.5 3.253906 -14.410156 3.640625 -15.390625 C 4.023438 -16.367188 4.34375 -17.351562 4.59375 -18.34375 L 7.296875 -17.75 C 7.148438 -17.226562 6.988281 -16.707031 6.8125 -16.1875 C 6.644531 -15.675781 6.460938 -15.164062 6.265625 -14.65625 L 9.65625 -14.65625 L 9.65625 -18.609375 L 12.40625 -18.609375 L 12.40625 -14.65625 L 19.828125 -14.65625 L 19.828125 -12.09375 L 12.40625 -12.09375 L 12.40625 -8.234375 L 18.984375 -8.234375 L 18.984375 -5.703125 L 12.40625 -5.703125 Z M 12.40625 -1.28125 "/></g></g></g><g fill="#00a0e9" fill-opacity="1"><g transform="translate(60.101537, 33.374996)"><g><path d="M 17.484375 -11.359375 L 15.046875 -11.359375 L 15.046875 -9.4375 L 17.484375 -9.4375 Z M 10.1875 -11.359375 L 10.1875 -9.4375 L 12.5 -9.4375 L 12.5 -11.359375 Z M 12.5 -13.359375 L 12.5 -14.546875 L 7.078125 -14.546875 L 7.078125 -16.71875 L 12.5 -16.71875 L 12.5 -18.609375 L 15.046875 -18.609375 L 15.046875 -16.71875 L 20.796875 -16.71875 L 20.796875 -14.546875 L 15.046875 -14.546875 L 15.046875 -13.359375 L 20.046875 -13.359375 L 20.046875 -7.453125 L 15.953125 -7.453125 C 16.609375 -6.785156 17.40625 -6.144531 18.34375 -5.53125 C 19.28125 -4.925781 20.195312 -4.4375 21.09375 -4.0625 C 20.820312 -3.820312 20.507812 -3.503906 20.15625 -3.109375 C 19.8125 -2.710938 19.539062 -2.351562 19.34375 -2.03125 C 18.625 -2.40625 17.890625 -2.894531 17.140625 -3.5 C 16.390625 -4.113281 15.691406 -4.773438 15.046875 -5.484375 L 15.046875 -1.609375 L 12.5 -1.609375 L 12.5 -5.625 C 11.894531 -4.863281 11.210938 -4.164062 10.453125 -3.53125 C 9.703125 -2.894531 8.929688 -2.367188 8.140625 -1.953125 C 7.953125 -2.265625 7.695312 -2.613281 7.375 -3 C 7.0625 -3.394531 6.765625 -3.707031 6.484375 -3.9375 C 7.398438 -4.320312 8.289062 -4.820312 9.15625 -5.4375 C 10.019531 -6.0625 10.742188 -6.734375 11.328125 -7.453125 L 7.765625 -7.453125 L 7.765625 -13.359375 Z M 6.671875 -14.8125 L 4.59375 -13.0625 C 4.375 -13.414062 4.066406 -13.800781 3.671875 -14.21875 C 3.273438 -14.632812 2.847656 -15.046875 2.390625 -15.453125 C 1.941406 -15.859375 1.5 -16.222656 1.0625 -16.546875 L 2.984375 -18.125 C 3.429688 -17.820312 3.890625 -17.476562 4.359375 -17.09375 C 4.828125 -16.707031 5.265625 -16.316406 5.671875 -15.921875 C 6.085938 -15.523438 6.421875 -15.15625 6.671875 -14.8125 Z M 6.109375 -10.09375 L 6.109375 -3.1875 C 6.566406 -2.457031 7.203125 -1.925781 8.015625 -1.59375 C 8.828125 -1.257812 9.804688 -1.070312 10.953125 -1.03125 C 11.597656 -1 12.363281 -0.976562 13.25 -0.96875 C 14.144531 -0.96875 15.078125 -0.972656 16.046875 -0.984375 C 17.023438 -1.003906 17.976562 -1.03125 18.90625 -1.0625 C 19.84375 -1.101562 20.675781 -1.148438 21.40625 -1.203125 C 21.320312 -1.003906 21.222656 -0.742188 21.109375 -0.421875 C 20.992188 -0.109375 20.890625 0.210938 20.796875 0.546875 C 20.703125 0.890625 20.632812 1.1875 20.59375 1.4375 C 19.9375 1.457031 19.1875 1.476562 18.34375 1.5 C 17.507812 1.53125 16.644531 1.546875 15.75 1.546875 C 14.851562 1.554688 13.988281 1.554688 13.15625 1.546875 C 12.320312 1.546875 11.570312 1.53125 10.90625 1.5 C 9.5625 1.4375 8.414062 1.222656 7.46875 0.859375 C 6.519531 0.503906 5.6875 -0.0976562 4.96875 -0.953125 C 4.488281 -0.523438 4 -0.0976562 3.5 0.328125 C 3 0.765625 2.445312 1.21875 1.84375 1.6875 L 0.578125 -1.03125 C 1.046875 -1.3125 1.539062 -1.628906 2.0625 -1.984375 C 2.582031 -2.335938 3.082031 -2.695312 3.5625 -3.0625 L 3.5625 -7.703125 L 1.03125 -7.703125 L 1.03125 -10.09375 Z M 6.109375 -10.09375 "/></g></g></g><g fill="#00a0e9" fill-opacity="1"><g transform="translate(82.097618, 33.374996)"><g><path d="M 5 -14.328125 L 5 -10.5 C 5 -9.601562 4.96875 -8.617188 4.90625 -7.546875 C 4.84375 -6.472656 4.726562 -5.375 4.5625 -4.25 C 4.40625 -3.132812 4.171875 -2.050781 3.859375 -1 C 3.554688 0.0507812 3.15625 1 2.65625 1.84375 C 2.507812 1.695312 2.304688 1.53125 2.046875 1.34375 C 1.785156 1.15625 1.519531 0.972656 1.25 0.796875 C 0.976562 0.628906 0.738281 0.503906 0.53125 0.421875 C 0.976562 -0.359375 1.332031 -1.210938 1.59375 -2.140625 C 1.863281 -3.078125 2.0625 -4.03125 2.1875 -5 C 2.3125 -5.976562 2.390625 -6.9375 2.421875 -7.875 C 2.460938 -8.8125 2.484375 -9.6875 2.484375 -10.5 L 2.484375 -16.65625 L 10.3125 -16.65625 L 10.3125 -18.609375 L 13.046875 -18.609375 L 13.046875 -16.65625 L 20.859375 -16.65625 L 20.859375 -14.328125 Z M 14.984375 -10.40625 L 10.984375 -10.40625 L 10.984375 -8.953125 L 14.984375 -8.953125 Z M 17.578125 -6.96875 L 8.515625 -6.96875 L 8.515625 -10.40625 L 5.546875 -10.40625 L 5.546875 -12.46875 L 8.515625 -12.46875 L 8.515625 -13.921875 L 10.984375 -13.921875 L 10.984375 -12.46875 L 14.984375 -12.46875 L 14.984375 -13.921875 L 17.578125 -13.921875 L 17.578125 -12.46875 L 20.75 -12.46875 L 20.75 -10.40625 L 17.578125 -10.40625 Z M 15.796875 -4.046875 L 10.578125 -4.046875 C 10.921875 -3.691406 11.304688 -3.363281 11.734375 -3.0625 C 12.171875 -2.769531 12.644531 -2.5 13.15625 -2.25 C 14.1875 -2.726562 15.066406 -3.328125 15.796875 -4.046875 Z M 18.015625 -6.203125 L 19.640625 -5.390625 C 19.203125 -4.503906 18.664062 -3.71875 18.03125 -3.03125 C 17.394531 -2.34375 16.679688 -1.734375 15.890625 -1.203125 C 16.691406 -0.972656 17.546875 -0.78125 18.453125 -0.625 C 19.367188 -0.46875 20.316406 -0.347656 21.296875 -0.265625 C 21.035156 0.015625 20.753906 0.375 20.453125 0.8125 C 20.148438 1.25 19.914062 1.640625 19.75 1.984375 C 18.488281 1.816406 17.296875 1.585938 16.171875 1.296875 C 15.054688 1.015625 14.019531 0.660156 13.0625 0.234375 C 12 0.660156 10.851562 1.015625 9.625 1.296875 C 8.394531 1.578125 7.128906 1.796875 5.828125 1.953125 C 5.722656 1.617188 5.570312 1.238281 5.375 0.8125 C 5.175781 0.382812 4.976562 0.0351562 4.78125 -0.234375 C 5.789062 -0.328125 6.773438 -0.453125 7.734375 -0.609375 C 8.691406 -0.773438 9.601562 -0.984375 10.46875 -1.234375 C 9.988281 -1.566406 9.535156 -1.9375 9.109375 -2.34375 C 8.679688 -2.757812 8.289062 -3.203125 7.9375 -3.671875 L 8.96875 -4.046875 L 5.703125 -4.046875 L 5.703125 -6.09375 L 17.5625 -6.09375 Z M 18.015625 -6.203125 "/></g></g></g></svg>