<svg xmlns="http://www.w3.org/2000/svg" xmlns:xlink="http://www.w3.org/1999/xlink" width="74" zoomAndPan="magnify" viewBox="0 0 55.5 39.749999" height="53" preserveAspectRatio="xMidYMid meet" version="1.0"><defs><g/><clipPath id="29b633cab7"><path d="M 0 0.0546875 L 55.003906 0.0546875 L 55.003906 39.449219 L 0 39.449219 Z M 0 0.0546875 " clip-rule="nonzero"/></clipPath><clipPath id="7bc6420df1"><path d="M 0 0.0546875 L 55.003906 0.0546875 L 55.003906 38.984375 L 0 38.984375 Z M 0 0.0546875 " clip-rule="nonzero"/></clipPath><clipPath id="ce70190e61"><path d="M 7.433594 0.0546875 L 47.570312 0.0546875 C 51.675781 0.0546875 55.003906 3.382812 55.003906 7.488281 L 55.003906 31.550781 C 55.003906 35.65625 51.675781 38.984375 47.570312 38.984375 L 7.433594 38.984375 C 3.328125 38.984375 0 35.65625 0 31.550781 L 0 7.488281 C 0 3.382812 3.328125 0.0546875 7.433594 0.0546875 Z M 7.433594 0.0546875 " clip-rule="nonzero"/></clipPath><clipPath id="f055a294cf"><path d="M 0 0.0546875 L 55.003906 0.0546875 L 55.003906 38.984375 L 0 38.984375 Z M 0 0.0546875 " clip-rule="nonzero"/></clipPath><clipPath id="631772792f"><path d="M 7.433594 0.0546875 L 47.570312 0.0546875 C 51.675781 0.0546875 55.003906 3.382812 55.003906 7.488281 L 55.003906 31.550781 C 55.003906 35.65625 51.675781 38.984375 47.570312 38.984375 L 7.433594 38.984375 C 3.328125 38.984375 0 35.65625 0 31.550781 L 0 7.488281 C 0 3.382812 3.328125 0.0546875 7.433594 0.0546875 Z M 7.433594 0.0546875 " clip-rule="nonzero"/></clipPath><clipPath id="e3968951f4"><rect x="0" width="56" y="0" height="39"/></clipPath><clipPath id="f64d6dc405"><rect x="0" width="51" y="0" height="28"/></clipPath><clipPath id="9c0c7a8780"><rect x="0" width="56" y="0" height="40"/></clipPath></defs><g clip-path="url(#29b633cab7)"><g transform="matrix(1, 0, 0, 1, 0, 0.00000000000000084)"><g clip-path="url(#9c0c7a8780)"><g clip-path="url(#7bc6420df1)"><g clip-path="url(#ce70190e61)"><g transform="matrix(1, 0, 0, 1, 0, 0.00000000000000084)"><g clip-path="url(#e3968951f4)"><g clip-path="url(#f055a294cf)"><g clip-path="url(#631772792f)"><path fill="#ffffff" d="M 0 0.0546875 L 55.050781 0.0546875 L 55.050781 38.984375 L 0 38.984375 Z M 0 0.0546875 " fill-opacity="1" fill-rule="nonzero"/></g></g></g></g></g></g><g transform="matrix(1, 0, 0, 1, 2, 6)"><g clip-path="url(#f64d6dc405)"><g fill="#00a0e9" fill-opacity="1"><g transform="translate(1.137068, 20.412405)"><g><path d="M 16.15625 -2.390625 L 14.75 -1 L 9.75 -6 L 4.75 -1 L 3.34375 -2.390625 L 8.359375 -7.390625 L 3.34375 -12.40625 L 4.75 -13.796875 L 9.75 -8.796875 L 14.75 -13.796875 L 16.15625 -12.40625 L 11.15625 -7.390625 Z M 16.15625 -2.390625 "/></g></g></g><g fill="#00a0e9" fill-opacity="1"><g transform="translate(20.601992, 20.412405)"><g><path d="M 5.75 0.265625 C 4.28125 0.265625 3.097656 -0.367188 2.203125 -1.640625 C 1.304688 -2.910156 0.859375 -4.785156 0.859375 -7.265625 C 0.859375 -9.753906 1.304688 -11.609375 2.203125 -12.828125 C 3.097656 -14.054688 4.28125 -14.671875 5.75 -14.671875 C 7.207031 -14.671875 8.378906 -14.054688 9.265625 -12.828125 C 10.160156 -11.597656 10.609375 -9.742188 10.609375 -7.265625 C 10.609375 -4.785156 10.160156 -2.910156 9.265625 -1.640625 C 8.378906 -0.367188 7.207031 0.265625 5.75 0.265625 Z M 5.75 -1.96875 C 6.15625 -1.96875 6.519531 -2.125 6.84375 -2.4375 C 7.175781 -2.757812 7.4375 -3.304688 7.625 -4.078125 C 7.8125 -4.847656 7.90625 -5.910156 7.90625 -7.265625 C 7.90625 -8.609375 7.8125 -9.65625 7.625 -10.40625 C 7.4375 -11.164062 7.175781 -11.695312 6.84375 -12 C 6.519531 -12.300781 6.15625 -12.453125 5.75 -12.453125 C 5.332031 -12.453125 4.957031 -12.300781 4.625 -12 C 4.289062 -11.695312 4.03125 -11.164062 3.84375 -10.40625 C 3.65625 -9.65625 3.5625 -8.609375 3.5625 -7.265625 C 3.5625 -5.910156 3.65625 -4.847656 3.84375 -4.078125 C 4.03125 -3.304688 4.289062 -2.757812 4.625 -2.4375 C 4.957031 -2.125 5.332031 -1.96875 5.75 -1.96875 Z M 5.75 -1.96875 "/></g></g></g><g fill="#00a0e9" fill-opacity="1"><g transform="translate(32.066833, 20.412405)"><g><path d="M 3.15625 0.265625 C 2.644531 0.265625 2.21875 0.0859375 1.875 -0.265625 C 1.539062 -0.628906 1.375 -1.070312 1.375 -1.59375 C 1.375 -2.125 1.539062 -2.566406 1.875 -2.921875 C 2.21875 -3.285156 2.644531 -3.46875 3.15625 -3.46875 C 3.675781 -3.46875 4.101562 -3.285156 4.4375 -2.921875 C 4.769531 -2.566406 4.9375 -2.125 4.9375 -1.59375 C 4.9375 -1.070312 4.769531 -0.628906 4.4375 -0.265625 C 4.101562 0.0859375 3.675781 0.265625 3.15625 0.265625 Z M 3.15625 0.265625 "/></g></g></g><g fill="#00a0e9" fill-opacity="1"><g transform="translate(38.392931, 20.412405)"><g><path d="M 5.375 0.265625 C 4.226562 0.265625 3.257812 0.0703125 2.46875 -0.3125 C 1.6875 -0.695312 1.03125 -1.15625 0.5 -1.6875 L 1.828125 -3.53125 C 2.242188 -3.125 2.707031 -2.773438 3.21875 -2.484375 C 3.726562 -2.203125 4.320312 -2.0625 5 -2.0625 C 5.75 -2.0625 6.359375 -2.289062 6.828125 -2.75 C 7.304688 -3.21875 7.546875 -3.875 7.546875 -4.71875 C 7.546875 -5.5625 7.320312 -6.203125 6.875 -6.640625 C 6.425781 -7.085938 5.84375 -7.3125 5.125 -7.3125 C 4.695312 -7.3125 4.332031 -7.253906 4.03125 -7.140625 C 3.726562 -7.023438 3.367188 -6.832031 2.953125 -6.5625 L 1.65625 -7.421875 L 2.046875 -14.40625 L 9.75 -14.40625 L 9.75 -12.015625 L 4.515625 -12.015625 L 4.25 -8.953125 C 4.53125 -9.097656 4.804688 -9.203125 5.078125 -9.265625 C 5.347656 -9.328125 5.648438 -9.359375 5.984375 -9.359375 C 6.785156 -9.359375 7.519531 -9.195312 8.1875 -8.875 C 8.863281 -8.550781 9.40625 -8.050781 9.8125 -7.375 C 10.21875 -6.695312 10.421875 -5.835938 10.421875 -4.796875 C 10.421875 -3.722656 10.1875 -2.804688 9.71875 -2.046875 C 9.25 -1.296875 8.628906 -0.722656 7.859375 -0.328125 C 7.097656 0.0664062 6.269531 0.265625 5.375 0.265625 Z M 5.375 0.265625 "/></g></g></g></g></g></g></g></g></svg>