<svg xmlns="http://www.w3.org/2000/svg" xmlns:xlink="http://www.w3.org/1999/xlink" width="74" zoomAndPan="magnify" viewBox="0 0 55.5 39.749999" height="53" preserveAspectRatio="xMidYMid meet" version="1.0"><defs><g/><clipPath id="b6decdf3cb"><path d="M 0 0.0546875 L 55.003906 0.0546875 L 55.003906 39.449219 L 0 39.449219 Z M 0 0.0546875 " clip-rule="nonzero"/></clipPath><clipPath id="fd61388ca8"><path d="M 0 0.0546875 L 55.003906 0.0546875 L 55.003906 38.984375 L 0 38.984375 Z M 0 0.0546875 " clip-rule="nonzero"/></clipPath><clipPath id="625e09f4aa"><path d="M 7.433594 0.0546875 L 47.570312 0.0546875 C 51.675781 0.0546875 55.003906 3.382812 55.003906 7.488281 L 55.003906 31.550781 C 55.003906 35.65625 51.675781 38.984375 47.570312 38.984375 L 7.433594 38.984375 C 3.328125 38.984375 0 35.65625 0 31.550781 L 0 7.488281 C 0 3.382812 3.328125 0.0546875 7.433594 0.0546875 Z M 7.433594 0.0546875 " clip-rule="nonzero"/></clipPath><clipPath id="94a28008da"><path d="M 0 0.0546875 L 55.003906 0.0546875 L 55.003906 38.984375 L 0 38.984375 Z M 0 0.0546875 " clip-rule="nonzero"/></clipPath><clipPath id="ea1093c928"><path d="M 7.433594 0.0546875 L 47.570312 0.0546875 C 51.675781 0.0546875 55.003906 3.382812 55.003906 7.488281 L 55.003906 31.550781 C 55.003906 35.65625 51.675781 38.984375 47.570312 38.984375 L 7.433594 38.984375 C 3.328125 38.984375 0 35.65625 0 31.550781 L 0 7.488281 C 0 3.382812 3.328125 0.0546875 7.433594 0.0546875 Z M 7.433594 0.0546875 " clip-rule="nonzero"/></clipPath><clipPath id="2e07b3fa08"><rect x="0" width="56" y="0" height="39"/></clipPath><clipPath id="f945a5c678"><rect x="0" width="51" y="0" height="28"/></clipPath><clipPath id="7dde2d0495"><rect x="0" width="56" y="0" height="40"/></clipPath></defs><g clip-path="url(#b6decdf3cb)"><g transform="matrix(1, 0, 0, 1, 0, 0.00000000000000084)"><g clip-path="url(#7dde2d0495)"><g clip-path="url(#fd61388ca8)"><g clip-path="url(#625e09f4aa)"><g transform="matrix(1, 0, 0, 1, 0, 0.00000000000000084)"><g clip-path="url(#2e07b3fa08)"><g clip-path="url(#94a28008da)"><g clip-path="url(#ea1093c928)"><path fill="#ffffff" d="M 0 0.0546875 L 55.050781 0.0546875 L 55.050781 38.984375 L 0 38.984375 Z M 0 0.0546875 " fill-opacity="1" fill-rule="nonzero"/></g></g></g></g></g></g><g transform="matrix(1, 0, 0, 1, 2, 6)"><g clip-path="url(#f945a5c678)"><g fill="#00a0e9" fill-opacity="1"><g transform="translate(1.137068, 20.412405)"><g><path d="M 16.15625 -2.390625 L 14.75 -1 L 9.75 -6 L 4.75 -1 L 3.34375 -2.390625 L 8.359375 -7.390625 L 3.34375 -12.40625 L 4.75 -13.796875 L 9.75 -8.796875 L 14.75 -13.796875 L 16.15625 -12.40625 L 11.15625 -7.390625 Z M 16.15625 -2.390625 "/></g></g></g><g fill="#00a0e9" fill-opacity="1"><g transform="translate(20.601992, 20.412405)"><g><path d="M 1.59375 0 L 1.59375 -2.3125 L 4.6875 -2.3125 L 4.6875 -11.421875 L 2.078125 -11.421875 L 2.078125 -13.203125 C 2.804688 -13.335938 3.429688 -13.5 3.953125 -13.6875 C 4.484375 -13.882812 4.976562 -14.125 5.4375 -14.40625 L 7.546875 -14.40625 L 7.546875 -2.3125 L 10.265625 -2.3125 L 10.265625 0 Z M 1.59375 0 "/></g></g></g><g fill="#00a0e9" fill-opacity="1"><g transform="translate(32.066833, 20.412405)"><g><path d="M 3.15625 0.265625 C 2.644531 0.265625 2.21875 0.0859375 1.875 -0.265625 C 1.539062 -0.628906 1.375 -1.070312 1.375 -1.59375 C 1.375 -2.125 1.539062 -2.566406 1.875 -2.921875 C 2.21875 -3.285156 2.644531 -3.46875 3.15625 -3.46875 C 3.675781 -3.46875 4.101562 -3.285156 4.4375 -2.921875 C 4.769531 -2.566406 4.9375 -2.125 4.9375 -1.59375 C 4.9375 -1.070312 4.769531 -0.628906 4.4375 -0.265625 C 4.101562 0.0859375 3.675781 0.265625 3.15625 0.265625 Z M 3.15625 0.265625 "/></g></g></g><g fill="#00a0e9" fill-opacity="1"><g transform="translate(38.392931, 20.412405)"><g><path d="M 0.84375 0 L 0.84375 -1.65625 C 2.800781 -3.40625 4.328125 -4.972656 5.421875 -6.359375 C 6.515625 -7.742188 7.0625 -8.984375 7.0625 -10.078125 C 7.0625 -10.804688 6.875 -11.378906 6.5 -11.796875 C 6.125 -12.210938 5.59375 -12.421875 4.90625 -12.421875 C 4.382812 -12.421875 3.898438 -12.273438 3.453125 -11.984375 C 3.015625 -11.691406 2.617188 -11.34375 2.265625 -10.9375 L 0.703125 -12.5 C 1.359375 -13.195312 2.035156 -13.734375 2.734375 -14.109375 C 3.441406 -14.484375 4.289062 -14.671875 5.28125 -14.671875 C 6.1875 -14.671875 6.976562 -14.488281 7.65625 -14.125 C 8.34375 -13.769531 8.875 -13.253906 9.25 -12.578125 C 9.625 -11.910156 9.8125 -11.128906 9.8125 -10.234375 C 9.8125 -9.367188 9.59375 -8.484375 9.15625 -7.578125 C 8.726562 -6.679688 8.148438 -5.785156 7.421875 -4.890625 C 6.703125 -3.992188 5.898438 -3.117188 5.015625 -2.265625 C 5.378906 -2.296875 5.78125 -2.328125 6.21875 -2.359375 C 6.65625 -2.398438 7.035156 -2.421875 7.359375 -2.421875 L 10.5 -2.421875 L 10.5 0 Z M 0.84375 0 "/></g></g></g></g></g></g></g></g></svg>