<svg xmlns="http://www.w3.org/2000/svg" xmlns:xlink="http://www.w3.org/1999/xlink" width="188" zoomAndPan="magnify" viewBox="0 0 141 118.499997" height="158" preserveAspectRatio="xMidYMid meet" version="1.0"><defs><clipPath id="d167e942a8"><path d="M 0.296875 0 L 140.703125 0 L 140.703125 117.792969 L 0.296875 117.792969 Z M 0.296875 0 " clip-rule="nonzero"/></clipPath><clipPath id="d4a69c30d6"><path d="M 7.765625 0 L 133.234375 0 C 135.214844 0 137.117188 0.785156 138.515625 2.1875 C 139.917969 3.589844 140.703125 5.488281 140.703125 7.46875 L 140.703125 110.324219 C 140.703125 112.304688 139.917969 114.203125 138.515625 115.605469 C 137.117188 117.003906 135.214844 117.792969 133.234375 117.792969 L 7.765625 117.792969 C 5.785156 117.792969 3.882812 117.003906 2.484375 115.605469 C 1.082031 114.203125 0.296875 112.304688 0.296875 110.324219 L 0.296875 7.46875 C 0.296875 5.488281 1.082031 3.589844 2.484375 2.1875 C 3.882812 0.785156 5.785156 0 7.765625 0 Z M 7.765625 0 " clip-rule="nonzero"/></clipPath><clipPath id="fc12f22229"><path d="M 0.296875 0 L 140.703125 0 L 140.703125 117.792969 L 0.296875 117.792969 Z M 0.296875 0 " clip-rule="nonzero"/></clipPath><clipPath id="532f6e01ef"><path d="M 7.765625 0 L 133.234375 0 C 135.214844 0 137.117188 0.785156 138.515625 2.1875 C 139.917969 3.589844 140.703125 5.488281 140.703125 7.46875 L 140.703125 110.324219 C 140.703125 112.304688 139.917969 114.203125 138.515625 115.605469 C 137.117188 117.003906 135.214844 117.792969 133.234375 117.792969 L 7.765625 117.792969 C 5.785156 117.792969 3.882812 117.003906 2.484375 115.605469 C 1.082031 114.203125 0.296875 112.304688 0.296875 110.324219 L 0.296875 7.46875 C 0.296875 5.488281 1.082031 3.589844 2.484375 2.1875 C 3.882812 0.785156 5.785156 0 7.765625 0 Z M 7.765625 0 " clip-rule="nonzero"/></clipPath><clipPath id="38d54ed2e4"><rect x="0" width="141" y="0" height="118"/></clipPath></defs><g clip-path="url(#d167e942a8)"><g clip-path="url(#d4a69c30d6)"><g><g clip-path="url(#38d54ed2e4)"><g clip-path="url(#fc12f22229)"><g clip-path="url(#532f6e01ef)"><path fill="#9fdefd" d="M 0.296875 0 L 140.671875 0 L 140.671875 117.792969 L 0.296875 117.792969 Z M 0.296875 0 " fill-opacity="1" fill-rule="nonzero"/></g></g></g></g></g></g></svg>