<svg xmlns="http://www.w3.org/2000/svg" xmlns:xlink="http://www.w3.org/1999/xlink" width="500" zoomAndPan="magnify" viewBox="0 0 375 374.999991" height="500" preserveAspectRatio="xMidYMid meet" version="1.0"><defs><clipPath id="03f9600d55"><path d="M 109.96875 106.96875 L 265.03125 106.96875 L 265.03125 262.03125 L 109.96875 262.03125 Z M 109.96875 106.96875 " clip-rule="nonzero"/></clipPath><clipPath id="b9b204c72c"><path d="M 134.195312 106.96875 L 240.804688 106.96875 C 247.230469 106.96875 253.390625 109.519531 257.9375 114.0625 C 262.480469 118.609375 265.03125 124.769531 265.03125 131.195312 L 265.03125 237.804688 C 265.03125 251.183594 254.183594 262.03125 240.804688 262.03125 L 134.195312 262.03125 C 127.769531 262.03125 121.609375 259.480469 117.0625 254.9375 C 112.519531 250.390625 109.96875 244.230469 109.96875 237.804688 L 109.96875 131.195312 C 109.96875 117.816406 120.816406 106.96875 134.195312 106.96875 Z M 134.195312 106.96875 " clip-rule="nonzero"/></clipPath><clipPath id="86edcde7ba"><path d="M 0.96875 0.96875 L 156.03125 0.96875 L 156.03125 156.03125 L 0.96875 156.03125 Z M 0.96875 0.96875 " clip-rule="nonzero"/></clipPath><clipPath id="eef11b7d8d"><path d="M 25.195312 0.96875 L 131.804688 0.96875 C 138.230469 0.96875 144.390625 3.519531 148.9375 8.0625 C 153.480469 12.609375 156.03125 18.769531 156.03125 25.195312 L 156.03125 131.804688 C 156.03125 145.183594 145.183594 156.03125 131.804688 156.03125 L 25.195312 156.03125 C 18.769531 156.03125 12.609375 153.480469 8.0625 148.9375 C 3.519531 144.390625 0.96875 138.230469 0.96875 131.804688 L 0.96875 25.195312 C 0.96875 11.816406 11.816406 0.96875 25.195312 0.96875 Z M 25.195312 0.96875 " clip-rule="nonzero"/></clipPath><clipPath id="73f737616e"><rect x="0" width="157" y="0" height="157"/></clipPath></defs><path fill="#ffffff" d="M 337.5 375 L 37.5 375 C 36.273438 375 35.046875 374.941406 33.824219 374.820312 C 32.601562 374.699219 31.390625 374.519531 30.183594 374.28125 C 28.980469 374.039062 27.789062 373.742188 26.613281 373.386719 C 25.4375 373.027344 24.285156 372.617188 23.148438 372.144531 C 22.015625 371.675781 20.90625 371.152344 19.824219 370.570312 C 18.738281 369.992188 17.6875 369.363281 16.667969 368.679688 C 15.644531 367.996094 14.660156 367.265625 13.710938 366.488281 C 12.761719 365.707031 11.851562 364.886719 10.984375 364.015625 C 10.113281 363.148438 9.292969 362.238281 8.511719 361.289062 C 7.734375 360.339844 7.003906 359.355469 6.320312 358.332031 C 5.636719 357.3125 5.007812 356.261719 4.429688 355.175781 C 3.847656 354.09375 3.324219 352.984375 2.855469 351.851562 C 2.382812 350.714844 1.972656 349.5625 1.613281 348.386719 C 1.257812 347.210938 0.960938 346.019531 0.71875 344.816406 C 0.480469 343.609375 0.300781 342.398438 0.179688 341.175781 C 0.0585938 339.953125 0 338.726562 0 337.5 L 0 37.5 C 0 36.273438 0.0585938 35.046875 0.179688 33.824219 C 0.300781 32.601562 0.480469 31.390625 0.71875 30.183594 C 0.960938 28.980469 1.257812 27.789062 1.613281 26.613281 C 1.972656 25.4375 2.382812 24.285156 2.855469 23.148438 C 3.324219 22.015625 3.847656 20.90625 4.429688 19.824219 C 5.007812 18.738281 5.636719 17.6875 6.320312 16.667969 C 7.003906 15.644531 7.734375 14.660156 8.511719 13.710938 C 9.292969 12.761719 10.113281 11.851562 10.984375 10.984375 C 11.851562 10.113281 12.761719 9.292969 13.710938 8.511719 C 14.660156 7.734375 15.644531 7.003906 16.667969 6.320312 C 17.6875 5.636719 18.738281 5.007812 19.824219 4.429688 C 20.90625 3.847656 22.015625 3.324219 23.148438 2.855469 C 24.285156 2.382812 25.4375 1.972656 26.613281 1.613281 C 27.789062 1.257812 28.980469 0.960938 30.183594 0.71875 C 31.390625 0.480469 32.601562 0.300781 33.824219 0.179688 C 35.046875 0.0585938 36.273438 0 37.5 0 L 337.5 0 C 338.726562 0 339.953125 0.0585938 341.175781 0.179688 C 342.398438 0.300781 343.609375 0.480469 344.816406 0.71875 C 346.019531 0.960938 347.210938 1.257812 348.386719 1.613281 C 349.5625 1.972656 350.714844 2.382812 351.851562 2.855469 C 352.984375 3.324219 354.09375 3.847656 355.175781 4.429688 C 356.261719 5.007812 357.3125 5.636719 358.332031 6.320312 C 359.355469 7.003906 360.339844 7.734375 361.289062 8.511719 C 362.238281 9.292969 363.148438 10.113281 364.015625 10.984375 C 364.886719 11.851562 365.707031 12.761719 366.488281 13.710938 C 367.265625 14.660156 367.996094 15.644531 368.679688 16.667969 C 369.363281 17.6875 369.992188 18.738281 370.570312 19.824219 C 371.152344 20.90625 371.675781 22.015625 372.144531 23.148438 C 372.617188 24.285156 373.027344 25.4375 373.386719 26.613281 C 373.742188 27.789062 374.039062 28.980469 374.28125 30.183594 C 374.519531 31.390625 374.699219 32.601562 374.820312 33.824219 C 374.941406 35.046875 375 36.273438 375 37.5 L 375 337.5 C 375 338.726562 374.941406 339.953125 374.820312 341.175781 C 374.699219 342.398438 374.519531 343.609375 374.28125 344.816406 C 374.039062 346.019531 373.742188 347.210938 373.386719 348.386719 C 373.027344 349.5625 372.617188 350.714844 372.144531 351.851562 C 371.675781 352.984375 371.152344 354.09375 370.570312 355.175781 C 369.992188 356.261719 369.363281 357.3125 368.679688 358.332031 C 367.996094 359.355469 367.265625 360.339844 366.488281 361.289062 C 365.707031 362.238281 364.886719 363.148438 364.015625 364.015625 C 363.148438 364.886719 362.238281 365.707031 361.289062 366.488281 C 360.339844 367.265625 359.355469 367.996094 358.332031 368.679688 C 357.3125 369.363281 356.261719 369.992188 355.175781 370.570312 C 354.09375 371.152344 352.984375 371.675781 351.851562 372.144531 C 350.714844 372.617188 349.5625 373.027344 348.386719 373.386719 C 347.210938 373.742188 346.019531 374.039062 344.816406 374.28125 C 343.609375 374.519531 342.398438 374.699219 341.175781 374.820312 C 339.953125 374.941406 338.726562 375 337.5 375 Z M 337.5 375 " fill-opacity="1" fill-rule="nonzero"/><path fill="#00a0e9" d="M 337.5 183.75 C 337.5 186.203125 337.441406 188.660156 337.320312 191.109375 C 337.199219 193.5625 337.019531 196.007812 336.777344 198.453125 C 336.535156 200.894531 336.238281 203.332031 335.875 205.757812 C 335.515625 208.1875 335.097656 210.605469 334.617188 213.011719 C 334.140625 215.421875 333.601562 217.816406 333.003906 220.195312 C 332.40625 222.578125 331.753906 224.945312 331.042969 227.292969 C 330.328125 229.640625 329.558594 231.972656 328.730469 234.285156 C 327.90625 236.59375 327.019531 238.882812 326.082031 241.152344 C 325.140625 243.421875 324.148438 245.664062 323.097656 247.882812 C 322.046875 250.101562 320.945312 252.292969 319.789062 254.460938 C 318.632812 256.625 317.421875 258.757812 316.160156 260.867188 C 314.898438 262.972656 313.585938 265.042969 312.21875 267.085938 C 310.855469 269.125 309.445312 271.132812 307.980469 273.105469 C 306.519531 275.078125 305.007812 277.011719 303.453125 278.910156 C 301.894531 280.804688 300.292969 282.664062 298.644531 284.484375 C 296.992188 286.300781 295.300781 288.082031 293.566406 289.816406 C 291.832031 291.550781 290.054688 293.242188 288.234375 294.894531 C 286.414062 296.542969 284.554688 298.144531 282.660156 299.703125 C 280.761719 301.257812 278.828125 302.769531 276.855469 304.230469 C 274.882812 305.695312 272.875 307.105469 270.835938 308.46875 C 268.792969 309.835938 266.722656 311.148438 264.617188 312.410156 C 262.511719 313.671875 260.375 314.882812 258.210938 316.039062 C 256.042969 317.195312 253.851562 318.296875 251.632812 319.347656 C 249.414062 320.398438 247.171875 321.390625 244.902344 322.332031 C 242.632812 323.269531 240.34375 324.15625 238.035156 324.980469 C 235.722656 325.808594 233.390625 326.578125 231.042969 327.292969 C 228.695312 328.003906 226.328125 328.65625 223.945312 329.253906 C 221.566406 329.851562 219.171875 330.390625 216.761719 330.867188 C 214.355469 331.347656 211.9375 331.765625 209.507812 332.125 C 207.082031 332.488281 204.644531 332.785156 202.203125 333.027344 C 199.757812 333.269531 197.3125 333.449219 194.859375 333.570312 C 192.410156 333.691406 189.953125 333.75 187.5 333.75 C 185.046875 333.75 182.589844 333.691406 180.140625 333.570312 C 177.6875 333.449219 175.242188 333.269531 172.796875 333.027344 C 170.355469 332.785156 167.917969 332.488281 165.492188 332.125 C 163.0625 331.765625 160.644531 331.347656 158.238281 330.867188 C 155.828125 330.390625 153.433594 329.851562 151.054688 329.253906 C 148.671875 328.65625 146.304688 328.003906 143.957031 327.292969 C 141.609375 326.578125 139.277344 325.808594 136.964844 324.980469 C 134.65625 324.15625 132.367188 323.269531 130.097656 322.332031 C 127.828125 321.390625 125.585938 320.398438 123.367188 319.347656 C 121.148438 318.296875 118.957031 317.195312 116.789062 316.039062 C 114.625 314.882812 112.488281 313.671875 110.382812 312.410156 C 108.277344 311.148438 106.207031 309.835938 104.164062 308.46875 C 102.125 307.105469 100.117188 305.695312 98.144531 304.230469 C 96.171875 302.769531 94.238281 301.257812 92.339844 299.703125 C 90.445312 298.144531 88.585938 296.542969 86.765625 294.894531 C 84.945312 293.242188 83.167969 291.550781 81.433594 289.816406 C 79.699219 288.082031 78.007812 286.300781 76.355469 284.484375 C 74.707031 282.664062 73.105469 280.804688 71.546875 278.910156 C 69.992188 277.011719 68.480469 275.078125 67.019531 273.105469 C 65.554688 271.132812 64.144531 269.125 62.78125 267.085938 C 61.414062 265.042969 60.101562 262.972656 58.839844 260.867188 C 57.578125 258.757812 56.367188 256.625 55.210938 254.460938 C 54.054688 252.292969 52.953125 250.101562 51.902344 247.882812 C 50.851562 245.664062 49.859375 243.421875 48.917969 241.152344 C 47.980469 238.882812 47.09375 236.59375 46.269531 234.285156 C 45.441406 231.972656 44.671875 229.640625 43.957031 227.292969 C 43.246094 224.945312 42.589844 222.578125 41.996094 220.195312 C 41.398438 217.816406 40.859375 215.421875 40.382812 213.011719 C 39.902344 210.605469 39.484375 208.1875 39.125 205.757812 C 38.761719 203.332031 38.464844 200.894531 38.222656 198.453125 C 37.980469 196.007812 37.800781 193.5625 37.679688 191.109375 C 37.558594 188.660156 37.5 186.203125 37.5 183.75 C 37.5 181.296875 37.558594 178.839844 37.679688 176.390625 C 37.800781 173.9375 37.980469 171.492188 38.222656 169.046875 C 38.464844 166.605469 38.761719 164.167969 39.125 161.742188 C 39.484375 159.3125 39.902344 156.894531 40.382812 154.488281 C 40.859375 152.078125 41.398438 149.683594 41.996094 147.304688 C 42.589844 144.921875 43.246094 142.554688 43.957031 140.207031 C 44.671875 137.859375 45.441406 135.527344 46.269531 133.214844 C 47.09375 130.90625 47.980469 128.617188 48.917969 126.347656 C 49.859375 124.078125 50.851562 121.835938 51.902344 119.617188 C 52.953125 117.398438 54.054688 115.207031 55.210938 113.039062 C 56.367188 110.875 57.578125 108.738281 58.839844 106.632812 C 60.101562 104.527344 61.414062 102.457031 62.78125 100.414062 C 64.144531 98.375 65.554688 96.367188 67.019531 94.394531 C 68.480469 92.421875 69.992188 90.488281 71.546875 88.589844 C 73.105469 86.695312 74.707031 84.835938 76.355469 83.015625 C 78.007812 81.195312 79.699219 79.417969 81.433594 77.683594 C 83.167969 75.949219 84.945312 74.257812 86.765625 72.605469 C 88.585938 70.957031 90.445312 69.355469 92.339844 67.796875 C 94.238281 66.242188 96.171875 64.730469 98.144531 63.269531 C 100.117188 61.804688 102.125 60.394531 104.164062 59.03125 C 106.207031 57.664062 108.277344 56.351562 110.382812 55.089844 C 112.488281 53.828125 114.625 52.617188 116.789062 51.460938 C 118.957031 50.304688 121.148438 49.203125 123.367188 48.152344 C 125.585938 47.101562 127.828125 46.109375 130.097656 45.167969 C 132.367188 44.230469 134.65625 43.34375 136.964844 42.519531 C 139.277344 41.691406 141.609375 40.921875 143.957031 40.207031 C 146.304688 39.496094 148.671875 38.839844 151.054688 38.246094 C 153.433594 37.648438 155.828125 37.109375 158.238281 36.632812 C 160.644531 36.152344 163.0625 35.734375 165.492188 35.375 C 167.917969 35.011719 170.355469 34.714844 172.796875 34.472656 C 175.242188 34.230469 177.6875 34.050781 180.140625 33.929688 C 182.589844 33.808594 185.046875 33.75 187.5 33.75 C 189.953125 33.75 192.410156 33.808594 194.859375 33.929688 C 197.3125 34.050781 199.757812 34.230469 202.203125 34.472656 C 204.644531 34.714844 207.082031 35.011719 209.507812 35.375 C 211.9375 35.734375 214.355469 36.152344 216.761719 36.632812 C 219.171875 37.109375 221.566406 37.648438 223.945312 38.246094 C 226.328125 38.839844 228.695312 39.496094 231.042969 40.207031 C 233.390625 40.921875 235.722656 41.691406 238.035156 42.519531 C 240.34375 43.34375 242.632812 44.230469 244.902344 45.167969 C 247.171875 46.109375 249.414062 47.101562 251.632812 48.152344 C 253.851562 49.203125 256.042969 50.304688 258.210938 51.460938 C 260.375 52.617188 262.511719 53.828125 264.617188 55.089844 C 266.722656 56.351562 268.792969 57.664062 270.835938 59.03125 C 272.875 60.394531 274.882812 61.804688 276.855469 63.269531 C 278.828125 64.730469 280.761719 66.242188 282.660156 67.796875 C 284.554688 69.355469 286.414062 70.957031 288.234375 72.605469 C 290.054688 74.257812 291.832031 75.949219 293.566406 77.683594 C 295.300781 79.417969 296.992188 81.195312 298.644531 83.015625 C 300.292969 84.835938 301.894531 86.691406 303.453125 88.589844 C 305.007812 90.488281 306.519531 92.421875 307.980469 94.394531 C 309.445312 96.367188 310.855469 98.375 312.21875 100.414062 C 313.585938 102.457031 314.898438 104.527344 316.160156 106.632812 C 317.421875 108.738281 318.632812 110.875 319.789062 113.039062 C 320.945312 115.207031 322.046875 117.398438 323.097656 119.617188 C 324.148438 121.835938 325.140625 124.078125 326.082031 126.347656 C 327.019531 128.617188 327.90625 130.90625 328.730469 133.214844 C 329.558594 135.527344 330.328125 137.859375 331.042969 140.207031 C 331.753906 142.554688 332.40625 144.921875 333.003906 147.304688 C 333.601562 149.683594 334.140625 152.078125 334.617188 154.488281 C 335.097656 156.894531 335.515625 159.3125 335.875 161.742188 C 336.238281 164.167969 336.535156 166.605469 336.777344 169.046875 C 337.019531 171.492188 337.199219 173.9375 337.320312 176.390625 C 337.441406 178.839844 337.5 181.296875 337.5 183.75 Z M 337.5 183.75 " fill-opacity="1" fill-rule="nonzero"/><path fill="#ffffff" d="M 243.601562 195.898438 C 254.023438 189.226562 254.023438 178.273438 243.601562 171.601562 L 150.226562 111.523438 C 139.800781 104.851562 131.324219 109.5 131.324219 121.875 L 131.324219 245.625 C 131.324219 258 139.875 262.648438 150.226562 255.976562 Z M 243.601562 195.898438 " fill-opacity="1" fill-rule="nonzero"/><g clip-path="url(#03f9600d55)"><g clip-path="url(#b9b204c72c)"><g transform="matrix(1, 0, 0, 1, 109, 106)"><g clip-path="url(#73f737616e)"><g clip-path="url(#86edcde7ba)"><g clip-path="url(#eef11b7d8d)"><path fill="#ffffff" d="M 0.96875 0.96875 L 156.03125 0.96875 L 156.03125 156.03125 L 0.96875 156.03125 Z M 0.96875 0.96875 " fill-opacity="1" fill-rule="nonzero"/></g></g></g></g></g></g></svg>