<svg xmlns="http://www.w3.org/2000/svg" viewBox="0 0 160 60"><defs><style>.cls-1{fill:#f2f2f2;}.cls-2{fill:#969696;}</style></defs><g id="レイヤー_2" data-name="レイヤー 2"><g id="レイヤー_3" data-name="レイヤー 3"><rect class="cls-1" x="0.5" y="0.5" width="159" height="59" rx="9.5"/><path class="cls-2" d="M150,1a9,9,0,0,1,9,9V50a9,9,0,0,1-9,9H10a9,9,0,0,1-9-9V10a9,9,0,0,1,9-9H150m0-1H10A10,10,0,0,0,0,10V50A10,10,0,0,0,10,60H150a10,10,0,0,0,10-10V10A10,10,0,0,0,150,0Z"/><rect x="56" y="11" width="48" height="38" rx="4.75"/><path class="cls-1" d="M73.17,41.85V18.55L88.83,30.2Z"/><rect class="cls-1" x="61" y="15" width="2" height="8"/><rect class="cls-1" x="61" y="26" width="2" height="8"/><rect class="cls-1" x="61" y="37" width="2" height="8"/><rect class="cls-1" x="97" y="15" width="2" height="8"/><rect class="cls-1" x="97" y="26" width="2" height="8"/><rect class="cls-1" x="97" y="37" width="2" height="8"/></g></g></svg>