<svg xmlns="http://www.w3.org/2000/svg" viewBox="0 0 68 68"><defs><style>.cls-1{fill:#f2f2f2;}.cls-2{fill:#969696;}</style></defs><g id="レイヤー_2" data-name="レイヤー 2"><g id="レイヤー_1-2" data-name="レイヤー 1"><rect class="cls-1" width="68" height="68" rx="10"/><path class="cls-2" d="M58,2a8,8,0,0,1,8,8V58a8,8,0,0,1-8,8H10a8,8,0,0,1-8-8V10a8,8,0,0,1,8-8H58m0-2H10A10,10,0,0,0,0,10V58A10,10,0,0,0,10,68H58A10,10,0,0,0,68,58V10A10,10,0,0,0,58,0Z"/><path d="M48.83,52.89,23.64,34,48.83,15.11Z"/><rect x="20" y="15.11" width="4.9" height="37.78" transform="translate(44.9 68) rotate(180)"/></g></g></svg>